G04 #@! TF.GenerationSoftware,KiCad,Pcbnew,(5.1.2)-2*
G04 #@! TF.CreationDate,2019-10-26T17:19:00+01:00*
G04 #@! TF.ProjectId,canbus_boiler_switch,63616e62-7573-45f6-926f-696c65725f73,rev?*
G04 #@! TF.SameCoordinates,Original*
G04 #@! TF.FileFunction,Soldermask,Top*
G04 #@! TF.FilePolarity,Negative*
%FSLAX46Y46*%
G04 Gerber Fmt 4.6, Leading zero omitted, Abs format (unit mm)*
G04 Created by KiCad (PCBNEW (5.1.2)-2) date 2019-10-26 17:19:00*
%MOMM*%
%LPD*%
G04 APERTURE LIST*
%ADD10C,0.100000*%
G04 APERTURE END LIST*
D10*
G36*
X88028871Y-207492408D02*
G01*
X88333883Y-207618748D01*
X88608387Y-207802166D01*
X88841834Y-208035613D01*
X89025252Y-208310117D01*
X89151592Y-208615129D01*
X89216000Y-208938928D01*
X89216000Y-209269072D01*
X89151592Y-209592871D01*
X89025252Y-209897883D01*
X88841834Y-210172387D01*
X88608387Y-210405834D01*
X88333883Y-210589252D01*
X88028871Y-210715592D01*
X87705073Y-210780000D01*
X87374927Y-210780000D01*
X87213029Y-210747796D01*
X87051129Y-210715592D01*
X86746117Y-210589252D01*
X86471613Y-210405834D01*
X86238166Y-210172387D01*
X86054748Y-209897883D01*
X85928408Y-209592871D01*
X85864000Y-209269072D01*
X85864000Y-208938928D01*
X85928408Y-208615129D01*
X86054748Y-208310117D01*
X86238166Y-208035613D01*
X86471613Y-207802166D01*
X86746117Y-207618748D01*
X87051129Y-207492408D01*
X87374927Y-207428000D01*
X87705073Y-207428000D01*
X88028871Y-207492408D01*
X88028871Y-207492408D01*
G37*
G36*
X77868871Y-207492408D02*
G01*
X78173883Y-207618748D01*
X78448387Y-207802166D01*
X78681834Y-208035613D01*
X78865252Y-208310117D01*
X78991592Y-208615129D01*
X79056000Y-208938928D01*
X79056000Y-209269072D01*
X78991592Y-209592871D01*
X78865252Y-209897883D01*
X78681834Y-210172387D01*
X78448387Y-210405834D01*
X78173883Y-210589252D01*
X77868871Y-210715592D01*
X77545073Y-210780000D01*
X77214927Y-210780000D01*
X77053029Y-210747796D01*
X76891129Y-210715592D01*
X76586117Y-210589252D01*
X76311613Y-210405834D01*
X76078166Y-210172387D01*
X75894748Y-209897883D01*
X75768408Y-209592871D01*
X75704000Y-209269072D01*
X75704000Y-208938928D01*
X75768408Y-208615129D01*
X75894748Y-208310117D01*
X76078166Y-208035613D01*
X76311613Y-207802166D01*
X76586117Y-207618748D01*
X76891129Y-207492408D01*
X77214927Y-207428000D01*
X77545073Y-207428000D01*
X77868871Y-207492408D01*
X77868871Y-207492408D01*
G37*
G36*
X72558871Y-207492408D02*
G01*
X72863883Y-207618748D01*
X73138387Y-207802166D01*
X73371834Y-208035613D01*
X73555252Y-208310117D01*
X73681592Y-208615129D01*
X73746000Y-208938928D01*
X73746000Y-209269072D01*
X73681592Y-209592871D01*
X73555252Y-209897883D01*
X73371834Y-210172387D01*
X73138387Y-210405834D01*
X72863883Y-210589252D01*
X72558871Y-210715592D01*
X72235073Y-210780000D01*
X71904927Y-210780000D01*
X71743029Y-210747796D01*
X71581129Y-210715592D01*
X71276117Y-210589252D01*
X71001613Y-210405834D01*
X70768166Y-210172387D01*
X70584748Y-209897883D01*
X70458408Y-209592871D01*
X70394000Y-209269072D01*
X70394000Y-208938928D01*
X70458408Y-208615129D01*
X70584748Y-208310117D01*
X70768166Y-208035613D01*
X71001613Y-207802166D01*
X71276117Y-207618748D01*
X71581129Y-207492408D01*
X71904927Y-207428000D01*
X72235073Y-207428000D01*
X72558871Y-207492408D01*
X72558871Y-207492408D01*
G37*
G36*
X62398871Y-207492408D02*
G01*
X62703883Y-207618748D01*
X62978387Y-207802166D01*
X63211834Y-208035613D01*
X63395252Y-208310117D01*
X63521592Y-208615129D01*
X63586000Y-208938928D01*
X63586000Y-209269072D01*
X63521592Y-209592871D01*
X63395252Y-209897883D01*
X63211834Y-210172387D01*
X62978387Y-210405834D01*
X62703883Y-210589252D01*
X62398871Y-210715592D01*
X62075073Y-210780000D01*
X61744927Y-210780000D01*
X61583029Y-210747796D01*
X61421129Y-210715592D01*
X61116117Y-210589252D01*
X60841613Y-210405834D01*
X60608166Y-210172387D01*
X60424748Y-209897883D01*
X60298408Y-209592871D01*
X60234000Y-209269072D01*
X60234000Y-208938928D01*
X60298408Y-208615129D01*
X60424748Y-208310117D01*
X60608166Y-208035613D01*
X60841613Y-207802166D01*
X61116117Y-207618748D01*
X61421129Y-207492408D01*
X61744927Y-207428000D01*
X62075073Y-207428000D01*
X62398871Y-207492408D01*
X62398871Y-207492408D01*
G37*
G36*
X70406560Y-201974166D02*
G01*
X70554153Y-202035301D01*
X70686982Y-202124055D01*
X70799945Y-202237018D01*
X70888699Y-202369847D01*
X70949834Y-202517440D01*
X70981000Y-202674123D01*
X70981000Y-202833877D01*
X70949834Y-202990560D01*
X70888699Y-203138153D01*
X70799945Y-203270982D01*
X70686982Y-203383945D01*
X70554153Y-203472699D01*
X70554152Y-203472700D01*
X70554151Y-203472700D01*
X70406560Y-203533834D01*
X70249878Y-203565000D01*
X70090122Y-203565000D01*
X69933440Y-203533834D01*
X69785849Y-203472700D01*
X69785848Y-203472700D01*
X69785847Y-203472699D01*
X69653018Y-203383945D01*
X69540055Y-203270982D01*
X69451301Y-203138153D01*
X69390166Y-202990560D01*
X69359000Y-202833877D01*
X69359000Y-202674123D01*
X69390166Y-202517440D01*
X69451301Y-202369847D01*
X69540055Y-202237018D01*
X69653018Y-202124055D01*
X69785847Y-202035301D01*
X69933440Y-201974166D01*
X70090122Y-201943000D01*
X70249878Y-201943000D01*
X70406560Y-201974166D01*
X70406560Y-201974166D01*
G37*
G36*
X65326560Y-201974166D02*
G01*
X65474153Y-202035301D01*
X65606982Y-202124055D01*
X65719945Y-202237018D01*
X65808699Y-202369847D01*
X65869834Y-202517440D01*
X65901000Y-202674123D01*
X65901000Y-202833877D01*
X65869834Y-202990560D01*
X65808699Y-203138153D01*
X65719945Y-203270982D01*
X65606982Y-203383945D01*
X65474153Y-203472699D01*
X65474152Y-203472700D01*
X65474151Y-203472700D01*
X65326560Y-203533834D01*
X65169878Y-203565000D01*
X65010122Y-203565000D01*
X64853440Y-203533834D01*
X64705849Y-203472700D01*
X64705848Y-203472700D01*
X64705847Y-203472699D01*
X64573018Y-203383945D01*
X64460055Y-203270982D01*
X64371301Y-203138153D01*
X64310166Y-202990560D01*
X64279000Y-202833877D01*
X64279000Y-202674123D01*
X64310166Y-202517440D01*
X64371301Y-202369847D01*
X64460055Y-202237018D01*
X64573018Y-202124055D01*
X64705847Y-202035301D01*
X64853440Y-201974166D01*
X65010122Y-201943000D01*
X65169878Y-201943000D01*
X65326560Y-201974166D01*
X65326560Y-201974166D01*
G37*
G36*
X67866560Y-201974166D02*
G01*
X68014153Y-202035301D01*
X68146982Y-202124055D01*
X68259945Y-202237018D01*
X68348699Y-202369847D01*
X68409834Y-202517440D01*
X68441000Y-202674123D01*
X68441000Y-202833877D01*
X68409834Y-202990560D01*
X68348699Y-203138153D01*
X68259945Y-203270982D01*
X68146982Y-203383945D01*
X68014153Y-203472699D01*
X68014152Y-203472700D01*
X68014151Y-203472700D01*
X67866560Y-203533834D01*
X67709878Y-203565000D01*
X67550122Y-203565000D01*
X67393440Y-203533834D01*
X67245849Y-203472700D01*
X67245848Y-203472700D01*
X67245847Y-203472699D01*
X67113018Y-203383945D01*
X67000055Y-203270982D01*
X66911301Y-203138153D01*
X66850166Y-202990560D01*
X66819000Y-202833877D01*
X66819000Y-202674123D01*
X66850166Y-202517440D01*
X66911301Y-202369847D01*
X67000055Y-202237018D01*
X67113018Y-202124055D01*
X67245847Y-202035301D01*
X67393440Y-201974166D01*
X67550122Y-201943000D01*
X67709878Y-201943000D01*
X67866560Y-201974166D01*
X67866560Y-201974166D01*
G37*
G36*
X80796560Y-201974166D02*
G01*
X80944153Y-202035301D01*
X81076982Y-202124055D01*
X81189945Y-202237018D01*
X81278699Y-202369847D01*
X81339834Y-202517440D01*
X81371000Y-202674123D01*
X81371000Y-202833877D01*
X81339834Y-202990560D01*
X81278699Y-203138153D01*
X81189945Y-203270982D01*
X81076982Y-203383945D01*
X80944153Y-203472699D01*
X80944152Y-203472700D01*
X80944151Y-203472700D01*
X80796560Y-203533834D01*
X80639878Y-203565000D01*
X80480122Y-203565000D01*
X80323440Y-203533834D01*
X80175849Y-203472700D01*
X80175848Y-203472700D01*
X80175847Y-203472699D01*
X80043018Y-203383945D01*
X79930055Y-203270982D01*
X79841301Y-203138153D01*
X79780166Y-202990560D01*
X79749000Y-202833877D01*
X79749000Y-202674123D01*
X79780166Y-202517440D01*
X79841301Y-202369847D01*
X79930055Y-202237018D01*
X80043018Y-202124055D01*
X80175847Y-202035301D01*
X80323440Y-201974166D01*
X80480122Y-201943000D01*
X80639878Y-201943000D01*
X80796560Y-201974166D01*
X80796560Y-201974166D01*
G37*
G36*
X85876560Y-201974166D02*
G01*
X86024153Y-202035301D01*
X86156982Y-202124055D01*
X86269945Y-202237018D01*
X86358699Y-202369847D01*
X86419834Y-202517440D01*
X86451000Y-202674123D01*
X86451000Y-202833877D01*
X86419834Y-202990560D01*
X86358699Y-203138153D01*
X86269945Y-203270982D01*
X86156982Y-203383945D01*
X86024153Y-203472699D01*
X86024152Y-203472700D01*
X86024151Y-203472700D01*
X85876560Y-203533834D01*
X85719878Y-203565000D01*
X85560122Y-203565000D01*
X85403440Y-203533834D01*
X85255849Y-203472700D01*
X85255848Y-203472700D01*
X85255847Y-203472699D01*
X85123018Y-203383945D01*
X85010055Y-203270982D01*
X84921301Y-203138153D01*
X84860166Y-202990560D01*
X84829000Y-202833877D01*
X84829000Y-202674123D01*
X84860166Y-202517440D01*
X84921301Y-202369847D01*
X85010055Y-202237018D01*
X85123018Y-202124055D01*
X85255847Y-202035301D01*
X85403440Y-201974166D01*
X85560122Y-201943000D01*
X85719878Y-201943000D01*
X85876560Y-201974166D01*
X85876560Y-201974166D01*
G37*
G36*
X83336560Y-201974166D02*
G01*
X83484153Y-202035301D01*
X83616982Y-202124055D01*
X83729945Y-202237018D01*
X83818699Y-202369847D01*
X83879834Y-202517440D01*
X83911000Y-202674123D01*
X83911000Y-202833877D01*
X83879834Y-202990560D01*
X83818699Y-203138153D01*
X83729945Y-203270982D01*
X83616982Y-203383945D01*
X83484153Y-203472699D01*
X83484152Y-203472700D01*
X83484151Y-203472700D01*
X83336560Y-203533834D01*
X83179878Y-203565000D01*
X83020122Y-203565000D01*
X82863440Y-203533834D01*
X82715849Y-203472700D01*
X82715848Y-203472700D01*
X82715847Y-203472699D01*
X82583018Y-203383945D01*
X82470055Y-203270982D01*
X82381301Y-203138153D01*
X82320166Y-202990560D01*
X82289000Y-202833877D01*
X82289000Y-202674123D01*
X82320166Y-202517440D01*
X82381301Y-202369847D01*
X82470055Y-202237018D01*
X82583018Y-202124055D01*
X82715847Y-202035301D01*
X82863440Y-201974166D01*
X83020122Y-201943000D01*
X83179878Y-201943000D01*
X83336560Y-201974166D01*
X83336560Y-201974166D01*
G37*
G36*
X64631000Y-201025000D02*
G01*
X63009000Y-201025000D01*
X63009000Y-199403000D01*
X64631000Y-199403000D01*
X64631000Y-201025000D01*
X64631000Y-201025000D01*
G37*
G36*
X66596560Y-199434166D02*
G01*
X66744153Y-199495301D01*
X66876982Y-199584055D01*
X66989945Y-199697018D01*
X67078699Y-199829847D01*
X67139834Y-199977440D01*
X67171000Y-200134123D01*
X67171000Y-200293877D01*
X67139834Y-200450560D01*
X67078699Y-200598153D01*
X66989945Y-200730982D01*
X66876982Y-200843945D01*
X66744153Y-200932699D01*
X66744152Y-200932700D01*
X66744151Y-200932700D01*
X66596560Y-200993834D01*
X66439878Y-201025000D01*
X66280122Y-201025000D01*
X66123440Y-200993834D01*
X65975849Y-200932700D01*
X65975848Y-200932700D01*
X65975847Y-200932699D01*
X65843018Y-200843945D01*
X65730055Y-200730982D01*
X65641301Y-200598153D01*
X65580166Y-200450560D01*
X65549000Y-200293877D01*
X65549000Y-200134123D01*
X65580166Y-199977440D01*
X65641301Y-199829847D01*
X65730055Y-199697018D01*
X65843018Y-199584055D01*
X65975847Y-199495301D01*
X66123440Y-199434166D01*
X66280122Y-199403000D01*
X66439878Y-199403000D01*
X66596560Y-199434166D01*
X66596560Y-199434166D01*
G37*
G36*
X69136560Y-199434166D02*
G01*
X69284153Y-199495301D01*
X69416982Y-199584055D01*
X69529945Y-199697018D01*
X69618699Y-199829847D01*
X69679834Y-199977440D01*
X69711000Y-200134123D01*
X69711000Y-200293877D01*
X69679834Y-200450560D01*
X69618699Y-200598153D01*
X69529945Y-200730982D01*
X69416982Y-200843945D01*
X69284153Y-200932699D01*
X69284152Y-200932700D01*
X69284151Y-200932700D01*
X69136560Y-200993834D01*
X68979878Y-201025000D01*
X68820122Y-201025000D01*
X68663440Y-200993834D01*
X68515849Y-200932700D01*
X68515848Y-200932700D01*
X68515847Y-200932699D01*
X68383018Y-200843945D01*
X68270055Y-200730982D01*
X68181301Y-200598153D01*
X68120166Y-200450560D01*
X68089000Y-200293877D01*
X68089000Y-200134123D01*
X68120166Y-199977440D01*
X68181301Y-199829847D01*
X68270055Y-199697018D01*
X68383018Y-199584055D01*
X68515847Y-199495301D01*
X68663440Y-199434166D01*
X68820122Y-199403000D01*
X68979878Y-199403000D01*
X69136560Y-199434166D01*
X69136560Y-199434166D01*
G37*
G36*
X80101000Y-201025000D02*
G01*
X78479000Y-201025000D01*
X78479000Y-199403000D01*
X80101000Y-199403000D01*
X80101000Y-201025000D01*
X80101000Y-201025000D01*
G37*
G36*
X82066560Y-199434166D02*
G01*
X82214153Y-199495301D01*
X82346982Y-199584055D01*
X82459945Y-199697018D01*
X82548699Y-199829847D01*
X82609834Y-199977440D01*
X82641000Y-200134123D01*
X82641000Y-200293877D01*
X82609834Y-200450560D01*
X82548699Y-200598153D01*
X82459945Y-200730982D01*
X82346982Y-200843945D01*
X82214153Y-200932699D01*
X82214152Y-200932700D01*
X82214151Y-200932700D01*
X82066560Y-200993834D01*
X81909878Y-201025000D01*
X81750122Y-201025000D01*
X81593440Y-200993834D01*
X81445849Y-200932700D01*
X81445848Y-200932700D01*
X81445847Y-200932699D01*
X81313018Y-200843945D01*
X81200055Y-200730982D01*
X81111301Y-200598153D01*
X81050166Y-200450560D01*
X81019000Y-200293877D01*
X81019000Y-200134123D01*
X81050166Y-199977440D01*
X81111301Y-199829847D01*
X81200055Y-199697018D01*
X81313018Y-199584055D01*
X81445847Y-199495301D01*
X81593440Y-199434166D01*
X81750122Y-199403000D01*
X81909878Y-199403000D01*
X82066560Y-199434166D01*
X82066560Y-199434166D01*
G37*
G36*
X84606560Y-199434166D02*
G01*
X84754153Y-199495301D01*
X84886982Y-199584055D01*
X84999945Y-199697018D01*
X85088699Y-199829847D01*
X85149834Y-199977440D01*
X85181000Y-200134123D01*
X85181000Y-200293877D01*
X85149834Y-200450560D01*
X85088699Y-200598153D01*
X84999945Y-200730982D01*
X84886982Y-200843945D01*
X84754153Y-200932699D01*
X84754152Y-200932700D01*
X84754151Y-200932700D01*
X84606560Y-200993834D01*
X84449878Y-201025000D01*
X84290122Y-201025000D01*
X84133440Y-200993834D01*
X83985849Y-200932700D01*
X83985848Y-200932700D01*
X83985847Y-200932699D01*
X83853018Y-200843945D01*
X83740055Y-200730982D01*
X83651301Y-200598153D01*
X83590166Y-200450560D01*
X83559000Y-200293877D01*
X83559000Y-200134123D01*
X83590166Y-199977440D01*
X83651301Y-199829847D01*
X83740055Y-199697018D01*
X83853018Y-199584055D01*
X83985847Y-199495301D01*
X84133440Y-199434166D01*
X84290122Y-199403000D01*
X84449878Y-199403000D01*
X84606560Y-199434166D01*
X84606560Y-199434166D01*
G37*
G36*
X89040604Y-193896347D02*
G01*
X89077144Y-193907432D01*
X89110821Y-193925433D01*
X89140341Y-193949659D01*
X89164567Y-193979179D01*
X89182568Y-194012856D01*
X89193653Y-194049396D01*
X89198000Y-194093538D01*
X89198000Y-195542462D01*
X89193653Y-195586604D01*
X89182568Y-195623144D01*
X89164567Y-195656821D01*
X89140341Y-195686341D01*
X89110821Y-195710567D01*
X89077144Y-195728568D01*
X89040604Y-195739653D01*
X88996462Y-195744000D01*
X88047538Y-195744000D01*
X88003396Y-195739653D01*
X87966856Y-195728568D01*
X87933179Y-195710567D01*
X87903659Y-195686341D01*
X87879433Y-195656821D01*
X87861432Y-195623144D01*
X87850347Y-195586604D01*
X87846000Y-195542462D01*
X87846000Y-194093538D01*
X87850347Y-194049396D01*
X87861432Y-194012856D01*
X87879433Y-193979179D01*
X87903659Y-193949659D01*
X87933179Y-193925433D01*
X87966856Y-193907432D01*
X88003396Y-193896347D01*
X88047538Y-193892000D01*
X88996462Y-193892000D01*
X89040604Y-193896347D01*
X89040604Y-193896347D01*
G37*
G36*
X86240604Y-193896347D02*
G01*
X86277144Y-193907432D01*
X86310821Y-193925433D01*
X86340341Y-193949659D01*
X86364567Y-193979179D01*
X86382568Y-194012856D01*
X86393653Y-194049396D01*
X86398000Y-194093538D01*
X86398000Y-195542462D01*
X86393653Y-195586604D01*
X86382568Y-195623144D01*
X86364567Y-195656821D01*
X86340341Y-195686341D01*
X86310821Y-195710567D01*
X86277144Y-195728568D01*
X86240604Y-195739653D01*
X86196462Y-195744000D01*
X85247538Y-195744000D01*
X85203396Y-195739653D01*
X85166856Y-195728568D01*
X85133179Y-195710567D01*
X85103659Y-195686341D01*
X85079433Y-195656821D01*
X85061432Y-195623144D01*
X85050347Y-195586604D01*
X85046000Y-195542462D01*
X85046000Y-194093538D01*
X85050347Y-194049396D01*
X85061432Y-194012856D01*
X85079433Y-193979179D01*
X85103659Y-193949659D01*
X85133179Y-193925433D01*
X85166856Y-193907432D01*
X85203396Y-193896347D01*
X85247538Y-193892000D01*
X86196462Y-193892000D01*
X86240604Y-193896347D01*
X86240604Y-193896347D01*
G37*
G36*
X81794604Y-192752347D02*
G01*
X81831144Y-192763432D01*
X81864821Y-192781433D01*
X81894341Y-192805659D01*
X81918567Y-192835179D01*
X81936568Y-192868856D01*
X81947653Y-192905396D01*
X81952000Y-192949538D01*
X81952000Y-193898462D01*
X81947653Y-193942604D01*
X81936568Y-193979144D01*
X81918567Y-194012821D01*
X81894341Y-194042341D01*
X81864821Y-194066567D01*
X81831144Y-194084568D01*
X81794604Y-194095653D01*
X81750462Y-194100000D01*
X80301538Y-194100000D01*
X80257396Y-194095653D01*
X80220856Y-194084568D01*
X80187179Y-194066567D01*
X80157659Y-194042341D01*
X80133433Y-194012821D01*
X80115432Y-193979144D01*
X80104347Y-193942604D01*
X80100000Y-193898462D01*
X80100000Y-192949538D01*
X80104347Y-192905396D01*
X80115432Y-192868856D01*
X80133433Y-192835179D01*
X80157659Y-192805659D01*
X80187179Y-192781433D01*
X80220856Y-192763432D01*
X80257396Y-192752347D01*
X80301538Y-192748000D01*
X81750462Y-192748000D01*
X81794604Y-192752347D01*
X81794604Y-192752347D01*
G37*
G36*
X68082604Y-192118347D02*
G01*
X68119144Y-192129432D01*
X68152821Y-192147433D01*
X68182341Y-192171659D01*
X68206567Y-192201179D01*
X68224568Y-192234856D01*
X68235653Y-192271396D01*
X68240000Y-192315538D01*
X68240000Y-193764462D01*
X68235653Y-193808604D01*
X68224568Y-193845144D01*
X68206567Y-193878821D01*
X68182341Y-193908341D01*
X68152821Y-193932567D01*
X68119144Y-193950568D01*
X68082604Y-193961653D01*
X68038462Y-193966000D01*
X67089538Y-193966000D01*
X67045396Y-193961653D01*
X67008856Y-193950568D01*
X66975179Y-193932567D01*
X66945659Y-193908341D01*
X66921433Y-193878821D01*
X66903432Y-193845144D01*
X66892347Y-193808604D01*
X66888000Y-193764462D01*
X66888000Y-192315538D01*
X66892347Y-192271396D01*
X66903432Y-192234856D01*
X66921433Y-192201179D01*
X66945659Y-192171659D01*
X66975179Y-192147433D01*
X67008856Y-192129432D01*
X67045396Y-192118347D01*
X67089538Y-192114000D01*
X68038462Y-192114000D01*
X68082604Y-192118347D01*
X68082604Y-192118347D01*
G37*
G36*
X65282604Y-192118347D02*
G01*
X65319144Y-192129432D01*
X65352821Y-192147433D01*
X65382341Y-192171659D01*
X65406567Y-192201179D01*
X65424568Y-192234856D01*
X65435653Y-192271396D01*
X65440000Y-192315538D01*
X65440000Y-193764462D01*
X65435653Y-193808604D01*
X65424568Y-193845144D01*
X65406567Y-193878821D01*
X65382341Y-193908341D01*
X65352821Y-193932567D01*
X65319144Y-193950568D01*
X65282604Y-193961653D01*
X65238462Y-193966000D01*
X64289538Y-193966000D01*
X64245396Y-193961653D01*
X64208856Y-193950568D01*
X64175179Y-193932567D01*
X64145659Y-193908341D01*
X64121433Y-193878821D01*
X64103432Y-193845144D01*
X64092347Y-193808604D01*
X64088000Y-193764462D01*
X64088000Y-192315538D01*
X64092347Y-192271396D01*
X64103432Y-192234856D01*
X64121433Y-192201179D01*
X64145659Y-192171659D01*
X64175179Y-192147433D01*
X64208856Y-192129432D01*
X64245396Y-192118347D01*
X64289538Y-192114000D01*
X65238462Y-192114000D01*
X65282604Y-192118347D01*
X65282604Y-192118347D01*
G37*
G36*
X72373928Y-192691764D02*
G01*
X72395009Y-192698160D01*
X72414445Y-192708548D01*
X72431476Y-192722524D01*
X72445452Y-192739555D01*
X72455840Y-192758991D01*
X72462236Y-192780072D01*
X72465000Y-192808140D01*
X72465000Y-193271860D01*
X72462236Y-193299928D01*
X72455840Y-193321009D01*
X72445452Y-193340445D01*
X72431476Y-193357476D01*
X72414445Y-193371452D01*
X72395009Y-193381840D01*
X72373928Y-193388236D01*
X72345860Y-193391000D01*
X70532140Y-193391000D01*
X70504072Y-193388236D01*
X70482991Y-193381840D01*
X70463555Y-193371452D01*
X70446524Y-193357476D01*
X70432548Y-193340445D01*
X70422160Y-193321009D01*
X70415764Y-193299928D01*
X70413000Y-193271860D01*
X70413000Y-192808140D01*
X70415764Y-192780072D01*
X70422160Y-192758991D01*
X70432548Y-192739555D01*
X70446524Y-192722524D01*
X70463555Y-192708548D01*
X70482991Y-192698160D01*
X70504072Y-192691764D01*
X70532140Y-192689000D01*
X72345860Y-192689000D01*
X72373928Y-192691764D01*
X72373928Y-192691764D01*
G37*
G36*
X77323928Y-192691764D02*
G01*
X77345009Y-192698160D01*
X77364445Y-192708548D01*
X77381476Y-192722524D01*
X77395452Y-192739555D01*
X77405840Y-192758991D01*
X77412236Y-192780072D01*
X77415000Y-192808140D01*
X77415000Y-193271860D01*
X77412236Y-193299928D01*
X77405840Y-193321009D01*
X77395452Y-193340445D01*
X77381476Y-193357476D01*
X77364445Y-193371452D01*
X77345009Y-193381840D01*
X77323928Y-193388236D01*
X77295860Y-193391000D01*
X75482140Y-193391000D01*
X75454072Y-193388236D01*
X75432991Y-193381840D01*
X75413555Y-193371452D01*
X75396524Y-193357476D01*
X75382548Y-193340445D01*
X75372160Y-193321009D01*
X75365764Y-193299928D01*
X75363000Y-193271860D01*
X75363000Y-192808140D01*
X75365764Y-192780072D01*
X75372160Y-192758991D01*
X75382548Y-192739555D01*
X75396524Y-192722524D01*
X75413555Y-192708548D01*
X75432991Y-192698160D01*
X75454072Y-192691764D01*
X75482140Y-192689000D01*
X77295860Y-192689000D01*
X77323928Y-192691764D01*
X77323928Y-192691764D01*
G37*
G36*
X72373928Y-191421764D02*
G01*
X72395009Y-191428160D01*
X72414445Y-191438548D01*
X72431476Y-191452524D01*
X72445452Y-191469555D01*
X72455840Y-191488991D01*
X72462236Y-191510072D01*
X72465000Y-191538140D01*
X72465000Y-192001860D01*
X72462236Y-192029928D01*
X72455840Y-192051009D01*
X72445452Y-192070445D01*
X72431476Y-192087476D01*
X72414445Y-192101452D01*
X72395009Y-192111840D01*
X72373928Y-192118236D01*
X72345860Y-192121000D01*
X70532140Y-192121000D01*
X70504072Y-192118236D01*
X70482991Y-192111840D01*
X70463555Y-192101452D01*
X70446524Y-192087476D01*
X70432548Y-192070445D01*
X70422160Y-192051009D01*
X70415764Y-192029928D01*
X70413000Y-192001860D01*
X70413000Y-191538140D01*
X70415764Y-191510072D01*
X70422160Y-191488991D01*
X70432548Y-191469555D01*
X70446524Y-191452524D01*
X70463555Y-191438548D01*
X70482991Y-191428160D01*
X70504072Y-191421764D01*
X70532140Y-191419000D01*
X72345860Y-191419000D01*
X72373928Y-191421764D01*
X72373928Y-191421764D01*
G37*
G36*
X77323928Y-191421764D02*
G01*
X77345009Y-191428160D01*
X77364445Y-191438548D01*
X77381476Y-191452524D01*
X77395452Y-191469555D01*
X77405840Y-191488991D01*
X77412236Y-191510072D01*
X77415000Y-191538140D01*
X77415000Y-192001860D01*
X77412236Y-192029928D01*
X77405840Y-192051009D01*
X77395452Y-192070445D01*
X77381476Y-192087476D01*
X77364445Y-192101452D01*
X77345009Y-192111840D01*
X77323928Y-192118236D01*
X77295860Y-192121000D01*
X75482140Y-192121000D01*
X75454072Y-192118236D01*
X75432991Y-192111840D01*
X75413555Y-192101452D01*
X75396524Y-192087476D01*
X75382548Y-192070445D01*
X75372160Y-192051009D01*
X75365764Y-192029928D01*
X75363000Y-192001860D01*
X75363000Y-191538140D01*
X75365764Y-191510072D01*
X75372160Y-191488991D01*
X75382548Y-191469555D01*
X75396524Y-191452524D01*
X75413555Y-191438548D01*
X75432991Y-191428160D01*
X75454072Y-191421764D01*
X75482140Y-191419000D01*
X77295860Y-191419000D01*
X77323928Y-191421764D01*
X77323928Y-191421764D01*
G37*
G36*
X81794604Y-189952347D02*
G01*
X81831144Y-189963432D01*
X81864821Y-189981433D01*
X81894341Y-190005659D01*
X81918567Y-190035179D01*
X81936568Y-190068856D01*
X81947653Y-190105396D01*
X81952000Y-190149538D01*
X81952000Y-191098462D01*
X81947653Y-191142604D01*
X81936568Y-191179144D01*
X81918567Y-191212821D01*
X81894341Y-191242341D01*
X81864821Y-191266567D01*
X81831144Y-191284568D01*
X81794604Y-191295653D01*
X81750462Y-191300000D01*
X80301538Y-191300000D01*
X80257396Y-191295653D01*
X80220856Y-191284568D01*
X80187179Y-191266567D01*
X80157659Y-191242341D01*
X80133433Y-191212821D01*
X80115432Y-191179144D01*
X80104347Y-191142604D01*
X80100000Y-191098462D01*
X80100000Y-190149538D01*
X80104347Y-190105396D01*
X80115432Y-190068856D01*
X80133433Y-190035179D01*
X80157659Y-190005659D01*
X80187179Y-189981433D01*
X80220856Y-189963432D01*
X80257396Y-189952347D01*
X80301538Y-189948000D01*
X81750462Y-189948000D01*
X81794604Y-189952347D01*
X81794604Y-189952347D01*
G37*
G36*
X91983000Y-191028000D02*
G01*
X89881000Y-191028000D01*
X89881000Y-183051000D01*
X91983000Y-183051000D01*
X91983000Y-191028000D01*
X91983000Y-191028000D01*
G37*
G36*
X72373928Y-190151764D02*
G01*
X72395009Y-190158160D01*
X72414445Y-190168548D01*
X72431476Y-190182524D01*
X72445452Y-190199555D01*
X72455840Y-190218991D01*
X72462236Y-190240072D01*
X72465000Y-190268140D01*
X72465000Y-190731860D01*
X72462236Y-190759928D01*
X72455840Y-190781009D01*
X72445452Y-190800445D01*
X72431476Y-190817476D01*
X72414445Y-190831452D01*
X72395009Y-190841840D01*
X72373928Y-190848236D01*
X72345860Y-190851000D01*
X70532140Y-190851000D01*
X70504072Y-190848236D01*
X70482991Y-190841840D01*
X70463555Y-190831452D01*
X70446524Y-190817476D01*
X70432548Y-190800445D01*
X70422160Y-190781009D01*
X70415764Y-190759928D01*
X70413000Y-190731860D01*
X70413000Y-190268140D01*
X70415764Y-190240072D01*
X70422160Y-190218991D01*
X70432548Y-190199555D01*
X70446524Y-190182524D01*
X70463555Y-190168548D01*
X70482991Y-190158160D01*
X70504072Y-190151764D01*
X70532140Y-190149000D01*
X72345860Y-190149000D01*
X72373928Y-190151764D01*
X72373928Y-190151764D01*
G37*
G36*
X77323928Y-190151764D02*
G01*
X77345009Y-190158160D01*
X77364445Y-190168548D01*
X77381476Y-190182524D01*
X77395452Y-190199555D01*
X77405840Y-190218991D01*
X77412236Y-190240072D01*
X77415000Y-190268140D01*
X77415000Y-190731860D01*
X77412236Y-190759928D01*
X77405840Y-190781009D01*
X77395452Y-190800445D01*
X77381476Y-190817476D01*
X77364445Y-190831452D01*
X77345009Y-190841840D01*
X77323928Y-190848236D01*
X77295860Y-190851000D01*
X75482140Y-190851000D01*
X75454072Y-190848236D01*
X75432991Y-190841840D01*
X75413555Y-190831452D01*
X75396524Y-190817476D01*
X75382548Y-190800445D01*
X75372160Y-190781009D01*
X75365764Y-190759928D01*
X75363000Y-190731860D01*
X75363000Y-190268140D01*
X75365764Y-190240072D01*
X75372160Y-190218991D01*
X75382548Y-190199555D01*
X75396524Y-190182524D01*
X75413555Y-190168548D01*
X75432991Y-190158160D01*
X75454072Y-190151764D01*
X75482140Y-190149000D01*
X77295860Y-190149000D01*
X77323928Y-190151764D01*
X77323928Y-190151764D01*
G37*
G36*
X77323928Y-188881764D02*
G01*
X77345009Y-188888160D01*
X77364445Y-188898548D01*
X77381476Y-188912524D01*
X77395452Y-188929555D01*
X77405840Y-188948991D01*
X77412236Y-188970072D01*
X77415000Y-188998140D01*
X77415000Y-189461860D01*
X77412236Y-189489928D01*
X77405840Y-189511009D01*
X77395452Y-189530445D01*
X77381476Y-189547476D01*
X77364445Y-189561452D01*
X77345009Y-189571840D01*
X77323928Y-189578236D01*
X77295860Y-189581000D01*
X75482140Y-189581000D01*
X75454072Y-189578236D01*
X75432991Y-189571840D01*
X75413555Y-189561452D01*
X75396524Y-189547476D01*
X75382548Y-189530445D01*
X75372160Y-189511009D01*
X75365764Y-189489928D01*
X75363000Y-189461860D01*
X75363000Y-188998140D01*
X75365764Y-188970072D01*
X75372160Y-188948991D01*
X75382548Y-188929555D01*
X75396524Y-188912524D01*
X75413555Y-188898548D01*
X75432991Y-188888160D01*
X75454072Y-188881764D01*
X75482140Y-188879000D01*
X77295860Y-188879000D01*
X77323928Y-188881764D01*
X77323928Y-188881764D01*
G37*
G36*
X72373928Y-188881764D02*
G01*
X72395009Y-188888160D01*
X72414445Y-188898548D01*
X72431476Y-188912524D01*
X72445452Y-188929555D01*
X72455840Y-188948991D01*
X72462236Y-188970072D01*
X72465000Y-188998140D01*
X72465000Y-189461860D01*
X72462236Y-189489928D01*
X72455840Y-189511009D01*
X72445452Y-189530445D01*
X72431476Y-189547476D01*
X72414445Y-189561452D01*
X72395009Y-189571840D01*
X72373928Y-189578236D01*
X72345860Y-189581000D01*
X70532140Y-189581000D01*
X70504072Y-189578236D01*
X70482991Y-189571840D01*
X70463555Y-189561452D01*
X70446524Y-189547476D01*
X70432548Y-189530445D01*
X70422160Y-189511009D01*
X70415764Y-189489928D01*
X70413000Y-189461860D01*
X70413000Y-188998140D01*
X70415764Y-188970072D01*
X70422160Y-188948991D01*
X70432548Y-188929555D01*
X70446524Y-188912524D01*
X70463555Y-188898548D01*
X70482991Y-188888160D01*
X70504072Y-188881764D01*
X70532140Y-188879000D01*
X72345860Y-188879000D01*
X72373928Y-188881764D01*
X72373928Y-188881764D01*
G37*
G36*
X97038604Y-186022347D02*
G01*
X97075144Y-186033432D01*
X97108821Y-186051433D01*
X97138341Y-186075659D01*
X97162567Y-186105179D01*
X97180568Y-186138856D01*
X97191653Y-186175396D01*
X97196000Y-186219538D01*
X97196000Y-187668462D01*
X97191653Y-187712604D01*
X97180568Y-187749144D01*
X97162567Y-187782821D01*
X97138341Y-187812341D01*
X97108821Y-187836567D01*
X97075144Y-187854568D01*
X97038604Y-187865653D01*
X96994462Y-187870000D01*
X96045538Y-187870000D01*
X96001396Y-187865653D01*
X95964856Y-187854568D01*
X95931179Y-187836567D01*
X95901659Y-187812341D01*
X95877433Y-187782821D01*
X95859432Y-187749144D01*
X95848347Y-187712604D01*
X95844000Y-187668462D01*
X95844000Y-186219538D01*
X95848347Y-186175396D01*
X95859432Y-186138856D01*
X95877433Y-186105179D01*
X95901659Y-186075659D01*
X95931179Y-186051433D01*
X95964856Y-186033432D01*
X96001396Y-186022347D01*
X96045538Y-186018000D01*
X96994462Y-186018000D01*
X97038604Y-186022347D01*
X97038604Y-186022347D01*
G37*
G36*
X99838604Y-186022347D02*
G01*
X99875144Y-186033432D01*
X99908821Y-186051433D01*
X99938341Y-186075659D01*
X99962567Y-186105179D01*
X99980568Y-186138856D01*
X99991653Y-186175396D01*
X99996000Y-186219538D01*
X99996000Y-187668462D01*
X99991653Y-187712604D01*
X99980568Y-187749144D01*
X99962567Y-187782821D01*
X99938341Y-187812341D01*
X99908821Y-187836567D01*
X99875144Y-187854568D01*
X99838604Y-187865653D01*
X99794462Y-187870000D01*
X98845538Y-187870000D01*
X98801396Y-187865653D01*
X98764856Y-187854568D01*
X98731179Y-187836567D01*
X98701659Y-187812341D01*
X98677433Y-187782821D01*
X98659432Y-187749144D01*
X98648347Y-187712604D01*
X98644000Y-187668462D01*
X98644000Y-186219538D01*
X98648347Y-186175396D01*
X98659432Y-186138856D01*
X98677433Y-186105179D01*
X98701659Y-186075659D01*
X98731179Y-186051433D01*
X98764856Y-186033432D01*
X98801396Y-186022347D01*
X98845538Y-186018000D01*
X99794462Y-186018000D01*
X99838604Y-186022347D01*
X99838604Y-186022347D01*
G37*
G36*
X82047928Y-181044764D02*
G01*
X82069009Y-181051160D01*
X82088445Y-181061548D01*
X82105476Y-181075524D01*
X82119452Y-181092555D01*
X82129840Y-181111991D01*
X82136236Y-181133072D01*
X82139000Y-181161140D01*
X82139000Y-183074860D01*
X82136236Y-183102928D01*
X82129840Y-183124009D01*
X82119452Y-183143445D01*
X82105476Y-183160476D01*
X82088445Y-183174452D01*
X82069009Y-183184840D01*
X82047928Y-183191236D01*
X82019860Y-183194000D01*
X81556140Y-183194000D01*
X81528072Y-183191236D01*
X81506991Y-183184840D01*
X81487555Y-183174452D01*
X81470524Y-183160476D01*
X81456548Y-183143445D01*
X81446160Y-183124009D01*
X81439764Y-183102928D01*
X81437000Y-183074860D01*
X81437000Y-181161140D01*
X81439764Y-181133072D01*
X81446160Y-181111991D01*
X81456548Y-181092555D01*
X81470524Y-181075524D01*
X81487555Y-181061548D01*
X81506991Y-181051160D01*
X81528072Y-181044764D01*
X81556140Y-181042000D01*
X82019860Y-181042000D01*
X82047928Y-181044764D01*
X82047928Y-181044764D01*
G37*
G36*
X83317928Y-181044764D02*
G01*
X83339009Y-181051160D01*
X83358445Y-181061548D01*
X83375476Y-181075524D01*
X83389452Y-181092555D01*
X83399840Y-181111991D01*
X83406236Y-181133072D01*
X83409000Y-181161140D01*
X83409000Y-183074860D01*
X83406236Y-183102928D01*
X83399840Y-183124009D01*
X83389452Y-183143445D01*
X83375476Y-183160476D01*
X83358445Y-183174452D01*
X83339009Y-183184840D01*
X83317928Y-183191236D01*
X83289860Y-183194000D01*
X82826140Y-183194000D01*
X82798072Y-183191236D01*
X82776991Y-183184840D01*
X82757555Y-183174452D01*
X82740524Y-183160476D01*
X82726548Y-183143445D01*
X82716160Y-183124009D01*
X82709764Y-183102928D01*
X82707000Y-183074860D01*
X82707000Y-181161140D01*
X82709764Y-181133072D01*
X82716160Y-181111991D01*
X82726548Y-181092555D01*
X82740524Y-181075524D01*
X82757555Y-181061548D01*
X82776991Y-181051160D01*
X82798072Y-181044764D01*
X82826140Y-181042000D01*
X83289860Y-181042000D01*
X83317928Y-181044764D01*
X83317928Y-181044764D01*
G37*
G36*
X75697928Y-181044764D02*
G01*
X75719009Y-181051160D01*
X75738445Y-181061548D01*
X75755476Y-181075524D01*
X75769452Y-181092555D01*
X75779840Y-181111991D01*
X75786236Y-181133072D01*
X75789000Y-181161140D01*
X75789000Y-183074860D01*
X75786236Y-183102928D01*
X75779840Y-183124009D01*
X75769452Y-183143445D01*
X75755476Y-183160476D01*
X75738445Y-183174452D01*
X75719009Y-183184840D01*
X75697928Y-183191236D01*
X75669860Y-183194000D01*
X75206140Y-183194000D01*
X75178072Y-183191236D01*
X75156991Y-183184840D01*
X75137555Y-183174452D01*
X75120524Y-183160476D01*
X75106548Y-183143445D01*
X75096160Y-183124009D01*
X75089764Y-183102928D01*
X75087000Y-183074860D01*
X75087000Y-181161140D01*
X75089764Y-181133072D01*
X75096160Y-181111991D01*
X75106548Y-181092555D01*
X75120524Y-181075524D01*
X75137555Y-181061548D01*
X75156991Y-181051160D01*
X75178072Y-181044764D01*
X75206140Y-181042000D01*
X75669860Y-181042000D01*
X75697928Y-181044764D01*
X75697928Y-181044764D01*
G37*
G36*
X79507928Y-181044764D02*
G01*
X79529009Y-181051160D01*
X79548445Y-181061548D01*
X79565476Y-181075524D01*
X79579452Y-181092555D01*
X79589840Y-181111991D01*
X79596236Y-181133072D01*
X79599000Y-181161140D01*
X79599000Y-183074860D01*
X79596236Y-183102928D01*
X79589840Y-183124009D01*
X79579452Y-183143445D01*
X79565476Y-183160476D01*
X79548445Y-183174452D01*
X79529009Y-183184840D01*
X79507928Y-183191236D01*
X79479860Y-183194000D01*
X79016140Y-183194000D01*
X78988072Y-183191236D01*
X78966991Y-183184840D01*
X78947555Y-183174452D01*
X78930524Y-183160476D01*
X78916548Y-183143445D01*
X78906160Y-183124009D01*
X78899764Y-183102928D01*
X78897000Y-183074860D01*
X78897000Y-181161140D01*
X78899764Y-181133072D01*
X78906160Y-181111991D01*
X78916548Y-181092555D01*
X78930524Y-181075524D01*
X78947555Y-181061548D01*
X78966991Y-181051160D01*
X78988072Y-181044764D01*
X79016140Y-181042000D01*
X79479860Y-181042000D01*
X79507928Y-181044764D01*
X79507928Y-181044764D01*
G37*
G36*
X78237928Y-181044764D02*
G01*
X78259009Y-181051160D01*
X78278445Y-181061548D01*
X78295476Y-181075524D01*
X78309452Y-181092555D01*
X78319840Y-181111991D01*
X78326236Y-181133072D01*
X78329000Y-181161140D01*
X78329000Y-183074860D01*
X78326236Y-183102928D01*
X78319840Y-183124009D01*
X78309452Y-183143445D01*
X78295476Y-183160476D01*
X78278445Y-183174452D01*
X78259009Y-183184840D01*
X78237928Y-183191236D01*
X78209860Y-183194000D01*
X77746140Y-183194000D01*
X77718072Y-183191236D01*
X77696991Y-183184840D01*
X77677555Y-183174452D01*
X77660524Y-183160476D01*
X77646548Y-183143445D01*
X77636160Y-183124009D01*
X77629764Y-183102928D01*
X77627000Y-183074860D01*
X77627000Y-181161140D01*
X77629764Y-181133072D01*
X77636160Y-181111991D01*
X77646548Y-181092555D01*
X77660524Y-181075524D01*
X77677555Y-181061548D01*
X77696991Y-181051160D01*
X77718072Y-181044764D01*
X77746140Y-181042000D01*
X78209860Y-181042000D01*
X78237928Y-181044764D01*
X78237928Y-181044764D01*
G37*
G36*
X74427928Y-181044764D02*
G01*
X74449009Y-181051160D01*
X74468445Y-181061548D01*
X74485476Y-181075524D01*
X74499452Y-181092555D01*
X74509840Y-181111991D01*
X74516236Y-181133072D01*
X74519000Y-181161140D01*
X74519000Y-183074860D01*
X74516236Y-183102928D01*
X74509840Y-183124009D01*
X74499452Y-183143445D01*
X74485476Y-183160476D01*
X74468445Y-183174452D01*
X74449009Y-183184840D01*
X74427928Y-183191236D01*
X74399860Y-183194000D01*
X73936140Y-183194000D01*
X73908072Y-183191236D01*
X73886991Y-183184840D01*
X73867555Y-183174452D01*
X73850524Y-183160476D01*
X73836548Y-183143445D01*
X73826160Y-183124009D01*
X73819764Y-183102928D01*
X73817000Y-183074860D01*
X73817000Y-181161140D01*
X73819764Y-181133072D01*
X73826160Y-181111991D01*
X73836548Y-181092555D01*
X73850524Y-181075524D01*
X73867555Y-181061548D01*
X73886991Y-181051160D01*
X73908072Y-181044764D01*
X73936140Y-181042000D01*
X74399860Y-181042000D01*
X74427928Y-181044764D01*
X74427928Y-181044764D01*
G37*
G36*
X73157928Y-181044764D02*
G01*
X73179009Y-181051160D01*
X73198445Y-181061548D01*
X73215476Y-181075524D01*
X73229452Y-181092555D01*
X73239840Y-181111991D01*
X73246236Y-181133072D01*
X73249000Y-181161140D01*
X73249000Y-183074860D01*
X73246236Y-183102928D01*
X73239840Y-183124009D01*
X73229452Y-183143445D01*
X73215476Y-183160476D01*
X73198445Y-183174452D01*
X73179009Y-183184840D01*
X73157928Y-183191236D01*
X73129860Y-183194000D01*
X72666140Y-183194000D01*
X72638072Y-183191236D01*
X72616991Y-183184840D01*
X72597555Y-183174452D01*
X72580524Y-183160476D01*
X72566548Y-183143445D01*
X72556160Y-183124009D01*
X72549764Y-183102928D01*
X72547000Y-183074860D01*
X72547000Y-181161140D01*
X72549764Y-181133072D01*
X72556160Y-181111991D01*
X72566548Y-181092555D01*
X72580524Y-181075524D01*
X72597555Y-181061548D01*
X72616991Y-181051160D01*
X72638072Y-181044764D01*
X72666140Y-181042000D01*
X73129860Y-181042000D01*
X73157928Y-181044764D01*
X73157928Y-181044764D01*
G37*
G36*
X76967928Y-181044764D02*
G01*
X76989009Y-181051160D01*
X77008445Y-181061548D01*
X77025476Y-181075524D01*
X77039452Y-181092555D01*
X77049840Y-181111991D01*
X77056236Y-181133072D01*
X77059000Y-181161140D01*
X77059000Y-183074860D01*
X77056236Y-183102928D01*
X77049840Y-183124009D01*
X77039452Y-183143445D01*
X77025476Y-183160476D01*
X77008445Y-183174452D01*
X76989009Y-183184840D01*
X76967928Y-183191236D01*
X76939860Y-183194000D01*
X76476140Y-183194000D01*
X76448072Y-183191236D01*
X76426991Y-183184840D01*
X76407555Y-183174452D01*
X76390524Y-183160476D01*
X76376548Y-183143445D01*
X76366160Y-183124009D01*
X76359764Y-183102928D01*
X76357000Y-183074860D01*
X76357000Y-181161140D01*
X76359764Y-181133072D01*
X76366160Y-181111991D01*
X76376548Y-181092555D01*
X76390524Y-181075524D01*
X76407555Y-181061548D01*
X76426991Y-181051160D01*
X76448072Y-181044764D01*
X76476140Y-181042000D01*
X76939860Y-181042000D01*
X76967928Y-181044764D01*
X76967928Y-181044764D01*
G37*
G36*
X80777928Y-181044764D02*
G01*
X80799009Y-181051160D01*
X80818445Y-181061548D01*
X80835476Y-181075524D01*
X80849452Y-181092555D01*
X80859840Y-181111991D01*
X80866236Y-181133072D01*
X80869000Y-181161140D01*
X80869000Y-183074860D01*
X80866236Y-183102928D01*
X80859840Y-183124009D01*
X80849452Y-183143445D01*
X80835476Y-183160476D01*
X80818445Y-183174452D01*
X80799009Y-183184840D01*
X80777928Y-183191236D01*
X80749860Y-183194000D01*
X80286140Y-183194000D01*
X80258072Y-183191236D01*
X80236991Y-183184840D01*
X80217555Y-183174452D01*
X80200524Y-183160476D01*
X80186548Y-183143445D01*
X80176160Y-183124009D01*
X80169764Y-183102928D01*
X80167000Y-183074860D01*
X80167000Y-181161140D01*
X80169764Y-181133072D01*
X80176160Y-181111991D01*
X80186548Y-181092555D01*
X80200524Y-181075524D01*
X80217555Y-181061548D01*
X80236991Y-181051160D01*
X80258072Y-181044764D01*
X80286140Y-181042000D01*
X80749860Y-181042000D01*
X80777928Y-181044764D01*
X80777928Y-181044764D01*
G37*
G36*
X91983000Y-179153000D02*
G01*
X89881000Y-179153000D01*
X89881000Y-171176000D01*
X91983000Y-171176000D01*
X91983000Y-179153000D01*
X91983000Y-179153000D01*
G37*
G36*
X68590604Y-176116347D02*
G01*
X68627144Y-176127432D01*
X68660821Y-176145433D01*
X68690341Y-176169659D01*
X68714567Y-176199179D01*
X68732568Y-176232856D01*
X68743653Y-176269396D01*
X68748000Y-176313538D01*
X68748000Y-177762462D01*
X68743653Y-177806604D01*
X68732568Y-177843144D01*
X68714567Y-177876821D01*
X68690341Y-177906341D01*
X68660821Y-177930567D01*
X68627144Y-177948568D01*
X68590604Y-177959653D01*
X68546462Y-177964000D01*
X67597538Y-177964000D01*
X67553396Y-177959653D01*
X67516856Y-177948568D01*
X67483179Y-177930567D01*
X67453659Y-177906341D01*
X67429433Y-177876821D01*
X67411432Y-177843144D01*
X67400347Y-177806604D01*
X67396000Y-177762462D01*
X67396000Y-176313538D01*
X67400347Y-176269396D01*
X67411432Y-176232856D01*
X67429433Y-176199179D01*
X67453659Y-176169659D01*
X67483179Y-176145433D01*
X67516856Y-176127432D01*
X67553396Y-176116347D01*
X67597538Y-176112000D01*
X68546462Y-176112000D01*
X68590604Y-176116347D01*
X68590604Y-176116347D01*
G37*
G36*
X65790604Y-176116347D02*
G01*
X65827144Y-176127432D01*
X65860821Y-176145433D01*
X65890341Y-176169659D01*
X65914567Y-176199179D01*
X65932568Y-176232856D01*
X65943653Y-176269396D01*
X65948000Y-176313538D01*
X65948000Y-177762462D01*
X65943653Y-177806604D01*
X65932568Y-177843144D01*
X65914567Y-177876821D01*
X65890341Y-177906341D01*
X65860821Y-177930567D01*
X65827144Y-177948568D01*
X65790604Y-177959653D01*
X65746462Y-177964000D01*
X64797538Y-177964000D01*
X64753396Y-177959653D01*
X64716856Y-177948568D01*
X64683179Y-177930567D01*
X64653659Y-177906341D01*
X64629433Y-177876821D01*
X64611432Y-177843144D01*
X64600347Y-177806604D01*
X64596000Y-177762462D01*
X64596000Y-176313538D01*
X64600347Y-176269396D01*
X64611432Y-176232856D01*
X64629433Y-176199179D01*
X64653659Y-176169659D01*
X64683179Y-176145433D01*
X64716856Y-176127432D01*
X64753396Y-176116347D01*
X64797538Y-176112000D01*
X65746462Y-176112000D01*
X65790604Y-176116347D01*
X65790604Y-176116347D01*
G37*
G36*
X97038604Y-174338347D02*
G01*
X97075144Y-174349432D01*
X97108821Y-174367433D01*
X97138341Y-174391659D01*
X97162567Y-174421179D01*
X97180568Y-174454856D01*
X97191653Y-174491396D01*
X97196000Y-174535538D01*
X97196000Y-175984462D01*
X97191653Y-176028604D01*
X97180568Y-176065144D01*
X97162567Y-176098821D01*
X97138341Y-176128341D01*
X97108821Y-176152567D01*
X97075144Y-176170568D01*
X97038604Y-176181653D01*
X96994462Y-176186000D01*
X96045538Y-176186000D01*
X96001396Y-176181653D01*
X95964856Y-176170568D01*
X95931179Y-176152567D01*
X95901659Y-176128341D01*
X95877433Y-176098821D01*
X95859432Y-176065144D01*
X95848347Y-176028604D01*
X95844000Y-175984462D01*
X95844000Y-174535538D01*
X95848347Y-174491396D01*
X95859432Y-174454856D01*
X95877433Y-174421179D01*
X95901659Y-174391659D01*
X95931179Y-174367433D01*
X95964856Y-174349432D01*
X96001396Y-174338347D01*
X96045538Y-174334000D01*
X96994462Y-174334000D01*
X97038604Y-174338347D01*
X97038604Y-174338347D01*
G37*
G36*
X99838604Y-174338347D02*
G01*
X99875144Y-174349432D01*
X99908821Y-174367433D01*
X99938341Y-174391659D01*
X99962567Y-174421179D01*
X99980568Y-174454856D01*
X99991653Y-174491396D01*
X99996000Y-174535538D01*
X99996000Y-175984462D01*
X99991653Y-176028604D01*
X99980568Y-176065144D01*
X99962567Y-176098821D01*
X99938341Y-176128341D01*
X99908821Y-176152567D01*
X99875144Y-176170568D01*
X99838604Y-176181653D01*
X99794462Y-176186000D01*
X98845538Y-176186000D01*
X98801396Y-176181653D01*
X98764856Y-176170568D01*
X98731179Y-176152567D01*
X98701659Y-176128341D01*
X98677433Y-176098821D01*
X98659432Y-176065144D01*
X98648347Y-176028604D01*
X98644000Y-175984462D01*
X98644000Y-174535538D01*
X98648347Y-174491396D01*
X98659432Y-174454856D01*
X98677433Y-174421179D01*
X98701659Y-174391659D01*
X98731179Y-174367433D01*
X98764856Y-174349432D01*
X98801396Y-174338347D01*
X98845538Y-174334000D01*
X99794462Y-174334000D01*
X99838604Y-174338347D01*
X99838604Y-174338347D01*
G37*
G36*
X74427928Y-171744764D02*
G01*
X74449009Y-171751160D01*
X74468445Y-171761548D01*
X74485476Y-171775524D01*
X74499452Y-171792555D01*
X74509840Y-171811991D01*
X74516236Y-171833072D01*
X74519000Y-171861140D01*
X74519000Y-173774860D01*
X74516236Y-173802928D01*
X74509840Y-173824009D01*
X74499452Y-173843445D01*
X74485476Y-173860476D01*
X74468445Y-173874452D01*
X74449009Y-173884840D01*
X74427928Y-173891236D01*
X74399860Y-173894000D01*
X73936140Y-173894000D01*
X73908072Y-173891236D01*
X73886991Y-173884840D01*
X73867555Y-173874452D01*
X73850524Y-173860476D01*
X73836548Y-173843445D01*
X73826160Y-173824009D01*
X73819764Y-173802928D01*
X73817000Y-173774860D01*
X73817000Y-171861140D01*
X73819764Y-171833072D01*
X73826160Y-171811991D01*
X73836548Y-171792555D01*
X73850524Y-171775524D01*
X73867555Y-171761548D01*
X73886991Y-171751160D01*
X73908072Y-171744764D01*
X73936140Y-171742000D01*
X74399860Y-171742000D01*
X74427928Y-171744764D01*
X74427928Y-171744764D01*
G37*
G36*
X75697928Y-171744764D02*
G01*
X75719009Y-171751160D01*
X75738445Y-171761548D01*
X75755476Y-171775524D01*
X75769452Y-171792555D01*
X75779840Y-171811991D01*
X75786236Y-171833072D01*
X75789000Y-171861140D01*
X75789000Y-173774860D01*
X75786236Y-173802928D01*
X75779840Y-173824009D01*
X75769452Y-173843445D01*
X75755476Y-173860476D01*
X75738445Y-173874452D01*
X75719009Y-173884840D01*
X75697928Y-173891236D01*
X75669860Y-173894000D01*
X75206140Y-173894000D01*
X75178072Y-173891236D01*
X75156991Y-173884840D01*
X75137555Y-173874452D01*
X75120524Y-173860476D01*
X75106548Y-173843445D01*
X75096160Y-173824009D01*
X75089764Y-173802928D01*
X75087000Y-173774860D01*
X75087000Y-171861140D01*
X75089764Y-171833072D01*
X75096160Y-171811991D01*
X75106548Y-171792555D01*
X75120524Y-171775524D01*
X75137555Y-171761548D01*
X75156991Y-171751160D01*
X75178072Y-171744764D01*
X75206140Y-171742000D01*
X75669860Y-171742000D01*
X75697928Y-171744764D01*
X75697928Y-171744764D01*
G37*
G36*
X73157928Y-171744764D02*
G01*
X73179009Y-171751160D01*
X73198445Y-171761548D01*
X73215476Y-171775524D01*
X73229452Y-171792555D01*
X73239840Y-171811991D01*
X73246236Y-171833072D01*
X73249000Y-171861140D01*
X73249000Y-173774860D01*
X73246236Y-173802928D01*
X73239840Y-173824009D01*
X73229452Y-173843445D01*
X73215476Y-173860476D01*
X73198445Y-173874452D01*
X73179009Y-173884840D01*
X73157928Y-173891236D01*
X73129860Y-173894000D01*
X72666140Y-173894000D01*
X72638072Y-173891236D01*
X72616991Y-173884840D01*
X72597555Y-173874452D01*
X72580524Y-173860476D01*
X72566548Y-173843445D01*
X72556160Y-173824009D01*
X72549764Y-173802928D01*
X72547000Y-173774860D01*
X72547000Y-171861140D01*
X72549764Y-171833072D01*
X72556160Y-171811991D01*
X72566548Y-171792555D01*
X72580524Y-171775524D01*
X72597555Y-171761548D01*
X72616991Y-171751160D01*
X72638072Y-171744764D01*
X72666140Y-171742000D01*
X73129860Y-171742000D01*
X73157928Y-171744764D01*
X73157928Y-171744764D01*
G37*
G36*
X76967928Y-171744764D02*
G01*
X76989009Y-171751160D01*
X77008445Y-171761548D01*
X77025476Y-171775524D01*
X77039452Y-171792555D01*
X77049840Y-171811991D01*
X77056236Y-171833072D01*
X77059000Y-171861140D01*
X77059000Y-173774860D01*
X77056236Y-173802928D01*
X77049840Y-173824009D01*
X77039452Y-173843445D01*
X77025476Y-173860476D01*
X77008445Y-173874452D01*
X76989009Y-173884840D01*
X76967928Y-173891236D01*
X76939860Y-173894000D01*
X76476140Y-173894000D01*
X76448072Y-173891236D01*
X76426991Y-173884840D01*
X76407555Y-173874452D01*
X76390524Y-173860476D01*
X76376548Y-173843445D01*
X76366160Y-173824009D01*
X76359764Y-173802928D01*
X76357000Y-173774860D01*
X76357000Y-171861140D01*
X76359764Y-171833072D01*
X76366160Y-171811991D01*
X76376548Y-171792555D01*
X76390524Y-171775524D01*
X76407555Y-171761548D01*
X76426991Y-171751160D01*
X76448072Y-171744764D01*
X76476140Y-171742000D01*
X76939860Y-171742000D01*
X76967928Y-171744764D01*
X76967928Y-171744764D01*
G37*
G36*
X78237928Y-171744764D02*
G01*
X78259009Y-171751160D01*
X78278445Y-171761548D01*
X78295476Y-171775524D01*
X78309452Y-171792555D01*
X78319840Y-171811991D01*
X78326236Y-171833072D01*
X78329000Y-171861140D01*
X78329000Y-173774860D01*
X78326236Y-173802928D01*
X78319840Y-173824009D01*
X78309452Y-173843445D01*
X78295476Y-173860476D01*
X78278445Y-173874452D01*
X78259009Y-173884840D01*
X78237928Y-173891236D01*
X78209860Y-173894000D01*
X77746140Y-173894000D01*
X77718072Y-173891236D01*
X77696991Y-173884840D01*
X77677555Y-173874452D01*
X77660524Y-173860476D01*
X77646548Y-173843445D01*
X77636160Y-173824009D01*
X77629764Y-173802928D01*
X77627000Y-173774860D01*
X77627000Y-171861140D01*
X77629764Y-171833072D01*
X77636160Y-171811991D01*
X77646548Y-171792555D01*
X77660524Y-171775524D01*
X77677555Y-171761548D01*
X77696991Y-171751160D01*
X77718072Y-171744764D01*
X77746140Y-171742000D01*
X78209860Y-171742000D01*
X78237928Y-171744764D01*
X78237928Y-171744764D01*
G37*
G36*
X79507928Y-171744764D02*
G01*
X79529009Y-171751160D01*
X79548445Y-171761548D01*
X79565476Y-171775524D01*
X79579452Y-171792555D01*
X79589840Y-171811991D01*
X79596236Y-171833072D01*
X79599000Y-171861140D01*
X79599000Y-173774860D01*
X79596236Y-173802928D01*
X79589840Y-173824009D01*
X79579452Y-173843445D01*
X79565476Y-173860476D01*
X79548445Y-173874452D01*
X79529009Y-173884840D01*
X79507928Y-173891236D01*
X79479860Y-173894000D01*
X79016140Y-173894000D01*
X78988072Y-173891236D01*
X78966991Y-173884840D01*
X78947555Y-173874452D01*
X78930524Y-173860476D01*
X78916548Y-173843445D01*
X78906160Y-173824009D01*
X78899764Y-173802928D01*
X78897000Y-173774860D01*
X78897000Y-171861140D01*
X78899764Y-171833072D01*
X78906160Y-171811991D01*
X78916548Y-171792555D01*
X78930524Y-171775524D01*
X78947555Y-171761548D01*
X78966991Y-171751160D01*
X78988072Y-171744764D01*
X79016140Y-171742000D01*
X79479860Y-171742000D01*
X79507928Y-171744764D01*
X79507928Y-171744764D01*
G37*
G36*
X80777928Y-171744764D02*
G01*
X80799009Y-171751160D01*
X80818445Y-171761548D01*
X80835476Y-171775524D01*
X80849452Y-171792555D01*
X80859840Y-171811991D01*
X80866236Y-171833072D01*
X80869000Y-171861140D01*
X80869000Y-173774860D01*
X80866236Y-173802928D01*
X80859840Y-173824009D01*
X80849452Y-173843445D01*
X80835476Y-173860476D01*
X80818445Y-173874452D01*
X80799009Y-173884840D01*
X80777928Y-173891236D01*
X80749860Y-173894000D01*
X80286140Y-173894000D01*
X80258072Y-173891236D01*
X80236991Y-173884840D01*
X80217555Y-173874452D01*
X80200524Y-173860476D01*
X80186548Y-173843445D01*
X80176160Y-173824009D01*
X80169764Y-173802928D01*
X80167000Y-173774860D01*
X80167000Y-171861140D01*
X80169764Y-171833072D01*
X80176160Y-171811991D01*
X80186548Y-171792555D01*
X80200524Y-171775524D01*
X80217555Y-171761548D01*
X80236991Y-171751160D01*
X80258072Y-171744764D01*
X80286140Y-171742000D01*
X80749860Y-171742000D01*
X80777928Y-171744764D01*
X80777928Y-171744764D01*
G37*
G36*
X82047928Y-171744764D02*
G01*
X82069009Y-171751160D01*
X82088445Y-171761548D01*
X82105476Y-171775524D01*
X82119452Y-171792555D01*
X82129840Y-171811991D01*
X82136236Y-171833072D01*
X82139000Y-171861140D01*
X82139000Y-173774860D01*
X82136236Y-173802928D01*
X82129840Y-173824009D01*
X82119452Y-173843445D01*
X82105476Y-173860476D01*
X82088445Y-173874452D01*
X82069009Y-173884840D01*
X82047928Y-173891236D01*
X82019860Y-173894000D01*
X81556140Y-173894000D01*
X81528072Y-173891236D01*
X81506991Y-173884840D01*
X81487555Y-173874452D01*
X81470524Y-173860476D01*
X81456548Y-173843445D01*
X81446160Y-173824009D01*
X81439764Y-173802928D01*
X81437000Y-173774860D01*
X81437000Y-171861140D01*
X81439764Y-171833072D01*
X81446160Y-171811991D01*
X81456548Y-171792555D01*
X81470524Y-171775524D01*
X81487555Y-171761548D01*
X81506991Y-171751160D01*
X81528072Y-171744764D01*
X81556140Y-171742000D01*
X82019860Y-171742000D01*
X82047928Y-171744764D01*
X82047928Y-171744764D01*
G37*
G36*
X83317928Y-171744764D02*
G01*
X83339009Y-171751160D01*
X83358445Y-171761548D01*
X83375476Y-171775524D01*
X83389452Y-171792555D01*
X83399840Y-171811991D01*
X83406236Y-171833072D01*
X83409000Y-171861140D01*
X83409000Y-173774860D01*
X83406236Y-173802928D01*
X83399840Y-173824009D01*
X83389452Y-173843445D01*
X83375476Y-173860476D01*
X83358445Y-173874452D01*
X83339009Y-173884840D01*
X83317928Y-173891236D01*
X83289860Y-173894000D01*
X82826140Y-173894000D01*
X82798072Y-173891236D01*
X82776991Y-173884840D01*
X82757555Y-173874452D01*
X82740524Y-173860476D01*
X82726548Y-173843445D01*
X82716160Y-173824009D01*
X82709764Y-173802928D01*
X82707000Y-173774860D01*
X82707000Y-171861140D01*
X82709764Y-171833072D01*
X82716160Y-171811991D01*
X82726548Y-171792555D01*
X82740524Y-171775524D01*
X82757555Y-171761548D01*
X82776991Y-171751160D01*
X82798072Y-171744764D01*
X82826140Y-171742000D01*
X83289860Y-171742000D01*
X83317928Y-171744764D01*
X83317928Y-171744764D01*
G37*
G36*
X67320604Y-170782347D02*
G01*
X67357144Y-170793432D01*
X67390821Y-170811433D01*
X67420341Y-170835659D01*
X67444567Y-170865179D01*
X67462568Y-170898856D01*
X67473653Y-170935396D01*
X67478000Y-170979538D01*
X67478000Y-172428462D01*
X67473653Y-172472604D01*
X67462568Y-172509144D01*
X67444567Y-172542821D01*
X67420341Y-172572341D01*
X67390821Y-172596567D01*
X67357144Y-172614568D01*
X67320604Y-172625653D01*
X67276462Y-172630000D01*
X66327538Y-172630000D01*
X66283396Y-172625653D01*
X66246856Y-172614568D01*
X66213179Y-172596567D01*
X66183659Y-172572341D01*
X66159433Y-172542821D01*
X66141432Y-172509144D01*
X66130347Y-172472604D01*
X66126000Y-172428462D01*
X66126000Y-170979538D01*
X66130347Y-170935396D01*
X66141432Y-170898856D01*
X66159433Y-170865179D01*
X66183659Y-170835659D01*
X66213179Y-170811433D01*
X66246856Y-170793432D01*
X66283396Y-170782347D01*
X66327538Y-170778000D01*
X67276462Y-170778000D01*
X67320604Y-170782347D01*
X67320604Y-170782347D01*
G37*
G36*
X64520604Y-170782347D02*
G01*
X64557144Y-170793432D01*
X64590821Y-170811433D01*
X64620341Y-170835659D01*
X64644567Y-170865179D01*
X64662568Y-170898856D01*
X64673653Y-170935396D01*
X64678000Y-170979538D01*
X64678000Y-172428462D01*
X64673653Y-172472604D01*
X64662568Y-172509144D01*
X64644567Y-172542821D01*
X64620341Y-172572341D01*
X64590821Y-172596567D01*
X64557144Y-172614568D01*
X64520604Y-172625653D01*
X64476462Y-172630000D01*
X63527538Y-172630000D01*
X63483396Y-172625653D01*
X63446856Y-172614568D01*
X63413179Y-172596567D01*
X63383659Y-172572341D01*
X63359433Y-172542821D01*
X63341432Y-172509144D01*
X63330347Y-172472604D01*
X63326000Y-172428462D01*
X63326000Y-170979538D01*
X63330347Y-170935396D01*
X63341432Y-170898856D01*
X63359433Y-170865179D01*
X63383659Y-170835659D01*
X63413179Y-170811433D01*
X63446856Y-170793432D01*
X63483396Y-170782347D01*
X63527538Y-170778000D01*
X64476462Y-170778000D01*
X64520604Y-170782347D01*
X64520604Y-170782347D01*
G37*
G36*
X86370604Y-167734347D02*
G01*
X86407144Y-167745432D01*
X86440821Y-167763433D01*
X86470341Y-167787659D01*
X86494567Y-167817179D01*
X86512568Y-167850856D01*
X86523653Y-167887396D01*
X86528000Y-167931538D01*
X86528000Y-169380462D01*
X86523653Y-169424604D01*
X86512568Y-169461144D01*
X86494567Y-169494821D01*
X86470341Y-169524341D01*
X86440821Y-169548567D01*
X86407144Y-169566568D01*
X86370604Y-169577653D01*
X86326462Y-169582000D01*
X85377538Y-169582000D01*
X85333396Y-169577653D01*
X85296856Y-169566568D01*
X85263179Y-169548567D01*
X85233659Y-169524341D01*
X85209433Y-169494821D01*
X85191432Y-169461144D01*
X85180347Y-169424604D01*
X85176000Y-169380462D01*
X85176000Y-167931538D01*
X85180347Y-167887396D01*
X85191432Y-167850856D01*
X85209433Y-167817179D01*
X85233659Y-167787659D01*
X85263179Y-167763433D01*
X85296856Y-167745432D01*
X85333396Y-167734347D01*
X85377538Y-167730000D01*
X86326462Y-167730000D01*
X86370604Y-167734347D01*
X86370604Y-167734347D01*
G37*
G36*
X83570604Y-167734347D02*
G01*
X83607144Y-167745432D01*
X83640821Y-167763433D01*
X83670341Y-167787659D01*
X83694567Y-167817179D01*
X83712568Y-167850856D01*
X83723653Y-167887396D01*
X83728000Y-167931538D01*
X83728000Y-169380462D01*
X83723653Y-169424604D01*
X83712568Y-169461144D01*
X83694567Y-169494821D01*
X83670341Y-169524341D01*
X83640821Y-169548567D01*
X83607144Y-169566568D01*
X83570604Y-169577653D01*
X83526462Y-169582000D01*
X82577538Y-169582000D01*
X82533396Y-169577653D01*
X82496856Y-169566568D01*
X82463179Y-169548567D01*
X82433659Y-169524341D01*
X82409433Y-169494821D01*
X82391432Y-169461144D01*
X82380347Y-169424604D01*
X82376000Y-169380462D01*
X82376000Y-167931538D01*
X82380347Y-167887396D01*
X82391432Y-167850856D01*
X82409433Y-167817179D01*
X82433659Y-167787659D01*
X82463179Y-167763433D01*
X82496856Y-167745432D01*
X82533396Y-167734347D01*
X82577538Y-167730000D01*
X83526462Y-167730000D01*
X83570604Y-167734347D01*
X83570604Y-167734347D01*
G37*
G36*
X73162604Y-166972347D02*
G01*
X73199144Y-166983432D01*
X73232821Y-167001433D01*
X73262341Y-167025659D01*
X73286567Y-167055179D01*
X73304568Y-167088856D01*
X73315653Y-167125396D01*
X73320000Y-167169538D01*
X73320000Y-168618462D01*
X73315653Y-168662604D01*
X73304568Y-168699144D01*
X73286567Y-168732821D01*
X73262341Y-168762341D01*
X73232821Y-168786567D01*
X73199144Y-168804568D01*
X73162604Y-168815653D01*
X73118462Y-168820000D01*
X72169538Y-168820000D01*
X72125396Y-168815653D01*
X72088856Y-168804568D01*
X72055179Y-168786567D01*
X72025659Y-168762341D01*
X72001433Y-168732821D01*
X71983432Y-168699144D01*
X71972347Y-168662604D01*
X71968000Y-168618462D01*
X71968000Y-167169538D01*
X71972347Y-167125396D01*
X71983432Y-167088856D01*
X72001433Y-167055179D01*
X72025659Y-167025659D01*
X72055179Y-167001433D01*
X72088856Y-166983432D01*
X72125396Y-166972347D01*
X72169538Y-166968000D01*
X73118462Y-166968000D01*
X73162604Y-166972347D01*
X73162604Y-166972347D01*
G37*
G36*
X70362604Y-166972347D02*
G01*
X70399144Y-166983432D01*
X70432821Y-167001433D01*
X70462341Y-167025659D01*
X70486567Y-167055179D01*
X70504568Y-167088856D01*
X70515653Y-167125396D01*
X70520000Y-167169538D01*
X70520000Y-168618462D01*
X70515653Y-168662604D01*
X70504568Y-168699144D01*
X70486567Y-168732821D01*
X70462341Y-168762341D01*
X70432821Y-168786567D01*
X70399144Y-168804568D01*
X70362604Y-168815653D01*
X70318462Y-168820000D01*
X69369538Y-168820000D01*
X69325396Y-168815653D01*
X69288856Y-168804568D01*
X69255179Y-168786567D01*
X69225659Y-168762341D01*
X69201433Y-168732821D01*
X69183432Y-168699144D01*
X69172347Y-168662604D01*
X69168000Y-168618462D01*
X69168000Y-167169538D01*
X69172347Y-167125396D01*
X69183432Y-167088856D01*
X69201433Y-167055179D01*
X69225659Y-167025659D01*
X69255179Y-167001433D01*
X69288856Y-166983432D01*
X69325396Y-166972347D01*
X69369538Y-166968000D01*
X70318462Y-166968000D01*
X70362604Y-166972347D01*
X70362604Y-166972347D01*
G37*
G36*
X62996604Y-165448347D02*
G01*
X63033144Y-165459432D01*
X63066821Y-165477433D01*
X63096341Y-165501659D01*
X63120567Y-165531179D01*
X63138568Y-165564856D01*
X63149653Y-165601396D01*
X63154000Y-165645538D01*
X63154000Y-167094462D01*
X63149653Y-167138604D01*
X63138568Y-167175144D01*
X63120567Y-167208821D01*
X63096341Y-167238341D01*
X63066821Y-167262567D01*
X63033144Y-167280568D01*
X62996604Y-167291653D01*
X62952462Y-167296000D01*
X62003538Y-167296000D01*
X61959396Y-167291653D01*
X61922856Y-167280568D01*
X61889179Y-167262567D01*
X61859659Y-167238341D01*
X61835433Y-167208821D01*
X61817432Y-167175144D01*
X61806347Y-167138604D01*
X61802000Y-167094462D01*
X61802000Y-165645538D01*
X61806347Y-165601396D01*
X61817432Y-165564856D01*
X61835433Y-165531179D01*
X61859659Y-165501659D01*
X61889179Y-165477433D01*
X61922856Y-165459432D01*
X61959396Y-165448347D01*
X62003538Y-165444000D01*
X62952462Y-165444000D01*
X62996604Y-165448347D01*
X62996604Y-165448347D01*
G37*
G36*
X65796604Y-165448347D02*
G01*
X65833144Y-165459432D01*
X65866821Y-165477433D01*
X65896341Y-165501659D01*
X65920567Y-165531179D01*
X65938568Y-165564856D01*
X65949653Y-165601396D01*
X65954000Y-165645538D01*
X65954000Y-167094462D01*
X65949653Y-167138604D01*
X65938568Y-167175144D01*
X65920567Y-167208821D01*
X65896341Y-167238341D01*
X65866821Y-167262567D01*
X65833144Y-167280568D01*
X65796604Y-167291653D01*
X65752462Y-167296000D01*
X64803538Y-167296000D01*
X64759396Y-167291653D01*
X64722856Y-167280568D01*
X64689179Y-167262567D01*
X64659659Y-167238341D01*
X64635433Y-167208821D01*
X64617432Y-167175144D01*
X64606347Y-167138604D01*
X64602000Y-167094462D01*
X64602000Y-165645538D01*
X64606347Y-165601396D01*
X64617432Y-165564856D01*
X64635433Y-165531179D01*
X64659659Y-165501659D01*
X64689179Y-165477433D01*
X64722856Y-165459432D01*
X64759396Y-165448347D01*
X64803538Y-165444000D01*
X65752462Y-165444000D01*
X65796604Y-165448347D01*
X65796604Y-165448347D01*
G37*
G36*
X85106604Y-162908347D02*
G01*
X85143144Y-162919432D01*
X85176821Y-162937433D01*
X85206341Y-162961659D01*
X85230567Y-162991179D01*
X85248568Y-163024856D01*
X85259653Y-163061396D01*
X85264000Y-163105538D01*
X85264000Y-164554462D01*
X85259653Y-164598604D01*
X85248568Y-164635144D01*
X85230567Y-164668821D01*
X85206341Y-164698341D01*
X85176821Y-164722567D01*
X85143144Y-164740568D01*
X85106604Y-164751653D01*
X85062462Y-164756000D01*
X84113538Y-164756000D01*
X84069396Y-164751653D01*
X84032856Y-164740568D01*
X83999179Y-164722567D01*
X83969659Y-164698341D01*
X83945433Y-164668821D01*
X83927432Y-164635144D01*
X83916347Y-164598604D01*
X83912000Y-164554462D01*
X83912000Y-163105538D01*
X83916347Y-163061396D01*
X83927432Y-163024856D01*
X83945433Y-162991179D01*
X83969659Y-162961659D01*
X83999179Y-162937433D01*
X84032856Y-162919432D01*
X84069396Y-162908347D01*
X84113538Y-162904000D01*
X85062462Y-162904000D01*
X85106604Y-162908347D01*
X85106604Y-162908347D01*
G37*
G36*
X82306604Y-162908347D02*
G01*
X82343144Y-162919432D01*
X82376821Y-162937433D01*
X82406341Y-162961659D01*
X82430567Y-162991179D01*
X82448568Y-163024856D01*
X82459653Y-163061396D01*
X82464000Y-163105538D01*
X82464000Y-164554462D01*
X82459653Y-164598604D01*
X82448568Y-164635144D01*
X82430567Y-164668821D01*
X82406341Y-164698341D01*
X82376821Y-164722567D01*
X82343144Y-164740568D01*
X82306604Y-164751653D01*
X82262462Y-164756000D01*
X81313538Y-164756000D01*
X81269396Y-164751653D01*
X81232856Y-164740568D01*
X81199179Y-164722567D01*
X81169659Y-164698341D01*
X81145433Y-164668821D01*
X81127432Y-164635144D01*
X81116347Y-164598604D01*
X81112000Y-164554462D01*
X81112000Y-163105538D01*
X81116347Y-163061396D01*
X81127432Y-163024856D01*
X81145433Y-162991179D01*
X81169659Y-162961659D01*
X81199179Y-162937433D01*
X81232856Y-162919432D01*
X81269396Y-162908347D01*
X81313538Y-162904000D01*
X82262462Y-162904000D01*
X82306604Y-162908347D01*
X82306604Y-162908347D01*
G37*
G36*
X81036604Y-158082347D02*
G01*
X81073144Y-158093432D01*
X81106821Y-158111433D01*
X81136341Y-158135659D01*
X81160567Y-158165179D01*
X81178568Y-158198856D01*
X81189653Y-158235396D01*
X81194000Y-158279538D01*
X81194000Y-159728462D01*
X81189653Y-159772604D01*
X81178568Y-159809144D01*
X81160567Y-159842821D01*
X81136341Y-159872341D01*
X81106821Y-159896567D01*
X81073144Y-159914568D01*
X81036604Y-159925653D01*
X80992462Y-159930000D01*
X80043538Y-159930000D01*
X79999396Y-159925653D01*
X79962856Y-159914568D01*
X79929179Y-159896567D01*
X79899659Y-159872341D01*
X79875433Y-159842821D01*
X79857432Y-159809144D01*
X79846347Y-159772604D01*
X79842000Y-159728462D01*
X79842000Y-158279538D01*
X79846347Y-158235396D01*
X79857432Y-158198856D01*
X79875433Y-158165179D01*
X79899659Y-158135659D01*
X79929179Y-158111433D01*
X79962856Y-158093432D01*
X79999396Y-158082347D01*
X80043538Y-158078000D01*
X80992462Y-158078000D01*
X81036604Y-158082347D01*
X81036604Y-158082347D01*
G37*
G36*
X83836604Y-158082347D02*
G01*
X83873144Y-158093432D01*
X83906821Y-158111433D01*
X83936341Y-158135659D01*
X83960567Y-158165179D01*
X83978568Y-158198856D01*
X83989653Y-158235396D01*
X83994000Y-158279538D01*
X83994000Y-159728462D01*
X83989653Y-159772604D01*
X83978568Y-159809144D01*
X83960567Y-159842821D01*
X83936341Y-159872341D01*
X83906821Y-159896567D01*
X83873144Y-159914568D01*
X83836604Y-159925653D01*
X83792462Y-159930000D01*
X82843538Y-159930000D01*
X82799396Y-159925653D01*
X82762856Y-159914568D01*
X82729179Y-159896567D01*
X82699659Y-159872341D01*
X82675433Y-159842821D01*
X82657432Y-159809144D01*
X82646347Y-159772604D01*
X82642000Y-159728462D01*
X82642000Y-158279538D01*
X82646347Y-158235396D01*
X82657432Y-158198856D01*
X82675433Y-158165179D01*
X82699659Y-158135659D01*
X82729179Y-158111433D01*
X82762856Y-158093432D01*
X82799396Y-158082347D01*
X82843538Y-158078000D01*
X83792462Y-158078000D01*
X83836604Y-158082347D01*
X83836604Y-158082347D01*
G37*
G36*
X74686604Y-156558347D02*
G01*
X74723144Y-156569432D01*
X74756821Y-156587433D01*
X74786341Y-156611659D01*
X74810567Y-156641179D01*
X74828568Y-156674856D01*
X74839653Y-156711396D01*
X74844000Y-156755538D01*
X74844000Y-158204462D01*
X74839653Y-158248604D01*
X74828568Y-158285144D01*
X74810567Y-158318821D01*
X74786341Y-158348341D01*
X74756821Y-158372567D01*
X74723144Y-158390568D01*
X74686604Y-158401653D01*
X74642462Y-158406000D01*
X73693538Y-158406000D01*
X73649396Y-158401653D01*
X73612856Y-158390568D01*
X73579179Y-158372567D01*
X73549659Y-158348341D01*
X73525433Y-158318821D01*
X73507432Y-158285144D01*
X73496347Y-158248604D01*
X73492000Y-158204462D01*
X73492000Y-156755538D01*
X73496347Y-156711396D01*
X73507432Y-156674856D01*
X73525433Y-156641179D01*
X73549659Y-156611659D01*
X73579179Y-156587433D01*
X73612856Y-156569432D01*
X73649396Y-156558347D01*
X73693538Y-156554000D01*
X74642462Y-156554000D01*
X74686604Y-156558347D01*
X74686604Y-156558347D01*
G37*
G36*
X71886604Y-156558347D02*
G01*
X71923144Y-156569432D01*
X71956821Y-156587433D01*
X71986341Y-156611659D01*
X72010567Y-156641179D01*
X72028568Y-156674856D01*
X72039653Y-156711396D01*
X72044000Y-156755538D01*
X72044000Y-158204462D01*
X72039653Y-158248604D01*
X72028568Y-158285144D01*
X72010567Y-158318821D01*
X71986341Y-158348341D01*
X71956821Y-158372567D01*
X71923144Y-158390568D01*
X71886604Y-158401653D01*
X71842462Y-158406000D01*
X70893538Y-158406000D01*
X70849396Y-158401653D01*
X70812856Y-158390568D01*
X70779179Y-158372567D01*
X70749659Y-158348341D01*
X70725433Y-158318821D01*
X70707432Y-158285144D01*
X70696347Y-158248604D01*
X70692000Y-158204462D01*
X70692000Y-156755538D01*
X70696347Y-156711396D01*
X70707432Y-156674856D01*
X70725433Y-156641179D01*
X70749659Y-156611659D01*
X70779179Y-156587433D01*
X70812856Y-156569432D01*
X70849396Y-156558347D01*
X70893538Y-156554000D01*
X71842462Y-156554000D01*
X71886604Y-156558347D01*
X71886604Y-156558347D01*
G37*
G36*
X51143268Y-150233433D02*
G01*
X51230627Y-150242037D01*
X51400466Y-150293557D01*
X51556991Y-150377222D01*
X51586620Y-150401538D01*
X51694186Y-150489814D01*
X51777448Y-150591271D01*
X51806778Y-150627009D01*
X51890443Y-150783534D01*
X51941963Y-150953373D01*
X51959359Y-151130000D01*
X51941963Y-151306627D01*
X51890443Y-151476466D01*
X51806778Y-151632991D01*
X51777448Y-151668729D01*
X51694186Y-151770186D01*
X51592729Y-151853448D01*
X51556991Y-151882778D01*
X51400466Y-151966443D01*
X51230627Y-152017963D01*
X51164442Y-152024482D01*
X51098260Y-152031000D01*
X51009740Y-152031000D01*
X50943558Y-152024482D01*
X50877373Y-152017963D01*
X50707534Y-151966443D01*
X50551009Y-151882778D01*
X50515271Y-151853448D01*
X50413814Y-151770186D01*
X50330552Y-151668729D01*
X50301222Y-151632991D01*
X50217557Y-151476466D01*
X50166037Y-151306627D01*
X50148641Y-151130000D01*
X50166037Y-150953373D01*
X50217557Y-150783534D01*
X50301222Y-150627009D01*
X50330552Y-150591271D01*
X50413814Y-150489814D01*
X50521380Y-150401538D01*
X50551009Y-150377222D01*
X50707534Y-150293557D01*
X50877373Y-150242037D01*
X50964732Y-150233433D01*
X51009740Y-150229000D01*
X51098260Y-150229000D01*
X51143268Y-150233433D01*
X51143268Y-150233433D01*
G37*
G36*
X91325000Y-151777000D02*
G01*
X89523000Y-151777000D01*
X89523000Y-149975000D01*
X91325000Y-149975000D01*
X91325000Y-151777000D01*
X91325000Y-151777000D01*
G37*
G36*
X85350604Y-150204347D02*
G01*
X85387144Y-150215432D01*
X85420821Y-150233433D01*
X85450341Y-150257659D01*
X85474567Y-150287179D01*
X85492568Y-150320856D01*
X85503653Y-150357396D01*
X85508000Y-150401538D01*
X85508000Y-151350462D01*
X85503653Y-151394604D01*
X85492568Y-151431144D01*
X85474567Y-151464821D01*
X85450341Y-151494341D01*
X85420821Y-151518567D01*
X85387144Y-151536568D01*
X85350604Y-151547653D01*
X85306462Y-151552000D01*
X83857538Y-151552000D01*
X83813396Y-151547653D01*
X83776856Y-151536568D01*
X83743179Y-151518567D01*
X83713659Y-151494341D01*
X83689433Y-151464821D01*
X83671432Y-151431144D01*
X83660347Y-151394604D01*
X83656000Y-151350462D01*
X83656000Y-150401538D01*
X83660347Y-150357396D01*
X83671432Y-150320856D01*
X83689433Y-150287179D01*
X83713659Y-150257659D01*
X83743179Y-150233433D01*
X83776856Y-150215432D01*
X83813396Y-150204347D01*
X83857538Y-150200000D01*
X85306462Y-150200000D01*
X85350604Y-150204347D01*
X85350604Y-150204347D01*
G37*
G36*
X98050604Y-150204347D02*
G01*
X98087144Y-150215432D01*
X98120821Y-150233433D01*
X98150341Y-150257659D01*
X98174567Y-150287179D01*
X98192568Y-150320856D01*
X98203653Y-150357396D01*
X98208000Y-150401538D01*
X98208000Y-151350462D01*
X98203653Y-151394604D01*
X98192568Y-151431144D01*
X98174567Y-151464821D01*
X98150341Y-151494341D01*
X98120821Y-151518567D01*
X98087144Y-151536568D01*
X98050604Y-151547653D01*
X98006462Y-151552000D01*
X96557538Y-151552000D01*
X96513396Y-151547653D01*
X96476856Y-151536568D01*
X96443179Y-151518567D01*
X96413659Y-151494341D01*
X96389433Y-151464821D01*
X96371432Y-151431144D01*
X96360347Y-151394604D01*
X96356000Y-151350462D01*
X96356000Y-150401538D01*
X96360347Y-150357396D01*
X96371432Y-150320856D01*
X96389433Y-150287179D01*
X96413659Y-150257659D01*
X96443179Y-150233433D01*
X96476856Y-150215432D01*
X96513396Y-150204347D01*
X96557538Y-150200000D01*
X98006462Y-150200000D01*
X98050604Y-150204347D01*
X98050604Y-150204347D01*
G37*
G36*
X62490604Y-148686347D02*
G01*
X62527144Y-148697432D01*
X62560821Y-148715433D01*
X62590341Y-148739659D01*
X62614567Y-148769179D01*
X62632568Y-148802856D01*
X62643653Y-148839396D01*
X62648000Y-148883538D01*
X62648000Y-149832462D01*
X62643653Y-149876604D01*
X62632568Y-149913144D01*
X62614567Y-149946821D01*
X62590341Y-149976341D01*
X62560821Y-150000567D01*
X62527144Y-150018568D01*
X62490604Y-150029653D01*
X62446462Y-150034000D01*
X60997538Y-150034000D01*
X60953396Y-150029653D01*
X60916856Y-150018568D01*
X60883179Y-150000567D01*
X60853659Y-149976341D01*
X60829433Y-149946821D01*
X60811432Y-149913144D01*
X60800347Y-149876604D01*
X60796000Y-149832462D01*
X60796000Y-148883538D01*
X60800347Y-148839396D01*
X60811432Y-148802856D01*
X60829433Y-148769179D01*
X60853659Y-148739659D01*
X60883179Y-148715433D01*
X60916856Y-148697432D01*
X60953396Y-148686347D01*
X60997538Y-148682000D01*
X62446462Y-148682000D01*
X62490604Y-148686347D01*
X62490604Y-148686347D01*
G37*
G36*
X51164443Y-147695519D02*
G01*
X51230627Y-147702037D01*
X51400466Y-147753557D01*
X51556991Y-147837222D01*
X51592729Y-147866552D01*
X51694186Y-147949814D01*
X51777448Y-148051271D01*
X51806778Y-148087009D01*
X51890443Y-148243534D01*
X51941963Y-148413373D01*
X51959359Y-148590000D01*
X51941963Y-148766627D01*
X51890443Y-148936466D01*
X51806778Y-149092991D01*
X51777448Y-149128729D01*
X51694186Y-149230186D01*
X51592729Y-149313448D01*
X51556991Y-149342778D01*
X51400466Y-149426443D01*
X51230627Y-149477963D01*
X51164442Y-149484482D01*
X51098260Y-149491000D01*
X51009740Y-149491000D01*
X50943558Y-149484482D01*
X50877373Y-149477963D01*
X50707534Y-149426443D01*
X50551009Y-149342778D01*
X50515271Y-149313448D01*
X50413814Y-149230186D01*
X50330552Y-149128729D01*
X50301222Y-149092991D01*
X50217557Y-148936466D01*
X50166037Y-148766627D01*
X50148641Y-148590000D01*
X50166037Y-148413373D01*
X50217557Y-148243534D01*
X50301222Y-148087009D01*
X50330552Y-148051271D01*
X50413814Y-147949814D01*
X50515271Y-147866552D01*
X50551009Y-147837222D01*
X50707534Y-147753557D01*
X50877373Y-147702037D01*
X50943557Y-147695519D01*
X51009740Y-147689000D01*
X51098260Y-147689000D01*
X51164443Y-147695519D01*
X51164443Y-147695519D01*
G37*
G36*
X90534443Y-147441519D02*
G01*
X90600627Y-147448037D01*
X90770466Y-147499557D01*
X90926991Y-147583222D01*
X90949309Y-147601538D01*
X91064186Y-147695814D01*
X91147448Y-147797271D01*
X91176778Y-147833009D01*
X91260443Y-147989534D01*
X91311963Y-148159373D01*
X91329359Y-148336000D01*
X91311963Y-148512627D01*
X91260584Y-148682000D01*
X91260442Y-148682468D01*
X91236334Y-148727571D01*
X91176778Y-148838991D01*
X91147448Y-148874729D01*
X91064186Y-148976186D01*
X90962729Y-149059448D01*
X90926991Y-149088778D01*
X90770466Y-149172443D01*
X90600627Y-149223963D01*
X90537453Y-149230185D01*
X90468260Y-149237000D01*
X90379740Y-149237000D01*
X90310547Y-149230185D01*
X90247373Y-149223963D01*
X90077534Y-149172443D01*
X89921009Y-149088778D01*
X89885271Y-149059448D01*
X89783814Y-148976186D01*
X89700552Y-148874729D01*
X89671222Y-148838991D01*
X89611666Y-148727571D01*
X89587558Y-148682468D01*
X89587416Y-148682000D01*
X89536037Y-148512627D01*
X89518641Y-148336000D01*
X89536037Y-148159373D01*
X89587557Y-147989534D01*
X89671222Y-147833009D01*
X89700552Y-147797271D01*
X89783814Y-147695814D01*
X89898691Y-147601538D01*
X89921009Y-147583222D01*
X90077534Y-147499557D01*
X90247373Y-147448037D01*
X90313557Y-147441519D01*
X90379740Y-147435000D01*
X90468260Y-147435000D01*
X90534443Y-147441519D01*
X90534443Y-147441519D01*
G37*
G36*
X98050604Y-147404347D02*
G01*
X98087144Y-147415432D01*
X98120821Y-147433433D01*
X98150341Y-147457659D01*
X98174567Y-147487179D01*
X98192568Y-147520856D01*
X98203653Y-147557396D01*
X98208000Y-147601538D01*
X98208000Y-148550462D01*
X98203653Y-148594604D01*
X98192568Y-148631144D01*
X98174567Y-148664821D01*
X98150341Y-148694341D01*
X98120821Y-148718567D01*
X98087144Y-148736568D01*
X98050604Y-148747653D01*
X98006462Y-148752000D01*
X96557538Y-148752000D01*
X96513396Y-148747653D01*
X96476856Y-148736568D01*
X96443179Y-148718567D01*
X96413659Y-148694341D01*
X96389433Y-148664821D01*
X96371432Y-148631144D01*
X96360347Y-148594604D01*
X96356000Y-148550462D01*
X96356000Y-147601538D01*
X96360347Y-147557396D01*
X96371432Y-147520856D01*
X96389433Y-147487179D01*
X96413659Y-147457659D01*
X96443179Y-147433433D01*
X96476856Y-147415432D01*
X96513396Y-147404347D01*
X96557538Y-147400000D01*
X98006462Y-147400000D01*
X98050604Y-147404347D01*
X98050604Y-147404347D01*
G37*
G36*
X85350604Y-147404347D02*
G01*
X85387144Y-147415432D01*
X85420821Y-147433433D01*
X85450341Y-147457659D01*
X85474567Y-147487179D01*
X85492568Y-147520856D01*
X85503653Y-147557396D01*
X85508000Y-147601538D01*
X85508000Y-148550462D01*
X85503653Y-148594604D01*
X85492568Y-148631144D01*
X85474567Y-148664821D01*
X85450341Y-148694341D01*
X85420821Y-148718567D01*
X85387144Y-148736568D01*
X85350604Y-148747653D01*
X85306462Y-148752000D01*
X83857538Y-148752000D01*
X83813396Y-148747653D01*
X83776856Y-148736568D01*
X83743179Y-148718567D01*
X83713659Y-148694341D01*
X83689433Y-148664821D01*
X83671432Y-148631144D01*
X83660347Y-148594604D01*
X83656000Y-148550462D01*
X83656000Y-147601538D01*
X83660347Y-147557396D01*
X83671432Y-147520856D01*
X83689433Y-147487179D01*
X83713659Y-147457659D01*
X83743179Y-147433433D01*
X83776856Y-147415432D01*
X83813396Y-147404347D01*
X83857538Y-147400000D01*
X85306462Y-147400000D01*
X85350604Y-147404347D01*
X85350604Y-147404347D01*
G37*
G36*
X62490604Y-145886347D02*
G01*
X62527144Y-145897432D01*
X62560821Y-145915433D01*
X62590341Y-145939659D01*
X62614567Y-145969179D01*
X62632568Y-146002856D01*
X62643653Y-146039396D01*
X62648000Y-146083538D01*
X62648000Y-147032462D01*
X62643653Y-147076604D01*
X62632568Y-147113144D01*
X62614567Y-147146821D01*
X62590341Y-147176341D01*
X62560821Y-147200567D01*
X62527144Y-147218568D01*
X62490604Y-147229653D01*
X62446462Y-147234000D01*
X60997538Y-147234000D01*
X60953396Y-147229653D01*
X60916856Y-147218568D01*
X60883179Y-147200567D01*
X60853659Y-147176341D01*
X60829433Y-147146821D01*
X60811432Y-147113144D01*
X60800347Y-147076604D01*
X60796000Y-147032462D01*
X60796000Y-146083538D01*
X60800347Y-146039396D01*
X60811432Y-146002856D01*
X60829433Y-145969179D01*
X60853659Y-145939659D01*
X60883179Y-145915433D01*
X60916856Y-145897432D01*
X60953396Y-145886347D01*
X60997538Y-145882000D01*
X62446462Y-145882000D01*
X62490604Y-145886347D01*
X62490604Y-145886347D01*
G37*
G36*
X51164443Y-145155519D02*
G01*
X51230627Y-145162037D01*
X51400466Y-145213557D01*
X51556991Y-145297222D01*
X51592729Y-145326552D01*
X51694186Y-145409814D01*
X51777448Y-145511271D01*
X51806778Y-145547009D01*
X51806779Y-145547011D01*
X51869312Y-145664000D01*
X51890443Y-145703534D01*
X51941963Y-145873373D01*
X51959359Y-146050000D01*
X51941963Y-146226627D01*
X51890443Y-146396466D01*
X51806778Y-146552991D01*
X51777448Y-146588729D01*
X51694186Y-146690186D01*
X51592729Y-146773448D01*
X51556991Y-146802778D01*
X51400466Y-146886443D01*
X51230627Y-146937963D01*
X51164442Y-146944482D01*
X51098260Y-146951000D01*
X51009740Y-146951000D01*
X50943558Y-146944482D01*
X50877373Y-146937963D01*
X50707534Y-146886443D01*
X50551009Y-146802778D01*
X50515271Y-146773448D01*
X50413814Y-146690186D01*
X50330552Y-146588729D01*
X50301222Y-146552991D01*
X50217557Y-146396466D01*
X50166037Y-146226627D01*
X50148641Y-146050000D01*
X50166037Y-145873373D01*
X50217557Y-145703534D01*
X50238689Y-145664000D01*
X50301221Y-145547011D01*
X50301222Y-145547009D01*
X50330552Y-145511271D01*
X50413814Y-145409814D01*
X50515271Y-145326552D01*
X50551009Y-145297222D01*
X50707534Y-145213557D01*
X50877373Y-145162037D01*
X50943557Y-145155519D01*
X51009740Y-145149000D01*
X51098260Y-145149000D01*
X51164443Y-145155519D01*
X51164443Y-145155519D01*
G37*
G36*
X76620000Y-146934000D02*
G01*
X74668000Y-146934000D01*
X74668000Y-146182000D01*
X76620000Y-146182000D01*
X76620000Y-146934000D01*
X76620000Y-146934000D01*
G37*
G36*
X67270000Y-146934000D02*
G01*
X65318000Y-146934000D01*
X65318000Y-146182000D01*
X67270000Y-146182000D01*
X67270000Y-146934000D01*
X67270000Y-146934000D01*
G37*
G36*
X90534442Y-144901518D02*
G01*
X90600627Y-144908037D01*
X90770466Y-144959557D01*
X90926991Y-145043222D01*
X90962729Y-145072552D01*
X91064186Y-145155814D01*
X91147448Y-145257271D01*
X91176778Y-145293009D01*
X91260443Y-145449534D01*
X91311963Y-145619373D01*
X91329359Y-145796000D01*
X91311963Y-145972627D01*
X91260443Y-146142466D01*
X91260442Y-146142468D01*
X91218610Y-146220729D01*
X91176778Y-146298991D01*
X91147448Y-146334729D01*
X91064186Y-146436186D01*
X90962729Y-146519448D01*
X90926991Y-146548778D01*
X90770466Y-146632443D01*
X90600627Y-146683963D01*
X90537453Y-146690185D01*
X90468260Y-146697000D01*
X90379740Y-146697000D01*
X90310547Y-146690185D01*
X90247373Y-146683963D01*
X90077534Y-146632443D01*
X89921009Y-146548778D01*
X89885271Y-146519448D01*
X89783814Y-146436186D01*
X89700552Y-146334729D01*
X89671222Y-146298991D01*
X89629390Y-146220729D01*
X89587558Y-146142468D01*
X89587557Y-146142466D01*
X89536037Y-145972627D01*
X89518641Y-145796000D01*
X89536037Y-145619373D01*
X89587557Y-145449534D01*
X89671222Y-145293009D01*
X89700552Y-145257271D01*
X89783814Y-145155814D01*
X89885271Y-145072552D01*
X89921009Y-145043222D01*
X90077534Y-144959557D01*
X90247373Y-144908037D01*
X90313558Y-144901518D01*
X90379740Y-144895000D01*
X90468260Y-144895000D01*
X90534442Y-144901518D01*
X90534442Y-144901518D01*
G37*
G36*
X76620000Y-145664000D02*
G01*
X74668000Y-145664000D01*
X74668000Y-144912000D01*
X76620000Y-144912000D01*
X76620000Y-145664000D01*
X76620000Y-145664000D01*
G37*
G36*
X67270000Y-145664000D02*
G01*
X65318000Y-145664000D01*
X65318000Y-144912000D01*
X67270000Y-144912000D01*
X67270000Y-145664000D01*
X67270000Y-145664000D01*
G37*
G36*
X51164442Y-142615518D02*
G01*
X51230627Y-142622037D01*
X51400466Y-142673557D01*
X51556991Y-142757222D01*
X51579384Y-142775600D01*
X51694186Y-142869814D01*
X51767231Y-142958821D01*
X51806778Y-143007009D01*
X51806779Y-143007011D01*
X51869312Y-143124000D01*
X51890443Y-143163534D01*
X51941963Y-143333373D01*
X51959359Y-143510000D01*
X51941963Y-143686627D01*
X51890443Y-143856466D01*
X51806778Y-144012991D01*
X51777448Y-144048729D01*
X51694186Y-144150186D01*
X51592729Y-144233448D01*
X51556991Y-144262778D01*
X51400466Y-144346443D01*
X51230627Y-144397963D01*
X51164443Y-144404481D01*
X51098260Y-144411000D01*
X51009740Y-144411000D01*
X50943557Y-144404481D01*
X50877373Y-144397963D01*
X50707534Y-144346443D01*
X50551009Y-144262778D01*
X50515271Y-144233448D01*
X50413814Y-144150186D01*
X50330552Y-144048729D01*
X50301222Y-144012991D01*
X50217557Y-143856466D01*
X50166037Y-143686627D01*
X50148641Y-143510000D01*
X50166037Y-143333373D01*
X50217557Y-143163534D01*
X50238689Y-143124000D01*
X50301221Y-143007011D01*
X50301222Y-143007009D01*
X50340769Y-142958821D01*
X50413814Y-142869814D01*
X50528616Y-142775600D01*
X50551009Y-142757222D01*
X50707534Y-142673557D01*
X50877373Y-142622037D01*
X50943558Y-142615518D01*
X51009740Y-142609000D01*
X51098260Y-142609000D01*
X51164442Y-142615518D01*
X51164442Y-142615518D01*
G37*
G36*
X76620000Y-144394000D02*
G01*
X74668000Y-144394000D01*
X74668000Y-143642000D01*
X76620000Y-143642000D01*
X76620000Y-144394000D01*
X76620000Y-144394000D01*
G37*
G36*
X67270000Y-144394000D02*
G01*
X65318000Y-144394000D01*
X65318000Y-143642000D01*
X67270000Y-143642000D01*
X67270000Y-144394000D01*
X67270000Y-144394000D01*
G37*
G36*
X90534443Y-142361519D02*
G01*
X90600627Y-142368037D01*
X90770466Y-142419557D01*
X90926991Y-142503222D01*
X90928142Y-142504167D01*
X91064186Y-142615814D01*
X91129528Y-142695435D01*
X91176778Y-142753009D01*
X91260443Y-142909534D01*
X91311963Y-143079373D01*
X91329359Y-143256000D01*
X91311963Y-143432627D01*
X91288492Y-143510000D01*
X91260442Y-143602468D01*
X91223290Y-143671973D01*
X91176778Y-143758991D01*
X91147448Y-143794729D01*
X91064186Y-143896186D01*
X90962729Y-143979448D01*
X90926991Y-144008778D01*
X90770466Y-144092443D01*
X90600627Y-144143963D01*
X90537453Y-144150185D01*
X90468260Y-144157000D01*
X90379740Y-144157000D01*
X90310547Y-144150185D01*
X90247373Y-144143963D01*
X90077534Y-144092443D01*
X89921009Y-144008778D01*
X89885271Y-143979448D01*
X89783814Y-143896186D01*
X89700552Y-143794729D01*
X89671222Y-143758991D01*
X89624710Y-143671973D01*
X89587558Y-143602468D01*
X89559508Y-143510000D01*
X89536037Y-143432627D01*
X89518641Y-143256000D01*
X89536037Y-143079373D01*
X89587557Y-142909534D01*
X89671222Y-142753009D01*
X89718472Y-142695435D01*
X89783814Y-142615814D01*
X89919858Y-142504167D01*
X89921009Y-142503222D01*
X90077534Y-142419557D01*
X90247373Y-142368037D01*
X90313557Y-142361519D01*
X90379740Y-142355000D01*
X90468260Y-142355000D01*
X90534443Y-142361519D01*
X90534443Y-142361519D01*
G37*
G36*
X106628564Y-141991389D02*
G01*
X106819833Y-142070615D01*
X106819835Y-142070616D01*
X106991973Y-142185635D01*
X107138365Y-142332027D01*
X107253385Y-142504167D01*
X107332611Y-142695436D01*
X107373000Y-142898484D01*
X107373000Y-143105516D01*
X107332611Y-143308564D01*
X107253385Y-143499833D01*
X107253384Y-143499835D01*
X107138365Y-143671973D01*
X106991973Y-143818365D01*
X106819835Y-143933384D01*
X106819834Y-143933385D01*
X106819833Y-143933385D01*
X106628564Y-144012611D01*
X106425516Y-144053000D01*
X106218484Y-144053000D01*
X106015436Y-144012611D01*
X105824167Y-143933385D01*
X105824166Y-143933385D01*
X105824165Y-143933384D01*
X105652027Y-143818365D01*
X105505635Y-143671973D01*
X105390616Y-143499835D01*
X105390615Y-143499833D01*
X105311389Y-143308564D01*
X105271000Y-143105516D01*
X105271000Y-142898484D01*
X105311389Y-142695436D01*
X105390615Y-142504167D01*
X105505635Y-142332027D01*
X105652027Y-142185635D01*
X105824165Y-142070616D01*
X105824167Y-142070615D01*
X106015436Y-141991389D01*
X106218484Y-141951000D01*
X106425516Y-141951000D01*
X106628564Y-141991389D01*
X106628564Y-141991389D01*
G37*
G36*
X100128564Y-141991389D02*
G01*
X100319833Y-142070615D01*
X100319835Y-142070616D01*
X100491973Y-142185635D01*
X100638365Y-142332027D01*
X100753385Y-142504167D01*
X100832611Y-142695436D01*
X100873000Y-142898484D01*
X100873000Y-143105516D01*
X100832611Y-143308564D01*
X100753385Y-143499833D01*
X100753384Y-143499835D01*
X100638365Y-143671973D01*
X100491973Y-143818365D01*
X100319835Y-143933384D01*
X100319834Y-143933385D01*
X100319833Y-143933385D01*
X100128564Y-144012611D01*
X99925516Y-144053000D01*
X99718484Y-144053000D01*
X99515436Y-144012611D01*
X99324167Y-143933385D01*
X99324166Y-143933385D01*
X99324165Y-143933384D01*
X99152027Y-143818365D01*
X99005635Y-143671973D01*
X98890616Y-143499835D01*
X98890615Y-143499833D01*
X98811389Y-143308564D01*
X98771000Y-143105516D01*
X98771000Y-142898484D01*
X98811389Y-142695436D01*
X98890615Y-142504167D01*
X99005635Y-142332027D01*
X99152027Y-142185635D01*
X99324165Y-142070616D01*
X99324167Y-142070615D01*
X99515436Y-141991389D01*
X99718484Y-141951000D01*
X99925516Y-141951000D01*
X100128564Y-141991389D01*
X100128564Y-141991389D01*
G37*
G36*
X67270000Y-143124000D02*
G01*
X65318000Y-143124000D01*
X65318000Y-142372000D01*
X67270000Y-142372000D01*
X67270000Y-143124000D01*
X67270000Y-143124000D01*
G37*
G36*
X76620000Y-143124000D02*
G01*
X74668000Y-143124000D01*
X74668000Y-142372000D01*
X76620000Y-142372000D01*
X76620000Y-143124000D01*
X76620000Y-143124000D01*
G37*
G36*
X111512604Y-141698347D02*
G01*
X111549144Y-141709432D01*
X111582821Y-141727433D01*
X111612341Y-141751659D01*
X111636567Y-141781179D01*
X111654568Y-141814856D01*
X111665653Y-141851396D01*
X111670000Y-141895538D01*
X111670000Y-142844462D01*
X111665653Y-142888604D01*
X111654568Y-142925144D01*
X111636567Y-142958821D01*
X111612341Y-142988341D01*
X111582821Y-143012567D01*
X111549144Y-143030568D01*
X111512604Y-143041653D01*
X111468462Y-143046000D01*
X110019538Y-143046000D01*
X109975396Y-143041653D01*
X109938856Y-143030568D01*
X109905179Y-143012567D01*
X109875659Y-142988341D01*
X109851433Y-142958821D01*
X109833432Y-142925144D01*
X109822347Y-142888604D01*
X109818000Y-142844462D01*
X109818000Y-141895538D01*
X109822347Y-141851396D01*
X109833432Y-141814856D01*
X109851433Y-141781179D01*
X109875659Y-141751659D01*
X109905179Y-141727433D01*
X109938856Y-141709432D01*
X109975396Y-141698347D01*
X110019538Y-141694000D01*
X111468462Y-141694000D01*
X111512604Y-141698347D01*
X111512604Y-141698347D01*
G37*
G36*
X51164443Y-140075519D02*
G01*
X51230627Y-140082037D01*
X51400466Y-140133557D01*
X51556991Y-140217222D01*
X51586760Y-140241653D01*
X51694186Y-140329814D01*
X51777448Y-140431271D01*
X51806778Y-140467009D01*
X51806779Y-140467011D01*
X51869312Y-140584000D01*
X51890443Y-140623534D01*
X51941963Y-140793373D01*
X51959359Y-140970000D01*
X51941963Y-141146627D01*
X51890443Y-141316466D01*
X51806778Y-141472991D01*
X51777448Y-141508729D01*
X51694186Y-141610186D01*
X51592729Y-141693448D01*
X51556991Y-141722778D01*
X51400466Y-141806443D01*
X51230627Y-141857963D01*
X51164443Y-141864481D01*
X51098260Y-141871000D01*
X51009740Y-141871000D01*
X50943557Y-141864481D01*
X50877373Y-141857963D01*
X50707534Y-141806443D01*
X50551009Y-141722778D01*
X50515271Y-141693448D01*
X50413814Y-141610186D01*
X50330552Y-141508729D01*
X50301222Y-141472991D01*
X50217557Y-141316466D01*
X50166037Y-141146627D01*
X50148641Y-140970000D01*
X50166037Y-140793373D01*
X50217557Y-140623534D01*
X50238689Y-140584000D01*
X50301221Y-140467011D01*
X50301222Y-140467009D01*
X50330552Y-140431271D01*
X50413814Y-140329814D01*
X50521240Y-140241653D01*
X50551009Y-140217222D01*
X50707534Y-140133557D01*
X50877373Y-140082037D01*
X50943557Y-140075519D01*
X51009740Y-140069000D01*
X51098260Y-140069000D01*
X51164443Y-140075519D01*
X51164443Y-140075519D01*
G37*
G36*
X67270000Y-141854000D02*
G01*
X65318000Y-141854000D01*
X65318000Y-141102000D01*
X67270000Y-141102000D01*
X67270000Y-141854000D01*
X67270000Y-141854000D01*
G37*
G36*
X76620000Y-141854000D02*
G01*
X74668000Y-141854000D01*
X74668000Y-141102000D01*
X76620000Y-141102000D01*
X76620000Y-141854000D01*
X76620000Y-141854000D01*
G37*
G36*
X90534443Y-139821519D02*
G01*
X90600627Y-139828037D01*
X90770466Y-139879557D01*
X90926991Y-139963222D01*
X90962729Y-139992552D01*
X91064186Y-140075814D01*
X91132307Y-140158821D01*
X91176778Y-140213009D01*
X91260443Y-140369534D01*
X91311963Y-140539373D01*
X91329359Y-140716000D01*
X91311963Y-140892627D01*
X91288492Y-140970000D01*
X91260442Y-141062468D01*
X91218611Y-141140728D01*
X91176778Y-141218991D01*
X91147448Y-141254729D01*
X91064186Y-141356186D01*
X90962729Y-141439448D01*
X90926991Y-141468778D01*
X90770466Y-141552443D01*
X90600627Y-141603963D01*
X90537453Y-141610185D01*
X90468260Y-141617000D01*
X90379740Y-141617000D01*
X90310547Y-141610185D01*
X90247373Y-141603963D01*
X90077534Y-141552443D01*
X89921009Y-141468778D01*
X89885271Y-141439448D01*
X89783814Y-141356186D01*
X89700552Y-141254729D01*
X89671222Y-141218991D01*
X89629389Y-141140728D01*
X89587558Y-141062468D01*
X89559508Y-140970000D01*
X89536037Y-140892627D01*
X89518641Y-140716000D01*
X89536037Y-140539373D01*
X89587557Y-140369534D01*
X89671222Y-140213009D01*
X89715693Y-140158821D01*
X89783814Y-140075814D01*
X89885271Y-139992552D01*
X89921009Y-139963222D01*
X90077534Y-139879557D01*
X90247373Y-139828037D01*
X90313557Y-139821519D01*
X90379740Y-139815000D01*
X90468260Y-139815000D01*
X90534443Y-139821519D01*
X90534443Y-139821519D01*
G37*
G36*
X76620000Y-140584000D02*
G01*
X74668000Y-140584000D01*
X74668000Y-139832000D01*
X76620000Y-139832000D01*
X76620000Y-140584000D01*
X76620000Y-140584000D01*
G37*
G36*
X67270000Y-140584000D02*
G01*
X65318000Y-140584000D01*
X65318000Y-139832000D01*
X67270000Y-139832000D01*
X67270000Y-140584000D01*
X67270000Y-140584000D01*
G37*
G36*
X111512604Y-138898347D02*
G01*
X111549144Y-138909432D01*
X111582821Y-138927433D01*
X111612341Y-138951659D01*
X111636567Y-138981179D01*
X111654568Y-139014856D01*
X111665653Y-139051396D01*
X111670000Y-139095538D01*
X111670000Y-140044462D01*
X111665653Y-140088604D01*
X111654568Y-140125144D01*
X111636567Y-140158821D01*
X111612341Y-140188341D01*
X111582821Y-140212567D01*
X111549144Y-140230568D01*
X111512604Y-140241653D01*
X111468462Y-140246000D01*
X110019538Y-140246000D01*
X109975396Y-140241653D01*
X109938856Y-140230568D01*
X109905179Y-140212567D01*
X109875659Y-140188341D01*
X109851433Y-140158821D01*
X109833432Y-140125144D01*
X109822347Y-140088604D01*
X109818000Y-140044462D01*
X109818000Y-139095538D01*
X109822347Y-139051396D01*
X109833432Y-139014856D01*
X109851433Y-138981179D01*
X109875659Y-138951659D01*
X109905179Y-138927433D01*
X109938856Y-138909432D01*
X109975396Y-138898347D01*
X110019538Y-138894000D01*
X111468462Y-138894000D01*
X111512604Y-138898347D01*
X111512604Y-138898347D01*
G37*
G36*
X100128564Y-137491389D02*
G01*
X100250839Y-137542037D01*
X100319835Y-137570616D01*
X100354170Y-137593558D01*
X100491973Y-137685635D01*
X100638365Y-137832027D01*
X100753385Y-138004167D01*
X100832611Y-138195436D01*
X100873000Y-138398484D01*
X100873000Y-138605516D01*
X100832611Y-138808564D01*
X100761112Y-138981179D01*
X100753384Y-138999835D01*
X100638365Y-139171973D01*
X100491973Y-139318365D01*
X100319835Y-139433384D01*
X100319834Y-139433385D01*
X100319833Y-139433385D01*
X100128564Y-139512611D01*
X99925516Y-139553000D01*
X99718484Y-139553000D01*
X99515436Y-139512611D01*
X99324167Y-139433385D01*
X99324166Y-139433385D01*
X99324165Y-139433384D01*
X99152027Y-139318365D01*
X99005635Y-139171973D01*
X98890616Y-138999835D01*
X98882888Y-138981179D01*
X98811389Y-138808564D01*
X98771000Y-138605516D01*
X98771000Y-138398484D01*
X98811389Y-138195436D01*
X98890615Y-138004167D01*
X99005635Y-137832027D01*
X99152027Y-137685635D01*
X99289830Y-137593558D01*
X99324165Y-137570616D01*
X99393161Y-137542037D01*
X99515436Y-137491389D01*
X99718484Y-137451000D01*
X99925516Y-137451000D01*
X100128564Y-137491389D01*
X100128564Y-137491389D01*
G37*
G36*
X106628564Y-137491389D02*
G01*
X106750839Y-137542037D01*
X106819835Y-137570616D01*
X106854170Y-137593558D01*
X106991973Y-137685635D01*
X107138365Y-137832027D01*
X107253385Y-138004167D01*
X107332611Y-138195436D01*
X107373000Y-138398484D01*
X107373000Y-138605516D01*
X107332611Y-138808564D01*
X107261112Y-138981179D01*
X107253384Y-138999835D01*
X107138365Y-139171973D01*
X106991973Y-139318365D01*
X106819835Y-139433384D01*
X106819834Y-139433385D01*
X106819833Y-139433385D01*
X106628564Y-139512611D01*
X106425516Y-139553000D01*
X106218484Y-139553000D01*
X106015436Y-139512611D01*
X105824167Y-139433385D01*
X105824166Y-139433385D01*
X105824165Y-139433384D01*
X105652027Y-139318365D01*
X105505635Y-139171973D01*
X105390616Y-138999835D01*
X105382888Y-138981179D01*
X105311389Y-138808564D01*
X105271000Y-138605516D01*
X105271000Y-138398484D01*
X105311389Y-138195436D01*
X105390615Y-138004167D01*
X105505635Y-137832027D01*
X105652027Y-137685635D01*
X105789830Y-137593558D01*
X105824165Y-137570616D01*
X105893161Y-137542037D01*
X106015436Y-137491389D01*
X106218484Y-137451000D01*
X106425516Y-137451000D01*
X106628564Y-137491389D01*
X106628564Y-137491389D01*
G37*
G36*
X51164443Y-137535519D02*
G01*
X51230627Y-137542037D01*
X51400466Y-137593557D01*
X51556991Y-137677222D01*
X51567242Y-137685635D01*
X51694186Y-137789814D01*
X51777448Y-137891271D01*
X51806778Y-137927009D01*
X51806779Y-137927011D01*
X51869312Y-138044000D01*
X51890443Y-138083534D01*
X51941963Y-138253373D01*
X51959359Y-138430000D01*
X51941963Y-138606627D01*
X51890443Y-138776466D01*
X51806778Y-138932991D01*
X51791457Y-138951659D01*
X51694186Y-139070186D01*
X51592729Y-139153448D01*
X51556991Y-139182778D01*
X51400466Y-139266443D01*
X51230627Y-139317963D01*
X51164443Y-139324481D01*
X51098260Y-139331000D01*
X51009740Y-139331000D01*
X50943557Y-139324481D01*
X50877373Y-139317963D01*
X50707534Y-139266443D01*
X50551009Y-139182778D01*
X50515271Y-139153448D01*
X50413814Y-139070186D01*
X50316543Y-138951659D01*
X50301222Y-138932991D01*
X50217557Y-138776466D01*
X50166037Y-138606627D01*
X50148641Y-138430000D01*
X50166037Y-138253373D01*
X50217557Y-138083534D01*
X50238689Y-138044000D01*
X50301221Y-137927011D01*
X50301222Y-137927009D01*
X50330552Y-137891271D01*
X50413814Y-137789814D01*
X50540758Y-137685635D01*
X50551009Y-137677222D01*
X50707534Y-137593557D01*
X50877373Y-137542037D01*
X50943557Y-137535519D01*
X51009740Y-137529000D01*
X51098260Y-137529000D01*
X51164443Y-137535519D01*
X51164443Y-137535519D01*
G37*
G36*
X67270000Y-139314000D02*
G01*
X65318000Y-139314000D01*
X65318000Y-138562000D01*
X67270000Y-138562000D01*
X67270000Y-139314000D01*
X67270000Y-139314000D01*
G37*
G36*
X76620000Y-139314000D02*
G01*
X74668000Y-139314000D01*
X74668000Y-138562000D01*
X76620000Y-138562000D01*
X76620000Y-139314000D01*
X76620000Y-139314000D01*
G37*
G36*
X90534442Y-137281518D02*
G01*
X90600627Y-137288037D01*
X90770466Y-137339557D01*
X90926991Y-137423222D01*
X90960838Y-137451000D01*
X91064186Y-137535814D01*
X91147448Y-137637271D01*
X91176778Y-137673009D01*
X91260443Y-137829534D01*
X91311963Y-137999373D01*
X91329359Y-138176000D01*
X91311963Y-138352627D01*
X91288492Y-138430000D01*
X91260442Y-138522468D01*
X91218611Y-138600728D01*
X91176778Y-138678991D01*
X91147448Y-138714729D01*
X91064186Y-138816186D01*
X90969368Y-138894000D01*
X90926991Y-138928778D01*
X90926989Y-138928779D01*
X90794058Y-138999833D01*
X90770466Y-139012443D01*
X90600627Y-139063963D01*
X90537453Y-139070185D01*
X90468260Y-139077000D01*
X90379740Y-139077000D01*
X90310547Y-139070185D01*
X90247373Y-139063963D01*
X90077534Y-139012443D01*
X90053943Y-138999833D01*
X89921011Y-138928779D01*
X89921009Y-138928778D01*
X89878632Y-138894000D01*
X89783814Y-138816186D01*
X89700552Y-138714729D01*
X89671222Y-138678991D01*
X89629389Y-138600728D01*
X89587558Y-138522468D01*
X89559508Y-138430000D01*
X89536037Y-138352627D01*
X89518641Y-138176000D01*
X89536037Y-137999373D01*
X89587557Y-137829534D01*
X89671222Y-137673009D01*
X89700552Y-137637271D01*
X89783814Y-137535814D01*
X89887162Y-137451000D01*
X89921009Y-137423222D01*
X90077534Y-137339557D01*
X90247373Y-137288037D01*
X90313558Y-137281518D01*
X90379740Y-137275000D01*
X90468260Y-137275000D01*
X90534442Y-137281518D01*
X90534442Y-137281518D01*
G37*
G36*
X67270000Y-138044000D02*
G01*
X65318000Y-138044000D01*
X65318000Y-137292000D01*
X67270000Y-137292000D01*
X67270000Y-138044000D01*
X67270000Y-138044000D01*
G37*
G36*
X76620000Y-138044000D02*
G01*
X74668000Y-138044000D01*
X74668000Y-137292000D01*
X76620000Y-137292000D01*
X76620000Y-138044000D01*
X76620000Y-138044000D01*
G37*
G36*
X61728604Y-135726347D02*
G01*
X61765144Y-135737432D01*
X61798821Y-135755433D01*
X61828341Y-135779659D01*
X61852567Y-135809179D01*
X61870568Y-135842856D01*
X61881653Y-135879396D01*
X61886000Y-135923538D01*
X61886000Y-136872462D01*
X61881653Y-136916604D01*
X61870568Y-136953144D01*
X61852567Y-136986821D01*
X61828341Y-137016341D01*
X61798821Y-137040567D01*
X61765144Y-137058568D01*
X61728604Y-137069653D01*
X61684462Y-137074000D01*
X60235538Y-137074000D01*
X60191396Y-137069653D01*
X60154856Y-137058568D01*
X60121179Y-137040567D01*
X60091659Y-137016341D01*
X60067433Y-136986821D01*
X60049432Y-136953144D01*
X60038347Y-136916604D01*
X60034000Y-136872462D01*
X60034000Y-135923538D01*
X60038347Y-135879396D01*
X60049432Y-135842856D01*
X60067433Y-135809179D01*
X60091659Y-135779659D01*
X60121179Y-135755433D01*
X60154856Y-135737432D01*
X60191396Y-135726347D01*
X60235538Y-135722000D01*
X61684462Y-135722000D01*
X61728604Y-135726347D01*
X61728604Y-135726347D01*
G37*
G36*
X51164442Y-134995518D02*
G01*
X51230627Y-135002037D01*
X51400466Y-135053557D01*
X51556991Y-135137222D01*
X51592729Y-135166552D01*
X51694186Y-135249814D01*
X51777448Y-135351271D01*
X51806778Y-135387009D01*
X51806779Y-135387011D01*
X51869312Y-135504000D01*
X51890443Y-135543534D01*
X51941963Y-135713373D01*
X51959359Y-135890000D01*
X51941963Y-136066627D01*
X51890443Y-136236466D01*
X51806778Y-136392991D01*
X51777448Y-136428729D01*
X51694186Y-136530186D01*
X51592729Y-136613448D01*
X51556991Y-136642778D01*
X51400466Y-136726443D01*
X51230627Y-136777963D01*
X51164442Y-136784482D01*
X51098260Y-136791000D01*
X51009740Y-136791000D01*
X50943558Y-136784482D01*
X50877373Y-136777963D01*
X50707534Y-136726443D01*
X50551009Y-136642778D01*
X50515271Y-136613448D01*
X50413814Y-136530186D01*
X50330552Y-136428729D01*
X50301222Y-136392991D01*
X50217557Y-136236466D01*
X50166037Y-136066627D01*
X50148641Y-135890000D01*
X50166037Y-135713373D01*
X50217557Y-135543534D01*
X50238689Y-135504000D01*
X50301221Y-135387011D01*
X50301222Y-135387009D01*
X50330552Y-135351271D01*
X50413814Y-135249814D01*
X50515271Y-135166552D01*
X50551009Y-135137222D01*
X50707534Y-135053557D01*
X50877373Y-135002037D01*
X50943558Y-134995518D01*
X51009740Y-134989000D01*
X51098260Y-134989000D01*
X51164442Y-134995518D01*
X51164442Y-134995518D01*
G37*
G36*
X67270000Y-136774000D02*
G01*
X65318000Y-136774000D01*
X65318000Y-136022000D01*
X67270000Y-136022000D01*
X67270000Y-136774000D01*
X67270000Y-136774000D01*
G37*
G36*
X76620000Y-136774000D02*
G01*
X74668000Y-136774000D01*
X74668000Y-136022000D01*
X76620000Y-136022000D01*
X76620000Y-136774000D01*
X76620000Y-136774000D01*
G37*
G36*
X67270000Y-135504000D02*
G01*
X65318000Y-135504000D01*
X65318000Y-134752000D01*
X67270000Y-134752000D01*
X67270000Y-135504000D01*
X67270000Y-135504000D01*
G37*
G36*
X76620000Y-135504000D02*
G01*
X74668000Y-135504000D01*
X74668000Y-134752000D01*
X76620000Y-134752000D01*
X76620000Y-135504000D01*
X76620000Y-135504000D01*
G37*
G36*
X61728604Y-132926347D02*
G01*
X61765144Y-132937432D01*
X61798821Y-132955433D01*
X61828341Y-132979659D01*
X61852567Y-133009179D01*
X61870568Y-133042856D01*
X61881653Y-133079396D01*
X61886000Y-133123538D01*
X61886000Y-134072462D01*
X61881653Y-134116604D01*
X61870568Y-134153144D01*
X61852567Y-134186821D01*
X61828341Y-134216341D01*
X61798821Y-134240567D01*
X61765144Y-134258568D01*
X61728604Y-134269653D01*
X61684462Y-134274000D01*
X60235538Y-134274000D01*
X60191396Y-134269653D01*
X60154856Y-134258568D01*
X60121179Y-134240567D01*
X60091659Y-134216341D01*
X60067433Y-134186821D01*
X60049432Y-134153144D01*
X60038347Y-134116604D01*
X60034000Y-134072462D01*
X60034000Y-133123538D01*
X60038347Y-133079396D01*
X60049432Y-133042856D01*
X60067433Y-133009179D01*
X60091659Y-132979659D01*
X60121179Y-132955433D01*
X60154856Y-132937432D01*
X60191396Y-132926347D01*
X60235538Y-132922000D01*
X61684462Y-132922000D01*
X61728604Y-132926347D01*
X61728604Y-132926347D01*
G37*
G36*
X51164442Y-132455518D02*
G01*
X51230627Y-132462037D01*
X51400466Y-132513557D01*
X51556991Y-132597222D01*
X51592729Y-132626552D01*
X51694186Y-132709814D01*
X51777448Y-132811271D01*
X51806778Y-132847009D01*
X51806779Y-132847011D01*
X51869312Y-132964000D01*
X51890443Y-133003534D01*
X51941963Y-133173373D01*
X51959359Y-133350000D01*
X51941963Y-133526627D01*
X51890443Y-133696466D01*
X51806778Y-133852991D01*
X51777448Y-133888729D01*
X51694186Y-133990186D01*
X51613561Y-134056352D01*
X51556991Y-134102778D01*
X51400466Y-134186443D01*
X51230627Y-134237963D01*
X51164443Y-134244481D01*
X51098260Y-134251000D01*
X51009740Y-134251000D01*
X50943557Y-134244481D01*
X50877373Y-134237963D01*
X50707534Y-134186443D01*
X50551009Y-134102778D01*
X50494439Y-134056352D01*
X50413814Y-133990186D01*
X50330552Y-133888729D01*
X50301222Y-133852991D01*
X50217557Y-133696466D01*
X50166037Y-133526627D01*
X50148641Y-133350000D01*
X50166037Y-133173373D01*
X50217557Y-133003534D01*
X50238689Y-132964000D01*
X50301221Y-132847011D01*
X50301222Y-132847009D01*
X50330552Y-132811271D01*
X50413814Y-132709814D01*
X50515271Y-132626552D01*
X50551009Y-132597222D01*
X50707534Y-132513557D01*
X50877373Y-132462037D01*
X50943558Y-132455518D01*
X51009740Y-132449000D01*
X51098260Y-132449000D01*
X51164442Y-132455518D01*
X51164442Y-132455518D01*
G37*
G36*
X76620000Y-134234000D02*
G01*
X74668000Y-134234000D01*
X74668000Y-133482000D01*
X76620000Y-133482000D01*
X76620000Y-134234000D01*
X76620000Y-134234000D01*
G37*
G36*
X67270000Y-134234000D02*
G01*
X65318000Y-134234000D01*
X65318000Y-133482000D01*
X67270000Y-133482000D01*
X67270000Y-134234000D01*
X67270000Y-134234000D01*
G37*
G36*
X76620000Y-132964000D02*
G01*
X74668000Y-132964000D01*
X74668000Y-132212000D01*
X76620000Y-132212000D01*
X76620000Y-132964000D01*
X76620000Y-132964000D01*
G37*
G36*
X67270000Y-132964000D02*
G01*
X65318000Y-132964000D01*
X65318000Y-132212000D01*
X67270000Y-132212000D01*
X67270000Y-132964000D01*
X67270000Y-132964000D01*
G37*
G36*
X81540604Y-130646347D02*
G01*
X81577144Y-130657432D01*
X81610821Y-130675433D01*
X81640341Y-130699659D01*
X81664567Y-130729179D01*
X81682568Y-130762856D01*
X81693653Y-130799396D01*
X81698000Y-130843538D01*
X81698000Y-131792462D01*
X81693653Y-131836604D01*
X81682568Y-131873144D01*
X81664567Y-131906821D01*
X81640341Y-131936341D01*
X81610821Y-131960567D01*
X81577144Y-131978568D01*
X81540604Y-131989653D01*
X81496462Y-131994000D01*
X80047538Y-131994000D01*
X80003396Y-131989653D01*
X79966856Y-131978568D01*
X79933179Y-131960567D01*
X79903659Y-131936341D01*
X79879433Y-131906821D01*
X79861432Y-131873144D01*
X79850347Y-131836604D01*
X79846000Y-131792462D01*
X79846000Y-130843538D01*
X79850347Y-130799396D01*
X79861432Y-130762856D01*
X79879433Y-130729179D01*
X79903659Y-130699659D01*
X79933179Y-130675433D01*
X79966856Y-130657432D01*
X80003396Y-130646347D01*
X80047538Y-130642000D01*
X81496462Y-130642000D01*
X81540604Y-130646347D01*
X81540604Y-130646347D01*
G37*
G36*
X51164442Y-129915518D02*
G01*
X51230627Y-129922037D01*
X51400466Y-129973557D01*
X51556991Y-130057222D01*
X51592729Y-130086552D01*
X51694186Y-130169814D01*
X51777448Y-130271271D01*
X51806778Y-130307009D01*
X51806779Y-130307011D01*
X51869312Y-130424000D01*
X51890443Y-130463534D01*
X51941963Y-130633373D01*
X51959359Y-130810000D01*
X51941963Y-130986627D01*
X51890443Y-131156466D01*
X51806778Y-131312991D01*
X51777448Y-131348729D01*
X51694186Y-131450186D01*
X51592729Y-131533448D01*
X51556991Y-131562778D01*
X51400466Y-131646443D01*
X51230627Y-131697963D01*
X51164443Y-131704481D01*
X51098260Y-131711000D01*
X51009740Y-131711000D01*
X50943557Y-131704481D01*
X50877373Y-131697963D01*
X50707534Y-131646443D01*
X50551009Y-131562778D01*
X50515271Y-131533448D01*
X50413814Y-131450186D01*
X50330552Y-131348729D01*
X50301222Y-131312991D01*
X50217557Y-131156466D01*
X50166037Y-130986627D01*
X50148641Y-130810000D01*
X50166037Y-130633373D01*
X50217557Y-130463534D01*
X50238689Y-130424000D01*
X50301221Y-130307011D01*
X50301222Y-130307009D01*
X50330552Y-130271271D01*
X50413814Y-130169814D01*
X50515271Y-130086552D01*
X50551009Y-130057222D01*
X50707534Y-129973557D01*
X50877373Y-129922037D01*
X50943558Y-129915518D01*
X51009740Y-129909000D01*
X51098260Y-129909000D01*
X51164442Y-129915518D01*
X51164442Y-129915518D01*
G37*
G36*
X67270000Y-131694000D02*
G01*
X65318000Y-131694000D01*
X65318000Y-130942000D01*
X67270000Y-130942000D01*
X67270000Y-131694000D01*
X67270000Y-131694000D01*
G37*
G36*
X76620000Y-131694000D02*
G01*
X74668000Y-131694000D01*
X74668000Y-130942000D01*
X76620000Y-130942000D01*
X76620000Y-131694000D01*
X76620000Y-131694000D01*
G37*
G36*
X67270000Y-130424000D02*
G01*
X65318000Y-130424000D01*
X65318000Y-129672000D01*
X67270000Y-129672000D01*
X67270000Y-130424000D01*
X67270000Y-130424000D01*
G37*
G36*
X76620000Y-130424000D02*
G01*
X74668000Y-130424000D01*
X74668000Y-129672000D01*
X76620000Y-129672000D01*
X76620000Y-130424000D01*
X76620000Y-130424000D01*
G37*
G36*
X81540604Y-127846347D02*
G01*
X81577144Y-127857432D01*
X81610821Y-127875433D01*
X81640341Y-127899659D01*
X81664567Y-127929179D01*
X81682568Y-127962856D01*
X81693653Y-127999396D01*
X81698000Y-128043538D01*
X81698000Y-128992462D01*
X81693653Y-129036604D01*
X81682568Y-129073144D01*
X81664567Y-129106821D01*
X81640341Y-129136341D01*
X81610821Y-129160567D01*
X81577144Y-129178568D01*
X81540604Y-129189653D01*
X81496462Y-129194000D01*
X80047538Y-129194000D01*
X80003396Y-129189653D01*
X79966856Y-129178568D01*
X79933179Y-129160567D01*
X79903659Y-129136341D01*
X79879433Y-129106821D01*
X79861432Y-129073144D01*
X79850347Y-129036604D01*
X79846000Y-128992462D01*
X79846000Y-128043538D01*
X79850347Y-127999396D01*
X79861432Y-127962856D01*
X79879433Y-127929179D01*
X79903659Y-127899659D01*
X79933179Y-127875433D01*
X79966856Y-127857432D01*
X80003396Y-127846347D01*
X80047538Y-127842000D01*
X81496462Y-127842000D01*
X81540604Y-127846347D01*
X81540604Y-127846347D01*
G37*
G36*
X51164442Y-127375518D02*
G01*
X51230627Y-127382037D01*
X51400466Y-127433557D01*
X51556991Y-127517222D01*
X51592729Y-127546552D01*
X51694186Y-127629814D01*
X51777448Y-127731271D01*
X51806778Y-127767009D01*
X51890443Y-127923534D01*
X51941963Y-128093373D01*
X51959359Y-128270000D01*
X51941963Y-128446627D01*
X51890443Y-128616466D01*
X51806778Y-128772991D01*
X51777448Y-128808729D01*
X51694186Y-128910186D01*
X51613561Y-128976352D01*
X51556991Y-129022778D01*
X51400466Y-129106443D01*
X51230627Y-129157963D01*
X51164442Y-129164482D01*
X51098260Y-129171000D01*
X51009740Y-129171000D01*
X50943558Y-129164482D01*
X50877373Y-129157963D01*
X50707534Y-129106443D01*
X50551009Y-129022778D01*
X50494439Y-128976352D01*
X50413814Y-128910186D01*
X50330552Y-128808729D01*
X50301222Y-128772991D01*
X50217557Y-128616466D01*
X50166037Y-128446627D01*
X50148641Y-128270000D01*
X50166037Y-128093373D01*
X50217557Y-127923534D01*
X50301222Y-127767009D01*
X50330552Y-127731271D01*
X50413814Y-127629814D01*
X50515271Y-127546552D01*
X50551009Y-127517222D01*
X50707534Y-127433557D01*
X50877373Y-127382037D01*
X50943558Y-127375518D01*
X51009740Y-127369000D01*
X51098260Y-127369000D01*
X51164442Y-127375518D01*
X51164442Y-127375518D01*
G37*
G36*
X51164443Y-124835519D02*
G01*
X51230627Y-124842037D01*
X51400466Y-124893557D01*
X51556991Y-124977222D01*
X51592729Y-125006552D01*
X51694186Y-125089814D01*
X51777448Y-125191271D01*
X51806778Y-125227009D01*
X51890443Y-125383534D01*
X51941963Y-125553373D01*
X51959359Y-125730000D01*
X51941963Y-125906627D01*
X51890443Y-126076466D01*
X51806778Y-126232991D01*
X51777448Y-126268729D01*
X51694186Y-126370186D01*
X51592729Y-126453448D01*
X51556991Y-126482778D01*
X51400466Y-126566443D01*
X51230627Y-126617963D01*
X51164442Y-126624482D01*
X51098260Y-126631000D01*
X51009740Y-126631000D01*
X50943558Y-126624482D01*
X50877373Y-126617963D01*
X50707534Y-126566443D01*
X50551009Y-126482778D01*
X50515271Y-126453448D01*
X50413814Y-126370186D01*
X50330552Y-126268729D01*
X50301222Y-126232991D01*
X50217557Y-126076466D01*
X50166037Y-125906627D01*
X50148641Y-125730000D01*
X50166037Y-125553373D01*
X50217557Y-125383534D01*
X50301222Y-125227009D01*
X50330552Y-125191271D01*
X50413814Y-125089814D01*
X50515271Y-125006552D01*
X50551009Y-124977222D01*
X50707534Y-124893557D01*
X50877373Y-124842037D01*
X50943557Y-124835519D01*
X51009740Y-124829000D01*
X51098260Y-124829000D01*
X51164443Y-124835519D01*
X51164443Y-124835519D01*
G37*
G36*
X51955000Y-124091000D02*
G01*
X50153000Y-124091000D01*
X50153000Y-122289000D01*
X51955000Y-122289000D01*
X51955000Y-124091000D01*
X51955000Y-124091000D01*
G37*
M02*
