G04 #@! TF.GenerationSoftware,KiCad,Pcbnew,(5.1.2)-2*
G04 #@! TF.CreationDate,2019-10-26T17:19:00+01:00*
G04 #@! TF.ProjectId,canbus_boiler_switch,63616e62-7573-45f6-926f-696c65725f73,rev?*
G04 #@! TF.SameCoordinates,Original*
G04 #@! TF.FileFunction,Other,User*
%FSLAX46Y46*%
G04 Gerber Fmt 4.6, Leading zero omitted, Abs format (unit mm)*
G04 Created by KiCad (PCBNEW (5.1.2)-2) date 2019-10-26 17:19:00*
%MOMM*%
%LPD*%
G04 APERTURE LIST*
%ADD10C,0.050000*%
G04 APERTURE END LIST*
D10*
X93532000Y-191302000D02*
X93532000Y-170902000D01*
X88332000Y-191302000D02*
X93532000Y-191302000D01*
X88332000Y-170902000D02*
X88332000Y-191302000D01*
X93532000Y-170902000D02*
X88332000Y-170902000D01*
X59780000Y-198484000D02*
X74200000Y-198484000D01*
X74200000Y-198484000D02*
X74200000Y-217484000D01*
X74200000Y-217484000D02*
X59780000Y-217484000D01*
X59780000Y-217484000D02*
X59780000Y-198484000D01*
X75250000Y-198484000D02*
X89670000Y-198484000D01*
X89670000Y-198484000D02*
X89670000Y-217484000D01*
X89670000Y-217484000D02*
X75250000Y-217484000D01*
X75250000Y-217484000D02*
X75250000Y-198484000D01*
X70214000Y-193835000D02*
X77614000Y-193835000D01*
X70214000Y-188435000D02*
X70214000Y-193835000D01*
X77614000Y-188435000D02*
X70214000Y-188435000D01*
X77614000Y-193835000D02*
X77614000Y-188435000D01*
X98322000Y-144252000D02*
X98322000Y-137252000D01*
X98572000Y-137002000D02*
X107572000Y-137002000D01*
X107822000Y-137252000D02*
X107822000Y-144252000D01*
X107572000Y-144502000D02*
X98572000Y-144502000D01*
X107822000Y-137002000D02*
X107572000Y-137002000D01*
X107822000Y-137252000D02*
X107822000Y-137002000D01*
X107822000Y-144502000D02*
X107572000Y-144502000D01*
X107822000Y-144252000D02*
X107822000Y-144502000D01*
X98322000Y-144502000D02*
X98322000Y-144252000D01*
X98572000Y-144502000D02*
X98322000Y-144502000D01*
X98322000Y-137002000D02*
X98322000Y-137252000D01*
X98572000Y-137002000D02*
X98322000Y-137002000D01*
X49254000Y-152890000D02*
X49254000Y-121390000D01*
X52804000Y-152890000D02*
X49254000Y-152890000D01*
X52804000Y-121390000D02*
X52804000Y-152890000D01*
X49254000Y-121390000D02*
X52804000Y-121390000D01*
X71958000Y-171538000D02*
X71958000Y-183398000D01*
X83998000Y-171538000D02*
X71958000Y-171538000D01*
X83998000Y-183398000D02*
X83998000Y-171538000D01*
X71958000Y-183398000D02*
X83998000Y-183398000D01*
X83462000Y-151756000D02*
X83462000Y-147196000D01*
X85702000Y-151756000D02*
X83462000Y-151756000D01*
X85702000Y-147196000D02*
X85702000Y-151756000D01*
X83462000Y-147196000D02*
X85702000Y-147196000D01*
X96162000Y-151756000D02*
X96162000Y-147196000D01*
X98402000Y-151756000D02*
X96162000Y-151756000D01*
X98402000Y-147196000D02*
X98402000Y-151756000D01*
X96162000Y-147196000D02*
X98402000Y-147196000D01*
X63884000Y-191920000D02*
X68444000Y-191920000D01*
X63884000Y-194160000D02*
X63884000Y-191920000D01*
X68444000Y-194160000D02*
X63884000Y-194160000D01*
X68444000Y-191920000D02*
X68444000Y-194160000D01*
X75048000Y-158600000D02*
X70488000Y-158600000D01*
X75048000Y-156360000D02*
X75048000Y-158600000D01*
X70488000Y-156360000D02*
X75048000Y-156360000D01*
X70488000Y-158600000D02*
X70488000Y-156360000D01*
X68952000Y-178158000D02*
X64392000Y-178158000D01*
X68952000Y-175918000D02*
X68952000Y-178158000D01*
X64392000Y-175918000D02*
X68952000Y-175918000D01*
X64392000Y-178158000D02*
X64392000Y-175918000D01*
X67682000Y-172824000D02*
X63122000Y-172824000D01*
X67682000Y-170584000D02*
X67682000Y-172824000D01*
X63122000Y-170584000D02*
X67682000Y-170584000D01*
X63122000Y-172824000D02*
X63122000Y-170584000D01*
X66158000Y-167490000D02*
X61598000Y-167490000D01*
X66158000Y-165250000D02*
X66158000Y-167490000D01*
X61598000Y-165250000D02*
X66158000Y-165250000D01*
X61598000Y-167490000D02*
X61598000Y-165250000D01*
X82172000Y-167536000D02*
X86732000Y-167536000D01*
X82172000Y-169776000D02*
X82172000Y-167536000D01*
X86732000Y-169776000D02*
X82172000Y-169776000D01*
X86732000Y-167536000D02*
X86732000Y-169776000D01*
X80908000Y-162710000D02*
X85468000Y-162710000D01*
X80908000Y-164950000D02*
X80908000Y-162710000D01*
X85468000Y-164950000D02*
X80908000Y-164950000D01*
X85468000Y-162710000D02*
X85468000Y-164950000D01*
X79638000Y-157884000D02*
X84198000Y-157884000D01*
X79638000Y-160124000D02*
X79638000Y-157884000D01*
X84198000Y-160124000D02*
X79638000Y-160124000D01*
X84198000Y-157884000D02*
X84198000Y-160124000D01*
X88624000Y-152676000D02*
X92224000Y-152676000D01*
X88624000Y-136376000D02*
X88624000Y-152676000D01*
X92224000Y-136376000D02*
X88624000Y-136376000D01*
X92224000Y-152676000D02*
X92224000Y-136376000D01*
X89402000Y-195938000D02*
X84842000Y-195938000D01*
X89402000Y-193698000D02*
X89402000Y-195938000D01*
X84842000Y-193698000D02*
X89402000Y-193698000D01*
X84842000Y-195938000D02*
X84842000Y-193698000D01*
X62080000Y-132718000D02*
X62080000Y-137278000D01*
X59840000Y-132718000D02*
X62080000Y-132718000D01*
X59840000Y-137278000D02*
X59840000Y-132718000D01*
X62080000Y-137278000D02*
X59840000Y-137278000D01*
X60602000Y-150238000D02*
X60602000Y-145678000D01*
X62842000Y-150238000D02*
X60602000Y-150238000D01*
X62842000Y-145678000D02*
X62842000Y-150238000D01*
X60602000Y-145678000D02*
X62842000Y-145678000D01*
X81892000Y-127638000D02*
X81892000Y-132198000D01*
X79652000Y-127638000D02*
X81892000Y-127638000D01*
X79652000Y-132198000D02*
X79652000Y-127638000D01*
X81892000Y-132198000D02*
X79652000Y-132198000D01*
X109624000Y-143250000D02*
X109624000Y-138690000D01*
X111864000Y-143250000D02*
X109624000Y-143250000D01*
X111864000Y-138690000D02*
X111864000Y-143250000D01*
X109624000Y-138690000D02*
X111864000Y-138690000D01*
X82146000Y-194304000D02*
X79906000Y-194304000D01*
X79906000Y-194304000D02*
X79906000Y-189744000D01*
X79906000Y-189744000D02*
X82146000Y-189744000D01*
X82146000Y-189744000D02*
X82146000Y-194304000D01*
X73524000Y-169014000D02*
X68964000Y-169014000D01*
X73524000Y-166774000D02*
X73524000Y-169014000D01*
X68964000Y-166774000D02*
X73524000Y-166774000D01*
X68964000Y-169014000D02*
X68964000Y-166774000D01*
X100200000Y-188064000D02*
X95640000Y-188064000D01*
X100200000Y-185824000D02*
X100200000Y-188064000D01*
X95640000Y-185824000D02*
X100200000Y-185824000D01*
X95640000Y-188064000D02*
X95640000Y-185824000D01*
X100200000Y-176380000D02*
X95640000Y-176380000D01*
X100200000Y-174140000D02*
X100200000Y-176380000D01*
X95640000Y-174140000D02*
X100200000Y-174140000D01*
X95640000Y-176380000D02*
X95640000Y-174140000D01*
M02*
