G04 #@! TF.GenerationSoftware,KiCad,Pcbnew,(5.1.2)-2*
G04 #@! TF.CreationDate,2019-10-26T17:19:00+01:00*
G04 #@! TF.ProjectId,canbus_boiler_switch,63616e62-7573-45f6-926f-696c65725f73,rev?*
G04 #@! TF.SameCoordinates,Original*
G04 #@! TF.FileFunction,Other,Fab,Top*
%FSLAX46Y46*%
G04 Gerber Fmt 4.6, Leading zero omitted, Abs format (unit mm)*
G04 Created by KiCad (PCBNEW (5.1.2)-2) date 2019-10-26 17:19:00*
%MOMM*%
%LPD*%
G04 APERTURE LIST*
%ADD10C,0.100000*%
%ADD11C,0.150000*%
%ADD12C,0.120000*%
G04 APERTURE END LIST*
D10*
X88817000Y-184117000D02*
G75*
G03X93047000Y-184117000I2115000J0D01*
G01*
X88817000Y-178087000D02*
G75*
G02X93047000Y-178087000I2115000J0D01*
G01*
X88817000Y-178087000D02*
X88817000Y-184117000D01*
X93047000Y-178087000D02*
X93047000Y-184117000D01*
X93282000Y-186802000D02*
X93282000Y-175402000D01*
X88582000Y-186802000D02*
X93282000Y-186802000D01*
X88582000Y-175402000D02*
X88582000Y-186802000D01*
X93282000Y-175402000D02*
X88582000Y-175402000D01*
X60390000Y-216984000D02*
X60390000Y-200734000D01*
X60390000Y-198984000D02*
X73590000Y-198984000D01*
X73590000Y-198984000D02*
X73590000Y-216984000D01*
X73590000Y-216984000D02*
X60390000Y-216984000D01*
X60390000Y-200734000D02*
X60890000Y-200234000D01*
X60890000Y-200234000D02*
X60390000Y-199734000D01*
X60390000Y-199734000D02*
X60390000Y-198984000D01*
X75860000Y-216984000D02*
X75860000Y-200734000D01*
X75860000Y-198984000D02*
X89060000Y-198984000D01*
X89060000Y-198984000D02*
X89060000Y-216984000D01*
X89060000Y-216984000D02*
X75860000Y-216984000D01*
X75860000Y-200734000D02*
X76360000Y-200234000D01*
X76360000Y-200234000D02*
X75860000Y-199734000D01*
X75860000Y-199734000D02*
X75860000Y-198984000D01*
X75864000Y-192610000D02*
X74889000Y-193585000D01*
X75864000Y-188685000D02*
X75864000Y-192610000D01*
X71964000Y-188685000D02*
X75864000Y-188685000D01*
X71964000Y-193585000D02*
X71964000Y-188685000D01*
X74889000Y-193585000D02*
X71964000Y-193585000D01*
X105087564Y-140752000D02*
G75*
G03X105087564Y-140752000I-2015564J0D01*
G01*
X106072000Y-143752000D02*
X103072000Y-143752000D01*
X106072000Y-137752000D02*
X106072000Y-143752000D01*
X100072000Y-137752000D02*
X106072000Y-137752000D01*
X100072000Y-143752000D02*
X100072000Y-137752000D01*
X103072000Y-143752000D02*
X100072000Y-143752000D01*
X49784000Y-152400000D02*
X49784000Y-121920000D01*
X52324000Y-152400000D02*
X49784000Y-152400000D01*
X52324000Y-122555000D02*
X52324000Y-152400000D01*
X51689000Y-121920000D02*
X52324000Y-122555000D01*
X49784000Y-121920000D02*
X51689000Y-121920000D01*
X73203000Y-181218000D02*
X72203000Y-180218000D01*
X83753000Y-181218000D02*
X73203000Y-181218000D01*
X83753000Y-173718000D02*
X83753000Y-181218000D01*
X72203000Y-173718000D02*
X83753000Y-173718000D01*
X72203000Y-180218000D02*
X72203000Y-173718000D01*
X83782000Y-151076000D02*
X83782000Y-147876000D01*
X85382000Y-151076000D02*
X83782000Y-151076000D01*
X85382000Y-147876000D02*
X85382000Y-151076000D01*
X83782000Y-147876000D02*
X85382000Y-147876000D01*
X96482000Y-151076000D02*
X96482000Y-147876000D01*
X98082000Y-151076000D02*
X96482000Y-151076000D01*
X98082000Y-147876000D02*
X98082000Y-151076000D01*
X96482000Y-147876000D02*
X98082000Y-147876000D01*
X64564000Y-192240000D02*
X67764000Y-192240000D01*
X64564000Y-193840000D02*
X64564000Y-192240000D01*
X67764000Y-193840000D02*
X64564000Y-193840000D01*
X67764000Y-192240000D02*
X67764000Y-193840000D01*
X74368000Y-158280000D02*
X71168000Y-158280000D01*
X74368000Y-156680000D02*
X74368000Y-158280000D01*
X71168000Y-156680000D02*
X74368000Y-156680000D01*
X71168000Y-158280000D02*
X71168000Y-156680000D01*
X68272000Y-177838000D02*
X65072000Y-177838000D01*
X68272000Y-176238000D02*
X68272000Y-177838000D01*
X65072000Y-176238000D02*
X68272000Y-176238000D01*
X65072000Y-177838000D02*
X65072000Y-176238000D01*
X67002000Y-172504000D02*
X63802000Y-172504000D01*
X67002000Y-170904000D02*
X67002000Y-172504000D01*
X63802000Y-170904000D02*
X67002000Y-170904000D01*
X63802000Y-172504000D02*
X63802000Y-170904000D01*
X65478000Y-167170000D02*
X62278000Y-167170000D01*
X65478000Y-165570000D02*
X65478000Y-167170000D01*
X62278000Y-165570000D02*
X65478000Y-165570000D01*
X62278000Y-167170000D02*
X62278000Y-165570000D01*
X82852000Y-167856000D02*
X86052000Y-167856000D01*
X82852000Y-169456000D02*
X82852000Y-167856000D01*
X86052000Y-169456000D02*
X82852000Y-169456000D01*
X86052000Y-167856000D02*
X86052000Y-169456000D01*
X81588000Y-163030000D02*
X84788000Y-163030000D01*
X81588000Y-164630000D02*
X81588000Y-163030000D01*
X84788000Y-164630000D02*
X81588000Y-164630000D01*
X84788000Y-163030000D02*
X84788000Y-164630000D01*
X80318000Y-158204000D02*
X83518000Y-158204000D01*
X80318000Y-159804000D02*
X80318000Y-158204000D01*
X83518000Y-159804000D02*
X80318000Y-159804000D01*
X83518000Y-158204000D02*
X83518000Y-159804000D01*
X91694000Y-151511000D02*
X91059000Y-152146000D01*
X91694000Y-136906000D02*
X91694000Y-151511000D01*
X89154000Y-136906000D02*
X91694000Y-136906000D01*
X89154000Y-152146000D02*
X89154000Y-136906000D01*
X91059000Y-152146000D02*
X89154000Y-152146000D01*
X88722000Y-195618000D02*
X85522000Y-195618000D01*
X88722000Y-194018000D02*
X88722000Y-195618000D01*
X85522000Y-194018000D02*
X88722000Y-194018000D01*
X85522000Y-195618000D02*
X85522000Y-194018000D01*
X61760000Y-133398000D02*
X61760000Y-136598000D01*
X60160000Y-133398000D02*
X61760000Y-133398000D01*
X60160000Y-136598000D02*
X60160000Y-133398000D01*
X61760000Y-136598000D02*
X60160000Y-136598000D01*
X60922000Y-149558000D02*
X60922000Y-146358000D01*
X62522000Y-149558000D02*
X60922000Y-149558000D01*
X62522000Y-146358000D02*
X62522000Y-149558000D01*
X60922000Y-146358000D02*
X62522000Y-146358000D01*
X81572000Y-128318000D02*
X81572000Y-131518000D01*
X79972000Y-128318000D02*
X81572000Y-128318000D01*
X79972000Y-131518000D02*
X79972000Y-128318000D01*
X81572000Y-131518000D02*
X79972000Y-131518000D01*
X109944000Y-142570000D02*
X109944000Y-139370000D01*
X111544000Y-142570000D02*
X109944000Y-142570000D01*
X111544000Y-139370000D02*
X111544000Y-142570000D01*
X109944000Y-139370000D02*
X111544000Y-139370000D01*
X81826000Y-193624000D02*
X80226000Y-193624000D01*
X80226000Y-193624000D02*
X80226000Y-190424000D01*
X80226000Y-190424000D02*
X81826000Y-190424000D01*
X81826000Y-190424000D02*
X81826000Y-193624000D01*
X72844000Y-168694000D02*
X69644000Y-168694000D01*
X72844000Y-167094000D02*
X72844000Y-168694000D01*
X69644000Y-167094000D02*
X72844000Y-167094000D01*
X69644000Y-168694000D02*
X69644000Y-167094000D01*
X99520000Y-187744000D02*
X96320000Y-187744000D01*
X99520000Y-186144000D02*
X99520000Y-187744000D01*
X96320000Y-186144000D02*
X99520000Y-186144000D01*
X96320000Y-187744000D02*
X96320000Y-186144000D01*
X99520000Y-176060000D02*
X96320000Y-176060000D01*
X99520000Y-174460000D02*
X99520000Y-176060000D01*
X96320000Y-174460000D02*
X99520000Y-174460000D01*
X96320000Y-176060000D02*
X96320000Y-174460000D01*
D11*
X87834380Y-182792476D02*
X87834380Y-183363904D01*
X87834380Y-183078190D02*
X86834380Y-183078190D01*
X86977238Y-183173428D01*
X87072476Y-183268666D01*
X87120095Y-183363904D01*
X86834380Y-181935333D02*
X86834380Y-182125809D01*
X86882000Y-182221047D01*
X86929619Y-182268666D01*
X87072476Y-182363904D01*
X87262952Y-182411523D01*
X87643904Y-182411523D01*
X87739142Y-182363904D01*
X87786761Y-182316285D01*
X87834380Y-182221047D01*
X87834380Y-182030571D01*
X87786761Y-181935333D01*
X87739142Y-181887714D01*
X87643904Y-181840095D01*
X87405809Y-181840095D01*
X87310571Y-181887714D01*
X87262952Y-181935333D01*
X87215333Y-182030571D01*
X87215333Y-182221047D01*
X87262952Y-182316285D01*
X87310571Y-182363904D01*
X87405809Y-182411523D01*
X87834380Y-181411523D02*
X86834380Y-181411523D01*
X87548666Y-181078190D01*
X86834380Y-180744857D01*
X87834380Y-180744857D01*
X87834380Y-180268666D02*
X86834380Y-180268666D01*
X87310571Y-180268666D02*
X87310571Y-179697238D01*
X87834380Y-179697238D02*
X86834380Y-179697238D01*
X87167714Y-179316285D02*
X87167714Y-178792476D01*
X87834380Y-179316285D01*
X87834380Y-178792476D01*
X90908190Y-181578190D02*
X91384380Y-181578190D01*
X90384380Y-181911523D02*
X90908190Y-181578190D01*
X90384380Y-181244857D01*
X91384380Y-180387714D02*
X91384380Y-180959142D01*
X91384380Y-180673428D02*
X90384380Y-180673428D01*
X90527238Y-180768666D01*
X90622476Y-180863904D01*
X90670095Y-180959142D01*
X66074285Y-217966380D02*
X65883809Y-217966380D01*
X65788571Y-218014000D01*
X65740952Y-218061619D01*
X65645714Y-218204476D01*
X65598095Y-218394952D01*
X65598095Y-218775904D01*
X65645714Y-218871142D01*
X65693333Y-218918761D01*
X65788571Y-218966380D01*
X65979047Y-218966380D01*
X66074285Y-218918761D01*
X66121904Y-218871142D01*
X66169523Y-218775904D01*
X66169523Y-218537809D01*
X66121904Y-218442571D01*
X66074285Y-218394952D01*
X65979047Y-218347333D01*
X65788571Y-218347333D01*
X65693333Y-218394952D01*
X65645714Y-218442571D01*
X65598095Y-218537809D01*
X66598095Y-218966380D02*
X66598095Y-217966380D01*
X66979047Y-217966380D01*
X67074285Y-218014000D01*
X67121904Y-218061619D01*
X67169523Y-218156857D01*
X67169523Y-218299714D01*
X67121904Y-218394952D01*
X67074285Y-218442571D01*
X66979047Y-218490190D01*
X66598095Y-218490190D01*
X68026666Y-217966380D02*
X67836190Y-217966380D01*
X67740952Y-218014000D01*
X67693333Y-218061619D01*
X67598095Y-218204476D01*
X67550476Y-218394952D01*
X67550476Y-218775904D01*
X67598095Y-218871142D01*
X67645714Y-218918761D01*
X67740952Y-218966380D01*
X67931428Y-218966380D01*
X68026666Y-218918761D01*
X68074285Y-218871142D01*
X68121904Y-218775904D01*
X68121904Y-218537809D01*
X68074285Y-218442571D01*
X68026666Y-218394952D01*
X67931428Y-218347333D01*
X67740952Y-218347333D01*
X67645714Y-218394952D01*
X67598095Y-218442571D01*
X67550476Y-218537809D01*
X69121904Y-218871142D02*
X69074285Y-218918761D01*
X68931428Y-218966380D01*
X68836190Y-218966380D01*
X68693333Y-218918761D01*
X68598095Y-218823523D01*
X68550476Y-218728285D01*
X68502857Y-218537809D01*
X68502857Y-218394952D01*
X68550476Y-218204476D01*
X68598095Y-218109238D01*
X68693333Y-218014000D01*
X68836190Y-217966380D01*
X68931428Y-217966380D01*
X69074285Y-218014000D01*
X69121904Y-218061619D01*
X66646666Y-207426380D02*
X66646666Y-208140666D01*
X66599047Y-208283523D01*
X66503809Y-208378761D01*
X66360952Y-208426380D01*
X66265714Y-208426380D01*
X67027619Y-207426380D02*
X67646666Y-207426380D01*
X67313333Y-207807333D01*
X67456190Y-207807333D01*
X67551428Y-207854952D01*
X67599047Y-207902571D01*
X67646666Y-207997809D01*
X67646666Y-208235904D01*
X67599047Y-208331142D01*
X67551428Y-208378761D01*
X67456190Y-208426380D01*
X67170476Y-208426380D01*
X67075238Y-208378761D01*
X67027619Y-208331142D01*
X81544285Y-217966380D02*
X81353809Y-217966380D01*
X81258571Y-218014000D01*
X81210952Y-218061619D01*
X81115714Y-218204476D01*
X81068095Y-218394952D01*
X81068095Y-218775904D01*
X81115714Y-218871142D01*
X81163333Y-218918761D01*
X81258571Y-218966380D01*
X81449047Y-218966380D01*
X81544285Y-218918761D01*
X81591904Y-218871142D01*
X81639523Y-218775904D01*
X81639523Y-218537809D01*
X81591904Y-218442571D01*
X81544285Y-218394952D01*
X81449047Y-218347333D01*
X81258571Y-218347333D01*
X81163333Y-218394952D01*
X81115714Y-218442571D01*
X81068095Y-218537809D01*
X82068095Y-218966380D02*
X82068095Y-217966380D01*
X82449047Y-217966380D01*
X82544285Y-218014000D01*
X82591904Y-218061619D01*
X82639523Y-218156857D01*
X82639523Y-218299714D01*
X82591904Y-218394952D01*
X82544285Y-218442571D01*
X82449047Y-218490190D01*
X82068095Y-218490190D01*
X83496666Y-217966380D02*
X83306190Y-217966380D01*
X83210952Y-218014000D01*
X83163333Y-218061619D01*
X83068095Y-218204476D01*
X83020476Y-218394952D01*
X83020476Y-218775904D01*
X83068095Y-218871142D01*
X83115714Y-218918761D01*
X83210952Y-218966380D01*
X83401428Y-218966380D01*
X83496666Y-218918761D01*
X83544285Y-218871142D01*
X83591904Y-218775904D01*
X83591904Y-218537809D01*
X83544285Y-218442571D01*
X83496666Y-218394952D01*
X83401428Y-218347333D01*
X83210952Y-218347333D01*
X83115714Y-218394952D01*
X83068095Y-218442571D01*
X83020476Y-218537809D01*
X84591904Y-218871142D02*
X84544285Y-218918761D01*
X84401428Y-218966380D01*
X84306190Y-218966380D01*
X84163333Y-218918761D01*
X84068095Y-218823523D01*
X84020476Y-218728285D01*
X83972857Y-218537809D01*
X83972857Y-218394952D01*
X84020476Y-218204476D01*
X84068095Y-218109238D01*
X84163333Y-218014000D01*
X84306190Y-217966380D01*
X84401428Y-217966380D01*
X84544285Y-218014000D01*
X84591904Y-218061619D01*
X82116666Y-207426380D02*
X82116666Y-208140666D01*
X82069047Y-208283523D01*
X81973809Y-208378761D01*
X81830952Y-208426380D01*
X81735714Y-208426380D01*
X82545238Y-207521619D02*
X82592857Y-207474000D01*
X82688095Y-207426380D01*
X82926190Y-207426380D01*
X83021428Y-207474000D01*
X83069047Y-207521619D01*
X83116666Y-207616857D01*
X83116666Y-207712095D01*
X83069047Y-207854952D01*
X82497619Y-208426380D01*
X83116666Y-208426380D01*
X68199714Y-188187380D02*
X68199714Y-187187380D01*
X68533047Y-187901666D01*
X68866380Y-187187380D01*
X68866380Y-188187380D01*
X69914000Y-188092142D02*
X69866380Y-188139761D01*
X69723523Y-188187380D01*
X69628285Y-188187380D01*
X69485428Y-188139761D01*
X69390190Y-188044523D01*
X69342571Y-187949285D01*
X69294952Y-187758809D01*
X69294952Y-187615952D01*
X69342571Y-187425476D01*
X69390190Y-187330238D01*
X69485428Y-187235000D01*
X69628285Y-187187380D01*
X69723523Y-187187380D01*
X69866380Y-187235000D01*
X69914000Y-187282619D01*
X70342571Y-188187380D02*
X70342571Y-187187380D01*
X70723523Y-187187380D01*
X70818761Y-187235000D01*
X70866380Y-187282619D01*
X70914000Y-187377857D01*
X70914000Y-187520714D01*
X70866380Y-187615952D01*
X70818761Y-187663571D01*
X70723523Y-187711190D01*
X70342571Y-187711190D01*
X71294952Y-187282619D02*
X71342571Y-187235000D01*
X71437809Y-187187380D01*
X71675904Y-187187380D01*
X71771142Y-187235000D01*
X71818761Y-187282619D01*
X71866380Y-187377857D01*
X71866380Y-187473095D01*
X71818761Y-187615952D01*
X71247333Y-188187380D01*
X71866380Y-188187380D01*
X72771142Y-187187380D02*
X72294952Y-187187380D01*
X72247333Y-187663571D01*
X72294952Y-187615952D01*
X72390190Y-187568333D01*
X72628285Y-187568333D01*
X72723523Y-187615952D01*
X72771142Y-187663571D01*
X72818761Y-187758809D01*
X72818761Y-187996904D01*
X72771142Y-188092142D01*
X72723523Y-188139761D01*
X72628285Y-188187380D01*
X72390190Y-188187380D01*
X72294952Y-188139761D01*
X72247333Y-188092142D01*
X73723523Y-187187380D02*
X73247333Y-187187380D01*
X73199714Y-187663571D01*
X73247333Y-187615952D01*
X73342571Y-187568333D01*
X73580666Y-187568333D01*
X73675904Y-187615952D01*
X73723523Y-187663571D01*
X73771142Y-187758809D01*
X73771142Y-187996904D01*
X73723523Y-188092142D01*
X73675904Y-188139761D01*
X73580666Y-188187380D01*
X73342571Y-188187380D01*
X73247333Y-188139761D01*
X73199714Y-188092142D01*
X74723523Y-188187380D02*
X74152095Y-188187380D01*
X74437809Y-188187380D02*
X74437809Y-187187380D01*
X74342571Y-187330238D01*
X74247333Y-187425476D01*
X74152095Y-187473095D01*
X75152095Y-187806428D02*
X75914000Y-187806428D01*
X76390190Y-188187380D02*
X76390190Y-187187380D01*
X76866380Y-187806428D02*
X77628285Y-187806428D01*
X78056857Y-188139761D02*
X78199714Y-188187380D01*
X78437809Y-188187380D01*
X78533047Y-188139761D01*
X78580666Y-188092142D01*
X78628285Y-187996904D01*
X78628285Y-187901666D01*
X78580666Y-187806428D01*
X78533047Y-187758809D01*
X78437809Y-187711190D01*
X78247333Y-187663571D01*
X78152095Y-187615952D01*
X78104476Y-187568333D01*
X78056857Y-187473095D01*
X78056857Y-187377857D01*
X78104476Y-187282619D01*
X78152095Y-187235000D01*
X78247333Y-187187380D01*
X78485428Y-187187380D01*
X78628285Y-187235000D01*
X79056857Y-188187380D02*
X79056857Y-187187380D01*
X79628285Y-188187380D01*
X79628285Y-187187380D01*
X73167333Y-190598333D02*
X73167333Y-191391666D01*
X73214000Y-191485000D01*
X73260666Y-191531666D01*
X73354000Y-191578333D01*
X73540666Y-191578333D01*
X73634000Y-191531666D01*
X73680666Y-191485000D01*
X73727333Y-191391666D01*
X73727333Y-190598333D01*
X74147333Y-190691666D02*
X74194000Y-190645000D01*
X74287333Y-190598333D01*
X74520666Y-190598333D01*
X74614000Y-190645000D01*
X74660666Y-190691666D01*
X74707333Y-190785000D01*
X74707333Y-190878333D01*
X74660666Y-191018333D01*
X74100666Y-191578333D01*
X74707333Y-191578333D01*
X99524380Y-136706761D02*
X99667238Y-136754380D01*
X99905333Y-136754380D01*
X100000571Y-136706761D01*
X100048190Y-136659142D01*
X100095809Y-136563904D01*
X100095809Y-136468666D01*
X100048190Y-136373428D01*
X100000571Y-136325809D01*
X99905333Y-136278190D01*
X99714857Y-136230571D01*
X99619619Y-136182952D01*
X99572000Y-136135333D01*
X99524380Y-136040095D01*
X99524380Y-135944857D01*
X99572000Y-135849619D01*
X99619619Y-135802000D01*
X99714857Y-135754380D01*
X99952952Y-135754380D01*
X100095809Y-135802000D01*
X100429142Y-135754380D02*
X100667238Y-136754380D01*
X100857714Y-136040095D01*
X101048190Y-136754380D01*
X101286285Y-135754380D01*
X101429142Y-136849619D02*
X102191047Y-136849619D01*
X102429142Y-136754380D02*
X102429142Y-135754380D01*
X102810095Y-135754380D01*
X102905333Y-135802000D01*
X102952952Y-135849619D01*
X103000571Y-135944857D01*
X103000571Y-136087714D01*
X102952952Y-136182952D01*
X102905333Y-136230571D01*
X102810095Y-136278190D01*
X102429142Y-136278190D01*
X103857714Y-136087714D02*
X103857714Y-136754380D01*
X103429142Y-136087714D02*
X103429142Y-136611523D01*
X103476761Y-136706761D01*
X103572000Y-136754380D01*
X103714857Y-136754380D01*
X103810095Y-136706761D01*
X103857714Y-136659142D01*
X104286285Y-136706761D02*
X104381523Y-136754380D01*
X104572000Y-136754380D01*
X104667238Y-136706761D01*
X104714857Y-136611523D01*
X104714857Y-136563904D01*
X104667238Y-136468666D01*
X104572000Y-136421047D01*
X104429142Y-136421047D01*
X104333904Y-136373428D01*
X104286285Y-136278190D01*
X104286285Y-136230571D01*
X104333904Y-136135333D01*
X104429142Y-136087714D01*
X104572000Y-136087714D01*
X104667238Y-136135333D01*
X105143428Y-136754380D02*
X105143428Y-135754380D01*
X105572000Y-136754380D02*
X105572000Y-136230571D01*
X105524380Y-136135333D01*
X105429142Y-136087714D01*
X105286285Y-136087714D01*
X105191047Y-136135333D01*
X105143428Y-136182952D01*
X101738666Y-141156761D02*
X101881523Y-141204380D01*
X102119619Y-141204380D01*
X102214857Y-141156761D01*
X102262476Y-141109142D01*
X102310095Y-141013904D01*
X102310095Y-140918666D01*
X102262476Y-140823428D01*
X102214857Y-140775809D01*
X102119619Y-140728190D01*
X101929142Y-140680571D01*
X101833904Y-140632952D01*
X101786285Y-140585333D01*
X101738666Y-140490095D01*
X101738666Y-140394857D01*
X101786285Y-140299619D01*
X101833904Y-140252000D01*
X101929142Y-140204380D01*
X102167238Y-140204380D01*
X102310095Y-140252000D01*
X102643428Y-140204380D02*
X102881523Y-141204380D01*
X103072000Y-140490095D01*
X103262476Y-141204380D01*
X103500571Y-140204380D01*
X104405333Y-141204380D02*
X103833904Y-141204380D01*
X104119619Y-141204380D02*
X104119619Y-140204380D01*
X104024380Y-140347238D01*
X103929142Y-140442476D01*
X103833904Y-140490095D01*
X44268285Y-154257142D02*
X44220666Y-154304761D01*
X44077809Y-154352380D01*
X43982571Y-154352380D01*
X43839714Y-154304761D01*
X43744476Y-154209523D01*
X43696857Y-154114285D01*
X43649238Y-153923809D01*
X43649238Y-153780952D01*
X43696857Y-153590476D01*
X43744476Y-153495238D01*
X43839714Y-153400000D01*
X43982571Y-153352380D01*
X44077809Y-153352380D01*
X44220666Y-153400000D01*
X44268285Y-153447619D01*
X44839714Y-154352380D02*
X44744476Y-154304761D01*
X44696857Y-154257142D01*
X44649238Y-154161904D01*
X44649238Y-153876190D01*
X44696857Y-153780952D01*
X44744476Y-153733333D01*
X44839714Y-153685714D01*
X44982571Y-153685714D01*
X45077809Y-153733333D01*
X45125428Y-153780952D01*
X45173047Y-153876190D01*
X45173047Y-154161904D01*
X45125428Y-154257142D01*
X45077809Y-154304761D01*
X44982571Y-154352380D01*
X44839714Y-154352380D01*
X45601619Y-153685714D02*
X45601619Y-154352380D01*
X45601619Y-153780952D02*
X45649238Y-153733333D01*
X45744476Y-153685714D01*
X45887333Y-153685714D01*
X45982571Y-153733333D01*
X46030190Y-153828571D01*
X46030190Y-154352380D01*
X46506380Y-153685714D02*
X46506380Y-154352380D01*
X46506380Y-153780952D02*
X46554000Y-153733333D01*
X46649238Y-153685714D01*
X46792095Y-153685714D01*
X46887333Y-153733333D01*
X46934952Y-153828571D01*
X46934952Y-154352380D01*
X47173047Y-154447619D02*
X47934952Y-154447619D01*
X48363523Y-153352380D02*
X48458761Y-153352380D01*
X48554000Y-153400000D01*
X48601619Y-153447619D01*
X48649238Y-153542857D01*
X48696857Y-153733333D01*
X48696857Y-153971428D01*
X48649238Y-154161904D01*
X48601619Y-154257142D01*
X48554000Y-154304761D01*
X48458761Y-154352380D01*
X48363523Y-154352380D01*
X48268285Y-154304761D01*
X48220666Y-154257142D01*
X48173047Y-154161904D01*
X48125428Y-153971428D01*
X48125428Y-153733333D01*
X48173047Y-153542857D01*
X48220666Y-153447619D01*
X48268285Y-153400000D01*
X48363523Y-153352380D01*
X49649238Y-154352380D02*
X49077809Y-154352380D01*
X49363523Y-154352380D02*
X49363523Y-153352380D01*
X49268285Y-153495238D01*
X49173047Y-153590476D01*
X49077809Y-153638095D01*
X49982571Y-154352380D02*
X50506380Y-153685714D01*
X49982571Y-153685714D02*
X50506380Y-154352380D01*
X51411142Y-154352380D02*
X50839714Y-154352380D01*
X51125428Y-154352380D02*
X51125428Y-153352380D01*
X51030190Y-153495238D01*
X50934952Y-153590476D01*
X50839714Y-153638095D01*
X51792095Y-153447619D02*
X51839714Y-153400000D01*
X51934952Y-153352380D01*
X52173047Y-153352380D01*
X52268285Y-153400000D01*
X52315904Y-153447619D01*
X52363523Y-153542857D01*
X52363523Y-153638095D01*
X52315904Y-153780952D01*
X51744476Y-154352380D01*
X52363523Y-154352380D01*
X52554000Y-154447619D02*
X53315904Y-154447619D01*
X53887333Y-153828571D02*
X53554000Y-153828571D01*
X53554000Y-154352380D02*
X53554000Y-153352380D01*
X54030190Y-153352380D01*
X54792095Y-154304761D02*
X54696857Y-154352380D01*
X54506380Y-154352380D01*
X54411142Y-154304761D01*
X54363523Y-154209523D01*
X54363523Y-153828571D01*
X54411142Y-153733333D01*
X54506380Y-153685714D01*
X54696857Y-153685714D01*
X54792095Y-153733333D01*
X54839714Y-153828571D01*
X54839714Y-153923809D01*
X54363523Y-154019047D01*
X55268285Y-154352380D02*
X55268285Y-153685714D01*
X55268285Y-153780952D02*
X55315904Y-153733333D01*
X55411142Y-153685714D01*
X55554000Y-153685714D01*
X55649238Y-153733333D01*
X55696857Y-153828571D01*
X55696857Y-154352380D01*
X55696857Y-153828571D02*
X55744476Y-153733333D01*
X55839714Y-153685714D01*
X55982571Y-153685714D01*
X56077809Y-153733333D01*
X56125428Y-153828571D01*
X56125428Y-154352380D01*
X57030190Y-154352380D02*
X57030190Y-153828571D01*
X56982571Y-153733333D01*
X56887333Y-153685714D01*
X56696857Y-153685714D01*
X56601619Y-153733333D01*
X57030190Y-154304761D02*
X56934952Y-154352380D01*
X56696857Y-154352380D01*
X56601619Y-154304761D01*
X56554000Y-154209523D01*
X56554000Y-154114285D01*
X56601619Y-154019047D01*
X56696857Y-153971428D01*
X56934952Y-153971428D01*
X57030190Y-153923809D01*
X57649238Y-154352380D02*
X57554000Y-154304761D01*
X57506380Y-154209523D01*
X57506380Y-153352380D01*
X58411142Y-154304761D02*
X58315904Y-154352380D01*
X58125428Y-154352380D01*
X58030190Y-154304761D01*
X57982571Y-154209523D01*
X57982571Y-153828571D01*
X58030190Y-153733333D01*
X58125428Y-153685714D01*
X58315904Y-153685714D01*
X58411142Y-153733333D01*
X58458761Y-153828571D01*
X58458761Y-153923809D01*
X57982571Y-154019047D01*
X50506380Y-137493333D02*
X51220666Y-137493333D01*
X51363523Y-137540952D01*
X51458761Y-137636190D01*
X51506380Y-137779047D01*
X51506380Y-137874285D01*
X50839714Y-136588571D02*
X51506380Y-136588571D01*
X50458761Y-136826666D02*
X51173047Y-137064761D01*
X51173047Y-136445714D01*
X85150380Y-182729904D02*
X84150380Y-182729904D01*
X84864666Y-182396571D01*
X84150380Y-182063238D01*
X85150380Y-182063238D01*
X85055142Y-181015619D02*
X85102761Y-181063238D01*
X85150380Y-181206095D01*
X85150380Y-181301333D01*
X85102761Y-181444190D01*
X85007523Y-181539428D01*
X84912285Y-181587047D01*
X84721809Y-181634666D01*
X84578952Y-181634666D01*
X84388476Y-181587047D01*
X84293238Y-181539428D01*
X84198000Y-181444190D01*
X84150380Y-181301333D01*
X84150380Y-181206095D01*
X84198000Y-181063238D01*
X84245619Y-181015619D01*
X85150380Y-180587047D02*
X84150380Y-180587047D01*
X84150380Y-180206095D01*
X84198000Y-180110857D01*
X84245619Y-180063238D01*
X84340857Y-180015619D01*
X84483714Y-180015619D01*
X84578952Y-180063238D01*
X84626571Y-180110857D01*
X84674190Y-180206095D01*
X84674190Y-180587047D01*
X84245619Y-179634666D02*
X84198000Y-179587047D01*
X84150380Y-179491809D01*
X84150380Y-179253714D01*
X84198000Y-179158476D01*
X84245619Y-179110857D01*
X84340857Y-179063238D01*
X84436095Y-179063238D01*
X84578952Y-179110857D01*
X85150380Y-179682285D01*
X85150380Y-179063238D01*
X84150380Y-178158476D02*
X84150380Y-178634666D01*
X84626571Y-178682285D01*
X84578952Y-178634666D01*
X84531333Y-178539428D01*
X84531333Y-178301333D01*
X84578952Y-178206095D01*
X84626571Y-178158476D01*
X84721809Y-178110857D01*
X84959904Y-178110857D01*
X85055142Y-178158476D01*
X85102761Y-178206095D01*
X85150380Y-178301333D01*
X85150380Y-178539428D01*
X85102761Y-178634666D01*
X85055142Y-178682285D01*
X85150380Y-177158476D02*
X85150380Y-177729904D01*
X85150380Y-177444190D02*
X84150380Y-177444190D01*
X84293238Y-177539428D01*
X84388476Y-177634666D01*
X84436095Y-177729904D01*
X84150380Y-176253714D02*
X84150380Y-176729904D01*
X84626571Y-176777523D01*
X84578952Y-176729904D01*
X84531333Y-176634666D01*
X84531333Y-176396571D01*
X84578952Y-176301333D01*
X84626571Y-176253714D01*
X84721809Y-176206095D01*
X84959904Y-176206095D01*
X85055142Y-176253714D01*
X85102761Y-176301333D01*
X85150380Y-176396571D01*
X85150380Y-176634666D01*
X85102761Y-176729904D01*
X85055142Y-176777523D01*
X84769428Y-175777523D02*
X84769428Y-175015619D01*
X85150380Y-174634666D02*
X84483714Y-174110857D01*
X84483714Y-174634666D02*
X85150380Y-174110857D01*
X85102761Y-173777523D02*
X85150380Y-173634666D01*
X85150380Y-173396571D01*
X85102761Y-173301333D01*
X85055142Y-173253714D01*
X84959904Y-173206095D01*
X84864666Y-173206095D01*
X84769428Y-173253714D01*
X84721809Y-173301333D01*
X84674190Y-173396571D01*
X84626571Y-173587047D01*
X84578952Y-173682285D01*
X84531333Y-173729904D01*
X84436095Y-173777523D01*
X84340857Y-173777523D01*
X84245619Y-173729904D01*
X84198000Y-173682285D01*
X84150380Y-173587047D01*
X84150380Y-173348952D01*
X84198000Y-173206095D01*
X84150380Y-172587047D02*
X84150380Y-172396571D01*
X84198000Y-172301333D01*
X84293238Y-172206095D01*
X84483714Y-172158476D01*
X84817047Y-172158476D01*
X85007523Y-172206095D01*
X85102761Y-172301333D01*
X85150380Y-172396571D01*
X85150380Y-172587047D01*
X85102761Y-172682285D01*
X85007523Y-172777523D01*
X84817047Y-172825142D01*
X84483714Y-172825142D01*
X84293238Y-172777523D01*
X84198000Y-172682285D01*
X84150380Y-172587047D01*
X77430380Y-178229904D02*
X78239904Y-178229904D01*
X78335142Y-178182285D01*
X78382761Y-178134666D01*
X78430380Y-178039428D01*
X78430380Y-177848952D01*
X78382761Y-177753714D01*
X78335142Y-177706095D01*
X78239904Y-177658476D01*
X77430380Y-177658476D01*
X78430380Y-176658476D02*
X78430380Y-177229904D01*
X78430380Y-176944190D02*
X77430380Y-176944190D01*
X77573238Y-177039428D01*
X77668476Y-177134666D01*
X77716095Y-177229904D01*
X82547714Y-150737904D02*
X83214380Y-150737904D01*
X82166761Y-150976000D02*
X82881047Y-151214095D01*
X82881047Y-150595047D01*
X82214380Y-150309333D02*
X82214380Y-149642666D01*
X83214380Y-150071238D01*
X82214380Y-149071238D02*
X82214380Y-148976000D01*
X82262000Y-148880761D01*
X82309619Y-148833142D01*
X82404857Y-148785523D01*
X82595333Y-148737904D01*
X82833428Y-148737904D01*
X83023904Y-148785523D01*
X83119142Y-148833142D01*
X83166761Y-148880761D01*
X83214380Y-148976000D01*
X83214380Y-149071238D01*
X83166761Y-149166476D01*
X83119142Y-149214095D01*
X83023904Y-149261714D01*
X82833428Y-149309333D01*
X82595333Y-149309333D01*
X82404857Y-149261714D01*
X82309619Y-149214095D01*
X82262000Y-149166476D01*
X82214380Y-149071238D01*
X83214380Y-147737904D02*
X82738190Y-148071238D01*
X83214380Y-148309333D02*
X82214380Y-148309333D01*
X82214380Y-147928380D01*
X82262000Y-147833142D01*
X82309619Y-147785523D01*
X82404857Y-147737904D01*
X82547714Y-147737904D01*
X82642952Y-147785523D01*
X82690571Y-147833142D01*
X82738190Y-147928380D01*
X82738190Y-148309333D01*
D12*
X84943904Y-149990285D02*
X84562952Y-150256952D01*
X84943904Y-150447428D02*
X84143904Y-150447428D01*
X84143904Y-150142666D01*
X84182000Y-150066476D01*
X84220095Y-150028380D01*
X84296285Y-149990285D01*
X84410571Y-149990285D01*
X84486761Y-150028380D01*
X84524857Y-150066476D01*
X84562952Y-150142666D01*
X84562952Y-150447428D01*
X84943904Y-149228380D02*
X84943904Y-149685523D01*
X84943904Y-149456952D02*
X84143904Y-149456952D01*
X84258190Y-149533142D01*
X84334380Y-149609333D01*
X84372476Y-149685523D01*
X84143904Y-148733142D02*
X84143904Y-148656952D01*
X84182000Y-148580761D01*
X84220095Y-148542666D01*
X84296285Y-148504571D01*
X84448666Y-148466476D01*
X84639142Y-148466476D01*
X84791523Y-148504571D01*
X84867714Y-148542666D01*
X84905809Y-148580761D01*
X84943904Y-148656952D01*
X84943904Y-148733142D01*
X84905809Y-148809333D01*
X84867714Y-148847428D01*
X84791523Y-148885523D01*
X84639142Y-148923619D01*
X84448666Y-148923619D01*
X84296285Y-148885523D01*
X84220095Y-148847428D01*
X84182000Y-148809333D01*
X84143904Y-148733142D01*
D11*
X95914380Y-150071238D02*
X95914380Y-150642666D01*
X95914380Y-150356952D02*
X94914380Y-150356952D01*
X95057238Y-150452190D01*
X95152476Y-150547428D01*
X95200095Y-150642666D01*
X94914380Y-149452190D02*
X94914380Y-149356952D01*
X94962000Y-149261714D01*
X95009619Y-149214095D01*
X95104857Y-149166476D01*
X95295333Y-149118857D01*
X95533428Y-149118857D01*
X95723904Y-149166476D01*
X95819142Y-149214095D01*
X95866761Y-149261714D01*
X95914380Y-149356952D01*
X95914380Y-149452190D01*
X95866761Y-149547428D01*
X95819142Y-149595047D01*
X95723904Y-149642666D01*
X95533428Y-149690285D01*
X95295333Y-149690285D01*
X95104857Y-149642666D01*
X95009619Y-149595047D01*
X94962000Y-149547428D01*
X94914380Y-149452190D01*
X95914380Y-148690285D02*
X94914380Y-148690285D01*
X95533428Y-148595047D02*
X95914380Y-148309333D01*
X95247714Y-148309333D02*
X95628666Y-148690285D01*
D12*
X97643904Y-149609333D02*
X97262952Y-149876000D01*
X97643904Y-150066476D02*
X96843904Y-150066476D01*
X96843904Y-149761714D01*
X96882000Y-149685523D01*
X96920095Y-149647428D01*
X96996285Y-149609333D01*
X97110571Y-149609333D01*
X97186761Y-149647428D01*
X97224857Y-149685523D01*
X97262952Y-149761714D01*
X97262952Y-150066476D01*
X97643904Y-149228380D02*
X97643904Y-149076000D01*
X97605809Y-148999809D01*
X97567714Y-148961714D01*
X97453428Y-148885523D01*
X97301047Y-148847428D01*
X96996285Y-148847428D01*
X96920095Y-148885523D01*
X96882000Y-148923619D01*
X96843904Y-148999809D01*
X96843904Y-149152190D01*
X96882000Y-149228380D01*
X96920095Y-149266476D01*
X96996285Y-149304571D01*
X97186761Y-149304571D01*
X97262952Y-149266476D01*
X97301047Y-149228380D01*
X97339142Y-149152190D01*
X97339142Y-148999809D01*
X97301047Y-148923619D01*
X97262952Y-148885523D01*
X97186761Y-148847428D01*
D11*
X65616380Y-190672380D02*
X65711619Y-190672380D01*
X65806857Y-190720000D01*
X65854476Y-190767619D01*
X65902095Y-190862857D01*
X65949714Y-191053333D01*
X65949714Y-191291428D01*
X65902095Y-191481904D01*
X65854476Y-191577142D01*
X65806857Y-191624761D01*
X65711619Y-191672380D01*
X65616380Y-191672380D01*
X65521142Y-191624761D01*
X65473523Y-191577142D01*
X65425904Y-191481904D01*
X65378285Y-191291428D01*
X65378285Y-191053333D01*
X65425904Y-190862857D01*
X65473523Y-190767619D01*
X65521142Y-190720000D01*
X65616380Y-190672380D01*
X66949714Y-191672380D02*
X66616380Y-191196190D01*
X66378285Y-191672380D02*
X66378285Y-190672380D01*
X66759238Y-190672380D01*
X66854476Y-190720000D01*
X66902095Y-190767619D01*
X66949714Y-190862857D01*
X66949714Y-191005714D01*
X66902095Y-191100952D01*
X66854476Y-191148571D01*
X66759238Y-191196190D01*
X66378285Y-191196190D01*
D12*
X66030666Y-193401904D02*
X65764000Y-193020952D01*
X65573523Y-193401904D02*
X65573523Y-192601904D01*
X65878285Y-192601904D01*
X65954476Y-192640000D01*
X65992571Y-192678095D01*
X66030666Y-192754285D01*
X66030666Y-192868571D01*
X65992571Y-192944761D01*
X65954476Y-192982857D01*
X65878285Y-193020952D01*
X65573523Y-193020952D01*
X66487809Y-192944761D02*
X66411619Y-192906666D01*
X66373523Y-192868571D01*
X66335428Y-192792380D01*
X66335428Y-192754285D01*
X66373523Y-192678095D01*
X66411619Y-192640000D01*
X66487809Y-192601904D01*
X66640190Y-192601904D01*
X66716380Y-192640000D01*
X66754476Y-192678095D01*
X66792571Y-192754285D01*
X66792571Y-192792380D01*
X66754476Y-192868571D01*
X66716380Y-192906666D01*
X66640190Y-192944761D01*
X66487809Y-192944761D01*
X66411619Y-192982857D01*
X66373523Y-193020952D01*
X66335428Y-193097142D01*
X66335428Y-193249523D01*
X66373523Y-193325714D01*
X66411619Y-193363809D01*
X66487809Y-193401904D01*
X66640190Y-193401904D01*
X66716380Y-193363809D01*
X66754476Y-193325714D01*
X66792571Y-193249523D01*
X66792571Y-193097142D01*
X66754476Y-193020952D01*
X66716380Y-192982857D01*
X66640190Y-192944761D01*
D11*
X72172761Y-159752380D02*
X71601333Y-159752380D01*
X71887047Y-159752380D02*
X71887047Y-158752380D01*
X71791809Y-158895238D01*
X71696571Y-158990476D01*
X71601333Y-159038095D01*
X72791809Y-158752380D02*
X72887047Y-158752380D01*
X72982285Y-158800000D01*
X73029904Y-158847619D01*
X73077523Y-158942857D01*
X73125142Y-159133333D01*
X73125142Y-159371428D01*
X73077523Y-159561904D01*
X73029904Y-159657142D01*
X72982285Y-159704761D01*
X72887047Y-159752380D01*
X72791809Y-159752380D01*
X72696571Y-159704761D01*
X72648952Y-159657142D01*
X72601333Y-159561904D01*
X72553714Y-159371428D01*
X72553714Y-159133333D01*
X72601333Y-158942857D01*
X72648952Y-158847619D01*
X72696571Y-158800000D01*
X72791809Y-158752380D01*
X73553714Y-159752380D02*
X73553714Y-158752380D01*
X73648952Y-159371428D02*
X73934666Y-159752380D01*
X73934666Y-159085714D02*
X73553714Y-159466666D01*
D12*
X72634666Y-157841904D02*
X72368000Y-157460952D01*
X72177523Y-157841904D02*
X72177523Y-157041904D01*
X72482285Y-157041904D01*
X72558476Y-157080000D01*
X72596571Y-157118095D01*
X72634666Y-157194285D01*
X72634666Y-157308571D01*
X72596571Y-157384761D01*
X72558476Y-157422857D01*
X72482285Y-157460952D01*
X72177523Y-157460952D01*
X72901333Y-157041904D02*
X73434666Y-157041904D01*
X73091809Y-157841904D01*
D11*
X66076761Y-179310380D02*
X65505333Y-179310380D01*
X65791047Y-179310380D02*
X65791047Y-178310380D01*
X65695809Y-178453238D01*
X65600571Y-178548476D01*
X65505333Y-178596095D01*
X66695809Y-178310380D02*
X66791047Y-178310380D01*
X66886285Y-178358000D01*
X66933904Y-178405619D01*
X66981523Y-178500857D01*
X67029142Y-178691333D01*
X67029142Y-178929428D01*
X66981523Y-179119904D01*
X66933904Y-179215142D01*
X66886285Y-179262761D01*
X66791047Y-179310380D01*
X66695809Y-179310380D01*
X66600571Y-179262761D01*
X66552952Y-179215142D01*
X66505333Y-179119904D01*
X66457714Y-178929428D01*
X66457714Y-178691333D01*
X66505333Y-178500857D01*
X66552952Y-178405619D01*
X66600571Y-178358000D01*
X66695809Y-178310380D01*
X67457714Y-179310380D02*
X67457714Y-178310380D01*
X67552952Y-178929428D02*
X67838666Y-179310380D01*
X67838666Y-178643714D02*
X67457714Y-179024666D01*
D12*
X66538666Y-177399904D02*
X66272000Y-177018952D01*
X66081523Y-177399904D02*
X66081523Y-176599904D01*
X66386285Y-176599904D01*
X66462476Y-176638000D01*
X66500571Y-176676095D01*
X66538666Y-176752285D01*
X66538666Y-176866571D01*
X66500571Y-176942761D01*
X66462476Y-176980857D01*
X66386285Y-177018952D01*
X66081523Y-177018952D01*
X67224380Y-176599904D02*
X67072000Y-176599904D01*
X66995809Y-176638000D01*
X66957714Y-176676095D01*
X66881523Y-176790380D01*
X66843428Y-176942761D01*
X66843428Y-177247523D01*
X66881523Y-177323714D01*
X66919619Y-177361809D01*
X66995809Y-177399904D01*
X67148190Y-177399904D01*
X67224380Y-177361809D01*
X67262476Y-177323714D01*
X67300571Y-177247523D01*
X67300571Y-177057047D01*
X67262476Y-176980857D01*
X67224380Y-176942761D01*
X67148190Y-176904666D01*
X66995809Y-176904666D01*
X66919619Y-176942761D01*
X66881523Y-176980857D01*
X66843428Y-177057047D01*
D11*
X64806761Y-173976380D02*
X64235333Y-173976380D01*
X64521047Y-173976380D02*
X64521047Y-172976380D01*
X64425809Y-173119238D01*
X64330571Y-173214476D01*
X64235333Y-173262095D01*
X65425809Y-172976380D02*
X65521047Y-172976380D01*
X65616285Y-173024000D01*
X65663904Y-173071619D01*
X65711523Y-173166857D01*
X65759142Y-173357333D01*
X65759142Y-173595428D01*
X65711523Y-173785904D01*
X65663904Y-173881142D01*
X65616285Y-173928761D01*
X65521047Y-173976380D01*
X65425809Y-173976380D01*
X65330571Y-173928761D01*
X65282952Y-173881142D01*
X65235333Y-173785904D01*
X65187714Y-173595428D01*
X65187714Y-173357333D01*
X65235333Y-173166857D01*
X65282952Y-173071619D01*
X65330571Y-173024000D01*
X65425809Y-172976380D01*
X66187714Y-173976380D02*
X66187714Y-172976380D01*
X66282952Y-173595428D02*
X66568666Y-173976380D01*
X66568666Y-173309714D02*
X66187714Y-173690666D01*
D12*
X65268666Y-172065904D02*
X65002000Y-171684952D01*
X64811523Y-172065904D02*
X64811523Y-171265904D01*
X65116285Y-171265904D01*
X65192476Y-171304000D01*
X65230571Y-171342095D01*
X65268666Y-171418285D01*
X65268666Y-171532571D01*
X65230571Y-171608761D01*
X65192476Y-171646857D01*
X65116285Y-171684952D01*
X64811523Y-171684952D01*
X65992476Y-171265904D02*
X65611523Y-171265904D01*
X65573428Y-171646857D01*
X65611523Y-171608761D01*
X65687714Y-171570666D01*
X65878190Y-171570666D01*
X65954380Y-171608761D01*
X65992476Y-171646857D01*
X66030571Y-171723047D01*
X66030571Y-171913523D01*
X65992476Y-171989714D01*
X65954380Y-172027809D01*
X65878190Y-172065904D01*
X65687714Y-172065904D01*
X65611523Y-172027809D01*
X65573428Y-171989714D01*
D11*
X63282761Y-168642380D02*
X62711333Y-168642380D01*
X62997047Y-168642380D02*
X62997047Y-167642380D01*
X62901809Y-167785238D01*
X62806571Y-167880476D01*
X62711333Y-167928095D01*
X63901809Y-167642380D02*
X63997047Y-167642380D01*
X64092285Y-167690000D01*
X64139904Y-167737619D01*
X64187523Y-167832857D01*
X64235142Y-168023333D01*
X64235142Y-168261428D01*
X64187523Y-168451904D01*
X64139904Y-168547142D01*
X64092285Y-168594761D01*
X63997047Y-168642380D01*
X63901809Y-168642380D01*
X63806571Y-168594761D01*
X63758952Y-168547142D01*
X63711333Y-168451904D01*
X63663714Y-168261428D01*
X63663714Y-168023333D01*
X63711333Y-167832857D01*
X63758952Y-167737619D01*
X63806571Y-167690000D01*
X63901809Y-167642380D01*
X64663714Y-168642380D02*
X64663714Y-167642380D01*
X64758952Y-168261428D02*
X65044666Y-168642380D01*
X65044666Y-167975714D02*
X64663714Y-168356666D01*
D12*
X63620666Y-166731904D02*
X63354000Y-166350952D01*
X63163523Y-166731904D02*
X63163523Y-165931904D01*
X63468285Y-165931904D01*
X63544476Y-165970000D01*
X63582571Y-166008095D01*
X63620666Y-166084285D01*
X63620666Y-166198571D01*
X63582571Y-166274761D01*
X63544476Y-166312857D01*
X63468285Y-166350952D01*
X63163523Y-166350952D01*
X64306380Y-166198571D02*
X64306380Y-166731904D01*
X64115904Y-165893809D02*
X63925428Y-166465238D01*
X64420666Y-166465238D01*
D11*
X83856761Y-167288380D02*
X83285333Y-167288380D01*
X83571047Y-167288380D02*
X83571047Y-166288380D01*
X83475809Y-166431238D01*
X83380571Y-166526476D01*
X83285333Y-166574095D01*
X84475809Y-166288380D02*
X84571047Y-166288380D01*
X84666285Y-166336000D01*
X84713904Y-166383619D01*
X84761523Y-166478857D01*
X84809142Y-166669333D01*
X84809142Y-166907428D01*
X84761523Y-167097904D01*
X84713904Y-167193142D01*
X84666285Y-167240761D01*
X84571047Y-167288380D01*
X84475809Y-167288380D01*
X84380571Y-167240761D01*
X84332952Y-167193142D01*
X84285333Y-167097904D01*
X84237714Y-166907428D01*
X84237714Y-166669333D01*
X84285333Y-166478857D01*
X84332952Y-166383619D01*
X84380571Y-166336000D01*
X84475809Y-166288380D01*
X85237714Y-167288380D02*
X85237714Y-166288380D01*
X85332952Y-166907428D02*
X85618666Y-167288380D01*
X85618666Y-166621714D02*
X85237714Y-167002666D01*
D12*
X84318666Y-169017904D02*
X84052000Y-168636952D01*
X83861523Y-169017904D02*
X83861523Y-168217904D01*
X84166285Y-168217904D01*
X84242476Y-168256000D01*
X84280571Y-168294095D01*
X84318666Y-168370285D01*
X84318666Y-168484571D01*
X84280571Y-168560761D01*
X84242476Y-168598857D01*
X84166285Y-168636952D01*
X83861523Y-168636952D01*
X84585333Y-168217904D02*
X85080571Y-168217904D01*
X84813904Y-168522666D01*
X84928190Y-168522666D01*
X85004380Y-168560761D01*
X85042476Y-168598857D01*
X85080571Y-168675047D01*
X85080571Y-168865523D01*
X85042476Y-168941714D01*
X85004380Y-168979809D01*
X84928190Y-169017904D01*
X84699619Y-169017904D01*
X84623428Y-168979809D01*
X84585333Y-168941714D01*
D11*
X82592761Y-162462380D02*
X82021333Y-162462380D01*
X82307047Y-162462380D02*
X82307047Y-161462380D01*
X82211809Y-161605238D01*
X82116571Y-161700476D01*
X82021333Y-161748095D01*
X83211809Y-161462380D02*
X83307047Y-161462380D01*
X83402285Y-161510000D01*
X83449904Y-161557619D01*
X83497523Y-161652857D01*
X83545142Y-161843333D01*
X83545142Y-162081428D01*
X83497523Y-162271904D01*
X83449904Y-162367142D01*
X83402285Y-162414761D01*
X83307047Y-162462380D01*
X83211809Y-162462380D01*
X83116571Y-162414761D01*
X83068952Y-162367142D01*
X83021333Y-162271904D01*
X82973714Y-162081428D01*
X82973714Y-161843333D01*
X83021333Y-161652857D01*
X83068952Y-161557619D01*
X83116571Y-161510000D01*
X83211809Y-161462380D01*
X83973714Y-162462380D02*
X83973714Y-161462380D01*
X84068952Y-162081428D02*
X84354666Y-162462380D01*
X84354666Y-161795714D02*
X83973714Y-162176666D01*
D12*
X83054666Y-164191904D02*
X82788000Y-163810952D01*
X82597523Y-164191904D02*
X82597523Y-163391904D01*
X82902285Y-163391904D01*
X82978476Y-163430000D01*
X83016571Y-163468095D01*
X83054666Y-163544285D01*
X83054666Y-163658571D01*
X83016571Y-163734761D01*
X82978476Y-163772857D01*
X82902285Y-163810952D01*
X82597523Y-163810952D01*
X83359428Y-163468095D02*
X83397523Y-163430000D01*
X83473714Y-163391904D01*
X83664190Y-163391904D01*
X83740380Y-163430000D01*
X83778476Y-163468095D01*
X83816571Y-163544285D01*
X83816571Y-163620476D01*
X83778476Y-163734761D01*
X83321333Y-164191904D01*
X83816571Y-164191904D01*
D11*
X81322761Y-157636380D02*
X80751333Y-157636380D01*
X81037047Y-157636380D02*
X81037047Y-156636380D01*
X80941809Y-156779238D01*
X80846571Y-156874476D01*
X80751333Y-156922095D01*
X81941809Y-156636380D02*
X82037047Y-156636380D01*
X82132285Y-156684000D01*
X82179904Y-156731619D01*
X82227523Y-156826857D01*
X82275142Y-157017333D01*
X82275142Y-157255428D01*
X82227523Y-157445904D01*
X82179904Y-157541142D01*
X82132285Y-157588761D01*
X82037047Y-157636380D01*
X81941809Y-157636380D01*
X81846571Y-157588761D01*
X81798952Y-157541142D01*
X81751333Y-157445904D01*
X81703714Y-157255428D01*
X81703714Y-157017333D01*
X81751333Y-156826857D01*
X81798952Y-156731619D01*
X81846571Y-156684000D01*
X81941809Y-156636380D01*
X82703714Y-157636380D02*
X82703714Y-156636380D01*
X82798952Y-157255428D02*
X83084666Y-157636380D01*
X83084666Y-156969714D02*
X82703714Y-157350666D01*
D12*
X81784666Y-159365904D02*
X81518000Y-158984952D01*
X81327523Y-159365904D02*
X81327523Y-158565904D01*
X81632285Y-158565904D01*
X81708476Y-158604000D01*
X81746571Y-158642095D01*
X81784666Y-158718285D01*
X81784666Y-158832571D01*
X81746571Y-158908761D01*
X81708476Y-158946857D01*
X81632285Y-158984952D01*
X81327523Y-158984952D01*
X82546571Y-159365904D02*
X82089428Y-159365904D01*
X82318000Y-159365904D02*
X82318000Y-158565904D01*
X82241809Y-158680190D01*
X82165619Y-158756380D01*
X82089428Y-158794476D01*
D11*
X94337142Y-150105333D02*
X94384761Y-150152952D01*
X94432380Y-150295809D01*
X94432380Y-150391047D01*
X94384761Y-150533904D01*
X94289523Y-150629142D01*
X94194285Y-150676761D01*
X94003809Y-150724380D01*
X93860952Y-150724380D01*
X93670476Y-150676761D01*
X93575238Y-150629142D01*
X93480000Y-150533904D01*
X93432380Y-150391047D01*
X93432380Y-150295809D01*
X93480000Y-150152952D01*
X93527619Y-150105333D01*
X94432380Y-149533904D02*
X94384761Y-149629142D01*
X94337142Y-149676761D01*
X94241904Y-149724380D01*
X93956190Y-149724380D01*
X93860952Y-149676761D01*
X93813333Y-149629142D01*
X93765714Y-149533904D01*
X93765714Y-149391047D01*
X93813333Y-149295809D01*
X93860952Y-149248190D01*
X93956190Y-149200571D01*
X94241904Y-149200571D01*
X94337142Y-149248190D01*
X94384761Y-149295809D01*
X94432380Y-149391047D01*
X94432380Y-149533904D01*
X93765714Y-148772000D02*
X94432380Y-148772000D01*
X93860952Y-148772000D02*
X93813333Y-148724380D01*
X93765714Y-148629142D01*
X93765714Y-148486285D01*
X93813333Y-148391047D01*
X93908571Y-148343428D01*
X94432380Y-148343428D01*
X93765714Y-147867238D02*
X94432380Y-147867238D01*
X93860952Y-147867238D02*
X93813333Y-147819619D01*
X93765714Y-147724380D01*
X93765714Y-147581523D01*
X93813333Y-147486285D01*
X93908571Y-147438666D01*
X94432380Y-147438666D01*
X94527619Y-147200571D02*
X94527619Y-146438666D01*
X93432380Y-146010095D02*
X93432380Y-145914857D01*
X93480000Y-145819619D01*
X93527619Y-145772000D01*
X93622857Y-145724380D01*
X93813333Y-145676761D01*
X94051428Y-145676761D01*
X94241904Y-145724380D01*
X94337142Y-145772000D01*
X94384761Y-145819619D01*
X94432380Y-145914857D01*
X94432380Y-146010095D01*
X94384761Y-146105333D01*
X94337142Y-146152952D01*
X94241904Y-146200571D01*
X94051428Y-146248190D01*
X93813333Y-146248190D01*
X93622857Y-146200571D01*
X93527619Y-146152952D01*
X93480000Y-146105333D01*
X93432380Y-146010095D01*
X94432380Y-144724380D02*
X94432380Y-145295809D01*
X94432380Y-145010095D02*
X93432380Y-145010095D01*
X93575238Y-145105333D01*
X93670476Y-145200571D01*
X93718095Y-145295809D01*
X94432380Y-144391047D02*
X93765714Y-143867238D01*
X93765714Y-144391047D02*
X94432380Y-143867238D01*
X93432380Y-143295809D02*
X93432380Y-143200571D01*
X93480000Y-143105333D01*
X93527619Y-143057714D01*
X93622857Y-143010095D01*
X93813333Y-142962476D01*
X94051428Y-142962476D01*
X94241904Y-143010095D01*
X94337142Y-143057714D01*
X94384761Y-143105333D01*
X94432380Y-143200571D01*
X94432380Y-143295809D01*
X94384761Y-143391047D01*
X94337142Y-143438666D01*
X94241904Y-143486285D01*
X94051428Y-143533904D01*
X93813333Y-143533904D01*
X93622857Y-143486285D01*
X93527619Y-143438666D01*
X93480000Y-143391047D01*
X93432380Y-143295809D01*
X93432380Y-142105333D02*
X93432380Y-142295809D01*
X93480000Y-142391047D01*
X93527619Y-142438666D01*
X93670476Y-142533904D01*
X93860952Y-142581523D01*
X94241904Y-142581523D01*
X94337142Y-142533904D01*
X94384761Y-142486285D01*
X94432380Y-142391047D01*
X94432380Y-142200571D01*
X94384761Y-142105333D01*
X94337142Y-142057714D01*
X94241904Y-142010095D01*
X94003809Y-142010095D01*
X93908571Y-142057714D01*
X93860952Y-142105333D01*
X93813333Y-142200571D01*
X93813333Y-142391047D01*
X93860952Y-142486285D01*
X93908571Y-142533904D01*
X94003809Y-142581523D01*
X94527619Y-141819619D02*
X94527619Y-141057714D01*
X94432380Y-140819619D02*
X93432380Y-140819619D01*
X94146666Y-140486285D01*
X93432380Y-140152952D01*
X94432380Y-140152952D01*
X94432380Y-139248190D02*
X93908571Y-139248190D01*
X93813333Y-139295809D01*
X93765714Y-139391047D01*
X93765714Y-139581523D01*
X93813333Y-139676761D01*
X94384761Y-139248190D02*
X94432380Y-139343428D01*
X94432380Y-139581523D01*
X94384761Y-139676761D01*
X94289523Y-139724380D01*
X94194285Y-139724380D01*
X94099047Y-139676761D01*
X94051428Y-139581523D01*
X94051428Y-139343428D01*
X94003809Y-139248190D01*
X94432380Y-138629142D02*
X94384761Y-138724380D01*
X94289523Y-138772000D01*
X93432380Y-138772000D01*
X94384761Y-137867238D02*
X94432380Y-137962476D01*
X94432380Y-138152952D01*
X94384761Y-138248190D01*
X94289523Y-138295809D01*
X93908571Y-138295809D01*
X93813333Y-138248190D01*
X93765714Y-138152952D01*
X93765714Y-137962476D01*
X93813333Y-137867238D01*
X93908571Y-137819619D01*
X94003809Y-137819619D01*
X94099047Y-138295809D01*
X89876380Y-144859333D02*
X90590666Y-144859333D01*
X90733523Y-144906952D01*
X90828761Y-145002190D01*
X90876380Y-145145047D01*
X90876380Y-145240285D01*
X90876380Y-143859333D02*
X90876380Y-144430761D01*
X90876380Y-144145047D02*
X89876380Y-144145047D01*
X90019238Y-144240285D01*
X90114476Y-144335523D01*
X90162095Y-144430761D01*
X86669619Y-197090380D02*
X86098190Y-197090380D01*
X86383904Y-197090380D02*
X86383904Y-196090380D01*
X86288666Y-196233238D01*
X86193428Y-196328476D01*
X86098190Y-196376095D01*
X87526761Y-196423714D02*
X87526761Y-197090380D01*
X87098190Y-196423714D02*
X87098190Y-196947523D01*
X87145809Y-197042761D01*
X87241047Y-197090380D01*
X87383904Y-197090380D01*
X87479142Y-197042761D01*
X87526761Y-196995142D01*
X87860095Y-196423714D02*
X88241047Y-196423714D01*
X88002952Y-197090380D02*
X88002952Y-196233238D01*
X88050571Y-196138000D01*
X88145809Y-196090380D01*
X88241047Y-196090380D01*
D12*
X86988666Y-195103714D02*
X86950571Y-195141809D01*
X86836285Y-195179904D01*
X86760095Y-195179904D01*
X86645809Y-195141809D01*
X86569619Y-195065619D01*
X86531523Y-194989428D01*
X86493428Y-194837047D01*
X86493428Y-194722761D01*
X86531523Y-194570380D01*
X86569619Y-194494190D01*
X86645809Y-194418000D01*
X86760095Y-194379904D01*
X86836285Y-194379904D01*
X86950571Y-194418000D01*
X86988666Y-194456095D01*
X87369619Y-195179904D02*
X87522000Y-195179904D01*
X87598190Y-195141809D01*
X87636285Y-195103714D01*
X87712476Y-194989428D01*
X87750571Y-194837047D01*
X87750571Y-194532285D01*
X87712476Y-194456095D01*
X87674380Y-194418000D01*
X87598190Y-194379904D01*
X87445809Y-194379904D01*
X87369619Y-194418000D01*
X87331523Y-194456095D01*
X87293428Y-194532285D01*
X87293428Y-194722761D01*
X87331523Y-194798952D01*
X87369619Y-194837047D01*
X87445809Y-194875142D01*
X87598190Y-194875142D01*
X87674380Y-194837047D01*
X87712476Y-194798952D01*
X87750571Y-194722761D01*
D11*
X63232380Y-135926571D02*
X63232380Y-136498000D01*
X63232380Y-136212285D02*
X62232380Y-136212285D01*
X62375238Y-136307523D01*
X62470476Y-136402761D01*
X62518095Y-136498000D01*
X62232380Y-135307523D02*
X62232380Y-135212285D01*
X62280000Y-135117047D01*
X62327619Y-135069428D01*
X62422857Y-135021809D01*
X62613333Y-134974190D01*
X62851428Y-134974190D01*
X63041904Y-135021809D01*
X63137142Y-135069428D01*
X63184761Y-135117047D01*
X63232380Y-135212285D01*
X63232380Y-135307523D01*
X63184761Y-135402761D01*
X63137142Y-135450380D01*
X63041904Y-135498000D01*
X62851428Y-135545619D01*
X62613333Y-135545619D01*
X62422857Y-135498000D01*
X62327619Y-135450380D01*
X62280000Y-135402761D01*
X62232380Y-135307523D01*
X62565714Y-134117047D02*
X63232380Y-134117047D01*
X62565714Y-134545619D02*
X63089523Y-134545619D01*
X63184761Y-134498000D01*
X63232380Y-134402761D01*
X63232380Y-134259904D01*
X63184761Y-134164666D01*
X63137142Y-134117047D01*
X62565714Y-133783714D02*
X62565714Y-133402761D01*
X63232380Y-133640857D02*
X62375238Y-133640857D01*
X62280000Y-133593238D01*
X62232380Y-133498000D01*
X62232380Y-133402761D01*
D12*
X61245714Y-135131333D02*
X61283809Y-135169428D01*
X61321904Y-135283714D01*
X61321904Y-135359904D01*
X61283809Y-135474190D01*
X61207619Y-135550380D01*
X61131428Y-135588476D01*
X60979047Y-135626571D01*
X60864761Y-135626571D01*
X60712380Y-135588476D01*
X60636190Y-135550380D01*
X60560000Y-135474190D01*
X60521904Y-135359904D01*
X60521904Y-135283714D01*
X60560000Y-135169428D01*
X60598095Y-135131333D01*
X60864761Y-134674190D02*
X60826666Y-134750380D01*
X60788571Y-134788476D01*
X60712380Y-134826571D01*
X60674285Y-134826571D01*
X60598095Y-134788476D01*
X60560000Y-134750380D01*
X60521904Y-134674190D01*
X60521904Y-134521809D01*
X60560000Y-134445619D01*
X60598095Y-134407523D01*
X60674285Y-134369428D01*
X60712380Y-134369428D01*
X60788571Y-134407523D01*
X60826666Y-134445619D01*
X60864761Y-134521809D01*
X60864761Y-134674190D01*
X60902857Y-134750380D01*
X60940952Y-134788476D01*
X61017142Y-134826571D01*
X61169523Y-134826571D01*
X61245714Y-134788476D01*
X61283809Y-134750380D01*
X61321904Y-134674190D01*
X61321904Y-134521809D01*
X61283809Y-134445619D01*
X61245714Y-134407523D01*
X61169523Y-134369428D01*
X61017142Y-134369428D01*
X60940952Y-134407523D01*
X60902857Y-134445619D01*
X60864761Y-134521809D01*
D11*
X59354380Y-149458000D02*
X59354380Y-149362761D01*
X59402000Y-149267523D01*
X59449619Y-149219904D01*
X59544857Y-149172285D01*
X59735333Y-149124666D01*
X59973428Y-149124666D01*
X60163904Y-149172285D01*
X60259142Y-149219904D01*
X60306761Y-149267523D01*
X60354380Y-149362761D01*
X60354380Y-149458000D01*
X60306761Y-149553238D01*
X60259142Y-149600857D01*
X60163904Y-149648476D01*
X59973428Y-149696095D01*
X59735333Y-149696095D01*
X59544857Y-149648476D01*
X59449619Y-149600857D01*
X59402000Y-149553238D01*
X59354380Y-149458000D01*
X60259142Y-148696095D02*
X60306761Y-148648476D01*
X60354380Y-148696095D01*
X60306761Y-148743714D01*
X60259142Y-148696095D01*
X60354380Y-148696095D01*
X60354380Y-147696095D02*
X60354380Y-148267523D01*
X60354380Y-147981809D02*
X59354380Y-147981809D01*
X59497238Y-148077047D01*
X59592476Y-148172285D01*
X59640095Y-148267523D01*
X59687714Y-146838952D02*
X60354380Y-146838952D01*
X59687714Y-147267523D02*
X60211523Y-147267523D01*
X60306761Y-147219904D01*
X60354380Y-147124666D01*
X60354380Y-146981809D01*
X60306761Y-146886571D01*
X60259142Y-146838952D01*
X59687714Y-146505619D02*
X59687714Y-146124666D01*
X60354380Y-146362761D02*
X59497238Y-146362761D01*
X59402000Y-146315142D01*
X59354380Y-146219904D01*
X59354380Y-146124666D01*
D12*
X62007714Y-148091333D02*
X62045809Y-148129428D01*
X62083904Y-148243714D01*
X62083904Y-148319904D01*
X62045809Y-148434190D01*
X61969619Y-148510380D01*
X61893428Y-148548476D01*
X61741047Y-148586571D01*
X61626761Y-148586571D01*
X61474380Y-148548476D01*
X61398190Y-148510380D01*
X61322000Y-148434190D01*
X61283904Y-148319904D01*
X61283904Y-148243714D01*
X61322000Y-148129428D01*
X61360095Y-148091333D01*
X61283904Y-147824666D02*
X61283904Y-147291333D01*
X62083904Y-147634190D01*
D11*
X82044380Y-131418000D02*
X82044380Y-131322761D01*
X82092000Y-131227523D01*
X82139619Y-131179904D01*
X82234857Y-131132285D01*
X82425333Y-131084666D01*
X82663428Y-131084666D01*
X82853904Y-131132285D01*
X82949142Y-131179904D01*
X82996761Y-131227523D01*
X83044380Y-131322761D01*
X83044380Y-131418000D01*
X82996761Y-131513238D01*
X82949142Y-131560857D01*
X82853904Y-131608476D01*
X82663428Y-131656095D01*
X82425333Y-131656095D01*
X82234857Y-131608476D01*
X82139619Y-131560857D01*
X82092000Y-131513238D01*
X82044380Y-131418000D01*
X82949142Y-130656095D02*
X82996761Y-130608476D01*
X83044380Y-130656095D01*
X82996761Y-130703714D01*
X82949142Y-130656095D01*
X83044380Y-130656095D01*
X83044380Y-129656095D02*
X83044380Y-130227523D01*
X83044380Y-129941809D02*
X82044380Y-129941809D01*
X82187238Y-130037047D01*
X82282476Y-130132285D01*
X82330095Y-130227523D01*
X82377714Y-128798952D02*
X83044380Y-128798952D01*
X82377714Y-129227523D02*
X82901523Y-129227523D01*
X82996761Y-129179904D01*
X83044380Y-129084666D01*
X83044380Y-128941809D01*
X82996761Y-128846571D01*
X82949142Y-128798952D01*
X82377714Y-128465619D02*
X82377714Y-128084666D01*
X83044380Y-128322761D02*
X82187238Y-128322761D01*
X82092000Y-128275142D01*
X82044380Y-128179904D01*
X82044380Y-128084666D01*
D12*
X81057714Y-130051333D02*
X81095809Y-130089428D01*
X81133904Y-130203714D01*
X81133904Y-130279904D01*
X81095809Y-130394190D01*
X81019619Y-130470380D01*
X80943428Y-130508476D01*
X80791047Y-130546571D01*
X80676761Y-130546571D01*
X80524380Y-130508476D01*
X80448190Y-130470380D01*
X80372000Y-130394190D01*
X80333904Y-130279904D01*
X80333904Y-130203714D01*
X80372000Y-130089428D01*
X80410095Y-130051333D01*
X80333904Y-129365619D02*
X80333904Y-129518000D01*
X80372000Y-129594190D01*
X80410095Y-129632285D01*
X80524380Y-129708476D01*
X80676761Y-129746571D01*
X80981523Y-129746571D01*
X81057714Y-129708476D01*
X81095809Y-129670380D01*
X81133904Y-129594190D01*
X81133904Y-129441809D01*
X81095809Y-129365619D01*
X81057714Y-129327523D01*
X80981523Y-129289428D01*
X80791047Y-129289428D01*
X80714857Y-129327523D01*
X80676761Y-129365619D01*
X80638666Y-129441809D01*
X80638666Y-129594190D01*
X80676761Y-129670380D01*
X80714857Y-129708476D01*
X80791047Y-129746571D01*
D11*
X108376380Y-142470000D02*
X108376380Y-142374761D01*
X108424000Y-142279523D01*
X108471619Y-142231904D01*
X108566857Y-142184285D01*
X108757333Y-142136666D01*
X108995428Y-142136666D01*
X109185904Y-142184285D01*
X109281142Y-142231904D01*
X109328761Y-142279523D01*
X109376380Y-142374761D01*
X109376380Y-142470000D01*
X109328761Y-142565238D01*
X109281142Y-142612857D01*
X109185904Y-142660476D01*
X108995428Y-142708095D01*
X108757333Y-142708095D01*
X108566857Y-142660476D01*
X108471619Y-142612857D01*
X108424000Y-142565238D01*
X108376380Y-142470000D01*
X109281142Y-141708095D02*
X109328761Y-141660476D01*
X109376380Y-141708095D01*
X109328761Y-141755714D01*
X109281142Y-141708095D01*
X109376380Y-141708095D01*
X109376380Y-140708095D02*
X109376380Y-141279523D01*
X109376380Y-140993809D02*
X108376380Y-140993809D01*
X108519238Y-141089047D01*
X108614476Y-141184285D01*
X108662095Y-141279523D01*
X108709714Y-139850952D02*
X109376380Y-139850952D01*
X108709714Y-140279523D02*
X109233523Y-140279523D01*
X109328761Y-140231904D01*
X109376380Y-140136666D01*
X109376380Y-139993809D01*
X109328761Y-139898571D01*
X109281142Y-139850952D01*
X108709714Y-139517619D02*
X108709714Y-139136666D01*
X109376380Y-139374761D02*
X108519238Y-139374761D01*
X108424000Y-139327142D01*
X108376380Y-139231904D01*
X108376380Y-139136666D01*
D12*
X111029714Y-141103333D02*
X111067809Y-141141428D01*
X111105904Y-141255714D01*
X111105904Y-141331904D01*
X111067809Y-141446190D01*
X110991619Y-141522380D01*
X110915428Y-141560476D01*
X110763047Y-141598571D01*
X110648761Y-141598571D01*
X110496380Y-141560476D01*
X110420190Y-141522380D01*
X110344000Y-141446190D01*
X110305904Y-141331904D01*
X110305904Y-141255714D01*
X110344000Y-141141428D01*
X110382095Y-141103333D01*
X110305904Y-140379523D02*
X110305904Y-140760476D01*
X110686857Y-140798571D01*
X110648761Y-140760476D01*
X110610666Y-140684285D01*
X110610666Y-140493809D01*
X110648761Y-140417619D01*
X110686857Y-140379523D01*
X110763047Y-140341428D01*
X110953523Y-140341428D01*
X111029714Y-140379523D01*
X111067809Y-140417619D01*
X111105904Y-140493809D01*
X111105904Y-140684285D01*
X111067809Y-140760476D01*
X111029714Y-140798571D01*
D11*
X82298380Y-193666857D02*
X82298380Y-193571619D01*
X82346000Y-193476380D01*
X82393619Y-193428761D01*
X82488857Y-193381142D01*
X82679333Y-193333523D01*
X82917428Y-193333523D01*
X83107904Y-193381142D01*
X83203142Y-193428761D01*
X83250761Y-193476380D01*
X83298380Y-193571619D01*
X83298380Y-193666857D01*
X83250761Y-193762095D01*
X83203142Y-193809714D01*
X83107904Y-193857333D01*
X82917428Y-193904952D01*
X82679333Y-193904952D01*
X82488857Y-193857333D01*
X82393619Y-193809714D01*
X82346000Y-193762095D01*
X82298380Y-193666857D01*
X83203142Y-192904952D02*
X83250761Y-192857333D01*
X83298380Y-192904952D01*
X83250761Y-192952571D01*
X83203142Y-192904952D01*
X83298380Y-192904952D01*
X83298380Y-191904952D02*
X83298380Y-192476380D01*
X83298380Y-192190666D02*
X82298380Y-192190666D01*
X82441238Y-192285904D01*
X82536476Y-192381142D01*
X82584095Y-192476380D01*
X82631714Y-191047809D02*
X83298380Y-191047809D01*
X82631714Y-191476380D02*
X83155523Y-191476380D01*
X83250761Y-191428761D01*
X83298380Y-191333523D01*
X83298380Y-191190666D01*
X83250761Y-191095428D01*
X83203142Y-191047809D01*
X82774571Y-190238285D02*
X82774571Y-190571619D01*
X83298380Y-190571619D02*
X82298380Y-190571619D01*
X82298380Y-190095428D01*
D12*
X81311714Y-192157333D02*
X81349809Y-192195428D01*
X81387904Y-192309714D01*
X81387904Y-192385904D01*
X81349809Y-192500190D01*
X81273619Y-192576380D01*
X81197428Y-192614476D01*
X81045047Y-192652571D01*
X80930761Y-192652571D01*
X80778380Y-192614476D01*
X80702190Y-192576380D01*
X80626000Y-192500190D01*
X80587904Y-192385904D01*
X80587904Y-192309714D01*
X80626000Y-192195428D01*
X80664095Y-192157333D01*
X80854571Y-191471619D02*
X81387904Y-191471619D01*
X80549809Y-191662095D02*
X81121238Y-191852571D01*
X81121238Y-191357333D01*
D11*
X69601142Y-169166380D02*
X69696380Y-169166380D01*
X69791619Y-169214000D01*
X69839238Y-169261619D01*
X69886857Y-169356857D01*
X69934476Y-169547333D01*
X69934476Y-169785428D01*
X69886857Y-169975904D01*
X69839238Y-170071142D01*
X69791619Y-170118761D01*
X69696380Y-170166380D01*
X69601142Y-170166380D01*
X69505904Y-170118761D01*
X69458285Y-170071142D01*
X69410666Y-169975904D01*
X69363047Y-169785428D01*
X69363047Y-169547333D01*
X69410666Y-169356857D01*
X69458285Y-169261619D01*
X69505904Y-169214000D01*
X69601142Y-169166380D01*
X70363047Y-170071142D02*
X70410666Y-170118761D01*
X70363047Y-170166380D01*
X70315428Y-170118761D01*
X70363047Y-170071142D01*
X70363047Y-170166380D01*
X71363047Y-170166380D02*
X70791619Y-170166380D01*
X71077333Y-170166380D02*
X71077333Y-169166380D01*
X70982095Y-169309238D01*
X70886857Y-169404476D01*
X70791619Y-169452095D01*
X72220190Y-169499714D02*
X72220190Y-170166380D01*
X71791619Y-169499714D02*
X71791619Y-170023523D01*
X71839238Y-170118761D01*
X71934476Y-170166380D01*
X72077333Y-170166380D01*
X72172571Y-170118761D01*
X72220190Y-170071142D01*
X73029714Y-169642571D02*
X72696380Y-169642571D01*
X72696380Y-170166380D02*
X72696380Y-169166380D01*
X73172571Y-169166380D01*
D12*
X71110666Y-168179714D02*
X71072571Y-168217809D01*
X70958285Y-168255904D01*
X70882095Y-168255904D01*
X70767809Y-168217809D01*
X70691619Y-168141619D01*
X70653523Y-168065428D01*
X70615428Y-167913047D01*
X70615428Y-167798761D01*
X70653523Y-167646380D01*
X70691619Y-167570190D01*
X70767809Y-167494000D01*
X70882095Y-167455904D01*
X70958285Y-167455904D01*
X71072571Y-167494000D01*
X71110666Y-167532095D01*
X71377333Y-167455904D02*
X71872571Y-167455904D01*
X71605904Y-167760666D01*
X71720190Y-167760666D01*
X71796380Y-167798761D01*
X71834476Y-167836857D01*
X71872571Y-167913047D01*
X71872571Y-168103523D01*
X71834476Y-168179714D01*
X71796380Y-168217809D01*
X71720190Y-168255904D01*
X71491619Y-168255904D01*
X71415428Y-168217809D01*
X71377333Y-168179714D01*
D11*
X96277142Y-188311619D02*
X96324761Y-188264000D01*
X96420000Y-188216380D01*
X96658095Y-188216380D01*
X96753333Y-188264000D01*
X96800952Y-188311619D01*
X96848571Y-188406857D01*
X96848571Y-188502095D01*
X96800952Y-188644952D01*
X96229523Y-189216380D01*
X96848571Y-189216380D01*
X97229523Y-188311619D02*
X97277142Y-188264000D01*
X97372380Y-188216380D01*
X97610476Y-188216380D01*
X97705714Y-188264000D01*
X97753333Y-188311619D01*
X97800952Y-188406857D01*
X97800952Y-188502095D01*
X97753333Y-188644952D01*
X97181904Y-189216380D01*
X97800952Y-189216380D01*
X98229523Y-188549714D02*
X98229523Y-189549714D01*
X98229523Y-188597333D02*
X98324761Y-188549714D01*
X98515238Y-188549714D01*
X98610476Y-188597333D01*
X98658095Y-188644952D01*
X98705714Y-188740190D01*
X98705714Y-189025904D01*
X98658095Y-189121142D01*
X98610476Y-189168761D01*
X98515238Y-189216380D01*
X98324761Y-189216380D01*
X98229523Y-189168761D01*
X99467619Y-188692571D02*
X99134285Y-188692571D01*
X99134285Y-189216380D02*
X99134285Y-188216380D01*
X99610476Y-188216380D01*
D12*
X97786666Y-187229714D02*
X97748571Y-187267809D01*
X97634285Y-187305904D01*
X97558095Y-187305904D01*
X97443809Y-187267809D01*
X97367619Y-187191619D01*
X97329523Y-187115428D01*
X97291428Y-186963047D01*
X97291428Y-186848761D01*
X97329523Y-186696380D01*
X97367619Y-186620190D01*
X97443809Y-186544000D01*
X97558095Y-186505904D01*
X97634285Y-186505904D01*
X97748571Y-186544000D01*
X97786666Y-186582095D01*
X98091428Y-186582095D02*
X98129523Y-186544000D01*
X98205714Y-186505904D01*
X98396190Y-186505904D01*
X98472380Y-186544000D01*
X98510476Y-186582095D01*
X98548571Y-186658285D01*
X98548571Y-186734476D01*
X98510476Y-186848761D01*
X98053333Y-187305904D01*
X98548571Y-187305904D01*
D11*
X96277142Y-176627619D02*
X96324761Y-176580000D01*
X96420000Y-176532380D01*
X96658095Y-176532380D01*
X96753333Y-176580000D01*
X96800952Y-176627619D01*
X96848571Y-176722857D01*
X96848571Y-176818095D01*
X96800952Y-176960952D01*
X96229523Y-177532380D01*
X96848571Y-177532380D01*
X97229523Y-176627619D02*
X97277142Y-176580000D01*
X97372380Y-176532380D01*
X97610476Y-176532380D01*
X97705714Y-176580000D01*
X97753333Y-176627619D01*
X97800952Y-176722857D01*
X97800952Y-176818095D01*
X97753333Y-176960952D01*
X97181904Y-177532380D01*
X97800952Y-177532380D01*
X98229523Y-176865714D02*
X98229523Y-177865714D01*
X98229523Y-176913333D02*
X98324761Y-176865714D01*
X98515238Y-176865714D01*
X98610476Y-176913333D01*
X98658095Y-176960952D01*
X98705714Y-177056190D01*
X98705714Y-177341904D01*
X98658095Y-177437142D01*
X98610476Y-177484761D01*
X98515238Y-177532380D01*
X98324761Y-177532380D01*
X98229523Y-177484761D01*
X99467619Y-177008571D02*
X99134285Y-177008571D01*
X99134285Y-177532380D02*
X99134285Y-176532380D01*
X99610476Y-176532380D01*
D12*
X97786666Y-175545714D02*
X97748571Y-175583809D01*
X97634285Y-175621904D01*
X97558095Y-175621904D01*
X97443809Y-175583809D01*
X97367619Y-175507619D01*
X97329523Y-175431428D01*
X97291428Y-175279047D01*
X97291428Y-175164761D01*
X97329523Y-175012380D01*
X97367619Y-174936190D01*
X97443809Y-174860000D01*
X97558095Y-174821904D01*
X97634285Y-174821904D01*
X97748571Y-174860000D01*
X97786666Y-174898095D01*
X98548571Y-175621904D02*
X98091428Y-175621904D01*
X98320000Y-175621904D02*
X98320000Y-174821904D01*
X98243809Y-174936190D01*
X98167619Y-175012380D01*
X98091428Y-175050476D01*
M02*
