G04 #@! TF.GenerationSoftware,KiCad,Pcbnew,(5.1.2)-2*
G04 #@! TF.CreationDate,2019-10-26T17:19:00+01:00*
G04 #@! TF.ProjectId,canbus_boiler_switch,63616e62-7573-45f6-926f-696c65725f73,rev?*
G04 #@! TF.SameCoordinates,Original*
G04 #@! TF.FileFunction,Legend,Top*
G04 #@! TF.FilePolarity,Positive*
%FSLAX46Y46*%
G04 Gerber Fmt 4.6, Leading zero omitted, Abs format (unit mm)*
G04 Created by KiCad (PCBNEW (5.1.2)-2) date 2019-10-26 17:19:00*
%MOMM*%
%LPD*%
G04 APERTURE LIST*
%ADD10C,0.120000*%
%ADD11C,0.100000*%
%ADD12C,0.200000*%
%ADD13C,0.150000*%
%ADD14C,0.254000*%
G04 APERTURE END LIST*
D10*
X88382000Y-171027000D02*
X88382000Y-187002000D01*
X93482000Y-171027000D02*
X88382000Y-171027000D01*
X93482000Y-187002000D02*
X93482000Y-171027000D01*
X60390000Y-198984000D02*
X73590000Y-198984000D01*
X73590000Y-198984000D02*
X73590000Y-208004000D01*
D11*
X73590000Y-216864000D02*
X73590000Y-216984000D01*
D10*
X73590000Y-216984000D02*
X73590000Y-210204000D01*
D11*
X73590000Y-216974000D02*
X73590000Y-216984000D01*
D10*
X73590000Y-216984000D02*
X60390000Y-216984000D01*
X60390000Y-216984000D02*
X60390000Y-210204000D01*
D11*
X60390000Y-207934000D02*
X60390000Y-208004000D01*
D10*
X60390000Y-208004000D02*
X60390000Y-198984000D01*
X59920000Y-200984000D02*
X59920000Y-199454000D01*
D12*
X76569000Y-147233000D02*
X74719000Y-147233000D01*
X74369000Y-129353000D02*
X74369000Y-147253000D01*
X67569000Y-129353000D02*
X74369000Y-129353000D01*
X67569000Y-147253000D02*
X67569000Y-129353000D01*
X74369000Y-147253000D02*
X67569000Y-147253000D01*
D10*
X75860000Y-198984000D02*
X89060000Y-198984000D01*
X89060000Y-198984000D02*
X89060000Y-208004000D01*
D11*
X89060000Y-216864000D02*
X89060000Y-216984000D01*
D10*
X89060000Y-216984000D02*
X89060000Y-210204000D01*
D11*
X89060000Y-216974000D02*
X89060000Y-216984000D01*
D10*
X89060000Y-216984000D02*
X75860000Y-216984000D01*
X75860000Y-216984000D02*
X75860000Y-210204000D01*
D11*
X75860000Y-207934000D02*
X75860000Y-208004000D01*
D10*
X75860000Y-208004000D02*
X75860000Y-198984000D01*
X75390000Y-200984000D02*
X75390000Y-199454000D01*
X73914000Y-193695000D02*
X77364000Y-193695000D01*
X73914000Y-193695000D02*
X71964000Y-193695000D01*
X73914000Y-188575000D02*
X75864000Y-188575000D01*
X73914000Y-188575000D02*
X71964000Y-188575000D01*
X99572000Y-140002000D02*
X99572000Y-141502000D01*
X100822000Y-144002000D02*
X105322000Y-144002000D01*
X106572000Y-141502000D02*
X106572000Y-140002000D01*
X105322000Y-137502000D02*
X100822000Y-137502000D01*
X51054000Y-121860000D02*
X52384000Y-121860000D01*
X52384000Y-121860000D02*
X52384000Y-123190000D01*
X52384000Y-124460000D02*
X52384000Y-152460000D01*
X49724000Y-152460000D02*
X52384000Y-152460000D01*
X49724000Y-124460000D02*
X49724000Y-152460000D01*
X49724000Y-124460000D02*
X52384000Y-124460000D01*
X72338000Y-181328000D02*
X72338000Y-183143000D01*
X72093000Y-181328000D02*
X72338000Y-181328000D01*
X72093000Y-177468000D02*
X72093000Y-181328000D01*
X72093000Y-173608000D02*
X72338000Y-173608000D01*
X72093000Y-177468000D02*
X72093000Y-173608000D01*
X83863000Y-181328000D02*
X83618000Y-181328000D01*
X83863000Y-177468000D02*
X83863000Y-181328000D01*
X83863000Y-173608000D02*
X83618000Y-173608000D01*
X83863000Y-177468000D02*
X83863000Y-173608000D01*
X83672000Y-148873936D02*
X83672000Y-150078064D01*
X85492000Y-148873936D02*
X85492000Y-150078064D01*
X96372000Y-148873936D02*
X96372000Y-150078064D01*
X98192000Y-148873936D02*
X98192000Y-150078064D01*
X66766064Y-192130000D02*
X65561936Y-192130000D01*
X66766064Y-193950000D02*
X65561936Y-193950000D01*
X72165936Y-158390000D02*
X73370064Y-158390000D01*
X72165936Y-156570000D02*
X73370064Y-156570000D01*
X66069936Y-177948000D02*
X67274064Y-177948000D01*
X66069936Y-176128000D02*
X67274064Y-176128000D01*
X64799936Y-172614000D02*
X66004064Y-172614000D01*
X64799936Y-170794000D02*
X66004064Y-170794000D01*
X63275936Y-167280000D02*
X64480064Y-167280000D01*
X63275936Y-165460000D02*
X64480064Y-165460000D01*
X85054064Y-167746000D02*
X83849936Y-167746000D01*
X85054064Y-169566000D02*
X83849936Y-169566000D01*
X83790064Y-162920000D02*
X82585936Y-162920000D01*
X83790064Y-164740000D02*
X82585936Y-164740000D01*
X82520064Y-158094000D02*
X81315936Y-158094000D01*
X82520064Y-159914000D02*
X81315936Y-159914000D01*
X91754000Y-152206000D02*
X90424000Y-152206000D01*
X91754000Y-150876000D02*
X91754000Y-152206000D01*
X91754000Y-149606000D02*
X89094000Y-149606000D01*
X89094000Y-149606000D02*
X89094000Y-136846000D01*
X91754000Y-149606000D02*
X91754000Y-136846000D01*
X91754000Y-136846000D02*
X89094000Y-136846000D01*
X86519936Y-195728000D02*
X87724064Y-195728000D01*
X86519936Y-193908000D02*
X87724064Y-193908000D01*
X61870000Y-135600064D02*
X61870000Y-134395936D01*
X60050000Y-135600064D02*
X60050000Y-134395936D01*
X60812000Y-147355936D02*
X60812000Y-148560064D01*
X62632000Y-147355936D02*
X62632000Y-148560064D01*
X81682000Y-130520064D02*
X81682000Y-129315936D01*
X79862000Y-130520064D02*
X79862000Y-129315936D01*
X109834000Y-140367936D02*
X109834000Y-141572064D01*
X111654000Y-140367936D02*
X111654000Y-141572064D01*
X80116000Y-192626064D02*
X80116000Y-191421936D01*
X81936000Y-192626064D02*
X81936000Y-191421936D01*
X70641936Y-168804000D02*
X71846064Y-168804000D01*
X70641936Y-166984000D02*
X71846064Y-166984000D01*
X97317936Y-187854000D02*
X98522064Y-187854000D01*
X97317936Y-186034000D02*
X98522064Y-186034000D01*
X97317936Y-176170000D02*
X98522064Y-176170000D01*
X97317936Y-174350000D02*
X98522064Y-174350000D01*
D13*
X94458190Y-181578190D02*
X94934380Y-181578190D01*
X93934380Y-181911523D02*
X94458190Y-181578190D01*
X93934380Y-181244857D01*
X94934380Y-180387714D02*
X94934380Y-180959142D01*
X94934380Y-180673428D02*
X93934380Y-180673428D01*
X94077238Y-180768666D01*
X94172476Y-180863904D01*
X94220095Y-180959142D01*
X61816666Y-197506380D02*
X61816666Y-198220666D01*
X61769047Y-198363523D01*
X61673809Y-198458761D01*
X61530952Y-198506380D01*
X61435714Y-198506380D01*
X62197619Y-197506380D02*
X62816666Y-197506380D01*
X62483333Y-197887333D01*
X62626190Y-197887333D01*
X62721428Y-197934952D01*
X62769047Y-197982571D01*
X62816666Y-198077809D01*
X62816666Y-198315904D01*
X62769047Y-198411142D01*
X62721428Y-198458761D01*
X62626190Y-198506380D01*
X62340476Y-198506380D01*
X62245238Y-198458761D01*
X62197619Y-198411142D01*
D14*
X70745238Y-154371523D02*
X70745238Y-153101523D01*
X72075714Y-154250571D02*
X72015238Y-154311047D01*
X71833809Y-154371523D01*
X71712857Y-154371523D01*
X71531428Y-154311047D01*
X71410476Y-154190095D01*
X71350000Y-154069142D01*
X71289523Y-153827238D01*
X71289523Y-153645809D01*
X71350000Y-153403904D01*
X71410476Y-153282952D01*
X71531428Y-153162000D01*
X71712857Y-153101523D01*
X71833809Y-153101523D01*
X72015238Y-153162000D01*
X72075714Y-153222476D01*
X73285238Y-154371523D02*
X72559523Y-154371523D01*
X72922380Y-154371523D02*
X72922380Y-153101523D01*
X72801428Y-153282952D01*
X72680476Y-153403904D01*
X72559523Y-153464380D01*
D13*
X77286666Y-197506380D02*
X77286666Y-198220666D01*
X77239047Y-198363523D01*
X77143809Y-198458761D01*
X77000952Y-198506380D01*
X76905714Y-198506380D01*
X77715238Y-197601619D02*
X77762857Y-197554000D01*
X77858095Y-197506380D01*
X78096190Y-197506380D01*
X78191428Y-197554000D01*
X78239047Y-197601619D01*
X78286666Y-197696857D01*
X78286666Y-197792095D01*
X78239047Y-197934952D01*
X77667619Y-198506380D01*
X78286666Y-198506380D01*
X73152095Y-193987380D02*
X73152095Y-194796904D01*
X73199714Y-194892142D01*
X73247333Y-194939761D01*
X73342571Y-194987380D01*
X73533047Y-194987380D01*
X73628285Y-194939761D01*
X73675904Y-194892142D01*
X73723523Y-194796904D01*
X73723523Y-193987380D01*
X74152095Y-194082619D02*
X74199714Y-194035000D01*
X74294952Y-193987380D01*
X74533047Y-193987380D01*
X74628285Y-194035000D01*
X74675904Y-194082619D01*
X74723523Y-194177857D01*
X74723523Y-194273095D01*
X74675904Y-194415952D01*
X74104476Y-194987380D01*
X74723523Y-194987380D01*
X101738666Y-145406761D02*
X101881523Y-145454380D01*
X102119619Y-145454380D01*
X102214857Y-145406761D01*
X102262476Y-145359142D01*
X102310095Y-145263904D01*
X102310095Y-145168666D01*
X102262476Y-145073428D01*
X102214857Y-145025809D01*
X102119619Y-144978190D01*
X101929142Y-144930571D01*
X101833904Y-144882952D01*
X101786285Y-144835333D01*
X101738666Y-144740095D01*
X101738666Y-144644857D01*
X101786285Y-144549619D01*
X101833904Y-144502000D01*
X101929142Y-144454380D01*
X102167238Y-144454380D01*
X102310095Y-144502000D01*
X102643428Y-144454380D02*
X102881523Y-145454380D01*
X103072000Y-144740095D01*
X103262476Y-145454380D01*
X103500571Y-144454380D01*
X104405333Y-145454380D02*
X103833904Y-145454380D01*
X104119619Y-145454380D02*
X104119619Y-144454380D01*
X104024380Y-144597238D01*
X103929142Y-144692476D01*
X103833904Y-144740095D01*
X50720666Y-119872380D02*
X50720666Y-120586666D01*
X50673047Y-120729523D01*
X50577809Y-120824761D01*
X50434952Y-120872380D01*
X50339714Y-120872380D01*
X51625428Y-120205714D02*
X51625428Y-120872380D01*
X51387333Y-119824761D02*
X51149238Y-120539047D01*
X51768285Y-120539047D01*
X70710380Y-178229904D02*
X71519904Y-178229904D01*
X71615142Y-178182285D01*
X71662761Y-178134666D01*
X71710380Y-178039428D01*
X71710380Y-177848952D01*
X71662761Y-177753714D01*
X71615142Y-177706095D01*
X71519904Y-177658476D01*
X70710380Y-177658476D01*
X71710380Y-176658476D02*
X71710380Y-177229904D01*
X71710380Y-176944190D02*
X70710380Y-176944190D01*
X70853238Y-177039428D01*
X70948476Y-177134666D01*
X70996095Y-177229904D01*
X86854380Y-150118857D02*
X86378190Y-150452190D01*
X86854380Y-150690285D02*
X85854380Y-150690285D01*
X85854380Y-150309333D01*
X85902000Y-150214095D01*
X85949619Y-150166476D01*
X86044857Y-150118857D01*
X86187714Y-150118857D01*
X86282952Y-150166476D01*
X86330571Y-150214095D01*
X86378190Y-150309333D01*
X86378190Y-150690285D01*
X86854380Y-149166476D02*
X86854380Y-149737904D01*
X86854380Y-149452190D02*
X85854380Y-149452190D01*
X85997238Y-149547428D01*
X86092476Y-149642666D01*
X86140095Y-149737904D01*
X85854380Y-148547428D02*
X85854380Y-148452190D01*
X85902000Y-148356952D01*
X85949619Y-148309333D01*
X86044857Y-148261714D01*
X86235333Y-148214095D01*
X86473428Y-148214095D01*
X86663904Y-148261714D01*
X86759142Y-148309333D01*
X86806761Y-148356952D01*
X86854380Y-148452190D01*
X86854380Y-148547428D01*
X86806761Y-148642666D01*
X86759142Y-148690285D01*
X86663904Y-148737904D01*
X86473428Y-148785523D01*
X86235333Y-148785523D01*
X86044857Y-148737904D01*
X85949619Y-148690285D01*
X85902000Y-148642666D01*
X85854380Y-148547428D01*
X99554380Y-149642666D02*
X99078190Y-149976000D01*
X99554380Y-150214095D02*
X98554380Y-150214095D01*
X98554380Y-149833142D01*
X98602000Y-149737904D01*
X98649619Y-149690285D01*
X98744857Y-149642666D01*
X98887714Y-149642666D01*
X98982952Y-149690285D01*
X99030571Y-149737904D01*
X99078190Y-149833142D01*
X99078190Y-150214095D01*
X99554380Y-149166476D02*
X99554380Y-148976000D01*
X99506761Y-148880761D01*
X99459142Y-148833142D01*
X99316285Y-148737904D01*
X99125809Y-148690285D01*
X98744857Y-148690285D01*
X98649619Y-148737904D01*
X98602000Y-148785523D01*
X98554380Y-148880761D01*
X98554380Y-149071238D01*
X98602000Y-149166476D01*
X98649619Y-149214095D01*
X98744857Y-149261714D01*
X98982952Y-149261714D01*
X99078190Y-149214095D01*
X99125809Y-149166476D01*
X99173428Y-149071238D01*
X99173428Y-148880761D01*
X99125809Y-148785523D01*
X99078190Y-148737904D01*
X98982952Y-148690285D01*
X65997333Y-195312380D02*
X65664000Y-194836190D01*
X65425904Y-195312380D02*
X65425904Y-194312380D01*
X65806857Y-194312380D01*
X65902095Y-194360000D01*
X65949714Y-194407619D01*
X65997333Y-194502857D01*
X65997333Y-194645714D01*
X65949714Y-194740952D01*
X65902095Y-194788571D01*
X65806857Y-194836190D01*
X65425904Y-194836190D01*
X66568761Y-194740952D02*
X66473523Y-194693333D01*
X66425904Y-194645714D01*
X66378285Y-194550476D01*
X66378285Y-194502857D01*
X66425904Y-194407619D01*
X66473523Y-194360000D01*
X66568761Y-194312380D01*
X66759238Y-194312380D01*
X66854476Y-194360000D01*
X66902095Y-194407619D01*
X66949714Y-194502857D01*
X66949714Y-194550476D01*
X66902095Y-194645714D01*
X66854476Y-194693333D01*
X66759238Y-194740952D01*
X66568761Y-194740952D01*
X66473523Y-194788571D01*
X66425904Y-194836190D01*
X66378285Y-194931428D01*
X66378285Y-195121904D01*
X66425904Y-195217142D01*
X66473523Y-195264761D01*
X66568761Y-195312380D01*
X66759238Y-195312380D01*
X66854476Y-195264761D01*
X66902095Y-195217142D01*
X66949714Y-195121904D01*
X66949714Y-194931428D01*
X66902095Y-194836190D01*
X66854476Y-194788571D01*
X66759238Y-194740952D01*
X72601333Y-156112380D02*
X72268000Y-155636190D01*
X72029904Y-156112380D02*
X72029904Y-155112380D01*
X72410857Y-155112380D01*
X72506095Y-155160000D01*
X72553714Y-155207619D01*
X72601333Y-155302857D01*
X72601333Y-155445714D01*
X72553714Y-155540952D01*
X72506095Y-155588571D01*
X72410857Y-155636190D01*
X72029904Y-155636190D01*
X72934666Y-155112380D02*
X73601333Y-155112380D01*
X73172761Y-156112380D01*
X66505333Y-175670380D02*
X66172000Y-175194190D01*
X65933904Y-175670380D02*
X65933904Y-174670380D01*
X66314857Y-174670380D01*
X66410095Y-174718000D01*
X66457714Y-174765619D01*
X66505333Y-174860857D01*
X66505333Y-175003714D01*
X66457714Y-175098952D01*
X66410095Y-175146571D01*
X66314857Y-175194190D01*
X65933904Y-175194190D01*
X67362476Y-174670380D02*
X67172000Y-174670380D01*
X67076761Y-174718000D01*
X67029142Y-174765619D01*
X66933904Y-174908476D01*
X66886285Y-175098952D01*
X66886285Y-175479904D01*
X66933904Y-175575142D01*
X66981523Y-175622761D01*
X67076761Y-175670380D01*
X67267238Y-175670380D01*
X67362476Y-175622761D01*
X67410095Y-175575142D01*
X67457714Y-175479904D01*
X67457714Y-175241809D01*
X67410095Y-175146571D01*
X67362476Y-175098952D01*
X67267238Y-175051333D01*
X67076761Y-175051333D01*
X66981523Y-175098952D01*
X66933904Y-175146571D01*
X66886285Y-175241809D01*
X65235333Y-170336380D02*
X64902000Y-169860190D01*
X64663904Y-170336380D02*
X64663904Y-169336380D01*
X65044857Y-169336380D01*
X65140095Y-169384000D01*
X65187714Y-169431619D01*
X65235333Y-169526857D01*
X65235333Y-169669714D01*
X65187714Y-169764952D01*
X65140095Y-169812571D01*
X65044857Y-169860190D01*
X64663904Y-169860190D01*
X66140095Y-169336380D02*
X65663904Y-169336380D01*
X65616285Y-169812571D01*
X65663904Y-169764952D01*
X65759142Y-169717333D01*
X65997238Y-169717333D01*
X66092476Y-169764952D01*
X66140095Y-169812571D01*
X66187714Y-169907809D01*
X66187714Y-170145904D01*
X66140095Y-170241142D01*
X66092476Y-170288761D01*
X65997238Y-170336380D01*
X65759142Y-170336380D01*
X65663904Y-170288761D01*
X65616285Y-170241142D01*
X63711333Y-165002380D02*
X63378000Y-164526190D01*
X63139904Y-165002380D02*
X63139904Y-164002380D01*
X63520857Y-164002380D01*
X63616095Y-164050000D01*
X63663714Y-164097619D01*
X63711333Y-164192857D01*
X63711333Y-164335714D01*
X63663714Y-164430952D01*
X63616095Y-164478571D01*
X63520857Y-164526190D01*
X63139904Y-164526190D01*
X64568476Y-164335714D02*
X64568476Y-165002380D01*
X64330380Y-163954761D02*
X64092285Y-164669047D01*
X64711333Y-164669047D01*
X84285333Y-170928380D02*
X83952000Y-170452190D01*
X83713904Y-170928380D02*
X83713904Y-169928380D01*
X84094857Y-169928380D01*
X84190095Y-169976000D01*
X84237714Y-170023619D01*
X84285333Y-170118857D01*
X84285333Y-170261714D01*
X84237714Y-170356952D01*
X84190095Y-170404571D01*
X84094857Y-170452190D01*
X83713904Y-170452190D01*
X84618666Y-169928380D02*
X85237714Y-169928380D01*
X84904380Y-170309333D01*
X85047238Y-170309333D01*
X85142476Y-170356952D01*
X85190095Y-170404571D01*
X85237714Y-170499809D01*
X85237714Y-170737904D01*
X85190095Y-170833142D01*
X85142476Y-170880761D01*
X85047238Y-170928380D01*
X84761523Y-170928380D01*
X84666285Y-170880761D01*
X84618666Y-170833142D01*
X83021333Y-166102380D02*
X82688000Y-165626190D01*
X82449904Y-166102380D02*
X82449904Y-165102380D01*
X82830857Y-165102380D01*
X82926095Y-165150000D01*
X82973714Y-165197619D01*
X83021333Y-165292857D01*
X83021333Y-165435714D01*
X82973714Y-165530952D01*
X82926095Y-165578571D01*
X82830857Y-165626190D01*
X82449904Y-165626190D01*
X83402285Y-165197619D02*
X83449904Y-165150000D01*
X83545142Y-165102380D01*
X83783238Y-165102380D01*
X83878476Y-165150000D01*
X83926095Y-165197619D01*
X83973714Y-165292857D01*
X83973714Y-165388095D01*
X83926095Y-165530952D01*
X83354666Y-166102380D01*
X83973714Y-166102380D01*
X81751333Y-161276380D02*
X81418000Y-160800190D01*
X81179904Y-161276380D02*
X81179904Y-160276380D01*
X81560857Y-160276380D01*
X81656095Y-160324000D01*
X81703714Y-160371619D01*
X81751333Y-160466857D01*
X81751333Y-160609714D01*
X81703714Y-160704952D01*
X81656095Y-160752571D01*
X81560857Y-160800190D01*
X81179904Y-160800190D01*
X82703714Y-161276380D02*
X82132285Y-161276380D01*
X82418000Y-161276380D02*
X82418000Y-160276380D01*
X82322761Y-160419238D01*
X82227523Y-160514476D01*
X82132285Y-160562095D01*
X90090666Y-152614380D02*
X90090666Y-153328666D01*
X90043047Y-153471523D01*
X89947809Y-153566761D01*
X89804952Y-153614380D01*
X89709714Y-153614380D01*
X91090666Y-153614380D02*
X90519238Y-153614380D01*
X90804952Y-153614380D02*
X90804952Y-152614380D01*
X90709714Y-152757238D01*
X90614476Y-152852476D01*
X90519238Y-152900095D01*
X86955333Y-193355142D02*
X86907714Y-193402761D01*
X86764857Y-193450380D01*
X86669619Y-193450380D01*
X86526761Y-193402761D01*
X86431523Y-193307523D01*
X86383904Y-193212285D01*
X86336285Y-193021809D01*
X86336285Y-192878952D01*
X86383904Y-192688476D01*
X86431523Y-192593238D01*
X86526761Y-192498000D01*
X86669619Y-192450380D01*
X86764857Y-192450380D01*
X86907714Y-192498000D01*
X86955333Y-192545619D01*
X87431523Y-193450380D02*
X87622000Y-193450380D01*
X87717238Y-193402761D01*
X87764857Y-193355142D01*
X87860095Y-193212285D01*
X87907714Y-193021809D01*
X87907714Y-192640857D01*
X87860095Y-192545619D01*
X87812476Y-192498000D01*
X87717238Y-192450380D01*
X87526761Y-192450380D01*
X87431523Y-192498000D01*
X87383904Y-192545619D01*
X87336285Y-192640857D01*
X87336285Y-192878952D01*
X87383904Y-192974190D01*
X87431523Y-193021809D01*
X87526761Y-193069428D01*
X87717238Y-193069428D01*
X87812476Y-193021809D01*
X87860095Y-192974190D01*
X87907714Y-192878952D01*
X59497142Y-135164666D02*
X59544761Y-135212285D01*
X59592380Y-135355142D01*
X59592380Y-135450380D01*
X59544761Y-135593238D01*
X59449523Y-135688476D01*
X59354285Y-135736095D01*
X59163809Y-135783714D01*
X59020952Y-135783714D01*
X58830476Y-135736095D01*
X58735238Y-135688476D01*
X58640000Y-135593238D01*
X58592380Y-135450380D01*
X58592380Y-135355142D01*
X58640000Y-135212285D01*
X58687619Y-135164666D01*
X59020952Y-134593238D02*
X58973333Y-134688476D01*
X58925714Y-134736095D01*
X58830476Y-134783714D01*
X58782857Y-134783714D01*
X58687619Y-134736095D01*
X58640000Y-134688476D01*
X58592380Y-134593238D01*
X58592380Y-134402761D01*
X58640000Y-134307523D01*
X58687619Y-134259904D01*
X58782857Y-134212285D01*
X58830476Y-134212285D01*
X58925714Y-134259904D01*
X58973333Y-134307523D01*
X59020952Y-134402761D01*
X59020952Y-134593238D01*
X59068571Y-134688476D01*
X59116190Y-134736095D01*
X59211428Y-134783714D01*
X59401904Y-134783714D01*
X59497142Y-134736095D01*
X59544761Y-134688476D01*
X59592380Y-134593238D01*
X59592380Y-134402761D01*
X59544761Y-134307523D01*
X59497142Y-134259904D01*
X59401904Y-134212285D01*
X59211428Y-134212285D01*
X59116190Y-134259904D01*
X59068571Y-134307523D01*
X59020952Y-134402761D01*
X63899142Y-148124666D02*
X63946761Y-148172285D01*
X63994380Y-148315142D01*
X63994380Y-148410380D01*
X63946761Y-148553238D01*
X63851523Y-148648476D01*
X63756285Y-148696095D01*
X63565809Y-148743714D01*
X63422952Y-148743714D01*
X63232476Y-148696095D01*
X63137238Y-148648476D01*
X63042000Y-148553238D01*
X62994380Y-148410380D01*
X62994380Y-148315142D01*
X63042000Y-148172285D01*
X63089619Y-148124666D01*
X62994380Y-147791333D02*
X62994380Y-147124666D01*
X63994380Y-147553238D01*
X79309142Y-130084666D02*
X79356761Y-130132285D01*
X79404380Y-130275142D01*
X79404380Y-130370380D01*
X79356761Y-130513238D01*
X79261523Y-130608476D01*
X79166285Y-130656095D01*
X78975809Y-130703714D01*
X78832952Y-130703714D01*
X78642476Y-130656095D01*
X78547238Y-130608476D01*
X78452000Y-130513238D01*
X78404380Y-130370380D01*
X78404380Y-130275142D01*
X78452000Y-130132285D01*
X78499619Y-130084666D01*
X78404380Y-129227523D02*
X78404380Y-129418000D01*
X78452000Y-129513238D01*
X78499619Y-129560857D01*
X78642476Y-129656095D01*
X78832952Y-129703714D01*
X79213904Y-129703714D01*
X79309142Y-129656095D01*
X79356761Y-129608476D01*
X79404380Y-129513238D01*
X79404380Y-129322761D01*
X79356761Y-129227523D01*
X79309142Y-129179904D01*
X79213904Y-129132285D01*
X78975809Y-129132285D01*
X78880571Y-129179904D01*
X78832952Y-129227523D01*
X78785333Y-129322761D01*
X78785333Y-129513238D01*
X78832952Y-129608476D01*
X78880571Y-129656095D01*
X78975809Y-129703714D01*
X112921142Y-141136666D02*
X112968761Y-141184285D01*
X113016380Y-141327142D01*
X113016380Y-141422380D01*
X112968761Y-141565238D01*
X112873523Y-141660476D01*
X112778285Y-141708095D01*
X112587809Y-141755714D01*
X112444952Y-141755714D01*
X112254476Y-141708095D01*
X112159238Y-141660476D01*
X112064000Y-141565238D01*
X112016380Y-141422380D01*
X112016380Y-141327142D01*
X112064000Y-141184285D01*
X112111619Y-141136666D01*
X112016380Y-140231904D02*
X112016380Y-140708095D01*
X112492571Y-140755714D01*
X112444952Y-140708095D01*
X112397333Y-140612857D01*
X112397333Y-140374761D01*
X112444952Y-140279523D01*
X112492571Y-140231904D01*
X112587809Y-140184285D01*
X112825904Y-140184285D01*
X112921142Y-140231904D01*
X112968761Y-140279523D01*
X113016380Y-140374761D01*
X113016380Y-140612857D01*
X112968761Y-140708095D01*
X112921142Y-140755714D01*
X79563142Y-192190666D02*
X79610761Y-192238285D01*
X79658380Y-192381142D01*
X79658380Y-192476380D01*
X79610761Y-192619238D01*
X79515523Y-192714476D01*
X79420285Y-192762095D01*
X79229809Y-192809714D01*
X79086952Y-192809714D01*
X78896476Y-192762095D01*
X78801238Y-192714476D01*
X78706000Y-192619238D01*
X78658380Y-192476380D01*
X78658380Y-192381142D01*
X78706000Y-192238285D01*
X78753619Y-192190666D01*
X78991714Y-191333523D02*
X79658380Y-191333523D01*
X78610761Y-191571619D02*
X79325047Y-191809714D01*
X79325047Y-191190666D01*
X71077333Y-166431142D02*
X71029714Y-166478761D01*
X70886857Y-166526380D01*
X70791619Y-166526380D01*
X70648761Y-166478761D01*
X70553523Y-166383523D01*
X70505904Y-166288285D01*
X70458285Y-166097809D01*
X70458285Y-165954952D01*
X70505904Y-165764476D01*
X70553523Y-165669238D01*
X70648761Y-165574000D01*
X70791619Y-165526380D01*
X70886857Y-165526380D01*
X71029714Y-165574000D01*
X71077333Y-165621619D01*
X71410666Y-165526380D02*
X72029714Y-165526380D01*
X71696380Y-165907333D01*
X71839238Y-165907333D01*
X71934476Y-165954952D01*
X71982095Y-166002571D01*
X72029714Y-166097809D01*
X72029714Y-166335904D01*
X71982095Y-166431142D01*
X71934476Y-166478761D01*
X71839238Y-166526380D01*
X71553523Y-166526380D01*
X71458285Y-166478761D01*
X71410666Y-166431142D01*
X97753333Y-185481142D02*
X97705714Y-185528761D01*
X97562857Y-185576380D01*
X97467619Y-185576380D01*
X97324761Y-185528761D01*
X97229523Y-185433523D01*
X97181904Y-185338285D01*
X97134285Y-185147809D01*
X97134285Y-185004952D01*
X97181904Y-184814476D01*
X97229523Y-184719238D01*
X97324761Y-184624000D01*
X97467619Y-184576380D01*
X97562857Y-184576380D01*
X97705714Y-184624000D01*
X97753333Y-184671619D01*
X98134285Y-184671619D02*
X98181904Y-184624000D01*
X98277142Y-184576380D01*
X98515238Y-184576380D01*
X98610476Y-184624000D01*
X98658095Y-184671619D01*
X98705714Y-184766857D01*
X98705714Y-184862095D01*
X98658095Y-185004952D01*
X98086666Y-185576380D01*
X98705714Y-185576380D01*
X97753333Y-173797142D02*
X97705714Y-173844761D01*
X97562857Y-173892380D01*
X97467619Y-173892380D01*
X97324761Y-173844761D01*
X97229523Y-173749523D01*
X97181904Y-173654285D01*
X97134285Y-173463809D01*
X97134285Y-173320952D01*
X97181904Y-173130476D01*
X97229523Y-173035238D01*
X97324761Y-172940000D01*
X97467619Y-172892380D01*
X97562857Y-172892380D01*
X97705714Y-172940000D01*
X97753333Y-172987619D01*
X98705714Y-173892380D02*
X98134285Y-173892380D01*
X98420000Y-173892380D02*
X98420000Y-172892380D01*
X98324761Y-173035238D01*
X98229523Y-173130476D01*
X98134285Y-173178095D01*
M02*
