M48
; DRILL file {KiCad (5.1.4)-1} date 01/11/2019 17:51:19
; FORMAT={-:-/ absolute / inch / decimal}
; #@! TF.CreationDate,2019-11-01T17:51:19+00:00
; #@! TF.GenerationSoftware,Kicad,Pcbnew,(5.1.4)-1
; #@! TF.FileFunction,Plated,1,2,PTH
FMAT,2
INCH
T1C0.0157
T2C0.0299
T3C0.0394
T4C0.0433
%
G90
G05
T1
X2.7Y-6.44
X2.7Y-6.5
X3.0512Y-5.4134
X3.06Y-7.69
X3.1083Y-5.4134
X3.14Y-7.69
X3.22Y-7.69
T2
X3.1217Y-7.8824
X3.1717Y-7.9824
X3.2217Y-7.8824
X3.2717Y-7.9824
X3.3217Y-7.8824
X3.3717Y-7.9824
X2.5126Y-7.8824
X2.5626Y-7.9824
X2.6126Y-7.8824
X2.6626Y-7.9824
X2.7126Y-7.8824
X2.7626Y-7.9824
T3
X3.56Y-5.44
X3.56Y-5.54
X3.56Y-5.64
X3.56Y-5.74
X3.56Y-5.84
X3.56Y-5.94
X2.16Y-5.12
X2.16Y-5.22
X2.16Y-5.32
X2.16Y-5.42
X2.16Y-5.52
X2.16Y-5.62
X2.16Y-5.72
X2.16Y-5.82
X2.16Y-5.92
X2.16Y-6.02
X2.16Y-6.12
X2.16Y-6.22
X3.2067Y-5.315
X3.2067Y-5.415
X3.2067Y-5.515
X3.2067Y-5.615
X3.2067Y-5.715
X3.2067Y-5.815
T4
X3.5141Y-6.27
X3.5141Y-6.4472
X3.77Y-6.27
X3.77Y-6.4472
T0
M30
