G04 #@! TF.GenerationSoftware,KiCad,Pcbnew,(5.1.4)-1*
G04 #@! TF.CreationDate,2019-11-01T17:51:28+00:00*
G04 #@! TF.ProjectId,canbus_boiler_switch,63616e62-7573-45f6-926f-696c65725f73,rev?*
G04 #@! TF.SameCoordinates,Original*
G04 #@! TF.FileFunction,Copper,L2,Bot*
G04 #@! TF.FilePolarity,Positive*
%FSLAX46Y46*%
G04 Gerber Fmt 4.6, Leading zero omitted, Abs format (unit mm)*
G04 Created by KiCad (PCBNEW (5.1.4)-1) date 2019-11-01 17:51:28*
%MOMM*%
%LPD*%
G04 APERTURE LIST*
%ADD10O,1.700000X1.700000*%
%ADD11R,1.700000X1.700000*%
%ADD12R,1.520000X1.520000*%
%ADD13C,1.520000*%
%ADD14C,2.000000*%
%ADD15C,0.800000*%
%ADD16C,0.250000*%
%ADD17C,0.254000*%
G04 APERTURE END LIST*
D10*
X81450000Y-135000000D03*
X81450000Y-137540000D03*
X81450000Y-140080000D03*
X81450000Y-142620000D03*
X81450000Y-145160000D03*
D11*
X81450000Y-147700000D03*
D12*
X63820000Y-200214000D03*
D13*
X65090000Y-202754000D03*
X66360000Y-200214000D03*
X67630000Y-202754000D03*
X68900000Y-200214000D03*
X70170000Y-202754000D03*
D12*
X79290000Y-200214000D03*
D13*
X80560000Y-202754000D03*
X81830000Y-200214000D03*
X83100000Y-202754000D03*
X84370000Y-200214000D03*
X85640000Y-202754000D03*
D14*
X89258000Y-163758000D03*
X89258000Y-159258000D03*
X95758000Y-163758000D03*
X95758000Y-159258000D03*
D10*
X54864000Y-157988000D03*
X54864000Y-155448000D03*
X54864000Y-152908000D03*
X54864000Y-150368000D03*
X54864000Y-147828000D03*
X54864000Y-145288000D03*
X54864000Y-142748000D03*
X54864000Y-140208000D03*
X54864000Y-137668000D03*
X54864000Y-135128000D03*
X54864000Y-132588000D03*
D11*
X54864000Y-130048000D03*
D10*
X90424000Y-138176000D03*
X90424000Y-140716000D03*
X90424000Y-143256000D03*
X90424000Y-145796000D03*
X90424000Y-148336000D03*
D11*
X90424000Y-150876000D03*
D15*
X68580000Y-163576000D03*
X68580000Y-165100000D03*
X81788000Y-195326000D03*
X79756000Y-195326000D03*
X77724000Y-195326000D03*
X77500000Y-137500000D03*
X78950000Y-137500000D03*
D16*
X81070001Y-200973999D02*
X81830000Y-200214000D01*
X80375001Y-201668999D02*
X81070001Y-200973999D01*
X67814999Y-201668999D02*
X80375001Y-201668999D01*
X66360000Y-200214000D02*
X67814999Y-201668999D01*
X83100000Y-203666000D02*
X83100000Y-202754000D01*
X81788000Y-204978000D02*
X83100000Y-203666000D01*
X68580000Y-204978000D02*
X81788000Y-204978000D01*
X67630000Y-202754000D02*
X67630000Y-204028000D01*
X67630000Y-204028000D02*
X68580000Y-204978000D01*
D17*
G36*
X102464001Y-215240000D02*
G01*
X50444000Y-215240000D01*
X50444000Y-210603970D01*
X52670613Y-210603970D01*
X52670613Y-211036030D01*
X52754904Y-211459787D01*
X52920246Y-211858958D01*
X53160285Y-212218203D01*
X53465797Y-212523715D01*
X53825042Y-212763754D01*
X54224213Y-212929096D01*
X54647970Y-213013387D01*
X55080030Y-213013387D01*
X55503787Y-212929096D01*
X55902958Y-212763754D01*
X56262203Y-212523715D01*
X56567715Y-212218203D01*
X56807754Y-211858958D01*
X56973096Y-211459787D01*
X57057387Y-211036030D01*
X57057387Y-210603970D01*
X56973096Y-210180213D01*
X56807754Y-209781042D01*
X56567715Y-209421797D01*
X56262203Y-209116285D01*
X55910686Y-208881409D01*
X59650000Y-208881409D01*
X59650000Y-209326591D01*
X59736851Y-209763218D01*
X59907214Y-210174511D01*
X60154544Y-210544666D01*
X60469334Y-210859456D01*
X60839489Y-211106786D01*
X61250782Y-211277149D01*
X61687409Y-211364000D01*
X62132591Y-211364000D01*
X62569218Y-211277149D01*
X62980511Y-211106786D01*
X63350666Y-210859456D01*
X63665456Y-210544666D01*
X63912786Y-210174511D01*
X64083149Y-209763218D01*
X64170000Y-209326591D01*
X64170000Y-208881409D01*
X69810000Y-208881409D01*
X69810000Y-209326591D01*
X69896851Y-209763218D01*
X70067214Y-210174511D01*
X70314544Y-210544666D01*
X70629334Y-210859456D01*
X70999489Y-211106786D01*
X71410782Y-211277149D01*
X71847409Y-211364000D01*
X72292591Y-211364000D01*
X72729218Y-211277149D01*
X73140511Y-211106786D01*
X73510666Y-210859456D01*
X73825456Y-210544666D01*
X74072786Y-210174511D01*
X74243149Y-209763218D01*
X74330000Y-209326591D01*
X74330000Y-208881409D01*
X75120000Y-208881409D01*
X75120000Y-209326591D01*
X75206851Y-209763218D01*
X75377214Y-210174511D01*
X75624544Y-210544666D01*
X75939334Y-210859456D01*
X76309489Y-211106786D01*
X76720782Y-211277149D01*
X77157409Y-211364000D01*
X77602591Y-211364000D01*
X78039218Y-211277149D01*
X78450511Y-211106786D01*
X78820666Y-210859456D01*
X79135456Y-210544666D01*
X79382786Y-210174511D01*
X79553149Y-209763218D01*
X79640000Y-209326591D01*
X79640000Y-208881409D01*
X85280000Y-208881409D01*
X85280000Y-209326591D01*
X85366851Y-209763218D01*
X85537214Y-210174511D01*
X85784544Y-210544666D01*
X86099334Y-210859456D01*
X86469489Y-211106786D01*
X86880782Y-211277149D01*
X87317409Y-211364000D01*
X87762591Y-211364000D01*
X88199218Y-211277149D01*
X88610511Y-211106786D01*
X88980666Y-210859456D01*
X89238212Y-210601910D01*
X94305692Y-210601910D01*
X94305692Y-211038090D01*
X94390787Y-211465890D01*
X94557706Y-211868868D01*
X94800035Y-212231539D01*
X95108461Y-212539965D01*
X95471132Y-212782294D01*
X95874110Y-212949213D01*
X96301910Y-213034308D01*
X96738090Y-213034308D01*
X97165890Y-212949213D01*
X97568868Y-212782294D01*
X97931539Y-212539965D01*
X98239965Y-212231539D01*
X98482294Y-211868868D01*
X98649213Y-211465890D01*
X98734308Y-211038090D01*
X98734308Y-210601910D01*
X98649213Y-210174110D01*
X98482294Y-209771132D01*
X98239965Y-209408461D01*
X97931539Y-209100035D01*
X97568868Y-208857706D01*
X97165890Y-208690787D01*
X96738090Y-208605692D01*
X96301910Y-208605692D01*
X95874110Y-208690787D01*
X95471132Y-208857706D01*
X95108461Y-209100035D01*
X94800035Y-209408461D01*
X94557706Y-209771132D01*
X94390787Y-210174110D01*
X94305692Y-210601910D01*
X89238212Y-210601910D01*
X89295456Y-210544666D01*
X89542786Y-210174511D01*
X89713149Y-209763218D01*
X89800000Y-209326591D01*
X89800000Y-208881409D01*
X89713149Y-208444782D01*
X89542786Y-208033489D01*
X89295456Y-207663334D01*
X88980666Y-207348544D01*
X88610511Y-207101214D01*
X88199218Y-206930851D01*
X87762591Y-206844000D01*
X87317409Y-206844000D01*
X86880782Y-206930851D01*
X86469489Y-207101214D01*
X86099334Y-207348544D01*
X85784544Y-207663334D01*
X85537214Y-208033489D01*
X85366851Y-208444782D01*
X85280000Y-208881409D01*
X79640000Y-208881409D01*
X79553149Y-208444782D01*
X79382786Y-208033489D01*
X79135456Y-207663334D01*
X78820666Y-207348544D01*
X78450511Y-207101214D01*
X78039218Y-206930851D01*
X77602591Y-206844000D01*
X77157409Y-206844000D01*
X76720782Y-206930851D01*
X76309489Y-207101214D01*
X75939334Y-207348544D01*
X75624544Y-207663334D01*
X75377214Y-208033489D01*
X75206851Y-208444782D01*
X75120000Y-208881409D01*
X74330000Y-208881409D01*
X74243149Y-208444782D01*
X74072786Y-208033489D01*
X73825456Y-207663334D01*
X73510666Y-207348544D01*
X73140511Y-207101214D01*
X72729218Y-206930851D01*
X72292591Y-206844000D01*
X71847409Y-206844000D01*
X71410782Y-206930851D01*
X70999489Y-207101214D01*
X70629334Y-207348544D01*
X70314544Y-207663334D01*
X70067214Y-208033489D01*
X69896851Y-208444782D01*
X69810000Y-208881409D01*
X64170000Y-208881409D01*
X64083149Y-208444782D01*
X63912786Y-208033489D01*
X63665456Y-207663334D01*
X63350666Y-207348544D01*
X62980511Y-207101214D01*
X62569218Y-206930851D01*
X62132591Y-206844000D01*
X61687409Y-206844000D01*
X61250782Y-206930851D01*
X60839489Y-207101214D01*
X60469334Y-207348544D01*
X60154544Y-207663334D01*
X59907214Y-208033489D01*
X59736851Y-208444782D01*
X59650000Y-208881409D01*
X55910686Y-208881409D01*
X55902958Y-208876246D01*
X55503787Y-208710904D01*
X55080030Y-208626613D01*
X54647970Y-208626613D01*
X54224213Y-208710904D01*
X53825042Y-208876246D01*
X53465797Y-209116285D01*
X53160285Y-209421797D01*
X52920246Y-209781042D01*
X52754904Y-210180213D01*
X52670613Y-210603970D01*
X50444000Y-210603970D01*
X50444000Y-203718137D01*
X64305469Y-203718137D01*
X64372206Y-203958025D01*
X64620892Y-204074924D01*
X64887606Y-204141061D01*
X65162097Y-204153895D01*
X65433817Y-204112931D01*
X65692326Y-204019744D01*
X65807794Y-203958025D01*
X65874531Y-203718137D01*
X65090000Y-202933605D01*
X64305469Y-203718137D01*
X50444000Y-203718137D01*
X50444000Y-202826097D01*
X63690105Y-202826097D01*
X63731069Y-203097817D01*
X63824256Y-203356326D01*
X63885975Y-203471794D01*
X64125863Y-203538531D01*
X64910395Y-202754000D01*
X64125863Y-201969469D01*
X63885975Y-202036206D01*
X63769076Y-202284892D01*
X63702939Y-202551606D01*
X63690105Y-202826097D01*
X50444000Y-202826097D01*
X50444000Y-199454000D01*
X62421928Y-199454000D01*
X62421928Y-200974000D01*
X62434188Y-201098482D01*
X62470498Y-201218180D01*
X62529463Y-201328494D01*
X62608815Y-201425185D01*
X62705506Y-201504537D01*
X62815820Y-201563502D01*
X62935518Y-201599812D01*
X63060000Y-201612072D01*
X64354931Y-201612072D01*
X64305469Y-201789863D01*
X65090000Y-202574395D01*
X65874531Y-201789863D01*
X65807794Y-201549975D01*
X65559108Y-201433076D01*
X65292394Y-201366939D01*
X65086872Y-201357330D01*
X65110537Y-201328494D01*
X65169502Y-201218180D01*
X65205812Y-201098482D01*
X65214474Y-201010533D01*
X65276433Y-201103261D01*
X65470739Y-201297567D01*
X65699220Y-201450233D01*
X65953093Y-201555391D01*
X66222604Y-201609000D01*
X66497396Y-201609000D01*
X66649870Y-201578671D01*
X66741274Y-201670076D01*
X66740739Y-201670433D01*
X66546433Y-201864739D01*
X66393767Y-202093220D01*
X66362170Y-202169501D01*
X66355744Y-202151674D01*
X66294025Y-202036206D01*
X66054137Y-201969469D01*
X65269605Y-202754000D01*
X66054137Y-203538531D01*
X66294025Y-203471794D01*
X66359600Y-203332293D01*
X66393767Y-203414780D01*
X66546433Y-203643261D01*
X66740739Y-203837567D01*
X66870001Y-203923937D01*
X66870001Y-203990668D01*
X66866324Y-204028000D01*
X66870001Y-204065333D01*
X66880998Y-204176986D01*
X66893439Y-204218000D01*
X66924454Y-204320246D01*
X66995026Y-204452276D01*
X67066201Y-204539002D01*
X67090000Y-204568001D01*
X67118998Y-204591799D01*
X68016201Y-205489003D01*
X68039999Y-205518001D01*
X68068997Y-205541799D01*
X68155723Y-205612974D01*
X68287753Y-205683546D01*
X68431014Y-205727003D01*
X68542667Y-205738000D01*
X68542677Y-205738000D01*
X68580000Y-205741676D01*
X68617323Y-205738000D01*
X81750678Y-205738000D01*
X81788000Y-205741676D01*
X81825322Y-205738000D01*
X81825333Y-205738000D01*
X81936986Y-205727003D01*
X82080247Y-205683546D01*
X82212276Y-205612974D01*
X82328001Y-205518001D01*
X82351804Y-205488997D01*
X83611004Y-204229798D01*
X83640001Y-204206001D01*
X83734974Y-204090276D01*
X83803821Y-203961474D01*
X83989261Y-203837567D01*
X84183567Y-203643261D01*
X84336233Y-203414780D01*
X84370000Y-203333260D01*
X84403767Y-203414780D01*
X84556433Y-203643261D01*
X84750739Y-203837567D01*
X84979220Y-203990233D01*
X85233093Y-204095391D01*
X85502604Y-204149000D01*
X85777396Y-204149000D01*
X86046907Y-204095391D01*
X86300780Y-203990233D01*
X86529261Y-203837567D01*
X86723567Y-203643261D01*
X86876233Y-203414780D01*
X86981391Y-203160907D01*
X87035000Y-202891396D01*
X87035000Y-202616604D01*
X86981391Y-202347093D01*
X86876233Y-202093220D01*
X86723567Y-201864739D01*
X86529261Y-201670433D01*
X86300780Y-201517767D01*
X86046907Y-201412609D01*
X85777396Y-201359000D01*
X85502604Y-201359000D01*
X85233093Y-201412609D01*
X84979220Y-201517767D01*
X84750739Y-201670433D01*
X84556433Y-201864739D01*
X84403767Y-202093220D01*
X84370000Y-202174740D01*
X84336233Y-202093220D01*
X84183567Y-201864739D01*
X83989261Y-201670433D01*
X83760780Y-201517767D01*
X83506907Y-201412609D01*
X83237396Y-201359000D01*
X82962604Y-201359000D01*
X82693093Y-201412609D01*
X82439220Y-201517767D01*
X82210739Y-201670433D01*
X82016433Y-201864739D01*
X81863767Y-202093220D01*
X81832170Y-202169501D01*
X81825744Y-202151674D01*
X81764025Y-202036206D01*
X81524137Y-201969469D01*
X80739605Y-202754000D01*
X81524137Y-203538531D01*
X81764025Y-203471794D01*
X81829600Y-203332293D01*
X81863767Y-203414780D01*
X82016433Y-203643261D01*
X82032185Y-203659013D01*
X81473199Y-204218000D01*
X68894802Y-204218000D01*
X68516328Y-203839527D01*
X68519261Y-203837567D01*
X68713567Y-203643261D01*
X68866233Y-203414780D01*
X68900000Y-203333260D01*
X68933767Y-203414780D01*
X69086433Y-203643261D01*
X69280739Y-203837567D01*
X69509220Y-203990233D01*
X69763093Y-204095391D01*
X70032604Y-204149000D01*
X70307396Y-204149000D01*
X70576907Y-204095391D01*
X70830780Y-203990233D01*
X71059261Y-203837567D01*
X71178691Y-203718137D01*
X79775469Y-203718137D01*
X79842206Y-203958025D01*
X80090892Y-204074924D01*
X80357606Y-204141061D01*
X80632097Y-204153895D01*
X80903817Y-204112931D01*
X81162326Y-204019744D01*
X81277794Y-203958025D01*
X81344531Y-203718137D01*
X80560000Y-202933605D01*
X79775469Y-203718137D01*
X71178691Y-203718137D01*
X71253567Y-203643261D01*
X71406233Y-203414780D01*
X71511391Y-203160907D01*
X71565000Y-202891396D01*
X71565000Y-202616604D01*
X71527683Y-202428999D01*
X79203342Y-202428999D01*
X79172939Y-202551606D01*
X79160105Y-202826097D01*
X79201069Y-203097817D01*
X79294256Y-203356326D01*
X79355975Y-203471794D01*
X79595863Y-203538531D01*
X80380395Y-202754000D01*
X80366253Y-202739858D01*
X80545858Y-202560252D01*
X80560000Y-202574395D01*
X81344531Y-201789863D01*
X81341137Y-201777665D01*
X81540131Y-201578671D01*
X81692604Y-201609000D01*
X81967396Y-201609000D01*
X82236907Y-201555391D01*
X82490780Y-201450233D01*
X82719261Y-201297567D01*
X82838691Y-201178137D01*
X83585469Y-201178137D01*
X83652206Y-201418025D01*
X83900892Y-201534924D01*
X84167606Y-201601061D01*
X84442097Y-201613895D01*
X84713817Y-201572931D01*
X84972326Y-201479744D01*
X85087794Y-201418025D01*
X85154531Y-201178137D01*
X84370000Y-200393605D01*
X83585469Y-201178137D01*
X82838691Y-201178137D01*
X82913567Y-201103261D01*
X83066233Y-200874780D01*
X83097830Y-200798499D01*
X83104256Y-200816326D01*
X83165975Y-200931794D01*
X83405863Y-200998531D01*
X84190395Y-200214000D01*
X84549605Y-200214000D01*
X85334137Y-200998531D01*
X85574025Y-200931794D01*
X85690924Y-200683108D01*
X85757061Y-200416394D01*
X85769895Y-200141903D01*
X85728931Y-199870183D01*
X85635744Y-199611674D01*
X85574025Y-199496206D01*
X85334137Y-199429469D01*
X84549605Y-200214000D01*
X84190395Y-200214000D01*
X83405863Y-199429469D01*
X83165975Y-199496206D01*
X83100400Y-199635707D01*
X83066233Y-199553220D01*
X82913567Y-199324739D01*
X82838691Y-199249863D01*
X83585469Y-199249863D01*
X84370000Y-200034395D01*
X85154531Y-199249863D01*
X85087794Y-199009975D01*
X84839108Y-198893076D01*
X84572394Y-198826939D01*
X84297903Y-198814105D01*
X84026183Y-198855069D01*
X83767674Y-198948256D01*
X83652206Y-199009975D01*
X83585469Y-199249863D01*
X82838691Y-199249863D01*
X82719261Y-199130433D01*
X82490780Y-198977767D01*
X82236907Y-198872609D01*
X81967396Y-198819000D01*
X81692604Y-198819000D01*
X81423093Y-198872609D01*
X81169220Y-198977767D01*
X80940739Y-199130433D01*
X80746433Y-199324739D01*
X80684474Y-199417467D01*
X80675812Y-199329518D01*
X80639502Y-199209820D01*
X80580537Y-199099506D01*
X80501185Y-199002815D01*
X80404494Y-198923463D01*
X80294180Y-198864498D01*
X80174482Y-198828188D01*
X80050000Y-198815928D01*
X78530000Y-198815928D01*
X78405518Y-198828188D01*
X78285820Y-198864498D01*
X78175506Y-198923463D01*
X78078815Y-199002815D01*
X77999463Y-199099506D01*
X77940498Y-199209820D01*
X77904188Y-199329518D01*
X77891928Y-199454000D01*
X77891928Y-200908999D01*
X70114740Y-200908999D01*
X70220924Y-200683108D01*
X70287061Y-200416394D01*
X70299895Y-200141903D01*
X70258931Y-199870183D01*
X70165744Y-199611674D01*
X70104025Y-199496206D01*
X69864137Y-199429469D01*
X69079605Y-200214000D01*
X69093748Y-200228142D01*
X68914142Y-200407748D01*
X68900000Y-200393605D01*
X68885858Y-200407748D01*
X68706252Y-200228142D01*
X68720395Y-200214000D01*
X67935863Y-199429469D01*
X67695975Y-199496206D01*
X67630400Y-199635707D01*
X67596233Y-199553220D01*
X67443567Y-199324739D01*
X67368691Y-199249863D01*
X68115469Y-199249863D01*
X68900000Y-200034395D01*
X69684531Y-199249863D01*
X69617794Y-199009975D01*
X69369108Y-198893076D01*
X69102394Y-198826939D01*
X68827903Y-198814105D01*
X68556183Y-198855069D01*
X68297674Y-198948256D01*
X68182206Y-199009975D01*
X68115469Y-199249863D01*
X67368691Y-199249863D01*
X67249261Y-199130433D01*
X67020780Y-198977767D01*
X66766907Y-198872609D01*
X66497396Y-198819000D01*
X66222604Y-198819000D01*
X65953093Y-198872609D01*
X65699220Y-198977767D01*
X65470739Y-199130433D01*
X65276433Y-199324739D01*
X65214474Y-199417467D01*
X65205812Y-199329518D01*
X65169502Y-199209820D01*
X65110537Y-199099506D01*
X65031185Y-199002815D01*
X64934494Y-198923463D01*
X64824180Y-198864498D01*
X64704482Y-198828188D01*
X64580000Y-198815928D01*
X63060000Y-198815928D01*
X62935518Y-198828188D01*
X62815820Y-198864498D01*
X62705506Y-198923463D01*
X62608815Y-199002815D01*
X62529463Y-199099506D01*
X62470498Y-199209820D01*
X62434188Y-199329518D01*
X62421928Y-199454000D01*
X50444000Y-199454000D01*
X50444000Y-177583970D01*
X53686613Y-177583970D01*
X53686613Y-178016030D01*
X53770904Y-178439787D01*
X53936246Y-178838958D01*
X54176285Y-179198203D01*
X54481797Y-179503715D01*
X54841042Y-179743754D01*
X55240213Y-179909096D01*
X55663970Y-179993387D01*
X56096030Y-179993387D01*
X56519787Y-179909096D01*
X56918958Y-179743754D01*
X57278203Y-179503715D01*
X57583715Y-179198203D01*
X57823754Y-178838958D01*
X57989096Y-178439787D01*
X58073387Y-178016030D01*
X58073387Y-177583970D01*
X57989096Y-177160213D01*
X57823754Y-176761042D01*
X57583715Y-176401797D01*
X57278203Y-176096285D01*
X56918958Y-175856246D01*
X56519787Y-175690904D01*
X56096030Y-175606613D01*
X55663970Y-175606613D01*
X55240213Y-175690904D01*
X54841042Y-175856246D01*
X54481797Y-176096285D01*
X54176285Y-176401797D01*
X53936246Y-176761042D01*
X53770904Y-177160213D01*
X53686613Y-177583970D01*
X50444000Y-177583970D01*
X50444000Y-163596967D01*
X87623000Y-163596967D01*
X87623000Y-163919033D01*
X87685832Y-164234912D01*
X87809082Y-164532463D01*
X87988013Y-164800252D01*
X88215748Y-165027987D01*
X88483537Y-165206918D01*
X88781088Y-165330168D01*
X89096967Y-165393000D01*
X89419033Y-165393000D01*
X89734912Y-165330168D01*
X90032463Y-165206918D01*
X90300252Y-165027987D01*
X90527987Y-164800252D01*
X90706918Y-164532463D01*
X90830168Y-164234912D01*
X90893000Y-163919033D01*
X90893000Y-163596967D01*
X94123000Y-163596967D01*
X94123000Y-163919033D01*
X94185832Y-164234912D01*
X94309082Y-164532463D01*
X94488013Y-164800252D01*
X94715748Y-165027987D01*
X94983537Y-165206918D01*
X95281088Y-165330168D01*
X95596967Y-165393000D01*
X95919033Y-165393000D01*
X96234912Y-165330168D01*
X96532463Y-165206918D01*
X96800252Y-165027987D01*
X97027987Y-164800252D01*
X97206918Y-164532463D01*
X97330168Y-164234912D01*
X97393000Y-163919033D01*
X97393000Y-163596967D01*
X97330168Y-163281088D01*
X97206918Y-162983537D01*
X97027987Y-162715748D01*
X96800252Y-162488013D01*
X96532463Y-162309082D01*
X96234912Y-162185832D01*
X95919033Y-162123000D01*
X95596967Y-162123000D01*
X95281088Y-162185832D01*
X94983537Y-162309082D01*
X94715748Y-162488013D01*
X94488013Y-162715748D01*
X94309082Y-162983537D01*
X94185832Y-163281088D01*
X94123000Y-163596967D01*
X90893000Y-163596967D01*
X90830168Y-163281088D01*
X90706918Y-162983537D01*
X90527987Y-162715748D01*
X90300252Y-162488013D01*
X90032463Y-162309082D01*
X89734912Y-162185832D01*
X89419033Y-162123000D01*
X89096967Y-162123000D01*
X88781088Y-162185832D01*
X88483537Y-162309082D01*
X88215748Y-162488013D01*
X87988013Y-162715748D01*
X87809082Y-162983537D01*
X87685832Y-163281088D01*
X87623000Y-163596967D01*
X50444000Y-163596967D01*
X50444000Y-158344890D01*
X53422524Y-158344890D01*
X53467175Y-158492099D01*
X53592359Y-158754920D01*
X53766412Y-158988269D01*
X53982645Y-159183178D01*
X54232748Y-159332157D01*
X54507109Y-159429481D01*
X54737000Y-159308814D01*
X54737000Y-158115000D01*
X54991000Y-158115000D01*
X54991000Y-159308814D01*
X55220891Y-159429481D01*
X55495252Y-159332157D01*
X55745355Y-159183178D01*
X55840997Y-159096967D01*
X87623000Y-159096967D01*
X87623000Y-159419033D01*
X87685832Y-159734912D01*
X87809082Y-160032463D01*
X87988013Y-160300252D01*
X88215748Y-160527987D01*
X88483537Y-160706918D01*
X88781088Y-160830168D01*
X89096967Y-160893000D01*
X89419033Y-160893000D01*
X89734912Y-160830168D01*
X90032463Y-160706918D01*
X90300252Y-160527987D01*
X90527987Y-160300252D01*
X90706918Y-160032463D01*
X90830168Y-159734912D01*
X90893000Y-159419033D01*
X90893000Y-159096967D01*
X94123000Y-159096967D01*
X94123000Y-159419033D01*
X94185832Y-159734912D01*
X94309082Y-160032463D01*
X94488013Y-160300252D01*
X94715748Y-160527987D01*
X94983537Y-160706918D01*
X95281088Y-160830168D01*
X95596967Y-160893000D01*
X95919033Y-160893000D01*
X96234912Y-160830168D01*
X96532463Y-160706918D01*
X96800252Y-160527987D01*
X97027987Y-160300252D01*
X97206918Y-160032463D01*
X97330168Y-159734912D01*
X97393000Y-159419033D01*
X97393000Y-159096967D01*
X97330168Y-158781088D01*
X97206918Y-158483537D01*
X97027987Y-158215748D01*
X96800252Y-157988013D01*
X96532463Y-157809082D01*
X96234912Y-157685832D01*
X95919033Y-157623000D01*
X95596967Y-157623000D01*
X95281088Y-157685832D01*
X94983537Y-157809082D01*
X94715748Y-157988013D01*
X94488013Y-158215748D01*
X94309082Y-158483537D01*
X94185832Y-158781088D01*
X94123000Y-159096967D01*
X90893000Y-159096967D01*
X90830168Y-158781088D01*
X90706918Y-158483537D01*
X90527987Y-158215748D01*
X90300252Y-157988013D01*
X90032463Y-157809082D01*
X89734912Y-157685832D01*
X89419033Y-157623000D01*
X89096967Y-157623000D01*
X88781088Y-157685832D01*
X88483537Y-157809082D01*
X88215748Y-157988013D01*
X87988013Y-158215748D01*
X87809082Y-158483537D01*
X87685832Y-158781088D01*
X87623000Y-159096967D01*
X55840997Y-159096967D01*
X55961588Y-158988269D01*
X56135641Y-158754920D01*
X56260825Y-158492099D01*
X56305476Y-158344890D01*
X56184155Y-158115000D01*
X54991000Y-158115000D01*
X54737000Y-158115000D01*
X53543845Y-158115000D01*
X53422524Y-158344890D01*
X50444000Y-158344890D01*
X50444000Y-132588000D01*
X53371815Y-132588000D01*
X53400487Y-132879111D01*
X53485401Y-133159034D01*
X53623294Y-133417014D01*
X53808866Y-133643134D01*
X54034986Y-133828706D01*
X54089791Y-133858000D01*
X54034986Y-133887294D01*
X53808866Y-134072866D01*
X53623294Y-134298986D01*
X53485401Y-134556966D01*
X53400487Y-134836889D01*
X53371815Y-135128000D01*
X53400487Y-135419111D01*
X53485401Y-135699034D01*
X53623294Y-135957014D01*
X53808866Y-136183134D01*
X54034986Y-136368706D01*
X54089791Y-136398000D01*
X54034986Y-136427294D01*
X53808866Y-136612866D01*
X53623294Y-136838986D01*
X53485401Y-137096966D01*
X53400487Y-137376889D01*
X53371815Y-137668000D01*
X53400487Y-137959111D01*
X53485401Y-138239034D01*
X53623294Y-138497014D01*
X53808866Y-138723134D01*
X54034986Y-138908706D01*
X54089791Y-138938000D01*
X54034986Y-138967294D01*
X53808866Y-139152866D01*
X53623294Y-139378986D01*
X53485401Y-139636966D01*
X53400487Y-139916889D01*
X53371815Y-140208000D01*
X53400487Y-140499111D01*
X53485401Y-140779034D01*
X53623294Y-141037014D01*
X53808866Y-141263134D01*
X54034986Y-141448706D01*
X54089791Y-141478000D01*
X54034986Y-141507294D01*
X53808866Y-141692866D01*
X53623294Y-141918986D01*
X53485401Y-142176966D01*
X53400487Y-142456889D01*
X53371815Y-142748000D01*
X53400487Y-143039111D01*
X53485401Y-143319034D01*
X53623294Y-143577014D01*
X53808866Y-143803134D01*
X54034986Y-143988706D01*
X54089791Y-144018000D01*
X54034986Y-144047294D01*
X53808866Y-144232866D01*
X53623294Y-144458986D01*
X53485401Y-144716966D01*
X53400487Y-144996889D01*
X53371815Y-145288000D01*
X53400487Y-145579111D01*
X53485401Y-145859034D01*
X53623294Y-146117014D01*
X53808866Y-146343134D01*
X54034986Y-146528706D01*
X54089791Y-146558000D01*
X54034986Y-146587294D01*
X53808866Y-146772866D01*
X53623294Y-146998986D01*
X53485401Y-147256966D01*
X53400487Y-147536889D01*
X53371815Y-147828000D01*
X53400487Y-148119111D01*
X53485401Y-148399034D01*
X53623294Y-148657014D01*
X53808866Y-148883134D01*
X54034986Y-149068706D01*
X54089791Y-149098000D01*
X54034986Y-149127294D01*
X53808866Y-149312866D01*
X53623294Y-149538986D01*
X53485401Y-149796966D01*
X53400487Y-150076889D01*
X53371815Y-150368000D01*
X53400487Y-150659111D01*
X53485401Y-150939034D01*
X53623294Y-151197014D01*
X53808866Y-151423134D01*
X54034986Y-151608706D01*
X54089791Y-151638000D01*
X54034986Y-151667294D01*
X53808866Y-151852866D01*
X53623294Y-152078986D01*
X53485401Y-152336966D01*
X53400487Y-152616889D01*
X53371815Y-152908000D01*
X53400487Y-153199111D01*
X53485401Y-153479034D01*
X53623294Y-153737014D01*
X53808866Y-153963134D01*
X54034986Y-154148706D01*
X54089791Y-154178000D01*
X54034986Y-154207294D01*
X53808866Y-154392866D01*
X53623294Y-154618986D01*
X53485401Y-154876966D01*
X53400487Y-155156889D01*
X53371815Y-155448000D01*
X53400487Y-155739111D01*
X53485401Y-156019034D01*
X53623294Y-156277014D01*
X53808866Y-156503134D01*
X54034986Y-156688706D01*
X54099523Y-156723201D01*
X53982645Y-156792822D01*
X53766412Y-156987731D01*
X53592359Y-157221080D01*
X53467175Y-157483901D01*
X53422524Y-157631110D01*
X53543845Y-157861000D01*
X54737000Y-157861000D01*
X54737000Y-157841000D01*
X54991000Y-157841000D01*
X54991000Y-157861000D01*
X56184155Y-157861000D01*
X56305476Y-157631110D01*
X56260825Y-157483901D01*
X56135641Y-157221080D01*
X55961588Y-156987731D01*
X55745355Y-156792822D01*
X55628477Y-156723201D01*
X55693014Y-156688706D01*
X55919134Y-156503134D01*
X56104706Y-156277014D01*
X56242599Y-156019034D01*
X56327513Y-155739111D01*
X56356185Y-155448000D01*
X56327513Y-155156889D01*
X56242599Y-154876966D01*
X56104706Y-154618986D01*
X55919134Y-154392866D01*
X55693014Y-154207294D01*
X55638209Y-154178000D01*
X55693014Y-154148706D01*
X55919134Y-153963134D01*
X56104706Y-153737014D01*
X56242599Y-153479034D01*
X56327513Y-153199111D01*
X56356185Y-152908000D01*
X56327513Y-152616889D01*
X56242599Y-152336966D01*
X56104706Y-152078986D01*
X55919134Y-151852866D01*
X55693014Y-151667294D01*
X55638209Y-151638000D01*
X55693014Y-151608706D01*
X55919134Y-151423134D01*
X56104706Y-151197014D01*
X56242599Y-150939034D01*
X56327513Y-150659111D01*
X56356185Y-150368000D01*
X56327513Y-150076889D01*
X56242599Y-149796966D01*
X56104706Y-149538986D01*
X55919134Y-149312866D01*
X55693014Y-149127294D01*
X55638209Y-149098000D01*
X55693014Y-149068706D01*
X55919134Y-148883134D01*
X56104706Y-148657014D01*
X56161906Y-148550000D01*
X79961928Y-148550000D01*
X79974188Y-148674482D01*
X80010498Y-148794180D01*
X80069463Y-148904494D01*
X80148815Y-149001185D01*
X80245506Y-149080537D01*
X80355820Y-149139502D01*
X80475518Y-149175812D01*
X80600000Y-149188072D01*
X81164250Y-149185000D01*
X81323000Y-149026250D01*
X81323000Y-147827000D01*
X81577000Y-147827000D01*
X81577000Y-149026250D01*
X81735750Y-149185000D01*
X82300000Y-149188072D01*
X82424482Y-149175812D01*
X82544180Y-149139502D01*
X82654494Y-149080537D01*
X82751185Y-149001185D01*
X82830537Y-148904494D01*
X82889502Y-148794180D01*
X82925812Y-148674482D01*
X82938072Y-148550000D01*
X82936907Y-148336000D01*
X88931815Y-148336000D01*
X88960487Y-148627111D01*
X89045401Y-148907034D01*
X89183294Y-149165014D01*
X89368866Y-149391134D01*
X89398687Y-149415607D01*
X89329820Y-149436498D01*
X89219506Y-149495463D01*
X89122815Y-149574815D01*
X89043463Y-149671506D01*
X88984498Y-149781820D01*
X88948188Y-149901518D01*
X88935928Y-150026000D01*
X88935928Y-151726000D01*
X88948188Y-151850482D01*
X88984498Y-151970180D01*
X89043463Y-152080494D01*
X89122815Y-152177185D01*
X89219506Y-152256537D01*
X89329820Y-152315502D01*
X89449518Y-152351812D01*
X89574000Y-152364072D01*
X91274000Y-152364072D01*
X91398482Y-152351812D01*
X91518180Y-152315502D01*
X91628494Y-152256537D01*
X91725185Y-152177185D01*
X91804537Y-152080494D01*
X91863502Y-151970180D01*
X91899812Y-151850482D01*
X91912072Y-151726000D01*
X91912072Y-150026000D01*
X91899812Y-149901518D01*
X91863502Y-149781820D01*
X91804537Y-149671506D01*
X91725185Y-149574815D01*
X91628494Y-149495463D01*
X91518180Y-149436498D01*
X91449313Y-149415607D01*
X91479134Y-149391134D01*
X91664706Y-149165014D01*
X91802599Y-148907034D01*
X91887513Y-148627111D01*
X91916185Y-148336000D01*
X91887513Y-148044889D01*
X91802599Y-147764966D01*
X91664706Y-147506986D01*
X91479134Y-147280866D01*
X91253014Y-147095294D01*
X91188477Y-147060799D01*
X91305355Y-146991178D01*
X91521588Y-146796269D01*
X91695641Y-146562920D01*
X91820825Y-146300099D01*
X91865476Y-146152890D01*
X91744155Y-145923000D01*
X90551000Y-145923000D01*
X90551000Y-145943000D01*
X90297000Y-145943000D01*
X90297000Y-145923000D01*
X89103845Y-145923000D01*
X88982524Y-146152890D01*
X89027175Y-146300099D01*
X89152359Y-146562920D01*
X89326412Y-146796269D01*
X89542645Y-146991178D01*
X89659523Y-147060799D01*
X89594986Y-147095294D01*
X89368866Y-147280866D01*
X89183294Y-147506986D01*
X89045401Y-147764966D01*
X88960487Y-148044889D01*
X88931815Y-148336000D01*
X82936907Y-148336000D01*
X82935000Y-147985750D01*
X82776250Y-147827000D01*
X81577000Y-147827000D01*
X81323000Y-147827000D01*
X80123750Y-147827000D01*
X79965000Y-147985750D01*
X79961928Y-148550000D01*
X56161906Y-148550000D01*
X56242599Y-148399034D01*
X56327513Y-148119111D01*
X56356185Y-147828000D01*
X56327513Y-147536889D01*
X56242599Y-147256966D01*
X56104706Y-146998986D01*
X55919134Y-146772866D01*
X55693014Y-146587294D01*
X55638209Y-146558000D01*
X55693014Y-146528706D01*
X55919134Y-146343134D01*
X56104706Y-146117014D01*
X56242599Y-145859034D01*
X56327513Y-145579111D01*
X56356185Y-145288000D01*
X56327513Y-144996889D01*
X56242599Y-144716966D01*
X56104706Y-144458986D01*
X55919134Y-144232866D01*
X55693014Y-144047294D01*
X55638209Y-144018000D01*
X55693014Y-143988706D01*
X55919134Y-143803134D01*
X56104706Y-143577014D01*
X56242599Y-143319034D01*
X56327513Y-143039111D01*
X56356185Y-142748000D01*
X56327513Y-142456889D01*
X56242599Y-142176966D01*
X56104706Y-141918986D01*
X55919134Y-141692866D01*
X55693014Y-141507294D01*
X55638209Y-141478000D01*
X55693014Y-141448706D01*
X55919134Y-141263134D01*
X56104706Y-141037014D01*
X56242599Y-140779034D01*
X56327513Y-140499111D01*
X56356185Y-140208000D01*
X56327513Y-139916889D01*
X56242599Y-139636966D01*
X56104706Y-139378986D01*
X55919134Y-139152866D01*
X55693014Y-138967294D01*
X55638209Y-138938000D01*
X55693014Y-138908706D01*
X55919134Y-138723134D01*
X56104706Y-138497014D01*
X56242599Y-138239034D01*
X56327513Y-137959111D01*
X56356185Y-137668000D01*
X56327513Y-137376889D01*
X56242599Y-137096966D01*
X56104706Y-136838986D01*
X55919134Y-136612866D01*
X55693014Y-136427294D01*
X55638209Y-136398000D01*
X55693014Y-136368706D01*
X55919134Y-136183134D01*
X56104706Y-135957014D01*
X56242599Y-135699034D01*
X56327513Y-135419111D01*
X56356185Y-135128000D01*
X56343579Y-135000000D01*
X79957815Y-135000000D01*
X79986487Y-135291111D01*
X80071401Y-135571034D01*
X80209294Y-135829014D01*
X80394866Y-136055134D01*
X80620986Y-136240706D01*
X80675791Y-136270000D01*
X80620986Y-136299294D01*
X80394866Y-136484866D01*
X80209294Y-136710986D01*
X80071401Y-136968966D01*
X79986487Y-137248889D01*
X79957815Y-137540000D01*
X79986487Y-137831111D01*
X80071401Y-138111034D01*
X80209294Y-138369014D01*
X80394866Y-138595134D01*
X80620986Y-138780706D01*
X80675791Y-138810000D01*
X80620986Y-138839294D01*
X80394866Y-139024866D01*
X80209294Y-139250986D01*
X80071401Y-139508966D01*
X79986487Y-139788889D01*
X79957815Y-140080000D01*
X79986487Y-140371111D01*
X80071401Y-140651034D01*
X80209294Y-140909014D01*
X80394866Y-141135134D01*
X80620986Y-141320706D01*
X80675791Y-141350000D01*
X80620986Y-141379294D01*
X80394866Y-141564866D01*
X80209294Y-141790986D01*
X80071401Y-142048966D01*
X79986487Y-142328889D01*
X79957815Y-142620000D01*
X79986487Y-142911111D01*
X80071401Y-143191034D01*
X80209294Y-143449014D01*
X80394866Y-143675134D01*
X80620986Y-143860706D01*
X80675791Y-143890000D01*
X80620986Y-143919294D01*
X80394866Y-144104866D01*
X80209294Y-144330986D01*
X80071401Y-144588966D01*
X79986487Y-144868889D01*
X79957815Y-145160000D01*
X79986487Y-145451111D01*
X80071401Y-145731034D01*
X80209294Y-145989014D01*
X80394866Y-146215134D01*
X80424687Y-146239607D01*
X80355820Y-146260498D01*
X80245506Y-146319463D01*
X80148815Y-146398815D01*
X80069463Y-146495506D01*
X80010498Y-146605820D01*
X79974188Y-146725518D01*
X79961928Y-146850000D01*
X79965000Y-147414250D01*
X80123750Y-147573000D01*
X81323000Y-147573000D01*
X81323000Y-147553000D01*
X81577000Y-147553000D01*
X81577000Y-147573000D01*
X82776250Y-147573000D01*
X82935000Y-147414250D01*
X82938072Y-146850000D01*
X82925812Y-146725518D01*
X82889502Y-146605820D01*
X82830537Y-146495506D01*
X82751185Y-146398815D01*
X82654494Y-146319463D01*
X82544180Y-146260498D01*
X82475313Y-146239607D01*
X82505134Y-146215134D01*
X82690706Y-145989014D01*
X82828599Y-145731034D01*
X82913513Y-145451111D01*
X82942185Y-145160000D01*
X82913513Y-144868889D01*
X82828599Y-144588966D01*
X82690706Y-144330986D01*
X82505134Y-144104866D01*
X82279014Y-143919294D01*
X82224209Y-143890000D01*
X82279014Y-143860706D01*
X82505134Y-143675134D01*
X82690706Y-143449014D01*
X82828599Y-143191034D01*
X82913513Y-142911111D01*
X82942185Y-142620000D01*
X82913513Y-142328889D01*
X82828599Y-142048966D01*
X82690706Y-141790986D01*
X82505134Y-141564866D01*
X82279014Y-141379294D01*
X82224209Y-141350000D01*
X82279014Y-141320706D01*
X82505134Y-141135134D01*
X82690706Y-140909014D01*
X82828599Y-140651034D01*
X82913513Y-140371111D01*
X82942185Y-140080000D01*
X82913513Y-139788889D01*
X82828599Y-139508966D01*
X82690706Y-139250986D01*
X82505134Y-139024866D01*
X82279014Y-138839294D01*
X82224209Y-138810000D01*
X82279014Y-138780706D01*
X82505134Y-138595134D01*
X82690706Y-138369014D01*
X82793873Y-138176000D01*
X88931815Y-138176000D01*
X88960487Y-138467111D01*
X89045401Y-138747034D01*
X89183294Y-139005014D01*
X89368866Y-139231134D01*
X89594986Y-139416706D01*
X89649791Y-139446000D01*
X89594986Y-139475294D01*
X89368866Y-139660866D01*
X89183294Y-139886986D01*
X89045401Y-140144966D01*
X88960487Y-140424889D01*
X88931815Y-140716000D01*
X88960487Y-141007111D01*
X89045401Y-141287034D01*
X89183294Y-141545014D01*
X89368866Y-141771134D01*
X89594986Y-141956706D01*
X89649791Y-141986000D01*
X89594986Y-142015294D01*
X89368866Y-142200866D01*
X89183294Y-142426986D01*
X89045401Y-142684966D01*
X88960487Y-142964889D01*
X88931815Y-143256000D01*
X88960487Y-143547111D01*
X89045401Y-143827034D01*
X89183294Y-144085014D01*
X89368866Y-144311134D01*
X89594986Y-144496706D01*
X89659523Y-144531201D01*
X89542645Y-144600822D01*
X89326412Y-144795731D01*
X89152359Y-145029080D01*
X89027175Y-145291901D01*
X88982524Y-145439110D01*
X89103845Y-145669000D01*
X90297000Y-145669000D01*
X90297000Y-145649000D01*
X90551000Y-145649000D01*
X90551000Y-145669000D01*
X91744155Y-145669000D01*
X91865476Y-145439110D01*
X91820825Y-145291901D01*
X91695641Y-145029080D01*
X91521588Y-144795731D01*
X91305355Y-144600822D01*
X91188477Y-144531201D01*
X91253014Y-144496706D01*
X91479134Y-144311134D01*
X91664706Y-144085014D01*
X91802599Y-143827034D01*
X91887513Y-143547111D01*
X91916185Y-143256000D01*
X91887513Y-142964889D01*
X91802599Y-142684966D01*
X91664706Y-142426986D01*
X91479134Y-142200866D01*
X91253014Y-142015294D01*
X91198209Y-141986000D01*
X91253014Y-141956706D01*
X91479134Y-141771134D01*
X91664706Y-141545014D01*
X91802599Y-141287034D01*
X91887513Y-141007111D01*
X91916185Y-140716000D01*
X91887513Y-140424889D01*
X91802599Y-140144966D01*
X91664706Y-139886986D01*
X91479134Y-139660866D01*
X91253014Y-139475294D01*
X91198209Y-139446000D01*
X91253014Y-139416706D01*
X91479134Y-139231134D01*
X91664706Y-139005014D01*
X91802599Y-138747034D01*
X91887513Y-138467111D01*
X91916185Y-138176000D01*
X91887513Y-137884889D01*
X91802599Y-137604966D01*
X91664706Y-137346986D01*
X91479134Y-137120866D01*
X91253014Y-136935294D01*
X90995034Y-136797401D01*
X90715111Y-136712487D01*
X90496950Y-136691000D01*
X90351050Y-136691000D01*
X90132889Y-136712487D01*
X89852966Y-136797401D01*
X89594986Y-136935294D01*
X89368866Y-137120866D01*
X89183294Y-137346986D01*
X89045401Y-137604966D01*
X88960487Y-137884889D01*
X88931815Y-138176000D01*
X82793873Y-138176000D01*
X82828599Y-138111034D01*
X82913513Y-137831111D01*
X82942185Y-137540000D01*
X82913513Y-137248889D01*
X82828599Y-136968966D01*
X82690706Y-136710986D01*
X82505134Y-136484866D01*
X82279014Y-136299294D01*
X82224209Y-136270000D01*
X82279014Y-136240706D01*
X82505134Y-136055134D01*
X82690706Y-135829014D01*
X82828599Y-135571034D01*
X82913513Y-135291111D01*
X82942185Y-135000000D01*
X82913513Y-134708889D01*
X82828599Y-134428966D01*
X82690706Y-134170986D01*
X82505134Y-133944866D01*
X82279014Y-133759294D01*
X82021034Y-133621401D01*
X81741111Y-133536487D01*
X81522950Y-133515000D01*
X81377050Y-133515000D01*
X81158889Y-133536487D01*
X80878966Y-133621401D01*
X80620986Y-133759294D01*
X80394866Y-133944866D01*
X80209294Y-134170986D01*
X80071401Y-134428966D01*
X79986487Y-134708889D01*
X79957815Y-135000000D01*
X56343579Y-135000000D01*
X56327513Y-134836889D01*
X56242599Y-134556966D01*
X56104706Y-134298986D01*
X55919134Y-134072866D01*
X55693014Y-133887294D01*
X55638209Y-133858000D01*
X55693014Y-133828706D01*
X55919134Y-133643134D01*
X56104706Y-133417014D01*
X56242599Y-133159034D01*
X56327513Y-132879111D01*
X56356185Y-132588000D01*
X56327513Y-132296889D01*
X56242599Y-132016966D01*
X56104706Y-131758986D01*
X55919134Y-131532866D01*
X55889313Y-131508393D01*
X55958180Y-131487502D01*
X56068494Y-131428537D01*
X56165185Y-131349185D01*
X56244537Y-131252494D01*
X56303502Y-131142180D01*
X56339812Y-131022482D01*
X56352072Y-130898000D01*
X56352072Y-129321910D01*
X96845692Y-129321910D01*
X96845692Y-129758090D01*
X96930787Y-130185890D01*
X97097706Y-130588868D01*
X97340035Y-130951539D01*
X97648461Y-131259965D01*
X98011132Y-131502294D01*
X98414110Y-131669213D01*
X98841910Y-131754308D01*
X99278090Y-131754308D01*
X99705890Y-131669213D01*
X100108868Y-131502294D01*
X100471539Y-131259965D01*
X100779965Y-130951539D01*
X101022294Y-130588868D01*
X101189213Y-130185890D01*
X101274308Y-129758090D01*
X101274308Y-129321910D01*
X101189213Y-128894110D01*
X101022294Y-128491132D01*
X100779965Y-128128461D01*
X100471539Y-127820035D01*
X100108868Y-127577706D01*
X99705890Y-127410787D01*
X99278090Y-127325692D01*
X98841910Y-127325692D01*
X98414110Y-127410787D01*
X98011132Y-127577706D01*
X97648461Y-127820035D01*
X97340035Y-128128461D01*
X97097706Y-128491132D01*
X96930787Y-128894110D01*
X96845692Y-129321910D01*
X56352072Y-129321910D01*
X56352072Y-129198000D01*
X56339812Y-129073518D01*
X56303502Y-128953820D01*
X56244537Y-128843506D01*
X56165185Y-128746815D01*
X56068494Y-128667463D01*
X55958180Y-128608498D01*
X55838482Y-128572188D01*
X55714000Y-128559928D01*
X54014000Y-128559928D01*
X53889518Y-128572188D01*
X53769820Y-128608498D01*
X53659506Y-128667463D01*
X53562815Y-128746815D01*
X53483463Y-128843506D01*
X53424498Y-128953820D01*
X53388188Y-129073518D01*
X53375928Y-129198000D01*
X53375928Y-130898000D01*
X53388188Y-131022482D01*
X53424498Y-131142180D01*
X53483463Y-131252494D01*
X53562815Y-131349185D01*
X53659506Y-131428537D01*
X53769820Y-131487502D01*
X53838687Y-131508393D01*
X53808866Y-131532866D01*
X53623294Y-131758986D01*
X53485401Y-132016966D01*
X53400487Y-132296889D01*
X53371815Y-132588000D01*
X50444000Y-132588000D01*
X50444000Y-126136000D01*
X102464000Y-126136000D01*
X102464001Y-215240000D01*
X102464001Y-215240000D01*
G37*
X102464001Y-215240000D02*
X50444000Y-215240000D01*
X50444000Y-210603970D01*
X52670613Y-210603970D01*
X52670613Y-211036030D01*
X52754904Y-211459787D01*
X52920246Y-211858958D01*
X53160285Y-212218203D01*
X53465797Y-212523715D01*
X53825042Y-212763754D01*
X54224213Y-212929096D01*
X54647970Y-213013387D01*
X55080030Y-213013387D01*
X55503787Y-212929096D01*
X55902958Y-212763754D01*
X56262203Y-212523715D01*
X56567715Y-212218203D01*
X56807754Y-211858958D01*
X56973096Y-211459787D01*
X57057387Y-211036030D01*
X57057387Y-210603970D01*
X56973096Y-210180213D01*
X56807754Y-209781042D01*
X56567715Y-209421797D01*
X56262203Y-209116285D01*
X55910686Y-208881409D01*
X59650000Y-208881409D01*
X59650000Y-209326591D01*
X59736851Y-209763218D01*
X59907214Y-210174511D01*
X60154544Y-210544666D01*
X60469334Y-210859456D01*
X60839489Y-211106786D01*
X61250782Y-211277149D01*
X61687409Y-211364000D01*
X62132591Y-211364000D01*
X62569218Y-211277149D01*
X62980511Y-211106786D01*
X63350666Y-210859456D01*
X63665456Y-210544666D01*
X63912786Y-210174511D01*
X64083149Y-209763218D01*
X64170000Y-209326591D01*
X64170000Y-208881409D01*
X69810000Y-208881409D01*
X69810000Y-209326591D01*
X69896851Y-209763218D01*
X70067214Y-210174511D01*
X70314544Y-210544666D01*
X70629334Y-210859456D01*
X70999489Y-211106786D01*
X71410782Y-211277149D01*
X71847409Y-211364000D01*
X72292591Y-211364000D01*
X72729218Y-211277149D01*
X73140511Y-211106786D01*
X73510666Y-210859456D01*
X73825456Y-210544666D01*
X74072786Y-210174511D01*
X74243149Y-209763218D01*
X74330000Y-209326591D01*
X74330000Y-208881409D01*
X75120000Y-208881409D01*
X75120000Y-209326591D01*
X75206851Y-209763218D01*
X75377214Y-210174511D01*
X75624544Y-210544666D01*
X75939334Y-210859456D01*
X76309489Y-211106786D01*
X76720782Y-211277149D01*
X77157409Y-211364000D01*
X77602591Y-211364000D01*
X78039218Y-211277149D01*
X78450511Y-211106786D01*
X78820666Y-210859456D01*
X79135456Y-210544666D01*
X79382786Y-210174511D01*
X79553149Y-209763218D01*
X79640000Y-209326591D01*
X79640000Y-208881409D01*
X85280000Y-208881409D01*
X85280000Y-209326591D01*
X85366851Y-209763218D01*
X85537214Y-210174511D01*
X85784544Y-210544666D01*
X86099334Y-210859456D01*
X86469489Y-211106786D01*
X86880782Y-211277149D01*
X87317409Y-211364000D01*
X87762591Y-211364000D01*
X88199218Y-211277149D01*
X88610511Y-211106786D01*
X88980666Y-210859456D01*
X89238212Y-210601910D01*
X94305692Y-210601910D01*
X94305692Y-211038090D01*
X94390787Y-211465890D01*
X94557706Y-211868868D01*
X94800035Y-212231539D01*
X95108461Y-212539965D01*
X95471132Y-212782294D01*
X95874110Y-212949213D01*
X96301910Y-213034308D01*
X96738090Y-213034308D01*
X97165890Y-212949213D01*
X97568868Y-212782294D01*
X97931539Y-212539965D01*
X98239965Y-212231539D01*
X98482294Y-211868868D01*
X98649213Y-211465890D01*
X98734308Y-211038090D01*
X98734308Y-210601910D01*
X98649213Y-210174110D01*
X98482294Y-209771132D01*
X98239965Y-209408461D01*
X97931539Y-209100035D01*
X97568868Y-208857706D01*
X97165890Y-208690787D01*
X96738090Y-208605692D01*
X96301910Y-208605692D01*
X95874110Y-208690787D01*
X95471132Y-208857706D01*
X95108461Y-209100035D01*
X94800035Y-209408461D01*
X94557706Y-209771132D01*
X94390787Y-210174110D01*
X94305692Y-210601910D01*
X89238212Y-210601910D01*
X89295456Y-210544666D01*
X89542786Y-210174511D01*
X89713149Y-209763218D01*
X89800000Y-209326591D01*
X89800000Y-208881409D01*
X89713149Y-208444782D01*
X89542786Y-208033489D01*
X89295456Y-207663334D01*
X88980666Y-207348544D01*
X88610511Y-207101214D01*
X88199218Y-206930851D01*
X87762591Y-206844000D01*
X87317409Y-206844000D01*
X86880782Y-206930851D01*
X86469489Y-207101214D01*
X86099334Y-207348544D01*
X85784544Y-207663334D01*
X85537214Y-208033489D01*
X85366851Y-208444782D01*
X85280000Y-208881409D01*
X79640000Y-208881409D01*
X79553149Y-208444782D01*
X79382786Y-208033489D01*
X79135456Y-207663334D01*
X78820666Y-207348544D01*
X78450511Y-207101214D01*
X78039218Y-206930851D01*
X77602591Y-206844000D01*
X77157409Y-206844000D01*
X76720782Y-206930851D01*
X76309489Y-207101214D01*
X75939334Y-207348544D01*
X75624544Y-207663334D01*
X75377214Y-208033489D01*
X75206851Y-208444782D01*
X75120000Y-208881409D01*
X74330000Y-208881409D01*
X74243149Y-208444782D01*
X74072786Y-208033489D01*
X73825456Y-207663334D01*
X73510666Y-207348544D01*
X73140511Y-207101214D01*
X72729218Y-206930851D01*
X72292591Y-206844000D01*
X71847409Y-206844000D01*
X71410782Y-206930851D01*
X70999489Y-207101214D01*
X70629334Y-207348544D01*
X70314544Y-207663334D01*
X70067214Y-208033489D01*
X69896851Y-208444782D01*
X69810000Y-208881409D01*
X64170000Y-208881409D01*
X64083149Y-208444782D01*
X63912786Y-208033489D01*
X63665456Y-207663334D01*
X63350666Y-207348544D01*
X62980511Y-207101214D01*
X62569218Y-206930851D01*
X62132591Y-206844000D01*
X61687409Y-206844000D01*
X61250782Y-206930851D01*
X60839489Y-207101214D01*
X60469334Y-207348544D01*
X60154544Y-207663334D01*
X59907214Y-208033489D01*
X59736851Y-208444782D01*
X59650000Y-208881409D01*
X55910686Y-208881409D01*
X55902958Y-208876246D01*
X55503787Y-208710904D01*
X55080030Y-208626613D01*
X54647970Y-208626613D01*
X54224213Y-208710904D01*
X53825042Y-208876246D01*
X53465797Y-209116285D01*
X53160285Y-209421797D01*
X52920246Y-209781042D01*
X52754904Y-210180213D01*
X52670613Y-210603970D01*
X50444000Y-210603970D01*
X50444000Y-203718137D01*
X64305469Y-203718137D01*
X64372206Y-203958025D01*
X64620892Y-204074924D01*
X64887606Y-204141061D01*
X65162097Y-204153895D01*
X65433817Y-204112931D01*
X65692326Y-204019744D01*
X65807794Y-203958025D01*
X65874531Y-203718137D01*
X65090000Y-202933605D01*
X64305469Y-203718137D01*
X50444000Y-203718137D01*
X50444000Y-202826097D01*
X63690105Y-202826097D01*
X63731069Y-203097817D01*
X63824256Y-203356326D01*
X63885975Y-203471794D01*
X64125863Y-203538531D01*
X64910395Y-202754000D01*
X64125863Y-201969469D01*
X63885975Y-202036206D01*
X63769076Y-202284892D01*
X63702939Y-202551606D01*
X63690105Y-202826097D01*
X50444000Y-202826097D01*
X50444000Y-199454000D01*
X62421928Y-199454000D01*
X62421928Y-200974000D01*
X62434188Y-201098482D01*
X62470498Y-201218180D01*
X62529463Y-201328494D01*
X62608815Y-201425185D01*
X62705506Y-201504537D01*
X62815820Y-201563502D01*
X62935518Y-201599812D01*
X63060000Y-201612072D01*
X64354931Y-201612072D01*
X64305469Y-201789863D01*
X65090000Y-202574395D01*
X65874531Y-201789863D01*
X65807794Y-201549975D01*
X65559108Y-201433076D01*
X65292394Y-201366939D01*
X65086872Y-201357330D01*
X65110537Y-201328494D01*
X65169502Y-201218180D01*
X65205812Y-201098482D01*
X65214474Y-201010533D01*
X65276433Y-201103261D01*
X65470739Y-201297567D01*
X65699220Y-201450233D01*
X65953093Y-201555391D01*
X66222604Y-201609000D01*
X66497396Y-201609000D01*
X66649870Y-201578671D01*
X66741274Y-201670076D01*
X66740739Y-201670433D01*
X66546433Y-201864739D01*
X66393767Y-202093220D01*
X66362170Y-202169501D01*
X66355744Y-202151674D01*
X66294025Y-202036206D01*
X66054137Y-201969469D01*
X65269605Y-202754000D01*
X66054137Y-203538531D01*
X66294025Y-203471794D01*
X66359600Y-203332293D01*
X66393767Y-203414780D01*
X66546433Y-203643261D01*
X66740739Y-203837567D01*
X66870001Y-203923937D01*
X66870001Y-203990668D01*
X66866324Y-204028000D01*
X66870001Y-204065333D01*
X66880998Y-204176986D01*
X66893439Y-204218000D01*
X66924454Y-204320246D01*
X66995026Y-204452276D01*
X67066201Y-204539002D01*
X67090000Y-204568001D01*
X67118998Y-204591799D01*
X68016201Y-205489003D01*
X68039999Y-205518001D01*
X68068997Y-205541799D01*
X68155723Y-205612974D01*
X68287753Y-205683546D01*
X68431014Y-205727003D01*
X68542667Y-205738000D01*
X68542677Y-205738000D01*
X68580000Y-205741676D01*
X68617323Y-205738000D01*
X81750678Y-205738000D01*
X81788000Y-205741676D01*
X81825322Y-205738000D01*
X81825333Y-205738000D01*
X81936986Y-205727003D01*
X82080247Y-205683546D01*
X82212276Y-205612974D01*
X82328001Y-205518001D01*
X82351804Y-205488997D01*
X83611004Y-204229798D01*
X83640001Y-204206001D01*
X83734974Y-204090276D01*
X83803821Y-203961474D01*
X83989261Y-203837567D01*
X84183567Y-203643261D01*
X84336233Y-203414780D01*
X84370000Y-203333260D01*
X84403767Y-203414780D01*
X84556433Y-203643261D01*
X84750739Y-203837567D01*
X84979220Y-203990233D01*
X85233093Y-204095391D01*
X85502604Y-204149000D01*
X85777396Y-204149000D01*
X86046907Y-204095391D01*
X86300780Y-203990233D01*
X86529261Y-203837567D01*
X86723567Y-203643261D01*
X86876233Y-203414780D01*
X86981391Y-203160907D01*
X87035000Y-202891396D01*
X87035000Y-202616604D01*
X86981391Y-202347093D01*
X86876233Y-202093220D01*
X86723567Y-201864739D01*
X86529261Y-201670433D01*
X86300780Y-201517767D01*
X86046907Y-201412609D01*
X85777396Y-201359000D01*
X85502604Y-201359000D01*
X85233093Y-201412609D01*
X84979220Y-201517767D01*
X84750739Y-201670433D01*
X84556433Y-201864739D01*
X84403767Y-202093220D01*
X84370000Y-202174740D01*
X84336233Y-202093220D01*
X84183567Y-201864739D01*
X83989261Y-201670433D01*
X83760780Y-201517767D01*
X83506907Y-201412609D01*
X83237396Y-201359000D01*
X82962604Y-201359000D01*
X82693093Y-201412609D01*
X82439220Y-201517767D01*
X82210739Y-201670433D01*
X82016433Y-201864739D01*
X81863767Y-202093220D01*
X81832170Y-202169501D01*
X81825744Y-202151674D01*
X81764025Y-202036206D01*
X81524137Y-201969469D01*
X80739605Y-202754000D01*
X81524137Y-203538531D01*
X81764025Y-203471794D01*
X81829600Y-203332293D01*
X81863767Y-203414780D01*
X82016433Y-203643261D01*
X82032185Y-203659013D01*
X81473199Y-204218000D01*
X68894802Y-204218000D01*
X68516328Y-203839527D01*
X68519261Y-203837567D01*
X68713567Y-203643261D01*
X68866233Y-203414780D01*
X68900000Y-203333260D01*
X68933767Y-203414780D01*
X69086433Y-203643261D01*
X69280739Y-203837567D01*
X69509220Y-203990233D01*
X69763093Y-204095391D01*
X70032604Y-204149000D01*
X70307396Y-204149000D01*
X70576907Y-204095391D01*
X70830780Y-203990233D01*
X71059261Y-203837567D01*
X71178691Y-203718137D01*
X79775469Y-203718137D01*
X79842206Y-203958025D01*
X80090892Y-204074924D01*
X80357606Y-204141061D01*
X80632097Y-204153895D01*
X80903817Y-204112931D01*
X81162326Y-204019744D01*
X81277794Y-203958025D01*
X81344531Y-203718137D01*
X80560000Y-202933605D01*
X79775469Y-203718137D01*
X71178691Y-203718137D01*
X71253567Y-203643261D01*
X71406233Y-203414780D01*
X71511391Y-203160907D01*
X71565000Y-202891396D01*
X71565000Y-202616604D01*
X71527683Y-202428999D01*
X79203342Y-202428999D01*
X79172939Y-202551606D01*
X79160105Y-202826097D01*
X79201069Y-203097817D01*
X79294256Y-203356326D01*
X79355975Y-203471794D01*
X79595863Y-203538531D01*
X80380395Y-202754000D01*
X80366253Y-202739858D01*
X80545858Y-202560252D01*
X80560000Y-202574395D01*
X81344531Y-201789863D01*
X81341137Y-201777665D01*
X81540131Y-201578671D01*
X81692604Y-201609000D01*
X81967396Y-201609000D01*
X82236907Y-201555391D01*
X82490780Y-201450233D01*
X82719261Y-201297567D01*
X82838691Y-201178137D01*
X83585469Y-201178137D01*
X83652206Y-201418025D01*
X83900892Y-201534924D01*
X84167606Y-201601061D01*
X84442097Y-201613895D01*
X84713817Y-201572931D01*
X84972326Y-201479744D01*
X85087794Y-201418025D01*
X85154531Y-201178137D01*
X84370000Y-200393605D01*
X83585469Y-201178137D01*
X82838691Y-201178137D01*
X82913567Y-201103261D01*
X83066233Y-200874780D01*
X83097830Y-200798499D01*
X83104256Y-200816326D01*
X83165975Y-200931794D01*
X83405863Y-200998531D01*
X84190395Y-200214000D01*
X84549605Y-200214000D01*
X85334137Y-200998531D01*
X85574025Y-200931794D01*
X85690924Y-200683108D01*
X85757061Y-200416394D01*
X85769895Y-200141903D01*
X85728931Y-199870183D01*
X85635744Y-199611674D01*
X85574025Y-199496206D01*
X85334137Y-199429469D01*
X84549605Y-200214000D01*
X84190395Y-200214000D01*
X83405863Y-199429469D01*
X83165975Y-199496206D01*
X83100400Y-199635707D01*
X83066233Y-199553220D01*
X82913567Y-199324739D01*
X82838691Y-199249863D01*
X83585469Y-199249863D01*
X84370000Y-200034395D01*
X85154531Y-199249863D01*
X85087794Y-199009975D01*
X84839108Y-198893076D01*
X84572394Y-198826939D01*
X84297903Y-198814105D01*
X84026183Y-198855069D01*
X83767674Y-198948256D01*
X83652206Y-199009975D01*
X83585469Y-199249863D01*
X82838691Y-199249863D01*
X82719261Y-199130433D01*
X82490780Y-198977767D01*
X82236907Y-198872609D01*
X81967396Y-198819000D01*
X81692604Y-198819000D01*
X81423093Y-198872609D01*
X81169220Y-198977767D01*
X80940739Y-199130433D01*
X80746433Y-199324739D01*
X80684474Y-199417467D01*
X80675812Y-199329518D01*
X80639502Y-199209820D01*
X80580537Y-199099506D01*
X80501185Y-199002815D01*
X80404494Y-198923463D01*
X80294180Y-198864498D01*
X80174482Y-198828188D01*
X80050000Y-198815928D01*
X78530000Y-198815928D01*
X78405518Y-198828188D01*
X78285820Y-198864498D01*
X78175506Y-198923463D01*
X78078815Y-199002815D01*
X77999463Y-199099506D01*
X77940498Y-199209820D01*
X77904188Y-199329518D01*
X77891928Y-199454000D01*
X77891928Y-200908999D01*
X70114740Y-200908999D01*
X70220924Y-200683108D01*
X70287061Y-200416394D01*
X70299895Y-200141903D01*
X70258931Y-199870183D01*
X70165744Y-199611674D01*
X70104025Y-199496206D01*
X69864137Y-199429469D01*
X69079605Y-200214000D01*
X69093748Y-200228142D01*
X68914142Y-200407748D01*
X68900000Y-200393605D01*
X68885858Y-200407748D01*
X68706252Y-200228142D01*
X68720395Y-200214000D01*
X67935863Y-199429469D01*
X67695975Y-199496206D01*
X67630400Y-199635707D01*
X67596233Y-199553220D01*
X67443567Y-199324739D01*
X67368691Y-199249863D01*
X68115469Y-199249863D01*
X68900000Y-200034395D01*
X69684531Y-199249863D01*
X69617794Y-199009975D01*
X69369108Y-198893076D01*
X69102394Y-198826939D01*
X68827903Y-198814105D01*
X68556183Y-198855069D01*
X68297674Y-198948256D01*
X68182206Y-199009975D01*
X68115469Y-199249863D01*
X67368691Y-199249863D01*
X67249261Y-199130433D01*
X67020780Y-198977767D01*
X66766907Y-198872609D01*
X66497396Y-198819000D01*
X66222604Y-198819000D01*
X65953093Y-198872609D01*
X65699220Y-198977767D01*
X65470739Y-199130433D01*
X65276433Y-199324739D01*
X65214474Y-199417467D01*
X65205812Y-199329518D01*
X65169502Y-199209820D01*
X65110537Y-199099506D01*
X65031185Y-199002815D01*
X64934494Y-198923463D01*
X64824180Y-198864498D01*
X64704482Y-198828188D01*
X64580000Y-198815928D01*
X63060000Y-198815928D01*
X62935518Y-198828188D01*
X62815820Y-198864498D01*
X62705506Y-198923463D01*
X62608815Y-199002815D01*
X62529463Y-199099506D01*
X62470498Y-199209820D01*
X62434188Y-199329518D01*
X62421928Y-199454000D01*
X50444000Y-199454000D01*
X50444000Y-177583970D01*
X53686613Y-177583970D01*
X53686613Y-178016030D01*
X53770904Y-178439787D01*
X53936246Y-178838958D01*
X54176285Y-179198203D01*
X54481797Y-179503715D01*
X54841042Y-179743754D01*
X55240213Y-179909096D01*
X55663970Y-179993387D01*
X56096030Y-179993387D01*
X56519787Y-179909096D01*
X56918958Y-179743754D01*
X57278203Y-179503715D01*
X57583715Y-179198203D01*
X57823754Y-178838958D01*
X57989096Y-178439787D01*
X58073387Y-178016030D01*
X58073387Y-177583970D01*
X57989096Y-177160213D01*
X57823754Y-176761042D01*
X57583715Y-176401797D01*
X57278203Y-176096285D01*
X56918958Y-175856246D01*
X56519787Y-175690904D01*
X56096030Y-175606613D01*
X55663970Y-175606613D01*
X55240213Y-175690904D01*
X54841042Y-175856246D01*
X54481797Y-176096285D01*
X54176285Y-176401797D01*
X53936246Y-176761042D01*
X53770904Y-177160213D01*
X53686613Y-177583970D01*
X50444000Y-177583970D01*
X50444000Y-163596967D01*
X87623000Y-163596967D01*
X87623000Y-163919033D01*
X87685832Y-164234912D01*
X87809082Y-164532463D01*
X87988013Y-164800252D01*
X88215748Y-165027987D01*
X88483537Y-165206918D01*
X88781088Y-165330168D01*
X89096967Y-165393000D01*
X89419033Y-165393000D01*
X89734912Y-165330168D01*
X90032463Y-165206918D01*
X90300252Y-165027987D01*
X90527987Y-164800252D01*
X90706918Y-164532463D01*
X90830168Y-164234912D01*
X90893000Y-163919033D01*
X90893000Y-163596967D01*
X94123000Y-163596967D01*
X94123000Y-163919033D01*
X94185832Y-164234912D01*
X94309082Y-164532463D01*
X94488013Y-164800252D01*
X94715748Y-165027987D01*
X94983537Y-165206918D01*
X95281088Y-165330168D01*
X95596967Y-165393000D01*
X95919033Y-165393000D01*
X96234912Y-165330168D01*
X96532463Y-165206918D01*
X96800252Y-165027987D01*
X97027987Y-164800252D01*
X97206918Y-164532463D01*
X97330168Y-164234912D01*
X97393000Y-163919033D01*
X97393000Y-163596967D01*
X97330168Y-163281088D01*
X97206918Y-162983537D01*
X97027987Y-162715748D01*
X96800252Y-162488013D01*
X96532463Y-162309082D01*
X96234912Y-162185832D01*
X95919033Y-162123000D01*
X95596967Y-162123000D01*
X95281088Y-162185832D01*
X94983537Y-162309082D01*
X94715748Y-162488013D01*
X94488013Y-162715748D01*
X94309082Y-162983537D01*
X94185832Y-163281088D01*
X94123000Y-163596967D01*
X90893000Y-163596967D01*
X90830168Y-163281088D01*
X90706918Y-162983537D01*
X90527987Y-162715748D01*
X90300252Y-162488013D01*
X90032463Y-162309082D01*
X89734912Y-162185832D01*
X89419033Y-162123000D01*
X89096967Y-162123000D01*
X88781088Y-162185832D01*
X88483537Y-162309082D01*
X88215748Y-162488013D01*
X87988013Y-162715748D01*
X87809082Y-162983537D01*
X87685832Y-163281088D01*
X87623000Y-163596967D01*
X50444000Y-163596967D01*
X50444000Y-158344890D01*
X53422524Y-158344890D01*
X53467175Y-158492099D01*
X53592359Y-158754920D01*
X53766412Y-158988269D01*
X53982645Y-159183178D01*
X54232748Y-159332157D01*
X54507109Y-159429481D01*
X54737000Y-159308814D01*
X54737000Y-158115000D01*
X54991000Y-158115000D01*
X54991000Y-159308814D01*
X55220891Y-159429481D01*
X55495252Y-159332157D01*
X55745355Y-159183178D01*
X55840997Y-159096967D01*
X87623000Y-159096967D01*
X87623000Y-159419033D01*
X87685832Y-159734912D01*
X87809082Y-160032463D01*
X87988013Y-160300252D01*
X88215748Y-160527987D01*
X88483537Y-160706918D01*
X88781088Y-160830168D01*
X89096967Y-160893000D01*
X89419033Y-160893000D01*
X89734912Y-160830168D01*
X90032463Y-160706918D01*
X90300252Y-160527987D01*
X90527987Y-160300252D01*
X90706918Y-160032463D01*
X90830168Y-159734912D01*
X90893000Y-159419033D01*
X90893000Y-159096967D01*
X94123000Y-159096967D01*
X94123000Y-159419033D01*
X94185832Y-159734912D01*
X94309082Y-160032463D01*
X94488013Y-160300252D01*
X94715748Y-160527987D01*
X94983537Y-160706918D01*
X95281088Y-160830168D01*
X95596967Y-160893000D01*
X95919033Y-160893000D01*
X96234912Y-160830168D01*
X96532463Y-160706918D01*
X96800252Y-160527987D01*
X97027987Y-160300252D01*
X97206918Y-160032463D01*
X97330168Y-159734912D01*
X97393000Y-159419033D01*
X97393000Y-159096967D01*
X97330168Y-158781088D01*
X97206918Y-158483537D01*
X97027987Y-158215748D01*
X96800252Y-157988013D01*
X96532463Y-157809082D01*
X96234912Y-157685832D01*
X95919033Y-157623000D01*
X95596967Y-157623000D01*
X95281088Y-157685832D01*
X94983537Y-157809082D01*
X94715748Y-157988013D01*
X94488013Y-158215748D01*
X94309082Y-158483537D01*
X94185832Y-158781088D01*
X94123000Y-159096967D01*
X90893000Y-159096967D01*
X90830168Y-158781088D01*
X90706918Y-158483537D01*
X90527987Y-158215748D01*
X90300252Y-157988013D01*
X90032463Y-157809082D01*
X89734912Y-157685832D01*
X89419033Y-157623000D01*
X89096967Y-157623000D01*
X88781088Y-157685832D01*
X88483537Y-157809082D01*
X88215748Y-157988013D01*
X87988013Y-158215748D01*
X87809082Y-158483537D01*
X87685832Y-158781088D01*
X87623000Y-159096967D01*
X55840997Y-159096967D01*
X55961588Y-158988269D01*
X56135641Y-158754920D01*
X56260825Y-158492099D01*
X56305476Y-158344890D01*
X56184155Y-158115000D01*
X54991000Y-158115000D01*
X54737000Y-158115000D01*
X53543845Y-158115000D01*
X53422524Y-158344890D01*
X50444000Y-158344890D01*
X50444000Y-132588000D01*
X53371815Y-132588000D01*
X53400487Y-132879111D01*
X53485401Y-133159034D01*
X53623294Y-133417014D01*
X53808866Y-133643134D01*
X54034986Y-133828706D01*
X54089791Y-133858000D01*
X54034986Y-133887294D01*
X53808866Y-134072866D01*
X53623294Y-134298986D01*
X53485401Y-134556966D01*
X53400487Y-134836889D01*
X53371815Y-135128000D01*
X53400487Y-135419111D01*
X53485401Y-135699034D01*
X53623294Y-135957014D01*
X53808866Y-136183134D01*
X54034986Y-136368706D01*
X54089791Y-136398000D01*
X54034986Y-136427294D01*
X53808866Y-136612866D01*
X53623294Y-136838986D01*
X53485401Y-137096966D01*
X53400487Y-137376889D01*
X53371815Y-137668000D01*
X53400487Y-137959111D01*
X53485401Y-138239034D01*
X53623294Y-138497014D01*
X53808866Y-138723134D01*
X54034986Y-138908706D01*
X54089791Y-138938000D01*
X54034986Y-138967294D01*
X53808866Y-139152866D01*
X53623294Y-139378986D01*
X53485401Y-139636966D01*
X53400487Y-139916889D01*
X53371815Y-140208000D01*
X53400487Y-140499111D01*
X53485401Y-140779034D01*
X53623294Y-141037014D01*
X53808866Y-141263134D01*
X54034986Y-141448706D01*
X54089791Y-141478000D01*
X54034986Y-141507294D01*
X53808866Y-141692866D01*
X53623294Y-141918986D01*
X53485401Y-142176966D01*
X53400487Y-142456889D01*
X53371815Y-142748000D01*
X53400487Y-143039111D01*
X53485401Y-143319034D01*
X53623294Y-143577014D01*
X53808866Y-143803134D01*
X54034986Y-143988706D01*
X54089791Y-144018000D01*
X54034986Y-144047294D01*
X53808866Y-144232866D01*
X53623294Y-144458986D01*
X53485401Y-144716966D01*
X53400487Y-144996889D01*
X53371815Y-145288000D01*
X53400487Y-145579111D01*
X53485401Y-145859034D01*
X53623294Y-146117014D01*
X53808866Y-146343134D01*
X54034986Y-146528706D01*
X54089791Y-146558000D01*
X54034986Y-146587294D01*
X53808866Y-146772866D01*
X53623294Y-146998986D01*
X53485401Y-147256966D01*
X53400487Y-147536889D01*
X53371815Y-147828000D01*
X53400487Y-148119111D01*
X53485401Y-148399034D01*
X53623294Y-148657014D01*
X53808866Y-148883134D01*
X54034986Y-149068706D01*
X54089791Y-149098000D01*
X54034986Y-149127294D01*
X53808866Y-149312866D01*
X53623294Y-149538986D01*
X53485401Y-149796966D01*
X53400487Y-150076889D01*
X53371815Y-150368000D01*
X53400487Y-150659111D01*
X53485401Y-150939034D01*
X53623294Y-151197014D01*
X53808866Y-151423134D01*
X54034986Y-151608706D01*
X54089791Y-151638000D01*
X54034986Y-151667294D01*
X53808866Y-151852866D01*
X53623294Y-152078986D01*
X53485401Y-152336966D01*
X53400487Y-152616889D01*
X53371815Y-152908000D01*
X53400487Y-153199111D01*
X53485401Y-153479034D01*
X53623294Y-153737014D01*
X53808866Y-153963134D01*
X54034986Y-154148706D01*
X54089791Y-154178000D01*
X54034986Y-154207294D01*
X53808866Y-154392866D01*
X53623294Y-154618986D01*
X53485401Y-154876966D01*
X53400487Y-155156889D01*
X53371815Y-155448000D01*
X53400487Y-155739111D01*
X53485401Y-156019034D01*
X53623294Y-156277014D01*
X53808866Y-156503134D01*
X54034986Y-156688706D01*
X54099523Y-156723201D01*
X53982645Y-156792822D01*
X53766412Y-156987731D01*
X53592359Y-157221080D01*
X53467175Y-157483901D01*
X53422524Y-157631110D01*
X53543845Y-157861000D01*
X54737000Y-157861000D01*
X54737000Y-157841000D01*
X54991000Y-157841000D01*
X54991000Y-157861000D01*
X56184155Y-157861000D01*
X56305476Y-157631110D01*
X56260825Y-157483901D01*
X56135641Y-157221080D01*
X55961588Y-156987731D01*
X55745355Y-156792822D01*
X55628477Y-156723201D01*
X55693014Y-156688706D01*
X55919134Y-156503134D01*
X56104706Y-156277014D01*
X56242599Y-156019034D01*
X56327513Y-155739111D01*
X56356185Y-155448000D01*
X56327513Y-155156889D01*
X56242599Y-154876966D01*
X56104706Y-154618986D01*
X55919134Y-154392866D01*
X55693014Y-154207294D01*
X55638209Y-154178000D01*
X55693014Y-154148706D01*
X55919134Y-153963134D01*
X56104706Y-153737014D01*
X56242599Y-153479034D01*
X56327513Y-153199111D01*
X56356185Y-152908000D01*
X56327513Y-152616889D01*
X56242599Y-152336966D01*
X56104706Y-152078986D01*
X55919134Y-151852866D01*
X55693014Y-151667294D01*
X55638209Y-151638000D01*
X55693014Y-151608706D01*
X55919134Y-151423134D01*
X56104706Y-151197014D01*
X56242599Y-150939034D01*
X56327513Y-150659111D01*
X56356185Y-150368000D01*
X56327513Y-150076889D01*
X56242599Y-149796966D01*
X56104706Y-149538986D01*
X55919134Y-149312866D01*
X55693014Y-149127294D01*
X55638209Y-149098000D01*
X55693014Y-149068706D01*
X55919134Y-148883134D01*
X56104706Y-148657014D01*
X56161906Y-148550000D01*
X79961928Y-148550000D01*
X79974188Y-148674482D01*
X80010498Y-148794180D01*
X80069463Y-148904494D01*
X80148815Y-149001185D01*
X80245506Y-149080537D01*
X80355820Y-149139502D01*
X80475518Y-149175812D01*
X80600000Y-149188072D01*
X81164250Y-149185000D01*
X81323000Y-149026250D01*
X81323000Y-147827000D01*
X81577000Y-147827000D01*
X81577000Y-149026250D01*
X81735750Y-149185000D01*
X82300000Y-149188072D01*
X82424482Y-149175812D01*
X82544180Y-149139502D01*
X82654494Y-149080537D01*
X82751185Y-149001185D01*
X82830537Y-148904494D01*
X82889502Y-148794180D01*
X82925812Y-148674482D01*
X82938072Y-148550000D01*
X82936907Y-148336000D01*
X88931815Y-148336000D01*
X88960487Y-148627111D01*
X89045401Y-148907034D01*
X89183294Y-149165014D01*
X89368866Y-149391134D01*
X89398687Y-149415607D01*
X89329820Y-149436498D01*
X89219506Y-149495463D01*
X89122815Y-149574815D01*
X89043463Y-149671506D01*
X88984498Y-149781820D01*
X88948188Y-149901518D01*
X88935928Y-150026000D01*
X88935928Y-151726000D01*
X88948188Y-151850482D01*
X88984498Y-151970180D01*
X89043463Y-152080494D01*
X89122815Y-152177185D01*
X89219506Y-152256537D01*
X89329820Y-152315502D01*
X89449518Y-152351812D01*
X89574000Y-152364072D01*
X91274000Y-152364072D01*
X91398482Y-152351812D01*
X91518180Y-152315502D01*
X91628494Y-152256537D01*
X91725185Y-152177185D01*
X91804537Y-152080494D01*
X91863502Y-151970180D01*
X91899812Y-151850482D01*
X91912072Y-151726000D01*
X91912072Y-150026000D01*
X91899812Y-149901518D01*
X91863502Y-149781820D01*
X91804537Y-149671506D01*
X91725185Y-149574815D01*
X91628494Y-149495463D01*
X91518180Y-149436498D01*
X91449313Y-149415607D01*
X91479134Y-149391134D01*
X91664706Y-149165014D01*
X91802599Y-148907034D01*
X91887513Y-148627111D01*
X91916185Y-148336000D01*
X91887513Y-148044889D01*
X91802599Y-147764966D01*
X91664706Y-147506986D01*
X91479134Y-147280866D01*
X91253014Y-147095294D01*
X91188477Y-147060799D01*
X91305355Y-146991178D01*
X91521588Y-146796269D01*
X91695641Y-146562920D01*
X91820825Y-146300099D01*
X91865476Y-146152890D01*
X91744155Y-145923000D01*
X90551000Y-145923000D01*
X90551000Y-145943000D01*
X90297000Y-145943000D01*
X90297000Y-145923000D01*
X89103845Y-145923000D01*
X88982524Y-146152890D01*
X89027175Y-146300099D01*
X89152359Y-146562920D01*
X89326412Y-146796269D01*
X89542645Y-146991178D01*
X89659523Y-147060799D01*
X89594986Y-147095294D01*
X89368866Y-147280866D01*
X89183294Y-147506986D01*
X89045401Y-147764966D01*
X88960487Y-148044889D01*
X88931815Y-148336000D01*
X82936907Y-148336000D01*
X82935000Y-147985750D01*
X82776250Y-147827000D01*
X81577000Y-147827000D01*
X81323000Y-147827000D01*
X80123750Y-147827000D01*
X79965000Y-147985750D01*
X79961928Y-148550000D01*
X56161906Y-148550000D01*
X56242599Y-148399034D01*
X56327513Y-148119111D01*
X56356185Y-147828000D01*
X56327513Y-147536889D01*
X56242599Y-147256966D01*
X56104706Y-146998986D01*
X55919134Y-146772866D01*
X55693014Y-146587294D01*
X55638209Y-146558000D01*
X55693014Y-146528706D01*
X55919134Y-146343134D01*
X56104706Y-146117014D01*
X56242599Y-145859034D01*
X56327513Y-145579111D01*
X56356185Y-145288000D01*
X56327513Y-144996889D01*
X56242599Y-144716966D01*
X56104706Y-144458986D01*
X55919134Y-144232866D01*
X55693014Y-144047294D01*
X55638209Y-144018000D01*
X55693014Y-143988706D01*
X55919134Y-143803134D01*
X56104706Y-143577014D01*
X56242599Y-143319034D01*
X56327513Y-143039111D01*
X56356185Y-142748000D01*
X56327513Y-142456889D01*
X56242599Y-142176966D01*
X56104706Y-141918986D01*
X55919134Y-141692866D01*
X55693014Y-141507294D01*
X55638209Y-141478000D01*
X55693014Y-141448706D01*
X55919134Y-141263134D01*
X56104706Y-141037014D01*
X56242599Y-140779034D01*
X56327513Y-140499111D01*
X56356185Y-140208000D01*
X56327513Y-139916889D01*
X56242599Y-139636966D01*
X56104706Y-139378986D01*
X55919134Y-139152866D01*
X55693014Y-138967294D01*
X55638209Y-138938000D01*
X55693014Y-138908706D01*
X55919134Y-138723134D01*
X56104706Y-138497014D01*
X56242599Y-138239034D01*
X56327513Y-137959111D01*
X56356185Y-137668000D01*
X56327513Y-137376889D01*
X56242599Y-137096966D01*
X56104706Y-136838986D01*
X55919134Y-136612866D01*
X55693014Y-136427294D01*
X55638209Y-136398000D01*
X55693014Y-136368706D01*
X55919134Y-136183134D01*
X56104706Y-135957014D01*
X56242599Y-135699034D01*
X56327513Y-135419111D01*
X56356185Y-135128000D01*
X56343579Y-135000000D01*
X79957815Y-135000000D01*
X79986487Y-135291111D01*
X80071401Y-135571034D01*
X80209294Y-135829014D01*
X80394866Y-136055134D01*
X80620986Y-136240706D01*
X80675791Y-136270000D01*
X80620986Y-136299294D01*
X80394866Y-136484866D01*
X80209294Y-136710986D01*
X80071401Y-136968966D01*
X79986487Y-137248889D01*
X79957815Y-137540000D01*
X79986487Y-137831111D01*
X80071401Y-138111034D01*
X80209294Y-138369014D01*
X80394866Y-138595134D01*
X80620986Y-138780706D01*
X80675791Y-138810000D01*
X80620986Y-138839294D01*
X80394866Y-139024866D01*
X80209294Y-139250986D01*
X80071401Y-139508966D01*
X79986487Y-139788889D01*
X79957815Y-140080000D01*
X79986487Y-140371111D01*
X80071401Y-140651034D01*
X80209294Y-140909014D01*
X80394866Y-141135134D01*
X80620986Y-141320706D01*
X80675791Y-141350000D01*
X80620986Y-141379294D01*
X80394866Y-141564866D01*
X80209294Y-141790986D01*
X80071401Y-142048966D01*
X79986487Y-142328889D01*
X79957815Y-142620000D01*
X79986487Y-142911111D01*
X80071401Y-143191034D01*
X80209294Y-143449014D01*
X80394866Y-143675134D01*
X80620986Y-143860706D01*
X80675791Y-143890000D01*
X80620986Y-143919294D01*
X80394866Y-144104866D01*
X80209294Y-144330986D01*
X80071401Y-144588966D01*
X79986487Y-144868889D01*
X79957815Y-145160000D01*
X79986487Y-145451111D01*
X80071401Y-145731034D01*
X80209294Y-145989014D01*
X80394866Y-146215134D01*
X80424687Y-146239607D01*
X80355820Y-146260498D01*
X80245506Y-146319463D01*
X80148815Y-146398815D01*
X80069463Y-146495506D01*
X80010498Y-146605820D01*
X79974188Y-146725518D01*
X79961928Y-146850000D01*
X79965000Y-147414250D01*
X80123750Y-147573000D01*
X81323000Y-147573000D01*
X81323000Y-147553000D01*
X81577000Y-147553000D01*
X81577000Y-147573000D01*
X82776250Y-147573000D01*
X82935000Y-147414250D01*
X82938072Y-146850000D01*
X82925812Y-146725518D01*
X82889502Y-146605820D01*
X82830537Y-146495506D01*
X82751185Y-146398815D01*
X82654494Y-146319463D01*
X82544180Y-146260498D01*
X82475313Y-146239607D01*
X82505134Y-146215134D01*
X82690706Y-145989014D01*
X82828599Y-145731034D01*
X82913513Y-145451111D01*
X82942185Y-145160000D01*
X82913513Y-144868889D01*
X82828599Y-144588966D01*
X82690706Y-144330986D01*
X82505134Y-144104866D01*
X82279014Y-143919294D01*
X82224209Y-143890000D01*
X82279014Y-143860706D01*
X82505134Y-143675134D01*
X82690706Y-143449014D01*
X82828599Y-143191034D01*
X82913513Y-142911111D01*
X82942185Y-142620000D01*
X82913513Y-142328889D01*
X82828599Y-142048966D01*
X82690706Y-141790986D01*
X82505134Y-141564866D01*
X82279014Y-141379294D01*
X82224209Y-141350000D01*
X82279014Y-141320706D01*
X82505134Y-141135134D01*
X82690706Y-140909014D01*
X82828599Y-140651034D01*
X82913513Y-140371111D01*
X82942185Y-140080000D01*
X82913513Y-139788889D01*
X82828599Y-139508966D01*
X82690706Y-139250986D01*
X82505134Y-139024866D01*
X82279014Y-138839294D01*
X82224209Y-138810000D01*
X82279014Y-138780706D01*
X82505134Y-138595134D01*
X82690706Y-138369014D01*
X82793873Y-138176000D01*
X88931815Y-138176000D01*
X88960487Y-138467111D01*
X89045401Y-138747034D01*
X89183294Y-139005014D01*
X89368866Y-139231134D01*
X89594986Y-139416706D01*
X89649791Y-139446000D01*
X89594986Y-139475294D01*
X89368866Y-139660866D01*
X89183294Y-139886986D01*
X89045401Y-140144966D01*
X88960487Y-140424889D01*
X88931815Y-140716000D01*
X88960487Y-141007111D01*
X89045401Y-141287034D01*
X89183294Y-141545014D01*
X89368866Y-141771134D01*
X89594986Y-141956706D01*
X89649791Y-141986000D01*
X89594986Y-142015294D01*
X89368866Y-142200866D01*
X89183294Y-142426986D01*
X89045401Y-142684966D01*
X88960487Y-142964889D01*
X88931815Y-143256000D01*
X88960487Y-143547111D01*
X89045401Y-143827034D01*
X89183294Y-144085014D01*
X89368866Y-144311134D01*
X89594986Y-144496706D01*
X89659523Y-144531201D01*
X89542645Y-144600822D01*
X89326412Y-144795731D01*
X89152359Y-145029080D01*
X89027175Y-145291901D01*
X88982524Y-145439110D01*
X89103845Y-145669000D01*
X90297000Y-145669000D01*
X90297000Y-145649000D01*
X90551000Y-145649000D01*
X90551000Y-145669000D01*
X91744155Y-145669000D01*
X91865476Y-145439110D01*
X91820825Y-145291901D01*
X91695641Y-145029080D01*
X91521588Y-144795731D01*
X91305355Y-144600822D01*
X91188477Y-144531201D01*
X91253014Y-144496706D01*
X91479134Y-144311134D01*
X91664706Y-144085014D01*
X91802599Y-143827034D01*
X91887513Y-143547111D01*
X91916185Y-143256000D01*
X91887513Y-142964889D01*
X91802599Y-142684966D01*
X91664706Y-142426986D01*
X91479134Y-142200866D01*
X91253014Y-142015294D01*
X91198209Y-141986000D01*
X91253014Y-141956706D01*
X91479134Y-141771134D01*
X91664706Y-141545014D01*
X91802599Y-141287034D01*
X91887513Y-141007111D01*
X91916185Y-140716000D01*
X91887513Y-140424889D01*
X91802599Y-140144966D01*
X91664706Y-139886986D01*
X91479134Y-139660866D01*
X91253014Y-139475294D01*
X91198209Y-139446000D01*
X91253014Y-139416706D01*
X91479134Y-139231134D01*
X91664706Y-139005014D01*
X91802599Y-138747034D01*
X91887513Y-138467111D01*
X91916185Y-138176000D01*
X91887513Y-137884889D01*
X91802599Y-137604966D01*
X91664706Y-137346986D01*
X91479134Y-137120866D01*
X91253014Y-136935294D01*
X90995034Y-136797401D01*
X90715111Y-136712487D01*
X90496950Y-136691000D01*
X90351050Y-136691000D01*
X90132889Y-136712487D01*
X89852966Y-136797401D01*
X89594986Y-136935294D01*
X89368866Y-137120866D01*
X89183294Y-137346986D01*
X89045401Y-137604966D01*
X88960487Y-137884889D01*
X88931815Y-138176000D01*
X82793873Y-138176000D01*
X82828599Y-138111034D01*
X82913513Y-137831111D01*
X82942185Y-137540000D01*
X82913513Y-137248889D01*
X82828599Y-136968966D01*
X82690706Y-136710986D01*
X82505134Y-136484866D01*
X82279014Y-136299294D01*
X82224209Y-136270000D01*
X82279014Y-136240706D01*
X82505134Y-136055134D01*
X82690706Y-135829014D01*
X82828599Y-135571034D01*
X82913513Y-135291111D01*
X82942185Y-135000000D01*
X82913513Y-134708889D01*
X82828599Y-134428966D01*
X82690706Y-134170986D01*
X82505134Y-133944866D01*
X82279014Y-133759294D01*
X82021034Y-133621401D01*
X81741111Y-133536487D01*
X81522950Y-133515000D01*
X81377050Y-133515000D01*
X81158889Y-133536487D01*
X80878966Y-133621401D01*
X80620986Y-133759294D01*
X80394866Y-133944866D01*
X80209294Y-134170986D01*
X80071401Y-134428966D01*
X79986487Y-134708889D01*
X79957815Y-135000000D01*
X56343579Y-135000000D01*
X56327513Y-134836889D01*
X56242599Y-134556966D01*
X56104706Y-134298986D01*
X55919134Y-134072866D01*
X55693014Y-133887294D01*
X55638209Y-133858000D01*
X55693014Y-133828706D01*
X55919134Y-133643134D01*
X56104706Y-133417014D01*
X56242599Y-133159034D01*
X56327513Y-132879111D01*
X56356185Y-132588000D01*
X56327513Y-132296889D01*
X56242599Y-132016966D01*
X56104706Y-131758986D01*
X55919134Y-131532866D01*
X55889313Y-131508393D01*
X55958180Y-131487502D01*
X56068494Y-131428537D01*
X56165185Y-131349185D01*
X56244537Y-131252494D01*
X56303502Y-131142180D01*
X56339812Y-131022482D01*
X56352072Y-130898000D01*
X56352072Y-129321910D01*
X96845692Y-129321910D01*
X96845692Y-129758090D01*
X96930787Y-130185890D01*
X97097706Y-130588868D01*
X97340035Y-130951539D01*
X97648461Y-131259965D01*
X98011132Y-131502294D01*
X98414110Y-131669213D01*
X98841910Y-131754308D01*
X99278090Y-131754308D01*
X99705890Y-131669213D01*
X100108868Y-131502294D01*
X100471539Y-131259965D01*
X100779965Y-130951539D01*
X101022294Y-130588868D01*
X101189213Y-130185890D01*
X101274308Y-129758090D01*
X101274308Y-129321910D01*
X101189213Y-128894110D01*
X101022294Y-128491132D01*
X100779965Y-128128461D01*
X100471539Y-127820035D01*
X100108868Y-127577706D01*
X99705890Y-127410787D01*
X99278090Y-127325692D01*
X98841910Y-127325692D01*
X98414110Y-127410787D01*
X98011132Y-127577706D01*
X97648461Y-127820035D01*
X97340035Y-128128461D01*
X97097706Y-128491132D01*
X96930787Y-128894110D01*
X96845692Y-129321910D01*
X56352072Y-129321910D01*
X56352072Y-129198000D01*
X56339812Y-129073518D01*
X56303502Y-128953820D01*
X56244537Y-128843506D01*
X56165185Y-128746815D01*
X56068494Y-128667463D01*
X55958180Y-128608498D01*
X55838482Y-128572188D01*
X55714000Y-128559928D01*
X54014000Y-128559928D01*
X53889518Y-128572188D01*
X53769820Y-128608498D01*
X53659506Y-128667463D01*
X53562815Y-128746815D01*
X53483463Y-128843506D01*
X53424498Y-128953820D01*
X53388188Y-129073518D01*
X53375928Y-129198000D01*
X53375928Y-130898000D01*
X53388188Y-131022482D01*
X53424498Y-131142180D01*
X53483463Y-131252494D01*
X53562815Y-131349185D01*
X53659506Y-131428537D01*
X53769820Y-131487502D01*
X53838687Y-131508393D01*
X53808866Y-131532866D01*
X53623294Y-131758986D01*
X53485401Y-132016966D01*
X53400487Y-132296889D01*
X53371815Y-132588000D01*
X50444000Y-132588000D01*
X50444000Y-126136000D01*
X102464000Y-126136000D01*
X102464001Y-215240000D01*
M02*
