G04 #@! TF.GenerationSoftware,KiCad,Pcbnew,(5.1.4)-1*
G04 #@! TF.CreationDate,2019-11-01T17:51:28+00:00*
G04 #@! TF.ProjectId,canbus_boiler_switch,63616e62-7573-45f6-926f-696c65725f73,rev?*
G04 #@! TF.SameCoordinates,Original*
G04 #@! TF.FileFunction,Legend,Top*
G04 #@! TF.FilePolarity,Positive*
%FSLAX46Y46*%
G04 Gerber Fmt 4.6, Leading zero omitted, Abs format (unit mm)*
G04 Created by KiCad (PCBNEW (5.1.4)-1) date 2019-11-01 17:51:28*
%MOMM*%
%LPD*%
G04 APERTURE LIST*
%ADD10C,0.120000*%
%ADD11C,0.100000*%
%ADD12C,0.200000*%
%ADD13C,0.150000*%
%ADD14C,0.254000*%
G04 APERTURE END LIST*
D10*
X82780000Y-149030000D02*
X81450000Y-149030000D01*
X82780000Y-147700000D02*
X82780000Y-149030000D01*
X82780000Y-146430000D02*
X80120000Y-146430000D01*
X80120000Y-146430000D02*
X80120000Y-133670000D01*
X82780000Y-146430000D02*
X82780000Y-133670000D01*
X82780000Y-133670000D02*
X80120000Y-133670000D01*
X88382000Y-171027000D02*
X88382000Y-187002000D01*
X93482000Y-171027000D02*
X88382000Y-171027000D01*
X93482000Y-187002000D02*
X93482000Y-171027000D01*
X60390000Y-198984000D02*
X73590000Y-198984000D01*
X73590000Y-198984000D02*
X73590000Y-208004000D01*
D11*
X73590000Y-216864000D02*
X73590000Y-216984000D01*
D10*
X73590000Y-216984000D02*
X73590000Y-210204000D01*
D11*
X73590000Y-216974000D02*
X73590000Y-216984000D01*
D10*
X73590000Y-216984000D02*
X60390000Y-216984000D01*
X60390000Y-216984000D02*
X60390000Y-210204000D01*
D11*
X60390000Y-207934000D02*
X60390000Y-208004000D01*
D10*
X60390000Y-208004000D02*
X60390000Y-198984000D01*
X59920000Y-200984000D02*
X59920000Y-199454000D01*
D12*
X76569000Y-147233000D02*
X74719000Y-147233000D01*
X74369000Y-129353000D02*
X74369000Y-147253000D01*
X67569000Y-129353000D02*
X74369000Y-129353000D01*
X67569000Y-147253000D02*
X67569000Y-129353000D01*
X74369000Y-147253000D02*
X67569000Y-147253000D01*
D10*
X75860000Y-198984000D02*
X89060000Y-198984000D01*
X89060000Y-198984000D02*
X89060000Y-208004000D01*
D11*
X89060000Y-216864000D02*
X89060000Y-216984000D01*
D10*
X89060000Y-216984000D02*
X89060000Y-210204000D01*
D11*
X89060000Y-216974000D02*
X89060000Y-216984000D01*
D10*
X89060000Y-216984000D02*
X75860000Y-216984000D01*
X75860000Y-216984000D02*
X75860000Y-210204000D01*
D11*
X75860000Y-207934000D02*
X75860000Y-208004000D01*
D10*
X75860000Y-208004000D02*
X75860000Y-198984000D01*
X75390000Y-200984000D02*
X75390000Y-199454000D01*
X73914000Y-193695000D02*
X77364000Y-193695000D01*
X73914000Y-193695000D02*
X71964000Y-193695000D01*
X73914000Y-188575000D02*
X75864000Y-188575000D01*
X73914000Y-188575000D02*
X71964000Y-188575000D01*
X89008000Y-160758000D02*
X89008000Y-162258000D01*
X90258000Y-164758000D02*
X94758000Y-164758000D01*
X96008000Y-162258000D02*
X96008000Y-160758000D01*
X94758000Y-158258000D02*
X90258000Y-158258000D01*
X54864000Y-128718000D02*
X56194000Y-128718000D01*
X56194000Y-128718000D02*
X56194000Y-130048000D01*
X56194000Y-131318000D02*
X56194000Y-159318000D01*
X53534000Y-159318000D02*
X56194000Y-159318000D01*
X53534000Y-131318000D02*
X53534000Y-159318000D01*
X53534000Y-131318000D02*
X56194000Y-131318000D01*
X72338000Y-181328000D02*
X72338000Y-183143000D01*
X72093000Y-181328000D02*
X72338000Y-181328000D01*
X72093000Y-177468000D02*
X72093000Y-181328000D01*
X72093000Y-173608000D02*
X72338000Y-173608000D01*
X72093000Y-177468000D02*
X72093000Y-173608000D01*
X83863000Y-181328000D02*
X83618000Y-181328000D01*
X83863000Y-177468000D02*
X83863000Y-181328000D01*
X83863000Y-173608000D02*
X83618000Y-173608000D01*
X83863000Y-177468000D02*
X83863000Y-173608000D01*
X83672000Y-148873936D02*
X83672000Y-150078064D01*
X85492000Y-148873936D02*
X85492000Y-150078064D01*
X96372000Y-148873936D02*
X96372000Y-150078064D01*
X98192000Y-148873936D02*
X98192000Y-150078064D01*
X66766064Y-192130000D02*
X65561936Y-192130000D01*
X66766064Y-193950000D02*
X65561936Y-193950000D01*
X72165936Y-158390000D02*
X73370064Y-158390000D01*
X72165936Y-156570000D02*
X73370064Y-156570000D01*
X66069936Y-177948000D02*
X67274064Y-177948000D01*
X66069936Y-176128000D02*
X67274064Y-176128000D01*
X64799936Y-172614000D02*
X66004064Y-172614000D01*
X64799936Y-170794000D02*
X66004064Y-170794000D01*
X63275936Y-167280000D02*
X64480064Y-167280000D01*
X63275936Y-165460000D02*
X64480064Y-165460000D01*
X85054064Y-167746000D02*
X83849936Y-167746000D01*
X85054064Y-169566000D02*
X83849936Y-169566000D01*
X83790064Y-162920000D02*
X82585936Y-162920000D01*
X83790064Y-164740000D02*
X82585936Y-164740000D01*
X82520064Y-158094000D02*
X81315936Y-158094000D01*
X82520064Y-159914000D02*
X81315936Y-159914000D01*
X91754000Y-152206000D02*
X90424000Y-152206000D01*
X91754000Y-150876000D02*
X91754000Y-152206000D01*
X91754000Y-149606000D02*
X89094000Y-149606000D01*
X89094000Y-149606000D02*
X89094000Y-136846000D01*
X91754000Y-149606000D02*
X91754000Y-136846000D01*
X91754000Y-136846000D02*
X89094000Y-136846000D01*
X86519936Y-195728000D02*
X87724064Y-195728000D01*
X86519936Y-193908000D02*
X87724064Y-193908000D01*
X61870000Y-136870064D02*
X61870000Y-135665936D01*
X60050000Y-136870064D02*
X60050000Y-135665936D01*
X64610064Y-149204000D02*
X63405936Y-149204000D01*
X64610064Y-151024000D02*
X63405936Y-151024000D01*
X81682000Y-130520064D02*
X81682000Y-129315936D01*
X79862000Y-130520064D02*
X79862000Y-129315936D01*
X94960064Y-153268000D02*
X93755936Y-153268000D01*
X94960064Y-155088000D02*
X93755936Y-155088000D01*
X80116000Y-192626064D02*
X80116000Y-191421936D01*
X81936000Y-192626064D02*
X81936000Y-191421936D01*
X70641936Y-168804000D02*
X71846064Y-168804000D01*
X70641936Y-166984000D02*
X71846064Y-166984000D01*
X97317936Y-187854000D02*
X98522064Y-187854000D01*
X97317936Y-186034000D02*
X98522064Y-186034000D01*
X97317936Y-176170000D02*
X98522064Y-176170000D01*
X97317936Y-174350000D02*
X98522064Y-174350000D01*
D13*
X81116666Y-149482380D02*
X81116666Y-150196666D01*
X81069047Y-150339523D01*
X80973809Y-150434761D01*
X80830952Y-150482380D01*
X80735714Y-150482380D01*
X82069047Y-149482380D02*
X81592857Y-149482380D01*
X81545238Y-149958571D01*
X81592857Y-149910952D01*
X81688095Y-149863333D01*
X81926190Y-149863333D01*
X82021428Y-149910952D01*
X82069047Y-149958571D01*
X82116666Y-150053809D01*
X82116666Y-150291904D01*
X82069047Y-150387142D01*
X82021428Y-150434761D01*
X81926190Y-150482380D01*
X81688095Y-150482380D01*
X81592857Y-150434761D01*
X81545238Y-150387142D01*
X94458190Y-181578190D02*
X94934380Y-181578190D01*
X93934380Y-181911523D02*
X94458190Y-181578190D01*
X93934380Y-181244857D01*
X94934380Y-180387714D02*
X94934380Y-180959142D01*
X94934380Y-180673428D02*
X93934380Y-180673428D01*
X94077238Y-180768666D01*
X94172476Y-180863904D01*
X94220095Y-180959142D01*
X61816666Y-197506380D02*
X61816666Y-198220666D01*
X61769047Y-198363523D01*
X61673809Y-198458761D01*
X61530952Y-198506380D01*
X61435714Y-198506380D01*
X62197619Y-197506380D02*
X62816666Y-197506380D01*
X62483333Y-197887333D01*
X62626190Y-197887333D01*
X62721428Y-197934952D01*
X62769047Y-197982571D01*
X62816666Y-198077809D01*
X62816666Y-198315904D01*
X62769047Y-198411142D01*
X62721428Y-198458761D01*
X62626190Y-198506380D01*
X62340476Y-198506380D01*
X62245238Y-198458761D01*
X62197619Y-198411142D01*
D14*
X70745238Y-154371523D02*
X70745238Y-153101523D01*
X72075714Y-154250571D02*
X72015238Y-154311047D01*
X71833809Y-154371523D01*
X71712857Y-154371523D01*
X71531428Y-154311047D01*
X71410476Y-154190095D01*
X71350000Y-154069142D01*
X71289523Y-153827238D01*
X71289523Y-153645809D01*
X71350000Y-153403904D01*
X71410476Y-153282952D01*
X71531428Y-153162000D01*
X71712857Y-153101523D01*
X71833809Y-153101523D01*
X72015238Y-153162000D01*
X72075714Y-153222476D01*
X73285238Y-154371523D02*
X72559523Y-154371523D01*
X72922380Y-154371523D02*
X72922380Y-153101523D01*
X72801428Y-153282952D01*
X72680476Y-153403904D01*
X72559523Y-153464380D01*
D13*
X77286666Y-197506380D02*
X77286666Y-198220666D01*
X77239047Y-198363523D01*
X77143809Y-198458761D01*
X77000952Y-198506380D01*
X76905714Y-198506380D01*
X77715238Y-197601619D02*
X77762857Y-197554000D01*
X77858095Y-197506380D01*
X78096190Y-197506380D01*
X78191428Y-197554000D01*
X78239047Y-197601619D01*
X78286666Y-197696857D01*
X78286666Y-197792095D01*
X78239047Y-197934952D01*
X77667619Y-198506380D01*
X78286666Y-198506380D01*
X73152095Y-193987380D02*
X73152095Y-194796904D01*
X73199714Y-194892142D01*
X73247333Y-194939761D01*
X73342571Y-194987380D01*
X73533047Y-194987380D01*
X73628285Y-194939761D01*
X73675904Y-194892142D01*
X73723523Y-194796904D01*
X73723523Y-193987380D01*
X74152095Y-194082619D02*
X74199714Y-194035000D01*
X74294952Y-193987380D01*
X74533047Y-193987380D01*
X74628285Y-194035000D01*
X74675904Y-194082619D01*
X74723523Y-194177857D01*
X74723523Y-194273095D01*
X74675904Y-194415952D01*
X74104476Y-194987380D01*
X74723523Y-194987380D01*
X91174666Y-166162761D02*
X91317523Y-166210380D01*
X91555619Y-166210380D01*
X91650857Y-166162761D01*
X91698476Y-166115142D01*
X91746095Y-166019904D01*
X91746095Y-165924666D01*
X91698476Y-165829428D01*
X91650857Y-165781809D01*
X91555619Y-165734190D01*
X91365142Y-165686571D01*
X91269904Y-165638952D01*
X91222285Y-165591333D01*
X91174666Y-165496095D01*
X91174666Y-165400857D01*
X91222285Y-165305619D01*
X91269904Y-165258000D01*
X91365142Y-165210380D01*
X91603238Y-165210380D01*
X91746095Y-165258000D01*
X92079428Y-165210380D02*
X92317523Y-166210380D01*
X92508000Y-165496095D01*
X92698476Y-166210380D01*
X92936571Y-165210380D01*
X93841333Y-166210380D02*
X93269904Y-166210380D01*
X93555619Y-166210380D02*
X93555619Y-165210380D01*
X93460380Y-165353238D01*
X93365142Y-165448476D01*
X93269904Y-165496095D01*
X54530666Y-126730380D02*
X54530666Y-127444666D01*
X54483047Y-127587523D01*
X54387809Y-127682761D01*
X54244952Y-127730380D01*
X54149714Y-127730380D01*
X55435428Y-127063714D02*
X55435428Y-127730380D01*
X55197333Y-126682761D02*
X54959238Y-127397047D01*
X55578285Y-127397047D01*
X70710380Y-178229904D02*
X71519904Y-178229904D01*
X71615142Y-178182285D01*
X71662761Y-178134666D01*
X71710380Y-178039428D01*
X71710380Y-177848952D01*
X71662761Y-177753714D01*
X71615142Y-177706095D01*
X71519904Y-177658476D01*
X70710380Y-177658476D01*
X71710380Y-176658476D02*
X71710380Y-177229904D01*
X71710380Y-176944190D02*
X70710380Y-176944190D01*
X70853238Y-177039428D01*
X70948476Y-177134666D01*
X70996095Y-177229904D01*
X86854380Y-150118857D02*
X86378190Y-150452190D01*
X86854380Y-150690285D02*
X85854380Y-150690285D01*
X85854380Y-150309333D01*
X85902000Y-150214095D01*
X85949619Y-150166476D01*
X86044857Y-150118857D01*
X86187714Y-150118857D01*
X86282952Y-150166476D01*
X86330571Y-150214095D01*
X86378190Y-150309333D01*
X86378190Y-150690285D01*
X86854380Y-149166476D02*
X86854380Y-149737904D01*
X86854380Y-149452190D02*
X85854380Y-149452190D01*
X85997238Y-149547428D01*
X86092476Y-149642666D01*
X86140095Y-149737904D01*
X85854380Y-148547428D02*
X85854380Y-148452190D01*
X85902000Y-148356952D01*
X85949619Y-148309333D01*
X86044857Y-148261714D01*
X86235333Y-148214095D01*
X86473428Y-148214095D01*
X86663904Y-148261714D01*
X86759142Y-148309333D01*
X86806761Y-148356952D01*
X86854380Y-148452190D01*
X86854380Y-148547428D01*
X86806761Y-148642666D01*
X86759142Y-148690285D01*
X86663904Y-148737904D01*
X86473428Y-148785523D01*
X86235333Y-148785523D01*
X86044857Y-148737904D01*
X85949619Y-148690285D01*
X85902000Y-148642666D01*
X85854380Y-148547428D01*
X99554380Y-149642666D02*
X99078190Y-149976000D01*
X99554380Y-150214095D02*
X98554380Y-150214095D01*
X98554380Y-149833142D01*
X98602000Y-149737904D01*
X98649619Y-149690285D01*
X98744857Y-149642666D01*
X98887714Y-149642666D01*
X98982952Y-149690285D01*
X99030571Y-149737904D01*
X99078190Y-149833142D01*
X99078190Y-150214095D01*
X99554380Y-149166476D02*
X99554380Y-148976000D01*
X99506761Y-148880761D01*
X99459142Y-148833142D01*
X99316285Y-148737904D01*
X99125809Y-148690285D01*
X98744857Y-148690285D01*
X98649619Y-148737904D01*
X98602000Y-148785523D01*
X98554380Y-148880761D01*
X98554380Y-149071238D01*
X98602000Y-149166476D01*
X98649619Y-149214095D01*
X98744857Y-149261714D01*
X98982952Y-149261714D01*
X99078190Y-149214095D01*
X99125809Y-149166476D01*
X99173428Y-149071238D01*
X99173428Y-148880761D01*
X99125809Y-148785523D01*
X99078190Y-148737904D01*
X98982952Y-148690285D01*
X65997333Y-195312380D02*
X65664000Y-194836190D01*
X65425904Y-195312380D02*
X65425904Y-194312380D01*
X65806857Y-194312380D01*
X65902095Y-194360000D01*
X65949714Y-194407619D01*
X65997333Y-194502857D01*
X65997333Y-194645714D01*
X65949714Y-194740952D01*
X65902095Y-194788571D01*
X65806857Y-194836190D01*
X65425904Y-194836190D01*
X66568761Y-194740952D02*
X66473523Y-194693333D01*
X66425904Y-194645714D01*
X66378285Y-194550476D01*
X66378285Y-194502857D01*
X66425904Y-194407619D01*
X66473523Y-194360000D01*
X66568761Y-194312380D01*
X66759238Y-194312380D01*
X66854476Y-194360000D01*
X66902095Y-194407619D01*
X66949714Y-194502857D01*
X66949714Y-194550476D01*
X66902095Y-194645714D01*
X66854476Y-194693333D01*
X66759238Y-194740952D01*
X66568761Y-194740952D01*
X66473523Y-194788571D01*
X66425904Y-194836190D01*
X66378285Y-194931428D01*
X66378285Y-195121904D01*
X66425904Y-195217142D01*
X66473523Y-195264761D01*
X66568761Y-195312380D01*
X66759238Y-195312380D01*
X66854476Y-195264761D01*
X66902095Y-195217142D01*
X66949714Y-195121904D01*
X66949714Y-194931428D01*
X66902095Y-194836190D01*
X66854476Y-194788571D01*
X66759238Y-194740952D01*
X72601333Y-156112380D02*
X72268000Y-155636190D01*
X72029904Y-156112380D02*
X72029904Y-155112380D01*
X72410857Y-155112380D01*
X72506095Y-155160000D01*
X72553714Y-155207619D01*
X72601333Y-155302857D01*
X72601333Y-155445714D01*
X72553714Y-155540952D01*
X72506095Y-155588571D01*
X72410857Y-155636190D01*
X72029904Y-155636190D01*
X72934666Y-155112380D02*
X73601333Y-155112380D01*
X73172761Y-156112380D01*
X66505333Y-175670380D02*
X66172000Y-175194190D01*
X65933904Y-175670380D02*
X65933904Y-174670380D01*
X66314857Y-174670380D01*
X66410095Y-174718000D01*
X66457714Y-174765619D01*
X66505333Y-174860857D01*
X66505333Y-175003714D01*
X66457714Y-175098952D01*
X66410095Y-175146571D01*
X66314857Y-175194190D01*
X65933904Y-175194190D01*
X67362476Y-174670380D02*
X67172000Y-174670380D01*
X67076761Y-174718000D01*
X67029142Y-174765619D01*
X66933904Y-174908476D01*
X66886285Y-175098952D01*
X66886285Y-175479904D01*
X66933904Y-175575142D01*
X66981523Y-175622761D01*
X67076761Y-175670380D01*
X67267238Y-175670380D01*
X67362476Y-175622761D01*
X67410095Y-175575142D01*
X67457714Y-175479904D01*
X67457714Y-175241809D01*
X67410095Y-175146571D01*
X67362476Y-175098952D01*
X67267238Y-175051333D01*
X67076761Y-175051333D01*
X66981523Y-175098952D01*
X66933904Y-175146571D01*
X66886285Y-175241809D01*
X65235333Y-170336380D02*
X64902000Y-169860190D01*
X64663904Y-170336380D02*
X64663904Y-169336380D01*
X65044857Y-169336380D01*
X65140095Y-169384000D01*
X65187714Y-169431619D01*
X65235333Y-169526857D01*
X65235333Y-169669714D01*
X65187714Y-169764952D01*
X65140095Y-169812571D01*
X65044857Y-169860190D01*
X64663904Y-169860190D01*
X66140095Y-169336380D02*
X65663904Y-169336380D01*
X65616285Y-169812571D01*
X65663904Y-169764952D01*
X65759142Y-169717333D01*
X65997238Y-169717333D01*
X66092476Y-169764952D01*
X66140095Y-169812571D01*
X66187714Y-169907809D01*
X66187714Y-170145904D01*
X66140095Y-170241142D01*
X66092476Y-170288761D01*
X65997238Y-170336380D01*
X65759142Y-170336380D01*
X65663904Y-170288761D01*
X65616285Y-170241142D01*
X63711333Y-165002380D02*
X63378000Y-164526190D01*
X63139904Y-165002380D02*
X63139904Y-164002380D01*
X63520857Y-164002380D01*
X63616095Y-164050000D01*
X63663714Y-164097619D01*
X63711333Y-164192857D01*
X63711333Y-164335714D01*
X63663714Y-164430952D01*
X63616095Y-164478571D01*
X63520857Y-164526190D01*
X63139904Y-164526190D01*
X64568476Y-164335714D02*
X64568476Y-165002380D01*
X64330380Y-163954761D02*
X64092285Y-164669047D01*
X64711333Y-164669047D01*
X84285333Y-170928380D02*
X83952000Y-170452190D01*
X83713904Y-170928380D02*
X83713904Y-169928380D01*
X84094857Y-169928380D01*
X84190095Y-169976000D01*
X84237714Y-170023619D01*
X84285333Y-170118857D01*
X84285333Y-170261714D01*
X84237714Y-170356952D01*
X84190095Y-170404571D01*
X84094857Y-170452190D01*
X83713904Y-170452190D01*
X84618666Y-169928380D02*
X85237714Y-169928380D01*
X84904380Y-170309333D01*
X85047238Y-170309333D01*
X85142476Y-170356952D01*
X85190095Y-170404571D01*
X85237714Y-170499809D01*
X85237714Y-170737904D01*
X85190095Y-170833142D01*
X85142476Y-170880761D01*
X85047238Y-170928380D01*
X84761523Y-170928380D01*
X84666285Y-170880761D01*
X84618666Y-170833142D01*
X83021333Y-166102380D02*
X82688000Y-165626190D01*
X82449904Y-166102380D02*
X82449904Y-165102380D01*
X82830857Y-165102380D01*
X82926095Y-165150000D01*
X82973714Y-165197619D01*
X83021333Y-165292857D01*
X83021333Y-165435714D01*
X82973714Y-165530952D01*
X82926095Y-165578571D01*
X82830857Y-165626190D01*
X82449904Y-165626190D01*
X83402285Y-165197619D02*
X83449904Y-165150000D01*
X83545142Y-165102380D01*
X83783238Y-165102380D01*
X83878476Y-165150000D01*
X83926095Y-165197619D01*
X83973714Y-165292857D01*
X83973714Y-165388095D01*
X83926095Y-165530952D01*
X83354666Y-166102380D01*
X83973714Y-166102380D01*
X81751333Y-161276380D02*
X81418000Y-160800190D01*
X81179904Y-161276380D02*
X81179904Y-160276380D01*
X81560857Y-160276380D01*
X81656095Y-160324000D01*
X81703714Y-160371619D01*
X81751333Y-160466857D01*
X81751333Y-160609714D01*
X81703714Y-160704952D01*
X81656095Y-160752571D01*
X81560857Y-160800190D01*
X81179904Y-160800190D01*
X82703714Y-161276380D02*
X82132285Y-161276380D01*
X82418000Y-161276380D02*
X82418000Y-160276380D01*
X82322761Y-160419238D01*
X82227523Y-160514476D01*
X82132285Y-160562095D01*
X90090666Y-152614380D02*
X90090666Y-153328666D01*
X90043047Y-153471523D01*
X89947809Y-153566761D01*
X89804952Y-153614380D01*
X89709714Y-153614380D01*
X91090666Y-153614380D02*
X90519238Y-153614380D01*
X90804952Y-153614380D02*
X90804952Y-152614380D01*
X90709714Y-152757238D01*
X90614476Y-152852476D01*
X90519238Y-152900095D01*
X86955333Y-193355142D02*
X86907714Y-193402761D01*
X86764857Y-193450380D01*
X86669619Y-193450380D01*
X86526761Y-193402761D01*
X86431523Y-193307523D01*
X86383904Y-193212285D01*
X86336285Y-193021809D01*
X86336285Y-192878952D01*
X86383904Y-192688476D01*
X86431523Y-192593238D01*
X86526761Y-192498000D01*
X86669619Y-192450380D01*
X86764857Y-192450380D01*
X86907714Y-192498000D01*
X86955333Y-192545619D01*
X87431523Y-193450380D02*
X87622000Y-193450380D01*
X87717238Y-193402761D01*
X87764857Y-193355142D01*
X87860095Y-193212285D01*
X87907714Y-193021809D01*
X87907714Y-192640857D01*
X87860095Y-192545619D01*
X87812476Y-192498000D01*
X87717238Y-192450380D01*
X87526761Y-192450380D01*
X87431523Y-192498000D01*
X87383904Y-192545619D01*
X87336285Y-192640857D01*
X87336285Y-192878952D01*
X87383904Y-192974190D01*
X87431523Y-193021809D01*
X87526761Y-193069428D01*
X87717238Y-193069428D01*
X87812476Y-193021809D01*
X87860095Y-192974190D01*
X87907714Y-192878952D01*
X59497142Y-136434666D02*
X59544761Y-136482285D01*
X59592380Y-136625142D01*
X59592380Y-136720380D01*
X59544761Y-136863238D01*
X59449523Y-136958476D01*
X59354285Y-137006095D01*
X59163809Y-137053714D01*
X59020952Y-137053714D01*
X58830476Y-137006095D01*
X58735238Y-136958476D01*
X58640000Y-136863238D01*
X58592380Y-136720380D01*
X58592380Y-136625142D01*
X58640000Y-136482285D01*
X58687619Y-136434666D01*
X59020952Y-135863238D02*
X58973333Y-135958476D01*
X58925714Y-136006095D01*
X58830476Y-136053714D01*
X58782857Y-136053714D01*
X58687619Y-136006095D01*
X58640000Y-135958476D01*
X58592380Y-135863238D01*
X58592380Y-135672761D01*
X58640000Y-135577523D01*
X58687619Y-135529904D01*
X58782857Y-135482285D01*
X58830476Y-135482285D01*
X58925714Y-135529904D01*
X58973333Y-135577523D01*
X59020952Y-135672761D01*
X59020952Y-135863238D01*
X59068571Y-135958476D01*
X59116190Y-136006095D01*
X59211428Y-136053714D01*
X59401904Y-136053714D01*
X59497142Y-136006095D01*
X59544761Y-135958476D01*
X59592380Y-135863238D01*
X59592380Y-135672761D01*
X59544761Y-135577523D01*
X59497142Y-135529904D01*
X59401904Y-135482285D01*
X59211428Y-135482285D01*
X59116190Y-135529904D01*
X59068571Y-135577523D01*
X59020952Y-135672761D01*
X63841333Y-152291142D02*
X63793714Y-152338761D01*
X63650857Y-152386380D01*
X63555619Y-152386380D01*
X63412761Y-152338761D01*
X63317523Y-152243523D01*
X63269904Y-152148285D01*
X63222285Y-151957809D01*
X63222285Y-151814952D01*
X63269904Y-151624476D01*
X63317523Y-151529238D01*
X63412761Y-151434000D01*
X63555619Y-151386380D01*
X63650857Y-151386380D01*
X63793714Y-151434000D01*
X63841333Y-151481619D01*
X64174666Y-151386380D02*
X64841333Y-151386380D01*
X64412761Y-152386380D01*
X79309142Y-130084666D02*
X79356761Y-130132285D01*
X79404380Y-130275142D01*
X79404380Y-130370380D01*
X79356761Y-130513238D01*
X79261523Y-130608476D01*
X79166285Y-130656095D01*
X78975809Y-130703714D01*
X78832952Y-130703714D01*
X78642476Y-130656095D01*
X78547238Y-130608476D01*
X78452000Y-130513238D01*
X78404380Y-130370380D01*
X78404380Y-130275142D01*
X78452000Y-130132285D01*
X78499619Y-130084666D01*
X78404380Y-129227523D02*
X78404380Y-129418000D01*
X78452000Y-129513238D01*
X78499619Y-129560857D01*
X78642476Y-129656095D01*
X78832952Y-129703714D01*
X79213904Y-129703714D01*
X79309142Y-129656095D01*
X79356761Y-129608476D01*
X79404380Y-129513238D01*
X79404380Y-129322761D01*
X79356761Y-129227523D01*
X79309142Y-129179904D01*
X79213904Y-129132285D01*
X78975809Y-129132285D01*
X78880571Y-129179904D01*
X78832952Y-129227523D01*
X78785333Y-129322761D01*
X78785333Y-129513238D01*
X78832952Y-129608476D01*
X78880571Y-129656095D01*
X78975809Y-129703714D01*
X94191333Y-156355142D02*
X94143714Y-156402761D01*
X94000857Y-156450380D01*
X93905619Y-156450380D01*
X93762761Y-156402761D01*
X93667523Y-156307523D01*
X93619904Y-156212285D01*
X93572285Y-156021809D01*
X93572285Y-155878952D01*
X93619904Y-155688476D01*
X93667523Y-155593238D01*
X93762761Y-155498000D01*
X93905619Y-155450380D01*
X94000857Y-155450380D01*
X94143714Y-155498000D01*
X94191333Y-155545619D01*
X95096095Y-155450380D02*
X94619904Y-155450380D01*
X94572285Y-155926571D01*
X94619904Y-155878952D01*
X94715142Y-155831333D01*
X94953238Y-155831333D01*
X95048476Y-155878952D01*
X95096095Y-155926571D01*
X95143714Y-156021809D01*
X95143714Y-156259904D01*
X95096095Y-156355142D01*
X95048476Y-156402761D01*
X94953238Y-156450380D01*
X94715142Y-156450380D01*
X94619904Y-156402761D01*
X94572285Y-156355142D01*
X79563142Y-192190666D02*
X79610761Y-192238285D01*
X79658380Y-192381142D01*
X79658380Y-192476380D01*
X79610761Y-192619238D01*
X79515523Y-192714476D01*
X79420285Y-192762095D01*
X79229809Y-192809714D01*
X79086952Y-192809714D01*
X78896476Y-192762095D01*
X78801238Y-192714476D01*
X78706000Y-192619238D01*
X78658380Y-192476380D01*
X78658380Y-192381142D01*
X78706000Y-192238285D01*
X78753619Y-192190666D01*
X78991714Y-191333523D02*
X79658380Y-191333523D01*
X78610761Y-191571619D02*
X79325047Y-191809714D01*
X79325047Y-191190666D01*
X71077333Y-166431142D02*
X71029714Y-166478761D01*
X70886857Y-166526380D01*
X70791619Y-166526380D01*
X70648761Y-166478761D01*
X70553523Y-166383523D01*
X70505904Y-166288285D01*
X70458285Y-166097809D01*
X70458285Y-165954952D01*
X70505904Y-165764476D01*
X70553523Y-165669238D01*
X70648761Y-165574000D01*
X70791619Y-165526380D01*
X70886857Y-165526380D01*
X71029714Y-165574000D01*
X71077333Y-165621619D01*
X71410666Y-165526380D02*
X72029714Y-165526380D01*
X71696380Y-165907333D01*
X71839238Y-165907333D01*
X71934476Y-165954952D01*
X71982095Y-166002571D01*
X72029714Y-166097809D01*
X72029714Y-166335904D01*
X71982095Y-166431142D01*
X71934476Y-166478761D01*
X71839238Y-166526380D01*
X71553523Y-166526380D01*
X71458285Y-166478761D01*
X71410666Y-166431142D01*
X97753333Y-185481142D02*
X97705714Y-185528761D01*
X97562857Y-185576380D01*
X97467619Y-185576380D01*
X97324761Y-185528761D01*
X97229523Y-185433523D01*
X97181904Y-185338285D01*
X97134285Y-185147809D01*
X97134285Y-185004952D01*
X97181904Y-184814476D01*
X97229523Y-184719238D01*
X97324761Y-184624000D01*
X97467619Y-184576380D01*
X97562857Y-184576380D01*
X97705714Y-184624000D01*
X97753333Y-184671619D01*
X98134285Y-184671619D02*
X98181904Y-184624000D01*
X98277142Y-184576380D01*
X98515238Y-184576380D01*
X98610476Y-184624000D01*
X98658095Y-184671619D01*
X98705714Y-184766857D01*
X98705714Y-184862095D01*
X98658095Y-185004952D01*
X98086666Y-185576380D01*
X98705714Y-185576380D01*
X97753333Y-173797142D02*
X97705714Y-173844761D01*
X97562857Y-173892380D01*
X97467619Y-173892380D01*
X97324761Y-173844761D01*
X97229523Y-173749523D01*
X97181904Y-173654285D01*
X97134285Y-173463809D01*
X97134285Y-173320952D01*
X97181904Y-173130476D01*
X97229523Y-173035238D01*
X97324761Y-172940000D01*
X97467619Y-172892380D01*
X97562857Y-172892380D01*
X97705714Y-172940000D01*
X97753333Y-172987619D01*
X98705714Y-173892380D02*
X98134285Y-173892380D01*
X98420000Y-173892380D02*
X98420000Y-172892380D01*
X98324761Y-173035238D01*
X98229523Y-173130476D01*
X98134285Y-173178095D01*
M02*
