G04 #@! TF.GenerationSoftware,KiCad,Pcbnew,(5.1.4)-1*
G04 #@! TF.CreationDate,2019-11-01T17:51:28+00:00*
G04 #@! TF.ProjectId,canbus_boiler_switch,63616e62-7573-45f6-926f-696c65725f73,rev?*
G04 #@! TF.SameCoordinates,Original*
G04 #@! TF.FileFunction,Soldermask,Bot*
G04 #@! TF.FilePolarity,Negative*
%FSLAX46Y46*%
G04 Gerber Fmt 4.6, Leading zero omitted, Abs format (unit mm)*
G04 Created by KiCad (PCBNEW (5.1.4)-1) date 2019-11-01 17:51:28*
%MOMM*%
%LPD*%
G04 APERTURE LIST*
%ADD10C,0.100000*%
G04 APERTURE END LIST*
D10*
G36*
X62398871Y-207492408D02*
G01*
X62703883Y-207618748D01*
X62978387Y-207802166D01*
X63211834Y-208035613D01*
X63395252Y-208310117D01*
X63521592Y-208615129D01*
X63586000Y-208938928D01*
X63586000Y-209269072D01*
X63521592Y-209592871D01*
X63395252Y-209897883D01*
X63211834Y-210172387D01*
X62978387Y-210405834D01*
X62703883Y-210589252D01*
X62398871Y-210715592D01*
X62075073Y-210780000D01*
X61744927Y-210780000D01*
X61583029Y-210747796D01*
X61421129Y-210715592D01*
X61116117Y-210589252D01*
X60841613Y-210405834D01*
X60608166Y-210172387D01*
X60424748Y-209897883D01*
X60298408Y-209592871D01*
X60234000Y-209269072D01*
X60234000Y-208938928D01*
X60298408Y-208615129D01*
X60424748Y-208310117D01*
X60608166Y-208035613D01*
X60841613Y-207802166D01*
X61116117Y-207618748D01*
X61421129Y-207492408D01*
X61744927Y-207428000D01*
X62075073Y-207428000D01*
X62398871Y-207492408D01*
X62398871Y-207492408D01*
G37*
G36*
X77868871Y-207492408D02*
G01*
X78173883Y-207618748D01*
X78448387Y-207802166D01*
X78681834Y-208035613D01*
X78865252Y-208310117D01*
X78991592Y-208615129D01*
X79056000Y-208938928D01*
X79056000Y-209269072D01*
X78991592Y-209592871D01*
X78865252Y-209897883D01*
X78681834Y-210172387D01*
X78448387Y-210405834D01*
X78173883Y-210589252D01*
X77868871Y-210715592D01*
X77545073Y-210780000D01*
X77214927Y-210780000D01*
X77053029Y-210747796D01*
X76891129Y-210715592D01*
X76586117Y-210589252D01*
X76311613Y-210405834D01*
X76078166Y-210172387D01*
X75894748Y-209897883D01*
X75768408Y-209592871D01*
X75704000Y-209269072D01*
X75704000Y-208938928D01*
X75768408Y-208615129D01*
X75894748Y-208310117D01*
X76078166Y-208035613D01*
X76311613Y-207802166D01*
X76586117Y-207618748D01*
X76891129Y-207492408D01*
X77214927Y-207428000D01*
X77545073Y-207428000D01*
X77868871Y-207492408D01*
X77868871Y-207492408D01*
G37*
G36*
X88028871Y-207492408D02*
G01*
X88333883Y-207618748D01*
X88608387Y-207802166D01*
X88841834Y-208035613D01*
X89025252Y-208310117D01*
X89151592Y-208615129D01*
X89216000Y-208938928D01*
X89216000Y-209269072D01*
X89151592Y-209592871D01*
X89025252Y-209897883D01*
X88841834Y-210172387D01*
X88608387Y-210405834D01*
X88333883Y-210589252D01*
X88028871Y-210715592D01*
X87705073Y-210780000D01*
X87374927Y-210780000D01*
X87213029Y-210747796D01*
X87051129Y-210715592D01*
X86746117Y-210589252D01*
X86471613Y-210405834D01*
X86238166Y-210172387D01*
X86054748Y-209897883D01*
X85928408Y-209592871D01*
X85864000Y-209269072D01*
X85864000Y-208938928D01*
X85928408Y-208615129D01*
X86054748Y-208310117D01*
X86238166Y-208035613D01*
X86471613Y-207802166D01*
X86746117Y-207618748D01*
X87051129Y-207492408D01*
X87374927Y-207428000D01*
X87705073Y-207428000D01*
X88028871Y-207492408D01*
X88028871Y-207492408D01*
G37*
G36*
X72558871Y-207492408D02*
G01*
X72863883Y-207618748D01*
X73138387Y-207802166D01*
X73371834Y-208035613D01*
X73555252Y-208310117D01*
X73681592Y-208615129D01*
X73746000Y-208938928D01*
X73746000Y-209269072D01*
X73681592Y-209592871D01*
X73555252Y-209897883D01*
X73371834Y-210172387D01*
X73138387Y-210405834D01*
X72863883Y-210589252D01*
X72558871Y-210715592D01*
X72235073Y-210780000D01*
X71904927Y-210780000D01*
X71743029Y-210747796D01*
X71581129Y-210715592D01*
X71276117Y-210589252D01*
X71001613Y-210405834D01*
X70768166Y-210172387D01*
X70584748Y-209897883D01*
X70458408Y-209592871D01*
X70394000Y-209269072D01*
X70394000Y-208938928D01*
X70458408Y-208615129D01*
X70584748Y-208310117D01*
X70768166Y-208035613D01*
X71001613Y-207802166D01*
X71276117Y-207618748D01*
X71581129Y-207492408D01*
X71904927Y-207428000D01*
X72235073Y-207428000D01*
X72558871Y-207492408D01*
X72558871Y-207492408D01*
G37*
G36*
X85876560Y-201974166D02*
G01*
X86024153Y-202035301D01*
X86156982Y-202124055D01*
X86269945Y-202237018D01*
X86358699Y-202369847D01*
X86419834Y-202517440D01*
X86451000Y-202674123D01*
X86451000Y-202833877D01*
X86419834Y-202990560D01*
X86358699Y-203138153D01*
X86269945Y-203270982D01*
X86156982Y-203383945D01*
X86024153Y-203472699D01*
X86024152Y-203472700D01*
X86024151Y-203472700D01*
X85876560Y-203533834D01*
X85719878Y-203565000D01*
X85560122Y-203565000D01*
X85403440Y-203533834D01*
X85255849Y-203472700D01*
X85255848Y-203472700D01*
X85255847Y-203472699D01*
X85123018Y-203383945D01*
X85010055Y-203270982D01*
X84921301Y-203138153D01*
X84860166Y-202990560D01*
X84829000Y-202833877D01*
X84829000Y-202674123D01*
X84860166Y-202517440D01*
X84921301Y-202369847D01*
X85010055Y-202237018D01*
X85123018Y-202124055D01*
X85255847Y-202035301D01*
X85403440Y-201974166D01*
X85560122Y-201943000D01*
X85719878Y-201943000D01*
X85876560Y-201974166D01*
X85876560Y-201974166D01*
G37*
G36*
X83336560Y-201974166D02*
G01*
X83484153Y-202035301D01*
X83616982Y-202124055D01*
X83729945Y-202237018D01*
X83818699Y-202369847D01*
X83879834Y-202517440D01*
X83911000Y-202674123D01*
X83911000Y-202833877D01*
X83879834Y-202990560D01*
X83818699Y-203138153D01*
X83729945Y-203270982D01*
X83616982Y-203383945D01*
X83484153Y-203472699D01*
X83484152Y-203472700D01*
X83484151Y-203472700D01*
X83336560Y-203533834D01*
X83179878Y-203565000D01*
X83020122Y-203565000D01*
X82863440Y-203533834D01*
X82715849Y-203472700D01*
X82715848Y-203472700D01*
X82715847Y-203472699D01*
X82583018Y-203383945D01*
X82470055Y-203270982D01*
X82381301Y-203138153D01*
X82320166Y-202990560D01*
X82289000Y-202833877D01*
X82289000Y-202674123D01*
X82320166Y-202517440D01*
X82381301Y-202369847D01*
X82470055Y-202237018D01*
X82583018Y-202124055D01*
X82715847Y-202035301D01*
X82863440Y-201974166D01*
X83020122Y-201943000D01*
X83179878Y-201943000D01*
X83336560Y-201974166D01*
X83336560Y-201974166D01*
G37*
G36*
X80796560Y-201974166D02*
G01*
X80944153Y-202035301D01*
X81076982Y-202124055D01*
X81189945Y-202237018D01*
X81278699Y-202369847D01*
X81339834Y-202517440D01*
X81371000Y-202674123D01*
X81371000Y-202833877D01*
X81339834Y-202990560D01*
X81278699Y-203138153D01*
X81189945Y-203270982D01*
X81076982Y-203383945D01*
X80944153Y-203472699D01*
X80944152Y-203472700D01*
X80944151Y-203472700D01*
X80796560Y-203533834D01*
X80639878Y-203565000D01*
X80480122Y-203565000D01*
X80323440Y-203533834D01*
X80175849Y-203472700D01*
X80175848Y-203472700D01*
X80175847Y-203472699D01*
X80043018Y-203383945D01*
X79930055Y-203270982D01*
X79841301Y-203138153D01*
X79780166Y-202990560D01*
X79749000Y-202833877D01*
X79749000Y-202674123D01*
X79780166Y-202517440D01*
X79841301Y-202369847D01*
X79930055Y-202237018D01*
X80043018Y-202124055D01*
X80175847Y-202035301D01*
X80323440Y-201974166D01*
X80480122Y-201943000D01*
X80639878Y-201943000D01*
X80796560Y-201974166D01*
X80796560Y-201974166D01*
G37*
G36*
X70406560Y-201974166D02*
G01*
X70554153Y-202035301D01*
X70686982Y-202124055D01*
X70799945Y-202237018D01*
X70888699Y-202369847D01*
X70949834Y-202517440D01*
X70981000Y-202674123D01*
X70981000Y-202833877D01*
X70949834Y-202990560D01*
X70888699Y-203138153D01*
X70799945Y-203270982D01*
X70686982Y-203383945D01*
X70554153Y-203472699D01*
X70554152Y-203472700D01*
X70554151Y-203472700D01*
X70406560Y-203533834D01*
X70249878Y-203565000D01*
X70090122Y-203565000D01*
X69933440Y-203533834D01*
X69785849Y-203472700D01*
X69785848Y-203472700D01*
X69785847Y-203472699D01*
X69653018Y-203383945D01*
X69540055Y-203270982D01*
X69451301Y-203138153D01*
X69390166Y-202990560D01*
X69359000Y-202833877D01*
X69359000Y-202674123D01*
X69390166Y-202517440D01*
X69451301Y-202369847D01*
X69540055Y-202237018D01*
X69653018Y-202124055D01*
X69785847Y-202035301D01*
X69933440Y-201974166D01*
X70090122Y-201943000D01*
X70249878Y-201943000D01*
X70406560Y-201974166D01*
X70406560Y-201974166D01*
G37*
G36*
X67866560Y-201974166D02*
G01*
X68014153Y-202035301D01*
X68146982Y-202124055D01*
X68259945Y-202237018D01*
X68348699Y-202369847D01*
X68409834Y-202517440D01*
X68441000Y-202674123D01*
X68441000Y-202833877D01*
X68409834Y-202990560D01*
X68348699Y-203138153D01*
X68259945Y-203270982D01*
X68146982Y-203383945D01*
X68014153Y-203472699D01*
X68014152Y-203472700D01*
X68014151Y-203472700D01*
X67866560Y-203533834D01*
X67709878Y-203565000D01*
X67550122Y-203565000D01*
X67393440Y-203533834D01*
X67245849Y-203472700D01*
X67245848Y-203472700D01*
X67245847Y-203472699D01*
X67113018Y-203383945D01*
X67000055Y-203270982D01*
X66911301Y-203138153D01*
X66850166Y-202990560D01*
X66819000Y-202833877D01*
X66819000Y-202674123D01*
X66850166Y-202517440D01*
X66911301Y-202369847D01*
X67000055Y-202237018D01*
X67113018Y-202124055D01*
X67245847Y-202035301D01*
X67393440Y-201974166D01*
X67550122Y-201943000D01*
X67709878Y-201943000D01*
X67866560Y-201974166D01*
X67866560Y-201974166D01*
G37*
G36*
X65326560Y-201974166D02*
G01*
X65474153Y-202035301D01*
X65606982Y-202124055D01*
X65719945Y-202237018D01*
X65808699Y-202369847D01*
X65869834Y-202517440D01*
X65901000Y-202674123D01*
X65901000Y-202833877D01*
X65869834Y-202990560D01*
X65808699Y-203138153D01*
X65719945Y-203270982D01*
X65606982Y-203383945D01*
X65474153Y-203472699D01*
X65474152Y-203472700D01*
X65474151Y-203472700D01*
X65326560Y-203533834D01*
X65169878Y-203565000D01*
X65010122Y-203565000D01*
X64853440Y-203533834D01*
X64705849Y-203472700D01*
X64705848Y-203472700D01*
X64705847Y-203472699D01*
X64573018Y-203383945D01*
X64460055Y-203270982D01*
X64371301Y-203138153D01*
X64310166Y-202990560D01*
X64279000Y-202833877D01*
X64279000Y-202674123D01*
X64310166Y-202517440D01*
X64371301Y-202369847D01*
X64460055Y-202237018D01*
X64573018Y-202124055D01*
X64705847Y-202035301D01*
X64853440Y-201974166D01*
X65010122Y-201943000D01*
X65169878Y-201943000D01*
X65326560Y-201974166D01*
X65326560Y-201974166D01*
G37*
G36*
X82066560Y-199434166D02*
G01*
X82214153Y-199495301D01*
X82346982Y-199584055D01*
X82459945Y-199697018D01*
X82548699Y-199829847D01*
X82609834Y-199977440D01*
X82641000Y-200134123D01*
X82641000Y-200293877D01*
X82609834Y-200450560D01*
X82548699Y-200598153D01*
X82459945Y-200730982D01*
X82346982Y-200843945D01*
X82214153Y-200932699D01*
X82214152Y-200932700D01*
X82214151Y-200932700D01*
X82066560Y-200993834D01*
X81909878Y-201025000D01*
X81750122Y-201025000D01*
X81593440Y-200993834D01*
X81445849Y-200932700D01*
X81445848Y-200932700D01*
X81445847Y-200932699D01*
X81313018Y-200843945D01*
X81200055Y-200730982D01*
X81111301Y-200598153D01*
X81050166Y-200450560D01*
X81019000Y-200293877D01*
X81019000Y-200134123D01*
X81050166Y-199977440D01*
X81111301Y-199829847D01*
X81200055Y-199697018D01*
X81313018Y-199584055D01*
X81445847Y-199495301D01*
X81593440Y-199434166D01*
X81750122Y-199403000D01*
X81909878Y-199403000D01*
X82066560Y-199434166D01*
X82066560Y-199434166D01*
G37*
G36*
X64631000Y-201025000D02*
G01*
X63009000Y-201025000D01*
X63009000Y-199403000D01*
X64631000Y-199403000D01*
X64631000Y-201025000D01*
X64631000Y-201025000D01*
G37*
G36*
X84606560Y-199434166D02*
G01*
X84754153Y-199495301D01*
X84886982Y-199584055D01*
X84999945Y-199697018D01*
X85088699Y-199829847D01*
X85149834Y-199977440D01*
X85181000Y-200134123D01*
X85181000Y-200293877D01*
X85149834Y-200450560D01*
X85088699Y-200598153D01*
X84999945Y-200730982D01*
X84886982Y-200843945D01*
X84754153Y-200932699D01*
X84754152Y-200932700D01*
X84754151Y-200932700D01*
X84606560Y-200993834D01*
X84449878Y-201025000D01*
X84290122Y-201025000D01*
X84133440Y-200993834D01*
X83985849Y-200932700D01*
X83985848Y-200932700D01*
X83985847Y-200932699D01*
X83853018Y-200843945D01*
X83740055Y-200730982D01*
X83651301Y-200598153D01*
X83590166Y-200450560D01*
X83559000Y-200293877D01*
X83559000Y-200134123D01*
X83590166Y-199977440D01*
X83651301Y-199829847D01*
X83740055Y-199697018D01*
X83853018Y-199584055D01*
X83985847Y-199495301D01*
X84133440Y-199434166D01*
X84290122Y-199403000D01*
X84449878Y-199403000D01*
X84606560Y-199434166D01*
X84606560Y-199434166D01*
G37*
G36*
X80101000Y-201025000D02*
G01*
X78479000Y-201025000D01*
X78479000Y-199403000D01*
X80101000Y-199403000D01*
X80101000Y-201025000D01*
X80101000Y-201025000D01*
G37*
G36*
X66596560Y-199434166D02*
G01*
X66744153Y-199495301D01*
X66876982Y-199584055D01*
X66989945Y-199697018D01*
X67078699Y-199829847D01*
X67139834Y-199977440D01*
X67171000Y-200134123D01*
X67171000Y-200293877D01*
X67139834Y-200450560D01*
X67078699Y-200598153D01*
X66989945Y-200730982D01*
X66876982Y-200843945D01*
X66744153Y-200932699D01*
X66744152Y-200932700D01*
X66744151Y-200932700D01*
X66596560Y-200993834D01*
X66439878Y-201025000D01*
X66280122Y-201025000D01*
X66123440Y-200993834D01*
X65975849Y-200932700D01*
X65975848Y-200932700D01*
X65975847Y-200932699D01*
X65843018Y-200843945D01*
X65730055Y-200730982D01*
X65641301Y-200598153D01*
X65580166Y-200450560D01*
X65549000Y-200293877D01*
X65549000Y-200134123D01*
X65580166Y-199977440D01*
X65641301Y-199829847D01*
X65730055Y-199697018D01*
X65843018Y-199584055D01*
X65975847Y-199495301D01*
X66123440Y-199434166D01*
X66280122Y-199403000D01*
X66439878Y-199403000D01*
X66596560Y-199434166D01*
X66596560Y-199434166D01*
G37*
G36*
X69136560Y-199434166D02*
G01*
X69284153Y-199495301D01*
X69416982Y-199584055D01*
X69529945Y-199697018D01*
X69618699Y-199829847D01*
X69679834Y-199977440D01*
X69711000Y-200134123D01*
X69711000Y-200293877D01*
X69679834Y-200450560D01*
X69618699Y-200598153D01*
X69529945Y-200730982D01*
X69416982Y-200843945D01*
X69284153Y-200932699D01*
X69284152Y-200932700D01*
X69284151Y-200932700D01*
X69136560Y-200993834D01*
X68979878Y-201025000D01*
X68820122Y-201025000D01*
X68663440Y-200993834D01*
X68515849Y-200932700D01*
X68515848Y-200932700D01*
X68515847Y-200932699D01*
X68383018Y-200843945D01*
X68270055Y-200730982D01*
X68181301Y-200598153D01*
X68120166Y-200450560D01*
X68089000Y-200293877D01*
X68089000Y-200134123D01*
X68120166Y-199977440D01*
X68181301Y-199829847D01*
X68270055Y-199697018D01*
X68383018Y-199584055D01*
X68515847Y-199495301D01*
X68663440Y-199434166D01*
X68820122Y-199403000D01*
X68979878Y-199403000D01*
X69136560Y-199434166D01*
X69136560Y-199434166D01*
G37*
G36*
X96064564Y-162747389D02*
G01*
X96255833Y-162826615D01*
X96255835Y-162826616D01*
X96427973Y-162941635D01*
X96574365Y-163088027D01*
X96689385Y-163260167D01*
X96768611Y-163451436D01*
X96809000Y-163654484D01*
X96809000Y-163861516D01*
X96768611Y-164064564D01*
X96689385Y-164255833D01*
X96689384Y-164255835D01*
X96574365Y-164427973D01*
X96427973Y-164574365D01*
X96255835Y-164689384D01*
X96255834Y-164689385D01*
X96255833Y-164689385D01*
X96064564Y-164768611D01*
X95861516Y-164809000D01*
X95654484Y-164809000D01*
X95451436Y-164768611D01*
X95260167Y-164689385D01*
X95260166Y-164689385D01*
X95260165Y-164689384D01*
X95088027Y-164574365D01*
X94941635Y-164427973D01*
X94826616Y-164255835D01*
X94826615Y-164255833D01*
X94747389Y-164064564D01*
X94707000Y-163861516D01*
X94707000Y-163654484D01*
X94747389Y-163451436D01*
X94826615Y-163260167D01*
X94941635Y-163088027D01*
X95088027Y-162941635D01*
X95260165Y-162826616D01*
X95260167Y-162826615D01*
X95451436Y-162747389D01*
X95654484Y-162707000D01*
X95861516Y-162707000D01*
X96064564Y-162747389D01*
X96064564Y-162747389D01*
G37*
G36*
X89564564Y-162747389D02*
G01*
X89755833Y-162826615D01*
X89755835Y-162826616D01*
X89927973Y-162941635D01*
X90074365Y-163088027D01*
X90189385Y-163260167D01*
X90268611Y-163451436D01*
X90309000Y-163654484D01*
X90309000Y-163861516D01*
X90268611Y-164064564D01*
X90189385Y-164255833D01*
X90189384Y-164255835D01*
X90074365Y-164427973D01*
X89927973Y-164574365D01*
X89755835Y-164689384D01*
X89755834Y-164689385D01*
X89755833Y-164689385D01*
X89564564Y-164768611D01*
X89361516Y-164809000D01*
X89154484Y-164809000D01*
X88951436Y-164768611D01*
X88760167Y-164689385D01*
X88760166Y-164689385D01*
X88760165Y-164689384D01*
X88588027Y-164574365D01*
X88441635Y-164427973D01*
X88326616Y-164255835D01*
X88326615Y-164255833D01*
X88247389Y-164064564D01*
X88207000Y-163861516D01*
X88207000Y-163654484D01*
X88247389Y-163451436D01*
X88326615Y-163260167D01*
X88441635Y-163088027D01*
X88588027Y-162941635D01*
X88760165Y-162826616D01*
X88760167Y-162826615D01*
X88951436Y-162747389D01*
X89154484Y-162707000D01*
X89361516Y-162707000D01*
X89564564Y-162747389D01*
X89564564Y-162747389D01*
G37*
G36*
X89564564Y-158247389D02*
G01*
X89755833Y-158326615D01*
X89755835Y-158326616D01*
X89927973Y-158441635D01*
X90074365Y-158588027D01*
X90176431Y-158740779D01*
X90189385Y-158760167D01*
X90268611Y-158951436D01*
X90309000Y-159154484D01*
X90309000Y-159361516D01*
X90268611Y-159564564D01*
X90189385Y-159755833D01*
X90189384Y-159755835D01*
X90074365Y-159927973D01*
X89927973Y-160074365D01*
X89755835Y-160189384D01*
X89755834Y-160189385D01*
X89755833Y-160189385D01*
X89564564Y-160268611D01*
X89361516Y-160309000D01*
X89154484Y-160309000D01*
X88951436Y-160268611D01*
X88760167Y-160189385D01*
X88760166Y-160189385D01*
X88760165Y-160189384D01*
X88588027Y-160074365D01*
X88441635Y-159927973D01*
X88326616Y-159755835D01*
X88326615Y-159755833D01*
X88247389Y-159564564D01*
X88207000Y-159361516D01*
X88207000Y-159154484D01*
X88247389Y-158951436D01*
X88326615Y-158760167D01*
X88339570Y-158740779D01*
X88441635Y-158588027D01*
X88588027Y-158441635D01*
X88760165Y-158326616D01*
X88760167Y-158326615D01*
X88951436Y-158247389D01*
X89154484Y-158207000D01*
X89361516Y-158207000D01*
X89564564Y-158247389D01*
X89564564Y-158247389D01*
G37*
G36*
X96064564Y-158247389D02*
G01*
X96255833Y-158326615D01*
X96255835Y-158326616D01*
X96427973Y-158441635D01*
X96574365Y-158588027D01*
X96676431Y-158740779D01*
X96689385Y-158760167D01*
X96768611Y-158951436D01*
X96809000Y-159154484D01*
X96809000Y-159361516D01*
X96768611Y-159564564D01*
X96689385Y-159755833D01*
X96689384Y-159755835D01*
X96574365Y-159927973D01*
X96427973Y-160074365D01*
X96255835Y-160189384D01*
X96255834Y-160189385D01*
X96255833Y-160189385D01*
X96064564Y-160268611D01*
X95861516Y-160309000D01*
X95654484Y-160309000D01*
X95451436Y-160268611D01*
X95260167Y-160189385D01*
X95260166Y-160189385D01*
X95260165Y-160189384D01*
X95088027Y-160074365D01*
X94941635Y-159927973D01*
X94826616Y-159755835D01*
X94826615Y-159755833D01*
X94747389Y-159564564D01*
X94707000Y-159361516D01*
X94707000Y-159154484D01*
X94747389Y-158951436D01*
X94826615Y-158760167D01*
X94839570Y-158740779D01*
X94941635Y-158588027D01*
X95088027Y-158441635D01*
X95260165Y-158326616D01*
X95260167Y-158326615D01*
X95451436Y-158247389D01*
X95654484Y-158207000D01*
X95861516Y-158207000D01*
X96064564Y-158247389D01*
X96064564Y-158247389D01*
G37*
G36*
X54974442Y-157093518D02*
G01*
X55040627Y-157100037D01*
X55210466Y-157151557D01*
X55366991Y-157235222D01*
X55402729Y-157264552D01*
X55504186Y-157347814D01*
X55587448Y-157449271D01*
X55616778Y-157485009D01*
X55700443Y-157641534D01*
X55751963Y-157811373D01*
X55769359Y-157988000D01*
X55751963Y-158164627D01*
X55700443Y-158334466D01*
X55616778Y-158490991D01*
X55587448Y-158526729D01*
X55504186Y-158628186D01*
X55402729Y-158711448D01*
X55366991Y-158740778D01*
X55210466Y-158824443D01*
X55040627Y-158875963D01*
X54974442Y-158882482D01*
X54908260Y-158889000D01*
X54819740Y-158889000D01*
X54753558Y-158882482D01*
X54687373Y-158875963D01*
X54517534Y-158824443D01*
X54361009Y-158740778D01*
X54325271Y-158711448D01*
X54223814Y-158628186D01*
X54140552Y-158526729D01*
X54111222Y-158490991D01*
X54027557Y-158334466D01*
X53976037Y-158164627D01*
X53958641Y-157988000D01*
X53976037Y-157811373D01*
X54027557Y-157641534D01*
X54111222Y-157485009D01*
X54140552Y-157449271D01*
X54223814Y-157347814D01*
X54325271Y-157264552D01*
X54361009Y-157235222D01*
X54517534Y-157151557D01*
X54687373Y-157100037D01*
X54753558Y-157093518D01*
X54819740Y-157087000D01*
X54908260Y-157087000D01*
X54974442Y-157093518D01*
X54974442Y-157093518D01*
G37*
G36*
X54974442Y-154553518D02*
G01*
X55040627Y-154560037D01*
X55210466Y-154611557D01*
X55366991Y-154695222D01*
X55402729Y-154724552D01*
X55504186Y-154807814D01*
X55587448Y-154909271D01*
X55616778Y-154945009D01*
X55700443Y-155101534D01*
X55751963Y-155271373D01*
X55769359Y-155448000D01*
X55751963Y-155624627D01*
X55700443Y-155794466D01*
X55616778Y-155950991D01*
X55587448Y-155986729D01*
X55504186Y-156088186D01*
X55402729Y-156171448D01*
X55366991Y-156200778D01*
X55210466Y-156284443D01*
X55040627Y-156335963D01*
X54974442Y-156342482D01*
X54908260Y-156349000D01*
X54819740Y-156349000D01*
X54753558Y-156342482D01*
X54687373Y-156335963D01*
X54517534Y-156284443D01*
X54361009Y-156200778D01*
X54325271Y-156171448D01*
X54223814Y-156088186D01*
X54140552Y-155986729D01*
X54111222Y-155950991D01*
X54027557Y-155794466D01*
X53976037Y-155624627D01*
X53958641Y-155448000D01*
X53976037Y-155271373D01*
X54027557Y-155101534D01*
X54111222Y-154945009D01*
X54140552Y-154909271D01*
X54223814Y-154807814D01*
X54325271Y-154724552D01*
X54361009Y-154695222D01*
X54517534Y-154611557D01*
X54687373Y-154560037D01*
X54753558Y-154553518D01*
X54819740Y-154547000D01*
X54908260Y-154547000D01*
X54974442Y-154553518D01*
X54974442Y-154553518D01*
G37*
G36*
X54974443Y-152013519D02*
G01*
X55040627Y-152020037D01*
X55210466Y-152071557D01*
X55366991Y-152155222D01*
X55402729Y-152184552D01*
X55504186Y-152267814D01*
X55587448Y-152369271D01*
X55616778Y-152405009D01*
X55700443Y-152561534D01*
X55751963Y-152731373D01*
X55769359Y-152908000D01*
X55751963Y-153084627D01*
X55700443Y-153254466D01*
X55616778Y-153410991D01*
X55587448Y-153446729D01*
X55504186Y-153548186D01*
X55402729Y-153631448D01*
X55366991Y-153660778D01*
X55210466Y-153744443D01*
X55040627Y-153795963D01*
X54974442Y-153802482D01*
X54908260Y-153809000D01*
X54819740Y-153809000D01*
X54753558Y-153802482D01*
X54687373Y-153795963D01*
X54517534Y-153744443D01*
X54361009Y-153660778D01*
X54325271Y-153631448D01*
X54223814Y-153548186D01*
X54140552Y-153446729D01*
X54111222Y-153410991D01*
X54027557Y-153254466D01*
X53976037Y-153084627D01*
X53958641Y-152908000D01*
X53976037Y-152731373D01*
X54027557Y-152561534D01*
X54111222Y-152405009D01*
X54140552Y-152369271D01*
X54223814Y-152267814D01*
X54325271Y-152184552D01*
X54361009Y-152155222D01*
X54517534Y-152071557D01*
X54687373Y-152020037D01*
X54753557Y-152013519D01*
X54819740Y-152007000D01*
X54908260Y-152007000D01*
X54974443Y-152013519D01*
X54974443Y-152013519D01*
G37*
G36*
X91325000Y-151777000D02*
G01*
X89523000Y-151777000D01*
X89523000Y-149975000D01*
X91325000Y-149975000D01*
X91325000Y-151777000D01*
X91325000Y-151777000D01*
G37*
G36*
X54974442Y-149473518D02*
G01*
X55040627Y-149480037D01*
X55210466Y-149531557D01*
X55366991Y-149615222D01*
X55402729Y-149644552D01*
X55504186Y-149727814D01*
X55587448Y-149829271D01*
X55616778Y-149865009D01*
X55700443Y-150021534D01*
X55751963Y-150191373D01*
X55769359Y-150368000D01*
X55751963Y-150544627D01*
X55700443Y-150714466D01*
X55616778Y-150870991D01*
X55587448Y-150906729D01*
X55504186Y-151008186D01*
X55402729Y-151091448D01*
X55366991Y-151120778D01*
X55210466Y-151204443D01*
X55040627Y-151255963D01*
X54974442Y-151262482D01*
X54908260Y-151269000D01*
X54819740Y-151269000D01*
X54753558Y-151262482D01*
X54687373Y-151255963D01*
X54517534Y-151204443D01*
X54361009Y-151120778D01*
X54325271Y-151091448D01*
X54223814Y-151008186D01*
X54140552Y-150906729D01*
X54111222Y-150870991D01*
X54027557Y-150714466D01*
X53976037Y-150544627D01*
X53958641Y-150368000D01*
X53976037Y-150191373D01*
X54027557Y-150021534D01*
X54111222Y-149865009D01*
X54140552Y-149829271D01*
X54223814Y-149727814D01*
X54325271Y-149644552D01*
X54361009Y-149615222D01*
X54517534Y-149531557D01*
X54687373Y-149480037D01*
X54753558Y-149473518D01*
X54819740Y-149467000D01*
X54908260Y-149467000D01*
X54974442Y-149473518D01*
X54974442Y-149473518D01*
G37*
G36*
X90534443Y-147441519D02*
G01*
X90600627Y-147448037D01*
X90770466Y-147499557D01*
X90926991Y-147583222D01*
X90962729Y-147612552D01*
X91064186Y-147695814D01*
X91147448Y-147797271D01*
X91176778Y-147833009D01*
X91260443Y-147989534D01*
X91311963Y-148159373D01*
X91329359Y-148336000D01*
X91311963Y-148512627D01*
X91260443Y-148682466D01*
X91176778Y-148838991D01*
X91147448Y-148874729D01*
X91064186Y-148976186D01*
X90962729Y-149059448D01*
X90926991Y-149088778D01*
X90770466Y-149172443D01*
X90600627Y-149223963D01*
X90534442Y-149230482D01*
X90468260Y-149237000D01*
X90379740Y-149237000D01*
X90313558Y-149230482D01*
X90247373Y-149223963D01*
X90077534Y-149172443D01*
X89921009Y-149088778D01*
X89885271Y-149059448D01*
X89783814Y-148976186D01*
X89700552Y-148874729D01*
X89671222Y-148838991D01*
X89587557Y-148682466D01*
X89536037Y-148512627D01*
X89518641Y-148336000D01*
X89536037Y-148159373D01*
X89587557Y-147989534D01*
X89671222Y-147833009D01*
X89700552Y-147797271D01*
X89783814Y-147695814D01*
X89885271Y-147612552D01*
X89921009Y-147583222D01*
X90077534Y-147499557D01*
X90247373Y-147448037D01*
X90313557Y-147441519D01*
X90379740Y-147435000D01*
X90468260Y-147435000D01*
X90534443Y-147441519D01*
X90534443Y-147441519D01*
G37*
G36*
X54974443Y-146933519D02*
G01*
X55040627Y-146940037D01*
X55210466Y-146991557D01*
X55366991Y-147075222D01*
X55402729Y-147104552D01*
X55504186Y-147187814D01*
X55587448Y-147289271D01*
X55616778Y-147325009D01*
X55700443Y-147481534D01*
X55751963Y-147651373D01*
X55769359Y-147828000D01*
X55751963Y-148004627D01*
X55700443Y-148174466D01*
X55616778Y-148330991D01*
X55612667Y-148336000D01*
X55504186Y-148468186D01*
X55402729Y-148551448D01*
X55366991Y-148580778D01*
X55210466Y-148664443D01*
X55040627Y-148715963D01*
X54974443Y-148722481D01*
X54908260Y-148729000D01*
X54819740Y-148729000D01*
X54753557Y-148722481D01*
X54687373Y-148715963D01*
X54517534Y-148664443D01*
X54361009Y-148580778D01*
X54325271Y-148551448D01*
X54223814Y-148468186D01*
X54115333Y-148336000D01*
X54111222Y-148330991D01*
X54027557Y-148174466D01*
X53976037Y-148004627D01*
X53958641Y-147828000D01*
X53976037Y-147651373D01*
X54027557Y-147481534D01*
X54111222Y-147325009D01*
X54140552Y-147289271D01*
X54223814Y-147187814D01*
X54325271Y-147104552D01*
X54361009Y-147075222D01*
X54517534Y-146991557D01*
X54687373Y-146940037D01*
X54753557Y-146933519D01*
X54819740Y-146927000D01*
X54908260Y-146927000D01*
X54974443Y-146933519D01*
X54974443Y-146933519D01*
G37*
G36*
X82351000Y-148601000D02*
G01*
X80549000Y-148601000D01*
X80549000Y-146799000D01*
X82351000Y-146799000D01*
X82351000Y-148601000D01*
X82351000Y-148601000D01*
G37*
G36*
X90534442Y-144901518D02*
G01*
X90600627Y-144908037D01*
X90770466Y-144959557D01*
X90926991Y-145043222D01*
X90962729Y-145072552D01*
X91064186Y-145155814D01*
X91147448Y-145257271D01*
X91176778Y-145293009D01*
X91260443Y-145449534D01*
X91311963Y-145619373D01*
X91329359Y-145796000D01*
X91311963Y-145972627D01*
X91260443Y-146142466D01*
X91176778Y-146298991D01*
X91147448Y-146334729D01*
X91064186Y-146436186D01*
X90962729Y-146519448D01*
X90926991Y-146548778D01*
X90770466Y-146632443D01*
X90600627Y-146683963D01*
X90534443Y-146690481D01*
X90468260Y-146697000D01*
X90379740Y-146697000D01*
X90313557Y-146690481D01*
X90247373Y-146683963D01*
X90077534Y-146632443D01*
X89921009Y-146548778D01*
X89885271Y-146519448D01*
X89783814Y-146436186D01*
X89700552Y-146334729D01*
X89671222Y-146298991D01*
X89587557Y-146142466D01*
X89536037Y-145972627D01*
X89518641Y-145796000D01*
X89536037Y-145619373D01*
X89587557Y-145449534D01*
X89671222Y-145293009D01*
X89700552Y-145257271D01*
X89783814Y-145155814D01*
X89885271Y-145072552D01*
X89921009Y-145043222D01*
X90077534Y-144959557D01*
X90247373Y-144908037D01*
X90313558Y-144901518D01*
X90379740Y-144895000D01*
X90468260Y-144895000D01*
X90534442Y-144901518D01*
X90534442Y-144901518D01*
G37*
G36*
X54974443Y-144393519D02*
G01*
X55040627Y-144400037D01*
X55210466Y-144451557D01*
X55366991Y-144535222D01*
X55402729Y-144564552D01*
X55504186Y-144647814D01*
X55587448Y-144749271D01*
X55616778Y-144785009D01*
X55700443Y-144941534D01*
X55751963Y-145111373D01*
X55769359Y-145288000D01*
X55751963Y-145464627D01*
X55700443Y-145634466D01*
X55616778Y-145790991D01*
X55587448Y-145826729D01*
X55504186Y-145928186D01*
X55421013Y-145996443D01*
X55366991Y-146040778D01*
X55210466Y-146124443D01*
X55040627Y-146175963D01*
X54974443Y-146182481D01*
X54908260Y-146189000D01*
X54819740Y-146189000D01*
X54753557Y-146182481D01*
X54687373Y-146175963D01*
X54517534Y-146124443D01*
X54361009Y-146040778D01*
X54306987Y-145996443D01*
X54223814Y-145928186D01*
X54140552Y-145826729D01*
X54111222Y-145790991D01*
X54027557Y-145634466D01*
X53976037Y-145464627D01*
X53958641Y-145288000D01*
X53976037Y-145111373D01*
X54027557Y-144941534D01*
X54111222Y-144785009D01*
X54140552Y-144749271D01*
X54223814Y-144647814D01*
X54325271Y-144564552D01*
X54361009Y-144535222D01*
X54517534Y-144451557D01*
X54687373Y-144400037D01*
X54753557Y-144393519D01*
X54819740Y-144387000D01*
X54908260Y-144387000D01*
X54974443Y-144393519D01*
X54974443Y-144393519D01*
G37*
G36*
X81560442Y-144265518D02*
G01*
X81626627Y-144272037D01*
X81796466Y-144323557D01*
X81952991Y-144407222D01*
X81988729Y-144436552D01*
X82090186Y-144519814D01*
X82173448Y-144621271D01*
X82202778Y-144657009D01*
X82286443Y-144813534D01*
X82337963Y-144983373D01*
X82355359Y-145160000D01*
X82337963Y-145336627D01*
X82286443Y-145506466D01*
X82202778Y-145662991D01*
X82173448Y-145698729D01*
X82090186Y-145800186D01*
X81988729Y-145883448D01*
X81952991Y-145912778D01*
X81796466Y-145996443D01*
X81626627Y-146047963D01*
X81560443Y-146054481D01*
X81494260Y-146061000D01*
X81405740Y-146061000D01*
X81339557Y-146054481D01*
X81273373Y-146047963D01*
X81103534Y-145996443D01*
X80947009Y-145912778D01*
X80911271Y-145883448D01*
X80809814Y-145800186D01*
X80726552Y-145698729D01*
X80697222Y-145662991D01*
X80613557Y-145506466D01*
X80562037Y-145336627D01*
X80544641Y-145160000D01*
X80562037Y-144983373D01*
X80613557Y-144813534D01*
X80697222Y-144657009D01*
X80726552Y-144621271D01*
X80809814Y-144519814D01*
X80911271Y-144436552D01*
X80947009Y-144407222D01*
X81103534Y-144323557D01*
X81273373Y-144272037D01*
X81339558Y-144265518D01*
X81405740Y-144259000D01*
X81494260Y-144259000D01*
X81560442Y-144265518D01*
X81560442Y-144265518D01*
G37*
G36*
X90534443Y-142361519D02*
G01*
X90600627Y-142368037D01*
X90770466Y-142419557D01*
X90926991Y-142503222D01*
X90962729Y-142532552D01*
X91064186Y-142615814D01*
X91147448Y-142717271D01*
X91176778Y-142753009D01*
X91260443Y-142909534D01*
X91311963Y-143079373D01*
X91329359Y-143256000D01*
X91311963Y-143432627D01*
X91260443Y-143602466D01*
X91176778Y-143758991D01*
X91147448Y-143794729D01*
X91064186Y-143896186D01*
X90962729Y-143979448D01*
X90926991Y-144008778D01*
X90770466Y-144092443D01*
X90600627Y-144143963D01*
X90534443Y-144150481D01*
X90468260Y-144157000D01*
X90379740Y-144157000D01*
X90313557Y-144150481D01*
X90247373Y-144143963D01*
X90077534Y-144092443D01*
X89921009Y-144008778D01*
X89885271Y-143979448D01*
X89783814Y-143896186D01*
X89700552Y-143794729D01*
X89671222Y-143758991D01*
X89587557Y-143602466D01*
X89536037Y-143432627D01*
X89518641Y-143256000D01*
X89536037Y-143079373D01*
X89587557Y-142909534D01*
X89671222Y-142753009D01*
X89700552Y-142717271D01*
X89783814Y-142615814D01*
X89885271Y-142532552D01*
X89921009Y-142503222D01*
X90077534Y-142419557D01*
X90247373Y-142368037D01*
X90313557Y-142361519D01*
X90379740Y-142355000D01*
X90468260Y-142355000D01*
X90534443Y-142361519D01*
X90534443Y-142361519D01*
G37*
G36*
X54974442Y-141853518D02*
G01*
X55040627Y-141860037D01*
X55210466Y-141911557D01*
X55366991Y-141995222D01*
X55402729Y-142024552D01*
X55504186Y-142107814D01*
X55587448Y-142209271D01*
X55616778Y-142245009D01*
X55700443Y-142401534D01*
X55751963Y-142571373D01*
X55769359Y-142748000D01*
X55751963Y-142924627D01*
X55700443Y-143094466D01*
X55616778Y-143250991D01*
X55587448Y-143286729D01*
X55504186Y-143388186D01*
X55421013Y-143456443D01*
X55366991Y-143500778D01*
X55210466Y-143584443D01*
X55040627Y-143635963D01*
X54974442Y-143642482D01*
X54908260Y-143649000D01*
X54819740Y-143649000D01*
X54753558Y-143642482D01*
X54687373Y-143635963D01*
X54517534Y-143584443D01*
X54361009Y-143500778D01*
X54306987Y-143456443D01*
X54223814Y-143388186D01*
X54140552Y-143286729D01*
X54111222Y-143250991D01*
X54027557Y-143094466D01*
X53976037Y-142924627D01*
X53958641Y-142748000D01*
X53976037Y-142571373D01*
X54027557Y-142401534D01*
X54111222Y-142245009D01*
X54140552Y-142209271D01*
X54223814Y-142107814D01*
X54325271Y-142024552D01*
X54361009Y-141995222D01*
X54517534Y-141911557D01*
X54687373Y-141860037D01*
X54753558Y-141853518D01*
X54819740Y-141847000D01*
X54908260Y-141847000D01*
X54974442Y-141853518D01*
X54974442Y-141853518D01*
G37*
G36*
X81560442Y-141725518D02*
G01*
X81626627Y-141732037D01*
X81796466Y-141783557D01*
X81952991Y-141867222D01*
X81988729Y-141896552D01*
X82090186Y-141979814D01*
X82173448Y-142081271D01*
X82202778Y-142117009D01*
X82286443Y-142273534D01*
X82337963Y-142443373D01*
X82355359Y-142620000D01*
X82337963Y-142796627D01*
X82286443Y-142966466D01*
X82202778Y-143122991D01*
X82173448Y-143158729D01*
X82090186Y-143260186D01*
X81988729Y-143343448D01*
X81952991Y-143372778D01*
X81796466Y-143456443D01*
X81626627Y-143507963D01*
X81560442Y-143514482D01*
X81494260Y-143521000D01*
X81405740Y-143521000D01*
X81339558Y-143514482D01*
X81273373Y-143507963D01*
X81103534Y-143456443D01*
X80947009Y-143372778D01*
X80911271Y-143343448D01*
X80809814Y-143260186D01*
X80726552Y-143158729D01*
X80697222Y-143122991D01*
X80613557Y-142966466D01*
X80562037Y-142796627D01*
X80544641Y-142620000D01*
X80562037Y-142443373D01*
X80613557Y-142273534D01*
X80697222Y-142117009D01*
X80726552Y-142081271D01*
X80809814Y-141979814D01*
X80911271Y-141896552D01*
X80947009Y-141867222D01*
X81103534Y-141783557D01*
X81273373Y-141732037D01*
X81339558Y-141725518D01*
X81405740Y-141719000D01*
X81494260Y-141719000D01*
X81560442Y-141725518D01*
X81560442Y-141725518D01*
G37*
G36*
X90534443Y-139821519D02*
G01*
X90600627Y-139828037D01*
X90770466Y-139879557D01*
X90926991Y-139963222D01*
X90962729Y-139992552D01*
X91064186Y-140075814D01*
X91147448Y-140177271D01*
X91176778Y-140213009D01*
X91260443Y-140369534D01*
X91311963Y-140539373D01*
X91329359Y-140716000D01*
X91311963Y-140892627D01*
X91260443Y-141062466D01*
X91176778Y-141218991D01*
X91147448Y-141254729D01*
X91064186Y-141356186D01*
X90962729Y-141439448D01*
X90926991Y-141468778D01*
X90770466Y-141552443D01*
X90600627Y-141603963D01*
X90534443Y-141610481D01*
X90468260Y-141617000D01*
X90379740Y-141617000D01*
X90313557Y-141610481D01*
X90247373Y-141603963D01*
X90077534Y-141552443D01*
X89921009Y-141468778D01*
X89885271Y-141439448D01*
X89783814Y-141356186D01*
X89700552Y-141254729D01*
X89671222Y-141218991D01*
X89587557Y-141062466D01*
X89536037Y-140892627D01*
X89518641Y-140716000D01*
X89536037Y-140539373D01*
X89587557Y-140369534D01*
X89671222Y-140213009D01*
X89700552Y-140177271D01*
X89783814Y-140075814D01*
X89885271Y-139992552D01*
X89921009Y-139963222D01*
X90077534Y-139879557D01*
X90247373Y-139828037D01*
X90313557Y-139821519D01*
X90379740Y-139815000D01*
X90468260Y-139815000D01*
X90534443Y-139821519D01*
X90534443Y-139821519D01*
G37*
G36*
X54974443Y-139313519D02*
G01*
X55040627Y-139320037D01*
X55210466Y-139371557D01*
X55366991Y-139455222D01*
X55402729Y-139484552D01*
X55504186Y-139567814D01*
X55587448Y-139669271D01*
X55616778Y-139705009D01*
X55700443Y-139861534D01*
X55751963Y-140031373D01*
X55769359Y-140208000D01*
X55751963Y-140384627D01*
X55700443Y-140554466D01*
X55616778Y-140710991D01*
X55587448Y-140746729D01*
X55504186Y-140848186D01*
X55421013Y-140916443D01*
X55366991Y-140960778D01*
X55210466Y-141044443D01*
X55040627Y-141095963D01*
X54974443Y-141102481D01*
X54908260Y-141109000D01*
X54819740Y-141109000D01*
X54753557Y-141102481D01*
X54687373Y-141095963D01*
X54517534Y-141044443D01*
X54361009Y-140960778D01*
X54306987Y-140916443D01*
X54223814Y-140848186D01*
X54140552Y-140746729D01*
X54111222Y-140710991D01*
X54027557Y-140554466D01*
X53976037Y-140384627D01*
X53958641Y-140208000D01*
X53976037Y-140031373D01*
X54027557Y-139861534D01*
X54111222Y-139705009D01*
X54140552Y-139669271D01*
X54223814Y-139567814D01*
X54325271Y-139484552D01*
X54361009Y-139455222D01*
X54517534Y-139371557D01*
X54687373Y-139320037D01*
X54753557Y-139313519D01*
X54819740Y-139307000D01*
X54908260Y-139307000D01*
X54974443Y-139313519D01*
X54974443Y-139313519D01*
G37*
G36*
X81560443Y-139185519D02*
G01*
X81626627Y-139192037D01*
X81796466Y-139243557D01*
X81952991Y-139327222D01*
X81988729Y-139356552D01*
X82090186Y-139439814D01*
X82173448Y-139541271D01*
X82202778Y-139577009D01*
X82286443Y-139733534D01*
X82337963Y-139903373D01*
X82355359Y-140080000D01*
X82337963Y-140256627D01*
X82286443Y-140426466D01*
X82202778Y-140582991D01*
X82173448Y-140618729D01*
X82090186Y-140720186D01*
X81988729Y-140803448D01*
X81952991Y-140832778D01*
X81796466Y-140916443D01*
X81626627Y-140967963D01*
X81560442Y-140974482D01*
X81494260Y-140981000D01*
X81405740Y-140981000D01*
X81339558Y-140974482D01*
X81273373Y-140967963D01*
X81103534Y-140916443D01*
X80947009Y-140832778D01*
X80911271Y-140803448D01*
X80809814Y-140720186D01*
X80726552Y-140618729D01*
X80697222Y-140582991D01*
X80613557Y-140426466D01*
X80562037Y-140256627D01*
X80544641Y-140080000D01*
X80562037Y-139903373D01*
X80613557Y-139733534D01*
X80697222Y-139577009D01*
X80726552Y-139541271D01*
X80809814Y-139439814D01*
X80911271Y-139356552D01*
X80947009Y-139327222D01*
X81103534Y-139243557D01*
X81273373Y-139192037D01*
X81339557Y-139185519D01*
X81405740Y-139179000D01*
X81494260Y-139179000D01*
X81560443Y-139185519D01*
X81560443Y-139185519D01*
G37*
G36*
X90534442Y-137281518D02*
G01*
X90600627Y-137288037D01*
X90770466Y-137339557D01*
X90926991Y-137423222D01*
X90962729Y-137452552D01*
X91064186Y-137535814D01*
X91147448Y-137637271D01*
X91176778Y-137673009D01*
X91260443Y-137829534D01*
X91311963Y-137999373D01*
X91329359Y-138176000D01*
X91311963Y-138352627D01*
X91260443Y-138522466D01*
X91176778Y-138678991D01*
X91147448Y-138714729D01*
X91064186Y-138816186D01*
X90962729Y-138899448D01*
X90926991Y-138928778D01*
X90770466Y-139012443D01*
X90600627Y-139063963D01*
X90534442Y-139070482D01*
X90468260Y-139077000D01*
X90379740Y-139077000D01*
X90313558Y-139070482D01*
X90247373Y-139063963D01*
X90077534Y-139012443D01*
X89921009Y-138928778D01*
X89885271Y-138899448D01*
X89783814Y-138816186D01*
X89700552Y-138714729D01*
X89671222Y-138678991D01*
X89587557Y-138522466D01*
X89536037Y-138352627D01*
X89518641Y-138176000D01*
X89536037Y-137999373D01*
X89587557Y-137829534D01*
X89671222Y-137673009D01*
X89700552Y-137637271D01*
X89783814Y-137535814D01*
X89885271Y-137452552D01*
X89921009Y-137423222D01*
X90077534Y-137339557D01*
X90247373Y-137288037D01*
X90313558Y-137281518D01*
X90379740Y-137275000D01*
X90468260Y-137275000D01*
X90534442Y-137281518D01*
X90534442Y-137281518D01*
G37*
G36*
X54974442Y-136773518D02*
G01*
X55040627Y-136780037D01*
X55210466Y-136831557D01*
X55366991Y-136915222D01*
X55402729Y-136944552D01*
X55504186Y-137027814D01*
X55587448Y-137129271D01*
X55616778Y-137165009D01*
X55700443Y-137321534D01*
X55751963Y-137491373D01*
X55769359Y-137668000D01*
X55751963Y-137844627D01*
X55700443Y-138014466D01*
X55616778Y-138170991D01*
X55587448Y-138206729D01*
X55504186Y-138308186D01*
X55421013Y-138376443D01*
X55366991Y-138420778D01*
X55210466Y-138504443D01*
X55040627Y-138555963D01*
X54974443Y-138562481D01*
X54908260Y-138569000D01*
X54819740Y-138569000D01*
X54753557Y-138562481D01*
X54687373Y-138555963D01*
X54517534Y-138504443D01*
X54361009Y-138420778D01*
X54306987Y-138376443D01*
X54223814Y-138308186D01*
X54140552Y-138206729D01*
X54111222Y-138170991D01*
X54027557Y-138014466D01*
X53976037Y-137844627D01*
X53958641Y-137668000D01*
X53976037Y-137491373D01*
X54027557Y-137321534D01*
X54111222Y-137165009D01*
X54140552Y-137129271D01*
X54223814Y-137027814D01*
X54325271Y-136944552D01*
X54361009Y-136915222D01*
X54517534Y-136831557D01*
X54687373Y-136780037D01*
X54753558Y-136773518D01*
X54819740Y-136767000D01*
X54908260Y-136767000D01*
X54974442Y-136773518D01*
X54974442Y-136773518D01*
G37*
G36*
X81560443Y-136645519D02*
G01*
X81626627Y-136652037D01*
X81796466Y-136703557D01*
X81952991Y-136787222D01*
X81988729Y-136816552D01*
X82090186Y-136899814D01*
X82173448Y-137001271D01*
X82202778Y-137037009D01*
X82286443Y-137193534D01*
X82337963Y-137363373D01*
X82355359Y-137540000D01*
X82337963Y-137716627D01*
X82286443Y-137886466D01*
X82202778Y-138042991D01*
X82173448Y-138078729D01*
X82090186Y-138180186D01*
X81988729Y-138263448D01*
X81952991Y-138292778D01*
X81796466Y-138376443D01*
X81626627Y-138427963D01*
X81560443Y-138434481D01*
X81494260Y-138441000D01*
X81405740Y-138441000D01*
X81339557Y-138434481D01*
X81273373Y-138427963D01*
X81103534Y-138376443D01*
X80947009Y-138292778D01*
X80911271Y-138263448D01*
X80809814Y-138180186D01*
X80726552Y-138078729D01*
X80697222Y-138042991D01*
X80613557Y-137886466D01*
X80562037Y-137716627D01*
X80544641Y-137540000D01*
X80562037Y-137363373D01*
X80613557Y-137193534D01*
X80697222Y-137037009D01*
X80726552Y-137001271D01*
X80809814Y-136899814D01*
X80911271Y-136816552D01*
X80947009Y-136787222D01*
X81103534Y-136703557D01*
X81273373Y-136652037D01*
X81339557Y-136645519D01*
X81405740Y-136639000D01*
X81494260Y-136639000D01*
X81560443Y-136645519D01*
X81560443Y-136645519D01*
G37*
G36*
X54974442Y-134233518D02*
G01*
X55040627Y-134240037D01*
X55210466Y-134291557D01*
X55366991Y-134375222D01*
X55402729Y-134404552D01*
X55504186Y-134487814D01*
X55587448Y-134589271D01*
X55616778Y-134625009D01*
X55700443Y-134781534D01*
X55751963Y-134951373D01*
X55769359Y-135128000D01*
X55751963Y-135304627D01*
X55700443Y-135474466D01*
X55616778Y-135630991D01*
X55587448Y-135666729D01*
X55504186Y-135768186D01*
X55421013Y-135836443D01*
X55366991Y-135880778D01*
X55210466Y-135964443D01*
X55040627Y-136015963D01*
X54974442Y-136022482D01*
X54908260Y-136029000D01*
X54819740Y-136029000D01*
X54753558Y-136022482D01*
X54687373Y-136015963D01*
X54517534Y-135964443D01*
X54361009Y-135880778D01*
X54306987Y-135836443D01*
X54223814Y-135768186D01*
X54140552Y-135666729D01*
X54111222Y-135630991D01*
X54027557Y-135474466D01*
X53976037Y-135304627D01*
X53958641Y-135128000D01*
X53976037Y-134951373D01*
X54027557Y-134781534D01*
X54111222Y-134625009D01*
X54140552Y-134589271D01*
X54223814Y-134487814D01*
X54325271Y-134404552D01*
X54361009Y-134375222D01*
X54517534Y-134291557D01*
X54687373Y-134240037D01*
X54753558Y-134233518D01*
X54819740Y-134227000D01*
X54908260Y-134227000D01*
X54974442Y-134233518D01*
X54974442Y-134233518D01*
G37*
G36*
X81560442Y-134105518D02*
G01*
X81626627Y-134112037D01*
X81796466Y-134163557D01*
X81952991Y-134247222D01*
X81988729Y-134276552D01*
X82090186Y-134359814D01*
X82173448Y-134461271D01*
X82202778Y-134497009D01*
X82286443Y-134653534D01*
X82337963Y-134823373D01*
X82355359Y-135000000D01*
X82337963Y-135176627D01*
X82286443Y-135346466D01*
X82202778Y-135502991D01*
X82173448Y-135538729D01*
X82090186Y-135640186D01*
X81988729Y-135723448D01*
X81952991Y-135752778D01*
X81796466Y-135836443D01*
X81626627Y-135887963D01*
X81560443Y-135894481D01*
X81494260Y-135901000D01*
X81405740Y-135901000D01*
X81339557Y-135894481D01*
X81273373Y-135887963D01*
X81103534Y-135836443D01*
X80947009Y-135752778D01*
X80911271Y-135723448D01*
X80809814Y-135640186D01*
X80726552Y-135538729D01*
X80697222Y-135502991D01*
X80613557Y-135346466D01*
X80562037Y-135176627D01*
X80544641Y-135000000D01*
X80562037Y-134823373D01*
X80613557Y-134653534D01*
X80697222Y-134497009D01*
X80726552Y-134461271D01*
X80809814Y-134359814D01*
X80911271Y-134276552D01*
X80947009Y-134247222D01*
X81103534Y-134163557D01*
X81273373Y-134112037D01*
X81339558Y-134105518D01*
X81405740Y-134099000D01*
X81494260Y-134099000D01*
X81560442Y-134105518D01*
X81560442Y-134105518D01*
G37*
G36*
X54974443Y-131693519D02*
G01*
X55040627Y-131700037D01*
X55210466Y-131751557D01*
X55366991Y-131835222D01*
X55402729Y-131864552D01*
X55504186Y-131947814D01*
X55587448Y-132049271D01*
X55616778Y-132085009D01*
X55700443Y-132241534D01*
X55751963Y-132411373D01*
X55769359Y-132588000D01*
X55751963Y-132764627D01*
X55700443Y-132934466D01*
X55616778Y-133090991D01*
X55587448Y-133126729D01*
X55504186Y-133228186D01*
X55402729Y-133311448D01*
X55366991Y-133340778D01*
X55210466Y-133424443D01*
X55040627Y-133475963D01*
X54974442Y-133482482D01*
X54908260Y-133489000D01*
X54819740Y-133489000D01*
X54753558Y-133482482D01*
X54687373Y-133475963D01*
X54517534Y-133424443D01*
X54361009Y-133340778D01*
X54325271Y-133311448D01*
X54223814Y-133228186D01*
X54140552Y-133126729D01*
X54111222Y-133090991D01*
X54027557Y-132934466D01*
X53976037Y-132764627D01*
X53958641Y-132588000D01*
X53976037Y-132411373D01*
X54027557Y-132241534D01*
X54111222Y-132085009D01*
X54140552Y-132049271D01*
X54223814Y-131947814D01*
X54325271Y-131864552D01*
X54361009Y-131835222D01*
X54517534Y-131751557D01*
X54687373Y-131700037D01*
X54753557Y-131693519D01*
X54819740Y-131687000D01*
X54908260Y-131687000D01*
X54974443Y-131693519D01*
X54974443Y-131693519D01*
G37*
G36*
X55765000Y-130949000D02*
G01*
X53963000Y-130949000D01*
X53963000Y-129147000D01*
X55765000Y-129147000D01*
X55765000Y-130949000D01*
X55765000Y-130949000D01*
G37*
M02*
